<?xml version="1.0" encoding="utf-8"?>
<!-- Generator: Fusion 360, Shaper Origin Export Add-In, Version 1.6.10  -->
<svg xmlns="http://www.w3.org/2000/svg" xmlns:xlink="http://www.w3.org/1999/xlink" xmlns:shaper="http://www.shapertools.com/namespaces/shaper" shaper:fusionaddin="version:1.6.10" width="4.4cm" height="1.85cm" version="1.1" x="0cm" y="0cm" viewBox="0 0 4.4 1.85" enable-background="new 0 0 4.4 1.85" xml:space="preserve"><path d="M1.8,-0.405 L1.8,-0.575 1.5,-0.575 1.1153846,-0.075 1.7,-0.075 1.7,0.075 1.7,0.245 1.5354436,0.245 1.4645564,0.245 1.3,0.245 1.3,0.075 1,0.075 0.6153846,0.575 1.2,0.575 1.2,0.725 1.2,0.895 1.0354436,0.895 0.9645564,0.895 0.8,0.895 0.8,0.725 0.5,0.725 0.25,0.725 0.08,0.725 0.08,0.795 -0.3,0.795 -0.3,0.725 -1.0105253,0.725 A0.15,0.15 338.4085045 0,1 -1,0.780198 L-1,1.125 -1.5,1.125 -1.5,0.925 A0.2,0.2 0 0,0 -1.7,0.725 L-2.2,0.725 -2.2,-0.325 -1.65,-0.325 -1.5,-0.325 -1.1,-0.325 -1.1,-0.475 A0.1,0.1 0 0,0 -1.2,-0.575 L-1.4,-0.575 -1.4,-0.725 0.7,-0.725 1.25,-0.725 1.5,-0.725 2.2,-0.725 2.2,-0.575 2.2,-0.405 2.0354436,-0.405 1.9645564,-0.405 1.8,-0.405z" transform="matrix(1,0,0,-1,2.2,1.125)" fill="rgb(0,0,0)" shaper:cutDepth="0.014" stroke-linecap="round" stroke-linejoin="round" /><path d="M-0.2375027,0.2419277 L-0.2375027,0.2419277 -0.2468231,0.2468664 -0.2556108,0.2525178 -0.2635125,0.259354 -0.2708841,0.2668994 -0.2708841,0.2668994 -0.2776189,0.2760317 -0.2836122,0.2855735 -0.288411,0.295775 -0.2925147,0.3063603 -0.2925147,0.3063603 -0.2959061,0.3192595 -0.2984657,0.3322837 -0.2997081,0.3455057 -0.3001936,0.3588414 -0.3001936,0.3588414 -0.2996909,0.3720406 -0.2984326,0.3851244 -0.2958604,0.3980074 -0.2924598,0.410764 -0.2924598,0.410764 -0.2883681,0.4211889 -0.283571,0.4312155 -0.2775583,0.4405557 -0.2707881,0.4494682 -0.2707881,0.4494682 -0.263362,0.456796 -0.2554303,0.4634264 -0.2466575,0.4688961 -0.2373809,0.4736708 -0.2373809,0.4736708 -0.226952,0.4773146 -0.2163528,0.4801021 -0.2054775,0.4815015 -0.1944407,0.4820886 -0.1944407,0.4820886 -0.1834045,0.4814899 -0.1725307,0.4800791 -0.1619345,0.4772804 -0.1515094,0.4736257 -0.1515094,0.4736257 -0.1422059,0.4688293 -0.1333999,0.4633441 -0.1254232,0.4567106 -0.1179441,0.4493879 -0.1179441,0.4493879 -0.1111149,0.4404873 -0.1050554,0.4311496 -0.1002331,0.4211093 -0.0961296,0.4106608 -0.0961296,0.4106608 -0.0927425,0.3979007 -0.0901838,0.385015 -0.0889392,0.3719299 -0.0884505,0.3587301 -0.0884505,0.3587301 -0.08895,0.3453949 -0.0902062,0.3321742 -0.0927795,0.3191528 -0.0961845,0.3062571 -0.0961845,0.3062571 -0.1003219,0.2956572 -0.1051671,0.2854523 -0.111227,0.2759255 -0.11804,0.2668191 -0.11804,0.2668191 -0.1254805,0.2592943 -0.1334417,0.2524715 -0.142274,0.2468233 -0.1516311,0.2418826 -0.1516311,0.2418826 -0.1620474,0.2381625 -0.1726408,0.235315 -0.1835219,0.2338836 -0.1945714,0.2332813 -0.1945714,0.2332813 -0.2056203,0.2338952 -0.2164999,0.2353381 -0.2270904,0.2381967 -0.2375027,0.2419277z M-0.1688606,0.2765706 L-0.1688606,0.2765706 -0.1580955,0.2843259 -0.1494017,0.2943585 -0.1494017,0.2943585 -0.1419479,0.3077532 -0.13691,0.3222419 -0.13691,0.3222419 -0.1334982,0.3403486 -0.1324872,0.3587533 -0.1324872,0.3587533 -0.1333044,0.3755161 -0.1342489,0.3837479 -0.1358366,0.3918002 -0.1382626,0.3996183 -0.1414608,0.4072209 -0.1491511,0.4220648 -0.1491511,0.4220648 -0.158466,0.4317694 -0.1634671,0.4359446 -0.1688807,0.4393073 -0.1747969,0.4416795 -0.1811234,0.4432435 -0.1944602,0.4450244 -0.1944602,0.4450244 -0.2077988,0.4432575 -0.2141269,0.4417002 -0.2200457,0.4393341 -0.2254628,0.4359771 -0.2304683,0.4318072 -0.2397933,0.4221124 -0.2397933,0.4221124 -0.2474993,0.4072766 -0.2507055,0.3996774 -0.2531397,0.3918618 -0.2547358,0.3838112 -0.255689,0.3755804 -0.2565238,0.3588185 -0.2565238,0.3588185 -0.2555322,0.3404127 -0.2521394,0.3223024 -0.2521394,0.3223024 -0.2471166,0.3078084 -0.2396769,0.2944059 -0.2396769,0.2944059 -0.2309937,0.2843642 -0.2202367,0.2765976 -0.2202367,0.2765976 -0.214096,0.2738988 -0.2077993,0.2718314 -0.2012497,0.2707885 -0.194552,0.2703455 -0.194552,0.2703455 -0.1878538,0.2707815 -0.1813031,0.2718175 -0.1750042,0.2738782 -0.1688606,0.2765706z" transform="matrix(1,0,0,-1,2.2,1.125)" fill="rgb(103,103,103)" fill-rule="nonzero" shaper:cutDepth="0.0005" stroke-linecap="round" stroke-linejoin="round" /><path d="M0.7486025,0.3373729 L0.8057977,0.2371594 0.7580913,0.2371844 0.7063975,0.3311566 0.6697003,0.3311758 0.6696509,0.2372309 0.6270821,0.2372533 0.6272082,0.4772532 0.6906001,0.4772199 0.7173429,0.4424542 0.7173429,0.4424542 0.7038875,0.4430845 0.6697591,0.4431024 0.669718,0.3649373 0.7038464,0.3649194 0.7038464,0.3649194 0.7138635,0.3653849 0.7235694,0.3669176 0.7327097,0.3703889 0.7414665,0.3751748 0.7414665,0.3751748 0.7493012,0.3845262 0.7519622,0.3897559 0.7534642,0.3954965 0.7812681,0.3593515 0.7812681,0.3593515 0.7742811,0.3521764 0.7665624,0.3460437 0.7578544,0.3413208 0.7486025,0.3373729z" transform="matrix(1,0,0,-1,2.2,1.125)" fill="rgb(103,103,103)" fill-rule="nonzero" shaper:cutDepth="0.0005" stroke-linecap="round" stroke-linejoin="round" /><path d="M0.429777,0.477357 L0.5743642,0.477281 0.5743453,0.4413177 0.4723269,0.4413713 0.4722947,0.3800869 0.5585332,0.3800416 0.5585143,0.3440783 0.4722758,0.3441236 0.4722386,0.2732979 0.5779267,0.2732424 0.5779078,0.2372791 0.4296509,0.237357 0.429777,0.477357z" transform="matrix(1,0,0,-1,2.2,1.125)" fill="rgb(103,103,103)" fill-rule="nonzero" shaper:cutDepth="0.0005" stroke-linecap="round" stroke-linejoin="round" /><path d="M0.2922309,-0.4509434 L0.2922309,-0.4509434 0.3883655,-0.3601345 0.3883655,-0.3601345 0.428068,-0.3208904 0.466077,-0.2800076 0.466077,-0.2800076 0.4803357,-0.26312 0.4939243,-0.245748 0.5063304,-0.2275211 0.5179742,-0.208743 0.5179742,-0.208743 0.5254062,-0.193706 0.5314042,-0.1782595 0.5334413,-0.1702616 0.5348611,-0.1620873 0.5366692,-0.1454444 0.5366692,-0.1454444 0.5356876,-0.1293295 0.5345551,-0.1215074 0.5326524,-0.1139678 0.5297423,-0.1067977 0.5258917,-0.0999724 0.5166117,-0.086901 0.5166117,-0.086901 0.5048865,-0.0786125 0.4987892,-0.0751043 0.4924105,-0.0723588 0.4857053,-0.0704979 0.478743,-0.0693336 0.4643899,-0.0681661 0.4643899,-0.0681661 0.4503702,-0.0694938 0.4435289,-0.070663 0.4368898,-0.0724385 0.4305006,-0.0749632 0.4243182,-0.078108 0.412298,-0.085431 0.412298,-0.085431 0.3897774,-0.1039054 0.3685903,-0.1238966 0.2833615,-0.0392804 0.2833615,-0.0392804 0.3052577,-0.0175096 0.3284405,0.0028825 0.3284405,0.0028825 0.3394514,0.0112756 0.3507951,0.0191467 0.362701,0.0261361 0.374949,0.0325889 0.374949,0.0325889 0.3874976,0.0379769 0.4002431,0.0427771 0.4133142,0.0466045 0.4265794,0.0498522 0.4265794,0.0498522 0.4561916,0.0542189 0.4860976,0.0556053 0.4860976,0.0556053 0.5068422,0.0547218 0.5273601,0.0525006 0.5474893,0.0479863 0.5673777,0.0420522 0.5673777,0.0420522 0.5846429,0.0345732 0.6012048,0.0259344 0.6165726,0.0153264 0.6312094,0.0035129 0.6312094,0.0035129 0.6439017,-0.0100001 0.6553531,-0.0243749 0.6647638,-0.0401669 0.6729656,-0.0567984 0.6729656,-0.0567984 0.679447,-0.0759883 0.6844115,-0.0954726 0.6869287,-0.1154318 0.6880195,-0.1356677 0.6880195,-0.1356677 0.6867583,-0.1540771 0.684112,-0.1722012 0.6792308,-0.1898651 0.6730468,-0.2072607 0.6730468,-0.2072607 0.6645144,-0.226059 0.6553107,-0.244498 0.6450148,-0.2623522 0.6340776,-0.2798632 0.6340776,-0.2798632 0.6083729,-0.3159293 0.580331,-0.3502113 0.580331,-0.3502113 0.5510774,-0.3829912 0.521026,-0.4150411 0.521026,-0.4150411 0.571315,-0.4097827 0.571315,-0.4097827 0.5950562,-0.4080716 0.6188448,-0.4073036 0.7166904,-0.4069507 0.7171698,-0.5398729 0.2925571,-0.5414044 0.2922309,-0.4509434z" transform="matrix(1,0,0,-1,2.2,1.125)" fill="rgb(103,103,103)" fill-rule="nonzero" shaper:cutDepth="0.0005" stroke-linecap="round" stroke-linejoin="round" /><path d="M0.2004193,0.4774775 L0.2646395,0.4774437 0.2646395,0.4774437 0.2881815,0.475736 0.2996148,0.4739502 0.3106429,0.471046 0.3211488,0.466701 0.3311898,0.461073 0.3504953,0.4476739 0.3504953,0.4476739 0.3646657,0.4277496 0.3705644,0.4173527 0.3750465,0.4064365 0.3779857,0.3949549 0.3797401,0.3830389 0.3812742,0.3584833 0.3812742,0.3584833 0.380778,0.3451345 0.3795023,0.3319069 0.3768631,0.3188912 0.3733567,0.3060104 0.3733567,0.3060104 0.3691007,0.2956492 0.3640784,0.2857512 0.3577399,0.276649 0.3505844,0.2680408 0.3505844,0.2680408 0.3424919,0.2609016 0.3339027,0.2545394 0.3244974,0.2494539 0.3146091,0.2451238 0.3146091,0.2451238 0.3028764,0.2417395 0.2910078,0.2391812 0.2789236,0.2379343 0.2667152,0.2374426 0.2002932,0.2374775 0.2004193,0.4774775z M0.2615957,0.2719407 L0.2615957,0.2719407 0.2772687,0.2731459 0.2848469,0.2744094 0.2921153,0.2764659 0.2989846,0.2795433 0.3054994,0.2835279 0.3179371,0.293012 0.3179371,0.293012 0.3272114,0.3079705 0.3310317,0.315715 0.3338819,0.3237745 0.3357151,0.3321644 0.3367747,0.3408054 0.3376045,0.3585063 0.3376045,0.3585063 0.3368091,0.3759513 0.3357581,0.3844554 0.3339233,0.3926976 0.3310568,0.4005948 0.3272011,0.4081613 0.3178217,0.4227369 0.3178217,0.4227369 0.3053118,0.4318377 0.2987825,0.4356598 0.291925,0.4386099 0.2846988,0.4405811 0.2771866,0.4417927 0.2616856,0.4429499 0.2429699,0.4429597 0.2428801,0.2719506 0.2615957,0.2719407z" transform="matrix(1,0,0,-1,2.2,1.125)" fill="rgb(103,103,103)" fill-rule="nonzero" shaper:cutDepth="0.0005" stroke-linecap="round" stroke-linejoin="round" /><path d="M-0.0403146,0.477604 L0.0033551,0.477581 0.0781465,0.3424958 0.1027069,0.2914737 0.1041748,0.291473 0.1041748,0.291473 0.1007096,0.3316583 0.1007096,0.3316583 0.0992234,0.3524613 0.0987132,0.3733107 0.0987679,0.4775309 0.1395018,0.4775095 0.1393757,0.2375095 0.095706,0.2375325 0.0209147,0.3726177 -0.0036457,0.4236397 -0.0051136,0.4236405 -0.0051136,0.4236405 -0.0016484,0.3836387 -0.0016484,0.3836387 -0.0001556,0.3631116 0.0003484,0.3425367 0.0002932,0.2375826 -0.0404407,0.237604 -0.0403146,0.477604z" transform="matrix(1,0,0,-1,2.2,1.125)" fill="rgb(103,103,103)" fill-rule="nonzero" shaper:cutDepth="0.0005" stroke-linecap="round" stroke-linejoin="round" /><path d="M-0.6050852,0.4779007 L-0.5614154,0.4778778 -0.5405616,0.3567659 -0.5405616,0.3567659 -0.5347103,0.3182307 -0.5288588,0.2800625 -0.5273909,0.2800617 -0.5273909,0.2800617 -0.5194809,0.3184062 -0.5194809,0.3184062 -0.5115708,0.3567506 -0.4821494,0.4778361 -0.4450852,0.4778167 -0.415791,0.3567003 -0.415791,0.3567003 -0.4077376,0.3187144 -0.4077376,0.3187144 -0.3996845,0.2799946 -0.3982167,0.2799938 -0.3982167,0.2799938 -0.3925083,0.318523 -0.3925083,0.318523 -0.3868002,0.3566851 -0.3658191,0.477775 -0.3250852,0.4777536 -0.3710829,0.2377777 -0.4239269,0.2378055 -0.4535853,0.3640596 -0.4535853,0.3640596 -0.4592588,0.391769 -0.4592588,0.391769 -0.4641984,0.419478 -0.4656663,0.4194788 -0.4656663,0.4194788 -0.471002,0.3917752 -0.471002,0.3917752 -0.4767046,0.3640718 -0.5057617,0.2378485 -0.5575048,0.2378757 -0.6050852,0.4779007z" transform="matrix(1,0,0,-1,2.2,1.125)" fill="rgb(103,103,103)" fill-rule="nonzero" shaper:cutDepth="0.0005" stroke-linecap="round" stroke-linejoin="round" /><path d="M-1.3,1.125 L-1,1.125 -1,0.925 -1.3,0.925 -1.3,1.125z" transform="matrix(1,0,0,-1,2.2,1.125)" fill="rgb(178,178,178)" fill-rule="nonzero" shaper:cutDepth="0.011" stroke-linecap="round" stroke-linejoin="round" /><path d="M1.8,-0.405 L2.2,-0.405 2.2,-0.575 1.8,-0.575 1.8,-0.405z" transform="matrix(1,0,0,-1,2.2,1.125)" fill="rgb(102,102,102)" fill-rule="nonzero" shaper:cutDepth="0.0004" stroke-linecap="round" stroke-linejoin="round" /><path d="M0.8,0.895 L1.2,0.895 1.2,0.725 0.8,0.725 0.8,0.895z" transform="matrix(1,0,0,-1,2.2,1.125)" fill="rgb(102,102,102)" fill-rule="nonzero" shaper:cutDepth="0.0004" stroke-linecap="round" stroke-linejoin="round" /><path d="M1.3,0.245 L1.7,0.245 1.7,0.075 1.3,0.075 1.3,0.245z" transform="matrix(1,0,0,-1,2.2,1.125)" fill="rgb(102,102,102)" fill-rule="nonzero" shaper:cutDepth="0.0004" stroke-linecap="round" stroke-linejoin="round" /><path d="M-0.3,0.795 L0.08,0.795 0.08,0.725 -0.3,0.725 -0.3,0.795z" transform="matrix(1,0,0,-1,2.2,1.125)" fill="rgb(164,164,164)" fill-rule="nonzero" shaper:cutDepth="0.009" stroke-linecap="round" stroke-linejoin="round" /><path d="M-0.6,0.0760342 A0.365,0.365 105.9007974 1,1 -0.3964384,0.075 A0.365,0.365 73.5170299 0,1 -0.6,0.0760342z" transform="matrix(1,0,0,-1,2.2,1.125)" fill="rgb(255,255,255)" stroke="rgb(0,0,0)" stroke-width="0.0010cm" stroke-linecap="round" stroke-linejoin="round" shaper:cutDepth="0.014" /><path d="M-1.4095558,0.337806 L-1.4095558,0.337806 -1.4126639,0.3162255 -1.4144902,0.2942779 -1.414988,0.272038 -1.414133,0.2498668 -1.4119619,0.2280106 -1.4085217,0.2065373 -1.4038594,0.1855102 -1.3980224,0.1649769 -1.3910589,0.1449858 -1.3830139,0.1255845 -1.3739178,0.1068152 -1.3638429,0.088732 -1.3528702,0.0713922 -1.3410811,0.054853 -1.3285568,0.0391716 -1.3153785,0.0244052 -1.3014942,0.0104841 -1.2865195,-0.002943 -1.2704789,-0.0157966 -1.2534351,-0.0279593 -1.2354507,-0.0393139 -1.2165881,-0.049743 -1.1969101,-0.0591292 -1.1764825,-0.0673603 -1.1554166,-0.0743759 -1.133846,-0.0801402 -1.1119043,-0.0846173 -1.089725,-0.0877712 -1.0674419,-0.0895663 -1.0451751,-0.0899679 -1.0226922,-0.0889753 -1,-0.0865591 A0.365,0.365 277.8734938 1,1 -1.1208738,0.6330529 A0.365,0.365 101.1965192 0,1 -1.4095558,0.337806z" transform="matrix(1,0,0,-1,2.2,1.125)" fill="rgb(255,255,255)" stroke="rgb(0,0,0)" stroke-width="0.0010cm" stroke-linecap="round" stroke-linejoin="round" shaper:cutDepth="0.014" /></svg>