M48
; DRILL file {KiCad (7.0.0)} date Tue May 23 21:59:01 2023
; FORMAT={-:-/ absolute / inch / decimal}
; #@! TF.CreationDate,2023-05-23T21:59:01+07:00
; #@! TF.GenerationSoftware,Kicad,Pcbnew,(7.0.0)
; #@! TF.FileFunction,Plated,1,2,PTH
FMAT,2
INCH
; #@! TA.AperFunction,Plated,PTH,ComponentDrill
T1C0.0394
; #@! TA.AperFunction,Plated,PTH,ViaDrill
T2C0.0433
; #@! TA.AperFunction,Plated,PTH,ComponentDrill
T3C0.0433
; #@! TA.AperFunction,Plated,PTH,ComponentDrill
T4C0.0472
%
G90
G05
T1
X1.7626Y-3.48
X1.7626Y-3.58
X1.7626Y-3.68
X1.7626Y-3.78
X1.7626Y-3.88
X1.7626Y-3.98
X1.7626Y-4.08
X1.7626Y-4.18
X1.9078Y-4.269
X2.0078Y-4.269
X2.1078Y-4.269
X2.2078Y-4.269
T2
X2.5Y-3.6
X4.9323Y-3.5323
T3
X2.4323Y-3.0823
X2.4323Y-3.2823
X3.3284Y-4.0677
X3.5264Y-4.0955
X3.7358Y-4.1003
X3.9339Y-4.1281
X4.7681Y-4.2618
X4.9681Y-4.2618
X5.3211Y-4.2601
X5.5211Y-4.2601
X6.0296Y-4.2595
X6.2296Y-4.2595
X6.2823Y-3.2323
X6.2823Y-3.4323
X6.7741Y-4.2578
X6.9741Y-4.2578
X7.8284Y-4.1469
X8.0264Y-4.1191
X8.2924Y-4.0727
X8.4904Y-4.0449
X9.2691Y-3.7381
X9.2969Y-3.9362
X9.8237Y-3.6823
X10.0237Y-3.6823
T4
X1.9039Y-2.8286
X2.1007Y-2.9113
X2.8892Y-3.5625
X3.0727Y-3.6718
X3.6602Y-3.4686
X3.8437Y-3.5779
X4.3725Y-3.7682
X4.5559Y-3.8775
X5.1273Y-3.6504
X5.3242Y-3.7331
X5.8794Y-2.9006
X5.8835Y-3.65
X6.0763Y-2.9833
X6.0803Y-3.7327
X6.6279Y-3.6509
X6.8248Y-3.7336
X7.3838Y-3.7687
X7.5902Y-3.8231
X8.0947Y-3.4699
X8.3012Y-3.5244
X8.867Y-3.5612
X9.0735Y-3.6157
X9.855Y-3.0258
X10.0519Y-3.1085
T0
M30
