%TF.GenerationSoftware,KiCad,Pcbnew,(7.0.0)*%
%TF.CreationDate,2023-05-23T21:59:03+07:00*%
%TF.ProjectId,top_keyboard_pcb,746f705f-6b65-4796-926f-6172645f7063,rev?*%
%TF.SameCoordinates,Original*%
%TF.FileFunction,Soldermask,Top*%
%TF.FilePolarity,Negative*%
%FSLAX46Y46*%
G04 Gerber Fmt 4.6, Leading zero omitted, Abs format (unit mm)*
G04 Created by KiCad (PCBNEW (7.0.0)) date 2023-05-23 21:59:03*
%MOMM*%
%LPD*%
G01*
G04 APERTURE LIST*
G04 Aperture macros list*
%AMHorizOval*
0 Thick line with rounded ends*
0 $1 width*
0 $2 $3 position (X,Y) of the first rounded end (center of the circle)*
0 $4 $5 position (X,Y) of the second rounded end (center of the circle)*
0 Add line between two ends*
20,1,$1,$2,$3,$4,$5,0*
0 Add two circle primitives to create the rounded ends*
1,1,$1,$2,$3*
1,1,$1,$4,$5*%
%AMRotRect*
0 Rectangle, with rotation*
0 The origin of the aperture is its center*
0 $1 length*
0 $2 width*
0 $3 Rotation angle, in degrees counterclockwise*
0 Add horizontal line*
21,1,$1,$2,0,0,$3*%
G04 Aperture macros list end*
%ADD10C,1.250000*%
%ADD11C,3.450000*%
%ADD12C,1.900000*%
%ADD13RotRect,2.200000X2.200000X8.000000*%
%ADD14HorizOval,2.200000X0.000000X0.000000X0.000000X0.000000X0*%
%ADD15R,2.200000X2.200000*%
%ADD16O,2.200000X2.200000*%
%ADD17C,3.200000*%
%ADD18RotRect,2.200000X2.200000X352.000000*%
%ADD19HorizOval,2.200000X0.000000X0.000000X0.000000X0.000000X0*%
%ADD20R,1.700000X1.700000*%
%ADD21O,1.700000X1.700000*%
%ADD22RotRect,2.200000X2.200000X98.000000*%
%ADD23HorizOval,2.200000X0.000000X0.000000X0.000000X0.000000X0*%
G04 APERTURE END LIST*
D10*
%TO.C,SW12*%
X250318013Y-76855871D03*
X255318013Y-78955871D03*
D11*
X250318013Y-82755871D03*
D12*
X244818013Y-82755871D03*
X255818013Y-82755871D03*
%TD*%
D10*
%TO.C,SW11*%
X225222533Y-90455484D03*
X230466137Y-91839182D03*
D11*
X226043654Y-96298066D03*
D12*
X220597180Y-97063518D03*
X231490128Y-95532614D03*
%TD*%
D10*
%TO.C,SW10*%
X205606409Y-88136010D03*
X210850013Y-89519708D03*
D11*
X206427530Y-93978592D03*
D12*
X200981056Y-94744044D03*
X211874004Y-93213140D03*
%TD*%
D10*
%TO.C,SW9*%
X187547645Y-95724004D03*
X192791249Y-97107702D03*
D11*
X188368766Y-101566586D03*
D12*
X182922292Y-102332038D03*
X193815240Y-100801134D03*
%TD*%
D10*
%TO.C,SW8*%
X168349289Y-92732872D03*
X173349289Y-94832872D03*
D11*
X168349289Y-98632872D03*
D12*
X162849289Y-98632872D03*
X173849289Y-98632872D03*
%TD*%
D10*
%TO.C,SW7*%
X149440000Y-92710000D03*
X154440000Y-94810000D03*
D11*
X149440000Y-98610000D03*
D12*
X143940000Y-98610000D03*
X154940000Y-98610000D03*
%TD*%
D10*
%TO.C,SW6*%
X149337293Y-73675443D03*
X154337293Y-75775443D03*
D11*
X149337293Y-79575443D03*
D12*
X143837293Y-79575443D03*
X154837293Y-79575443D03*
%TD*%
D10*
%TO.C,SW5*%
X130234050Y-92720077D03*
X135234050Y-94820077D03*
D11*
X130234050Y-98620077D03*
D12*
X124734050Y-98620077D03*
X135734050Y-98620077D03*
%TD*%
D10*
%TO.C,SW4*%
X111061224Y-95712107D03*
X115720301Y-98487536D03*
D11*
X110240103Y-101554689D03*
D12*
X104793629Y-100789237D03*
X115686577Y-102320141D03*
%TD*%
D10*
%TO.C,SW3*%
X92969914Y-88102073D03*
X97628991Y-90877502D03*
D11*
X92148793Y-93944655D03*
D12*
X86702319Y-93179203D03*
X97595267Y-94710107D03*
%TD*%
D10*
%TO.C,SW2*%
X73386925Y-90487817D03*
X78046002Y-93263246D03*
D11*
X72565804Y-96330399D03*
D12*
X67119330Y-95564947D03*
X78012278Y-97095851D03*
%TD*%
D10*
%TO.C,SW1*%
X48358179Y-71845939D03*
X53358179Y-73945939D03*
D11*
X48358179Y-77745939D03*
D12*
X42858179Y-77745939D03*
X53858179Y-77745939D03*
%TD*%
D13*
%TO.C,D11*%
X198840935Y-105330895D03*
D14*
X203871497Y-104623896D03*
%TD*%
D15*
%TO.C,D6*%
X153151709Y-108191406D03*
D16*
X158231709Y-108191406D03*
%TD*%
D17*
%TO.C,H2*%
X249740000Y-104960000D03*
%TD*%
D15*
%TO.C,D12*%
X249522182Y-93529999D03*
D16*
X254602182Y-93529999D03*
%TD*%
D18*
%TO.C,D2*%
X94889932Y-104147272D03*
D19*
X99920494Y-104854271D03*
%TD*%
D20*
%TO.C,J2*%
X44769930Y-88392111D03*
D21*
X44769930Y-90932111D03*
X44769930Y-93472111D03*
X44769930Y-96012111D03*
X44769930Y-98552111D03*
X44769930Y-101092111D03*
X44769930Y-103632111D03*
X44769930Y-106172111D03*
%TD*%
D15*
%TO.C,D7*%
X135155534Y-108206133D03*
D16*
X140235534Y-108206133D03*
%TD*%
D13*
%TO.C,D9*%
X210625696Y-103447326D03*
D14*
X215656258Y-102740327D03*
%TD*%
D18*
%TO.C,D1*%
X84540934Y-103319103D03*
D19*
X89571496Y-104026102D03*
%TD*%
D15*
%TO.C,D4*%
X121110802Y-108250313D03*
D16*
X126190802Y-108250313D03*
%TD*%
D17*
%TO.C,H3*%
X111310000Y-75750000D03*
%TD*%
D20*
%TO.C,J1*%
X56077011Y-108433431D03*
D21*
X53537011Y-108433431D03*
X50997011Y-108433431D03*
X48457011Y-108433431D03*
%TD*%
D17*
%TO.C,H4*%
X206560000Y-75750000D03*
%TD*%
D15*
%TO.C,D8*%
X172060946Y-108147226D03*
D16*
X177140946Y-108147226D03*
%TD*%
D17*
%TO.C,H1*%
X56700000Y-96070000D03*
%TD*%
D15*
%TO.C,D3*%
X61779999Y-83369999D03*
D16*
X61779999Y-78289999D03*
%TD*%
D22*
%TO.C,D10*%
X236140895Y-99979064D03*
D23*
X235433896Y-94948502D03*
%TD*%
D15*
%TO.C,D5*%
X159569999Y-87179999D03*
D16*
X159569999Y-82099999D03*
%TD*%
M02*
