%TF.GenerationSoftware,KiCad,Pcbnew,(7.0.0)*%
%TF.CreationDate,2023-05-23T21:59:03+07:00*%
%TF.ProjectId,top_keyboard_pcb,746f705f-6b65-4796-926f-6172645f7063,rev?*%
%TF.SameCoordinates,Original*%
%TF.FileFunction,Copper,L1,Top*%
%TF.FilePolarity,Positive*%
%FSLAX46Y46*%
G04 Gerber Fmt 4.6, Leading zero omitted, Abs format (unit mm)*
G04 Created by KiCad (PCBNEW (7.0.0)) date 2023-05-23 21:59:03*
%MOMM*%
%LPD*%
G01*
G04 APERTURE LIST*
G04 Aperture macros list*
%AMHorizOval*
0 Thick line with rounded ends*
0 $1 width*
0 $2 $3 position (X,Y) of the first rounded end (center of the circle)*
0 $4 $5 position (X,Y) of the second rounded end (center of the circle)*
0 Add line between two ends*
20,1,$1,$2,$3,$4,$5,0*
0 Add two circle primitives to create the rounded ends*
1,1,$1,$2,$3*
1,1,$1,$4,$5*%
%AMRotRect*
0 Rectangle, with rotation*
0 The origin of the aperture is its center*
0 $1 length*
0 $2 width*
0 $3 Rotation angle, in degrees counterclockwise*
0 Add horizontal line*
21,1,$1,$2,0,0,$3*%
G04 Aperture macros list end*
%TA.AperFunction,ComponentPad*%
%ADD10C,2.200000*%
%TD*%
%TA.AperFunction,ComponentPad*%
%ADD11RotRect,2.200000X2.200000X8.000000*%
%TD*%
%TA.AperFunction,ComponentPad*%
%ADD12HorizOval,2.200000X0.000000X0.000000X0.000000X0.000000X0*%
%TD*%
%TA.AperFunction,ComponentPad*%
%ADD13R,2.200000X2.200000*%
%TD*%
%TA.AperFunction,ComponentPad*%
%ADD14O,2.200000X2.200000*%
%TD*%
%TA.AperFunction,ComponentPad*%
%ADD15RotRect,2.200000X2.200000X352.000000*%
%TD*%
%TA.AperFunction,ComponentPad*%
%ADD16HorizOval,2.200000X0.000000X0.000000X0.000000X0.000000X0*%
%TD*%
%TA.AperFunction,ComponentPad*%
%ADD17R,1.700000X1.700000*%
%TD*%
%TA.AperFunction,ComponentPad*%
%ADD18O,1.700000X1.700000*%
%TD*%
%TA.AperFunction,ComponentPad*%
%ADD19RotRect,2.200000X2.200000X98.000000*%
%TD*%
%TA.AperFunction,ComponentPad*%
%ADD20HorizOval,2.200000X0.000000X0.000000X0.000000X0.000000X0*%
%TD*%
%TA.AperFunction,ViaPad*%
%ADD21C,1.400000*%
%TD*%
%TA.AperFunction,Conductor*%
%ADD22C,0.500000*%
%TD*%
G04 APERTURE END LIST*
D10*
%TO.P,SW12,1,A*%
%TO.N,Net-(J2-Pin_1)*%
X250318013Y-76855871D03*
%TO.P,SW12,2,B*%
%TO.N,Net-(D12-A)*%
X255318013Y-78955871D03*
%TD*%
%TO.P,SW11,1,A*%
%TO.N,Net-(J2-Pin_1)*%
X225222533Y-90455484D03*
%TO.P,SW11,2,B*%
%TO.N,Net-(D10-A)*%
X230466137Y-91839182D03*
%TD*%
%TO.P,SW10,1,A*%
%TO.N,Net-(J2-Pin_1)*%
X205606409Y-88136010D03*
%TO.P,SW10,2,B*%
%TO.N,Net-(D9-A)*%
X210850013Y-89519708D03*
%TD*%
%TO.P,SW9,1,A*%
%TO.N,Net-(J2-Pin_1)*%
X187547645Y-95724004D03*
%TO.P,SW9,2,B*%
%TO.N,Net-(D11-A)*%
X192791249Y-97107702D03*
%TD*%
%TO.P,SW8,1,A*%
%TO.N,Net-(J2-Pin_2)*%
X168349289Y-92732872D03*
%TO.P,SW8,2,B*%
%TO.N,Net-(D8-A)*%
X173349289Y-94832872D03*
%TD*%
%TO.P,SW7,1,A*%
%TO.N,Net-(J2-Pin_2)*%
X149440000Y-92710000D03*
%TO.P,SW7,2,B*%
%TO.N,Net-(D6-A)*%
X154440000Y-94810000D03*
%TD*%
%TO.P,SW6,1,A*%
%TO.N,Net-(J2-Pin_2)*%
X149337293Y-73675443D03*
%TO.P,SW6,2,B*%
%TO.N,Net-(D5-A)*%
X154337293Y-75775443D03*
%TD*%
%TO.P,SW5,1,A*%
%TO.N,Net-(J2-Pin_2)*%
X130234050Y-92720077D03*
%TO.P,SW5,2,B*%
%TO.N,Net-(D7-A)*%
X135234050Y-94820077D03*
%TD*%
%TO.P,SW4,1,A*%
%TO.N,Net-(J2-Pin_3)*%
X111061224Y-95712107D03*
%TO.P,SW4,2,B*%
%TO.N,Net-(D4-A)*%
X115720301Y-98487536D03*
%TD*%
%TO.P,SW3,1,A*%
%TO.N,Net-(J2-Pin_3)*%
X92969914Y-88102073D03*
%TO.P,SW3,2,B*%
%TO.N,Net-(D2-A)*%
X97628991Y-90877502D03*
%TD*%
%TO.P,SW2,1,A*%
%TO.N,Net-(J2-Pin_3)*%
X73386925Y-90487817D03*
%TO.P,SW2,2,B*%
%TO.N,Net-(D1-A)*%
X78046002Y-93263246D03*
%TD*%
%TO.P,SW1,1,A*%
%TO.N,Net-(J2-Pin_3)*%
X48358179Y-71845939D03*
%TO.P,SW1,2,B*%
%TO.N,Net-(D3-A)*%
X53358179Y-73945939D03*
%TD*%
D11*
%TO.P,D11,1,K*%
%TO.N,Net-(D11-K)*%
X198840935Y-105330895D03*
D12*
%TO.P,D11,2,A*%
%TO.N,Net-(D11-A)*%
X203871497Y-104623896D03*
%TD*%
D13*
%TO.P,D6,1,K*%
%TO.N,Net-(D10-K)*%
X153151709Y-108191406D03*
D14*
%TO.P,D6,2,A*%
%TO.N,Net-(D6-A)*%
X158231709Y-108191406D03*
%TD*%
D13*
%TO.P,D12,1,K*%
%TO.N,Net-(D12-K)*%
X249522182Y-93529999D03*
D14*
%TO.P,D12,2,A*%
%TO.N,Net-(D12-A)*%
X254602182Y-93529999D03*
%TD*%
D15*
%TO.P,D2,1,K*%
%TO.N,Net-(D10-K)*%
X94889932Y-104147272D03*
D16*
%TO.P,D2,2,A*%
%TO.N,Net-(D2-A)*%
X99920494Y-104854271D03*
%TD*%
D17*
%TO.P,J2,1,Pin_1*%
%TO.N,Net-(J2-Pin_1)*%
X44769930Y-88392111D03*
D18*
%TO.P,J2,2,Pin_2*%
%TO.N,Net-(J2-Pin_2)*%
X44769930Y-90932111D03*
%TO.P,J2,3,Pin_3*%
%TO.N,Net-(J2-Pin_3)*%
X44769930Y-93472111D03*
%TO.P,J2,4,Pin_4*%
%TO.N,Net-(J1-Pin_1)*%
X44769930Y-96012111D03*
%TO.P,J2,5,Pin_5*%
%TO.N,Net-(D11-K)*%
X44769930Y-98552111D03*
%TO.P,J2,6,Pin_6*%
%TO.N,Net-(D1-K)*%
X44769930Y-101092111D03*
%TO.P,J2,7,Pin_7*%
%TO.N,Net-(D10-K)*%
X44769930Y-103632111D03*
%TO.P,J2,8,Pin_8*%
%TO.N,Net-(D12-K)*%
X44769930Y-106172111D03*
%TD*%
D13*
%TO.P,D7,1,K*%
%TO.N,Net-(D11-K)*%
X135155534Y-108206133D03*
D14*
%TO.P,D7,2,A*%
%TO.N,Net-(D7-A)*%
X140235534Y-108206133D03*
%TD*%
D11*
%TO.P,D9,1,K*%
%TO.N,Net-(D1-K)*%
X210625696Y-103447326D03*
D12*
%TO.P,D9,2,A*%
%TO.N,Net-(D9-A)*%
X215656258Y-102740327D03*
%TD*%
D15*
%TO.P,D1,1,K*%
%TO.N,Net-(D1-K)*%
X84540934Y-103319103D03*
D16*
%TO.P,D1,2,A*%
%TO.N,Net-(D1-A)*%
X89571496Y-104026102D03*
%TD*%
D13*
%TO.P,D4,1,K*%
%TO.N,Net-(D12-K)*%
X121110802Y-108250313D03*
D14*
%TO.P,D4,2,A*%
%TO.N,Net-(D4-A)*%
X126190802Y-108250313D03*
%TD*%
D17*
%TO.P,J1,1,Pin_1*%
%TO.N,Net-(J1-Pin_1)*%
X56077011Y-108433431D03*
D18*
%TO.P,J1,2,Pin_2*%
%TO.N,Net-(D1-K)*%
X53537011Y-108433431D03*
%TO.P,J1,3,Pin_3*%
%TO.N,Net-(D10-K)*%
X50997011Y-108433431D03*
%TO.P,J1,4,Pin_4*%
%TO.N,Net-(D12-K)*%
X48457011Y-108433431D03*
%TD*%
D13*
%TO.P,D8,1,K*%
%TO.N,Net-(D12-K)*%
X172060946Y-108147226D03*
D14*
%TO.P,D8,2,A*%
%TO.N,Net-(D8-A)*%
X177140946Y-108147226D03*
%TD*%
D13*
%TO.P,D3,1,K*%
%TO.N,Net-(D11-K)*%
X61779999Y-83369999D03*
D14*
%TO.P,D3,2,A*%
%TO.N,Net-(D3-A)*%
X61779999Y-78289999D03*
%TD*%
D19*
%TO.P,D10,1,K*%
%TO.N,Net-(D10-K)*%
X236140895Y-99979064D03*
D20*
%TO.P,D10,2,A*%
%TO.N,Net-(D10-A)*%
X235433896Y-94948502D03*
%TD*%
D13*
%TO.P,D5,1,K*%
%TO.N,Net-(D1-K)*%
X159569999Y-87179999D03*
D14*
%TO.P,D5,2,A*%
%TO.N,Net-(D5-A)*%
X159569999Y-82099999D03*
%TD*%
D21*
%TO.N,Net-(J2-Pin_3)*%
X63500000Y-91440000D03*
%TO.N,Net-(J2-Pin_2)*%
X125280000Y-89720000D03*
%TD*%
D22*
%TO.N,Net-(J2-Pin_1)*%
X177153641Y-85330000D02*
X47832043Y-85330000D01*
X47832043Y-85330000D02*
X44769931Y-88392112D01*
X187547645Y-95724004D02*
X177153641Y-85330000D01*
%TO.N,Net-(D1-K)*%
X111021508Y-98969159D02*
X88890880Y-98969159D01*
X115190667Y-94800000D02*
X111021508Y-98969159D01*
X122250610Y-94800000D02*
X115190667Y-94800000D01*
X53537012Y-108433432D02*
X46195692Y-101092112D01*
X46195692Y-101092112D02*
X44769931Y-101092112D01*
X129870610Y-87180000D02*
X122250610Y-94800000D01*
X88890880Y-98969159D02*
X84540935Y-103319104D01*
X159570000Y-87180000D02*
X129870610Y-87180000D01*
%TO.N,Net-(D10-K)*%
X150688006Y-105727703D02*
X109097349Y-105727703D01*
X200561489Y-103338511D02*
X190401489Y-103338511D01*
X180380016Y-108770000D02*
X177951423Y-106341407D01*
X236140896Y-99979065D02*
X235670643Y-99508812D01*
X155001710Y-106341407D02*
X153151710Y-108191407D01*
X153151710Y-108191407D02*
X150688006Y-105727703D01*
X204391188Y-99508812D02*
X200561489Y-103338511D01*
X177951423Y-106341407D02*
X155001710Y-106341407D01*
X109097349Y-105727703D02*
X107325052Y-107500000D01*
X235670643Y-99508812D02*
X204391188Y-99508812D01*
X107325052Y-107500000D02*
X98242660Y-107500000D01*
X98242660Y-107500000D02*
X94889933Y-104147273D01*
X184970000Y-108770000D02*
X180380016Y-108770000D01*
X190401489Y-103338511D02*
X184970000Y-108770000D01*
%TO.N,Net-(D11-K)*%
X137005535Y-110056134D02*
X135155535Y-108206134D01*
X198840936Y-106441706D02*
X195226508Y-110056134D01*
X195226508Y-110056134D02*
X137005535Y-110056134D01*
X198840936Y-105330896D02*
X198840936Y-106441706D01*
%TO.N,Net-(J2-Pin_3)*%
X62992112Y-93472112D02*
X63500000Y-92964224D01*
X63500000Y-92964224D02*
X63500000Y-91440000D01*
X62992112Y-93472112D02*
X44769931Y-93472112D01*
%TO.N,Net-(J2-Pin_2)*%
X93912250Y-90377073D02*
X76493517Y-90377073D01*
X46227888Y-90932112D02*
X44769931Y-90932112D01*
X95612317Y-88677006D02*
X93912250Y-90377073D01*
X49158423Y-88001577D02*
X46227888Y-90932112D01*
X124237006Y-88677006D02*
X95612317Y-88677006D01*
X74118021Y-88001577D02*
X49158423Y-88001577D01*
X125280000Y-89720000D02*
X124237006Y-88677006D01*
X76493517Y-90377073D02*
X74118021Y-88001577D01*
%TO.N,Net-(J1-Pin_1)*%
X47752112Y-96012112D02*
X56077012Y-104337012D01*
X56077012Y-104337012D02*
X56077012Y-108433432D01*
X44769931Y-96012112D02*
X47752112Y-96012112D01*
%TD*%
M02*
