%TF.GenerationSoftware,KiCad,Pcbnew,(7.0.0)*%
%TF.CreationDate,2023-05-23T21:59:03+07:00*%
%TF.ProjectId,top_keyboard_pcb,746f705f-6b65-4796-926f-6172645f7063,rev?*%
%TF.SameCoordinates,Original*%
%TF.FileFunction,Legend,Top*%
%TF.FilePolarity,Positive*%
%FSLAX46Y46*%
G04 Gerber Fmt 4.6, Leading zero omitted, Abs format (unit mm)*
G04 Created by KiCad (PCBNEW (7.0.0)) date 2023-05-23 21:59:03*
%MOMM*%
%LPD*%
G01*
G04 APERTURE LIST*
%ADD10C,0.150000*%
%ADD11C,0.120000*%
G04 APERTURE END LIST*
D10*
%TO.C,SW12*%
X248508489Y-74075632D02*
X248651346Y-74123251D01*
X248651346Y-74123251D02*
X248889441Y-74123251D01*
X248889441Y-74123251D02*
X248984679Y-74075632D01*
X248984679Y-74075632D02*
X249032298Y-74028013D01*
X249032298Y-74028013D02*
X249079917Y-73932775D01*
X249079917Y-73932775D02*
X249079917Y-73837537D01*
X249079917Y-73837537D02*
X249032298Y-73742299D01*
X249032298Y-73742299D02*
X248984679Y-73694680D01*
X248984679Y-73694680D02*
X248889441Y-73647061D01*
X248889441Y-73647061D02*
X248698965Y-73599442D01*
X248698965Y-73599442D02*
X248603727Y-73551823D01*
X248603727Y-73551823D02*
X248556108Y-73504204D01*
X248556108Y-73504204D02*
X248508489Y-73408966D01*
X248508489Y-73408966D02*
X248508489Y-73313728D01*
X248508489Y-73313728D02*
X248556108Y-73218490D01*
X248556108Y-73218490D02*
X248603727Y-73170871D01*
X248603727Y-73170871D02*
X248698965Y-73123251D01*
X248698965Y-73123251D02*
X248937060Y-73123251D01*
X248937060Y-73123251D02*
X249079917Y-73170871D01*
X249413251Y-73123251D02*
X249651346Y-74123251D01*
X249651346Y-74123251D02*
X249841822Y-73408966D01*
X249841822Y-73408966D02*
X250032298Y-74123251D01*
X250032298Y-74123251D02*
X250270394Y-73123251D01*
X251175155Y-74123251D02*
X250603727Y-74123251D01*
X250889441Y-74123251D02*
X250889441Y-73123251D01*
X250889441Y-73123251D02*
X250794203Y-73266109D01*
X250794203Y-73266109D02*
X250698965Y-73361347D01*
X250698965Y-73361347D02*
X250603727Y-73408966D01*
X251556108Y-73218490D02*
X251603727Y-73170871D01*
X251603727Y-73170871D02*
X251698965Y-73123251D01*
X251698965Y-73123251D02*
X251937060Y-73123251D01*
X251937060Y-73123251D02*
X252032298Y-73170871D01*
X252032298Y-73170871D02*
X252079917Y-73218490D01*
X252079917Y-73218490D02*
X252127536Y-73313728D01*
X252127536Y-73313728D02*
X252127536Y-73408966D01*
X252127536Y-73408966D02*
X252079917Y-73551823D01*
X252079917Y-73551823D02*
X251508489Y-74123251D01*
X251508489Y-74123251D02*
X252127536Y-74123251D01*
%TO.C,SW11*%
X223043684Y-87954140D02*
X223191778Y-87981413D01*
X223191778Y-87981413D02*
X223427556Y-87948277D01*
X223427556Y-87948277D02*
X223515240Y-87887867D01*
X223515240Y-87887867D02*
X223555769Y-87834084D01*
X223555769Y-87834084D02*
X223589670Y-87733145D01*
X223589670Y-87733145D02*
X223576415Y-87638834D01*
X223576415Y-87638834D02*
X223516005Y-87551150D01*
X223516005Y-87551150D02*
X223462222Y-87510622D01*
X223462222Y-87510622D02*
X223361283Y-87476721D01*
X223361283Y-87476721D02*
X223166034Y-87456074D01*
X223166034Y-87456074D02*
X223065095Y-87422173D01*
X223065095Y-87422173D02*
X223011312Y-87381645D01*
X223011312Y-87381645D02*
X222950902Y-87293961D01*
X222950902Y-87293961D02*
X222937647Y-87199650D01*
X222937647Y-87199650D02*
X222971549Y-87098711D01*
X222971549Y-87098711D02*
X223012077Y-87044928D01*
X223012077Y-87044928D02*
X223099761Y-86984518D01*
X223099761Y-86984518D02*
X223335539Y-86951381D01*
X223335539Y-86951381D02*
X223483633Y-86978655D01*
X223807095Y-86885109D02*
X224182046Y-87842240D01*
X224182046Y-87842240D02*
X224271260Y-87108397D01*
X224271260Y-87108397D02*
X224559291Y-87789222D01*
X224559291Y-87789222D02*
X224655896Y-86765817D01*
X225691026Y-87630167D02*
X225125159Y-87709694D01*
X225408092Y-87669931D02*
X225268919Y-86679663D01*
X225268919Y-86679663D02*
X225194490Y-86834384D01*
X225194490Y-86834384D02*
X225113433Y-86941950D01*
X225113433Y-86941950D02*
X225025749Y-87002360D01*
X226634139Y-87497621D02*
X226068271Y-87577149D01*
X226351205Y-87537385D02*
X226212032Y-86547117D01*
X226212032Y-86547117D02*
X226137602Y-86701838D01*
X226137602Y-86701838D02*
X226056546Y-86809404D01*
X226056546Y-86809404D02*
X225968862Y-86869814D01*
%TO.C,SW10*%
X203427560Y-85634666D02*
X203575654Y-85661939D01*
X203575654Y-85661939D02*
X203811432Y-85628803D01*
X203811432Y-85628803D02*
X203899116Y-85568393D01*
X203899116Y-85568393D02*
X203939645Y-85514610D01*
X203939645Y-85514610D02*
X203973546Y-85413671D01*
X203973546Y-85413671D02*
X203960291Y-85319360D01*
X203960291Y-85319360D02*
X203899881Y-85231676D01*
X203899881Y-85231676D02*
X203846098Y-85191148D01*
X203846098Y-85191148D02*
X203745159Y-85157247D01*
X203745159Y-85157247D02*
X203549910Y-85136600D01*
X203549910Y-85136600D02*
X203448971Y-85102699D01*
X203448971Y-85102699D02*
X203395188Y-85062171D01*
X203395188Y-85062171D02*
X203334778Y-84974487D01*
X203334778Y-84974487D02*
X203321523Y-84880176D01*
X203321523Y-84880176D02*
X203355425Y-84779237D01*
X203355425Y-84779237D02*
X203395953Y-84725454D01*
X203395953Y-84725454D02*
X203483637Y-84665044D01*
X203483637Y-84665044D02*
X203719415Y-84631907D01*
X203719415Y-84631907D02*
X203867509Y-84659181D01*
X204190971Y-84565635D02*
X204565922Y-85522766D01*
X204565922Y-85522766D02*
X204655136Y-84788923D01*
X204655136Y-84788923D02*
X204943167Y-85469748D01*
X204943167Y-85469748D02*
X205039772Y-84446343D01*
X206074902Y-85310693D02*
X205509035Y-85390220D01*
X205791968Y-85350457D02*
X205652795Y-84360189D01*
X205652795Y-84360189D02*
X205578366Y-84514910D01*
X205578366Y-84514910D02*
X205497309Y-84622476D01*
X205497309Y-84622476D02*
X205409625Y-84682886D01*
X206548752Y-84234270D02*
X206643063Y-84221015D01*
X206643063Y-84221015D02*
X206744002Y-84254917D01*
X206744002Y-84254917D02*
X206797785Y-84295445D01*
X206797785Y-84295445D02*
X206858195Y-84383129D01*
X206858195Y-84383129D02*
X206931860Y-84565124D01*
X206931860Y-84565124D02*
X206964996Y-84800902D01*
X206964996Y-84800902D02*
X206944350Y-84996152D01*
X206944350Y-84996152D02*
X206910449Y-85097090D01*
X206910449Y-85097090D02*
X206869920Y-85150873D01*
X206869920Y-85150873D02*
X206782237Y-85211284D01*
X206782237Y-85211284D02*
X206687925Y-85224538D01*
X206687925Y-85224538D02*
X206586987Y-85190637D01*
X206586987Y-85190637D02*
X206533204Y-85150109D01*
X206533204Y-85150109D02*
X206472794Y-85062425D01*
X206472794Y-85062425D02*
X206399129Y-84880430D01*
X206399129Y-84880430D02*
X206365992Y-84644651D01*
X206365992Y-84644651D02*
X206386639Y-84449402D01*
X206386639Y-84449402D02*
X206420540Y-84348463D01*
X206420540Y-84348463D02*
X206461068Y-84294680D01*
X206461068Y-84294680D02*
X206548752Y-84234270D01*
%TO.C,SW9*%
X185840353Y-93156387D02*
X185988447Y-93183660D01*
X185988447Y-93183660D02*
X186224225Y-93150524D01*
X186224225Y-93150524D02*
X186311909Y-93090114D01*
X186311909Y-93090114D02*
X186352437Y-93036331D01*
X186352437Y-93036331D02*
X186386338Y-92935392D01*
X186386338Y-92935392D02*
X186373084Y-92841081D01*
X186373084Y-92841081D02*
X186312674Y-92753397D01*
X186312674Y-92753397D02*
X186258891Y-92712869D01*
X186258891Y-92712869D02*
X186157952Y-92678968D01*
X186157952Y-92678968D02*
X185962702Y-92658321D01*
X185962702Y-92658321D02*
X185861764Y-92624420D01*
X185861764Y-92624420D02*
X185807981Y-92583892D01*
X185807981Y-92583892D02*
X185747571Y-92496208D01*
X185747571Y-92496208D02*
X185734316Y-92401897D01*
X185734316Y-92401897D02*
X185768217Y-92300958D01*
X185768217Y-92300958D02*
X185808746Y-92247175D01*
X185808746Y-92247175D02*
X185896430Y-92186765D01*
X185896430Y-92186765D02*
X186132208Y-92153629D01*
X186132208Y-92153629D02*
X186280302Y-92180902D01*
X186603764Y-92087356D02*
X186978715Y-93044487D01*
X186978715Y-93044487D02*
X187067928Y-92310644D01*
X187067928Y-92310644D02*
X187355960Y-92991469D01*
X187355960Y-92991469D02*
X187452565Y-91968064D01*
X188016139Y-92898687D02*
X188204761Y-92872178D01*
X188204761Y-92872178D02*
X188292445Y-92811767D01*
X188292445Y-92811767D02*
X188332973Y-92757985D01*
X188332973Y-92757985D02*
X188407403Y-92603263D01*
X188407403Y-92603263D02*
X188428049Y-92408013D01*
X188428049Y-92408013D02*
X188375031Y-92030768D01*
X188375031Y-92030768D02*
X188314621Y-91943084D01*
X188314621Y-91943084D02*
X188260838Y-91902556D01*
X188260838Y-91902556D02*
X188159899Y-91868655D01*
X188159899Y-91868655D02*
X187971277Y-91895164D01*
X187971277Y-91895164D02*
X187883593Y-91955574D01*
X187883593Y-91955574D02*
X187843065Y-92009357D01*
X187843065Y-92009357D02*
X187809163Y-92110296D01*
X187809163Y-92110296D02*
X187842300Y-92346074D01*
X187842300Y-92346074D02*
X187902710Y-92433758D01*
X187902710Y-92433758D02*
X187956493Y-92474286D01*
X187956493Y-92474286D02*
X188057432Y-92508187D01*
X188057432Y-92508187D02*
X188246054Y-92481678D01*
X188246054Y-92481678D02*
X188333738Y-92421268D01*
X188333738Y-92421268D02*
X188374266Y-92367485D01*
X188374266Y-92367485D02*
X188408167Y-92266546D01*
%TO.C,SW8*%
X167015956Y-89952633D02*
X167158813Y-90000252D01*
X167158813Y-90000252D02*
X167396908Y-90000252D01*
X167396908Y-90000252D02*
X167492146Y-89952633D01*
X167492146Y-89952633D02*
X167539765Y-89905014D01*
X167539765Y-89905014D02*
X167587384Y-89809776D01*
X167587384Y-89809776D02*
X167587384Y-89714538D01*
X167587384Y-89714538D02*
X167539765Y-89619300D01*
X167539765Y-89619300D02*
X167492146Y-89571681D01*
X167492146Y-89571681D02*
X167396908Y-89524062D01*
X167396908Y-89524062D02*
X167206432Y-89476443D01*
X167206432Y-89476443D02*
X167111194Y-89428824D01*
X167111194Y-89428824D02*
X167063575Y-89381205D01*
X167063575Y-89381205D02*
X167015956Y-89285967D01*
X167015956Y-89285967D02*
X167015956Y-89190729D01*
X167015956Y-89190729D02*
X167063575Y-89095491D01*
X167063575Y-89095491D02*
X167111194Y-89047872D01*
X167111194Y-89047872D02*
X167206432Y-89000252D01*
X167206432Y-89000252D02*
X167444527Y-89000252D01*
X167444527Y-89000252D02*
X167587384Y-89047872D01*
X167920718Y-89000252D02*
X168158813Y-90000252D01*
X168158813Y-90000252D02*
X168349289Y-89285967D01*
X168349289Y-89285967D02*
X168539765Y-90000252D01*
X168539765Y-90000252D02*
X168777861Y-89000252D01*
X169301670Y-89428824D02*
X169206432Y-89381205D01*
X169206432Y-89381205D02*
X169158813Y-89333586D01*
X169158813Y-89333586D02*
X169111194Y-89238348D01*
X169111194Y-89238348D02*
X169111194Y-89190729D01*
X169111194Y-89190729D02*
X169158813Y-89095491D01*
X169158813Y-89095491D02*
X169206432Y-89047872D01*
X169206432Y-89047872D02*
X169301670Y-89000252D01*
X169301670Y-89000252D02*
X169492146Y-89000252D01*
X169492146Y-89000252D02*
X169587384Y-89047872D01*
X169587384Y-89047872D02*
X169635003Y-89095491D01*
X169635003Y-89095491D02*
X169682622Y-89190729D01*
X169682622Y-89190729D02*
X169682622Y-89238348D01*
X169682622Y-89238348D02*
X169635003Y-89333586D01*
X169635003Y-89333586D02*
X169587384Y-89381205D01*
X169587384Y-89381205D02*
X169492146Y-89428824D01*
X169492146Y-89428824D02*
X169301670Y-89428824D01*
X169301670Y-89428824D02*
X169206432Y-89476443D01*
X169206432Y-89476443D02*
X169158813Y-89524062D01*
X169158813Y-89524062D02*
X169111194Y-89619300D01*
X169111194Y-89619300D02*
X169111194Y-89809776D01*
X169111194Y-89809776D02*
X169158813Y-89905014D01*
X169158813Y-89905014D02*
X169206432Y-89952633D01*
X169206432Y-89952633D02*
X169301670Y-90000252D01*
X169301670Y-90000252D02*
X169492146Y-90000252D01*
X169492146Y-90000252D02*
X169587384Y-89952633D01*
X169587384Y-89952633D02*
X169635003Y-89905014D01*
X169635003Y-89905014D02*
X169682622Y-89809776D01*
X169682622Y-89809776D02*
X169682622Y-89619300D01*
X169682622Y-89619300D02*
X169635003Y-89524062D01*
X169635003Y-89524062D02*
X169587384Y-89476443D01*
X169587384Y-89476443D02*
X169492146Y-89428824D01*
%TO.C,SW7*%
X148106667Y-89929761D02*
X148249524Y-89977380D01*
X148249524Y-89977380D02*
X148487619Y-89977380D01*
X148487619Y-89977380D02*
X148582857Y-89929761D01*
X148582857Y-89929761D02*
X148630476Y-89882142D01*
X148630476Y-89882142D02*
X148678095Y-89786904D01*
X148678095Y-89786904D02*
X148678095Y-89691666D01*
X148678095Y-89691666D02*
X148630476Y-89596428D01*
X148630476Y-89596428D02*
X148582857Y-89548809D01*
X148582857Y-89548809D02*
X148487619Y-89501190D01*
X148487619Y-89501190D02*
X148297143Y-89453571D01*
X148297143Y-89453571D02*
X148201905Y-89405952D01*
X148201905Y-89405952D02*
X148154286Y-89358333D01*
X148154286Y-89358333D02*
X148106667Y-89263095D01*
X148106667Y-89263095D02*
X148106667Y-89167857D01*
X148106667Y-89167857D02*
X148154286Y-89072619D01*
X148154286Y-89072619D02*
X148201905Y-89025000D01*
X148201905Y-89025000D02*
X148297143Y-88977380D01*
X148297143Y-88977380D02*
X148535238Y-88977380D01*
X148535238Y-88977380D02*
X148678095Y-89025000D01*
X149011429Y-88977380D02*
X149249524Y-89977380D01*
X149249524Y-89977380D02*
X149440000Y-89263095D01*
X149440000Y-89263095D02*
X149630476Y-89977380D01*
X149630476Y-89977380D02*
X149868572Y-88977380D01*
X150154286Y-88977380D02*
X150820952Y-88977380D01*
X150820952Y-88977380D02*
X150392381Y-89977380D01*
%TO.C,SW6*%
X148003960Y-70895204D02*
X148146817Y-70942823D01*
X148146817Y-70942823D02*
X148384912Y-70942823D01*
X148384912Y-70942823D02*
X148480150Y-70895204D01*
X148480150Y-70895204D02*
X148527769Y-70847585D01*
X148527769Y-70847585D02*
X148575388Y-70752347D01*
X148575388Y-70752347D02*
X148575388Y-70657109D01*
X148575388Y-70657109D02*
X148527769Y-70561871D01*
X148527769Y-70561871D02*
X148480150Y-70514252D01*
X148480150Y-70514252D02*
X148384912Y-70466633D01*
X148384912Y-70466633D02*
X148194436Y-70419014D01*
X148194436Y-70419014D02*
X148099198Y-70371395D01*
X148099198Y-70371395D02*
X148051579Y-70323776D01*
X148051579Y-70323776D02*
X148003960Y-70228538D01*
X148003960Y-70228538D02*
X148003960Y-70133300D01*
X148003960Y-70133300D02*
X148051579Y-70038062D01*
X148051579Y-70038062D02*
X148099198Y-69990443D01*
X148099198Y-69990443D02*
X148194436Y-69942823D01*
X148194436Y-69942823D02*
X148432531Y-69942823D01*
X148432531Y-69942823D02*
X148575388Y-69990443D01*
X148908722Y-69942823D02*
X149146817Y-70942823D01*
X149146817Y-70942823D02*
X149337293Y-70228538D01*
X149337293Y-70228538D02*
X149527769Y-70942823D01*
X149527769Y-70942823D02*
X149765865Y-69942823D01*
X150575388Y-69942823D02*
X150384912Y-69942823D01*
X150384912Y-69942823D02*
X150289674Y-69990443D01*
X150289674Y-69990443D02*
X150242055Y-70038062D01*
X150242055Y-70038062D02*
X150146817Y-70180919D01*
X150146817Y-70180919D02*
X150099198Y-70371395D01*
X150099198Y-70371395D02*
X150099198Y-70752347D01*
X150099198Y-70752347D02*
X150146817Y-70847585D01*
X150146817Y-70847585D02*
X150194436Y-70895204D01*
X150194436Y-70895204D02*
X150289674Y-70942823D01*
X150289674Y-70942823D02*
X150480150Y-70942823D01*
X150480150Y-70942823D02*
X150575388Y-70895204D01*
X150575388Y-70895204D02*
X150623007Y-70847585D01*
X150623007Y-70847585D02*
X150670626Y-70752347D01*
X150670626Y-70752347D02*
X150670626Y-70514252D01*
X150670626Y-70514252D02*
X150623007Y-70419014D01*
X150623007Y-70419014D02*
X150575388Y-70371395D01*
X150575388Y-70371395D02*
X150480150Y-70323776D01*
X150480150Y-70323776D02*
X150289674Y-70323776D01*
X150289674Y-70323776D02*
X150194436Y-70371395D01*
X150194436Y-70371395D02*
X150146817Y-70419014D01*
X150146817Y-70419014D02*
X150099198Y-70514252D01*
%TO.C,SW5*%
X128900717Y-89939838D02*
X129043574Y-89987457D01*
X129043574Y-89987457D02*
X129281669Y-89987457D01*
X129281669Y-89987457D02*
X129376907Y-89939838D01*
X129376907Y-89939838D02*
X129424526Y-89892219D01*
X129424526Y-89892219D02*
X129472145Y-89796981D01*
X129472145Y-89796981D02*
X129472145Y-89701743D01*
X129472145Y-89701743D02*
X129424526Y-89606505D01*
X129424526Y-89606505D02*
X129376907Y-89558886D01*
X129376907Y-89558886D02*
X129281669Y-89511267D01*
X129281669Y-89511267D02*
X129091193Y-89463648D01*
X129091193Y-89463648D02*
X128995955Y-89416029D01*
X128995955Y-89416029D02*
X128948336Y-89368410D01*
X128948336Y-89368410D02*
X128900717Y-89273172D01*
X128900717Y-89273172D02*
X128900717Y-89177934D01*
X128900717Y-89177934D02*
X128948336Y-89082696D01*
X128948336Y-89082696D02*
X128995955Y-89035077D01*
X128995955Y-89035077D02*
X129091193Y-88987457D01*
X129091193Y-88987457D02*
X129329288Y-88987457D01*
X129329288Y-88987457D02*
X129472145Y-89035077D01*
X129805479Y-88987457D02*
X130043574Y-89987457D01*
X130043574Y-89987457D02*
X130234050Y-89273172D01*
X130234050Y-89273172D02*
X130424526Y-89987457D01*
X130424526Y-89987457D02*
X130662622Y-88987457D01*
X131519764Y-88987457D02*
X131043574Y-88987457D01*
X131043574Y-88987457D02*
X130995955Y-89463648D01*
X130995955Y-89463648D02*
X131043574Y-89416029D01*
X131043574Y-89416029D02*
X131138812Y-89368410D01*
X131138812Y-89368410D02*
X131376907Y-89368410D01*
X131376907Y-89368410D02*
X131472145Y-89416029D01*
X131472145Y-89416029D02*
X131519764Y-89463648D01*
X131519764Y-89463648D02*
X131567383Y-89558886D01*
X131567383Y-89558886D02*
X131567383Y-89796981D01*
X131567383Y-89796981D02*
X131519764Y-89892219D01*
X131519764Y-89892219D02*
X131472145Y-89939838D01*
X131472145Y-89939838D02*
X131376907Y-89987457D01*
X131376907Y-89987457D02*
X131138812Y-89987457D01*
X131138812Y-89987457D02*
X131043574Y-89939838D01*
X131043574Y-89939838D02*
X130995955Y-89892219D01*
%TO.C,SW4*%
X110127801Y-92773361D02*
X110262641Y-92840399D01*
X110262641Y-92840399D02*
X110498419Y-92873535D01*
X110498419Y-92873535D02*
X110599358Y-92839634D01*
X110599358Y-92839634D02*
X110653140Y-92799106D01*
X110653140Y-92799106D02*
X110713551Y-92711422D01*
X110713551Y-92711422D02*
X110726805Y-92617111D01*
X110726805Y-92617111D02*
X110692904Y-92516172D01*
X110692904Y-92516172D02*
X110652376Y-92462389D01*
X110652376Y-92462389D02*
X110564692Y-92401979D01*
X110564692Y-92401979D02*
X110382697Y-92328314D01*
X110382697Y-92328314D02*
X110295013Y-92267904D01*
X110295013Y-92267904D02*
X110254484Y-92214121D01*
X110254484Y-92214121D02*
X110220583Y-92113183D01*
X110220583Y-92113183D02*
X110233838Y-92018871D01*
X110233838Y-92018871D02*
X110294248Y-91931188D01*
X110294248Y-91931188D02*
X110348031Y-91890659D01*
X110348031Y-91890659D02*
X110448970Y-91856758D01*
X110448970Y-91856758D02*
X110684748Y-91889895D01*
X110684748Y-91889895D02*
X110819587Y-91956932D01*
X111156304Y-91956168D02*
X111252909Y-92979572D01*
X111252909Y-92979572D02*
X111540941Y-92298747D01*
X111540941Y-92298747D02*
X111630154Y-93032590D01*
X111630154Y-93032590D02*
X112005105Y-92075459D01*
X112760360Y-92518212D02*
X112667578Y-93178391D01*
X112577600Y-92107831D02*
X112242412Y-92782028D01*
X112242412Y-92782028D02*
X112855435Y-92868183D01*
%TO.C,SW3*%
X92036491Y-85163327D02*
X92171331Y-85230365D01*
X92171331Y-85230365D02*
X92407109Y-85263501D01*
X92407109Y-85263501D02*
X92508048Y-85229600D01*
X92508048Y-85229600D02*
X92561830Y-85189072D01*
X92561830Y-85189072D02*
X92622241Y-85101388D01*
X92622241Y-85101388D02*
X92635495Y-85007077D01*
X92635495Y-85007077D02*
X92601594Y-84906138D01*
X92601594Y-84906138D02*
X92561066Y-84852355D01*
X92561066Y-84852355D02*
X92473382Y-84791945D01*
X92473382Y-84791945D02*
X92291387Y-84718280D01*
X92291387Y-84718280D02*
X92203703Y-84657870D01*
X92203703Y-84657870D02*
X92163174Y-84604087D01*
X92163174Y-84604087D02*
X92129273Y-84503149D01*
X92129273Y-84503149D02*
X92142528Y-84408837D01*
X92142528Y-84408837D02*
X92202938Y-84321154D01*
X92202938Y-84321154D02*
X92256721Y-84280625D01*
X92256721Y-84280625D02*
X92357660Y-84246724D01*
X92357660Y-84246724D02*
X92593438Y-84279861D01*
X92593438Y-84279861D02*
X92728277Y-84346898D01*
X93064994Y-84346134D02*
X93161599Y-85369538D01*
X93161599Y-85369538D02*
X93449631Y-84688713D01*
X93449631Y-84688713D02*
X93538844Y-85422556D01*
X93538844Y-85422556D02*
X93913795Y-84465425D01*
X94196729Y-84505188D02*
X94809752Y-84591343D01*
X94809752Y-84591343D02*
X94426644Y-84922197D01*
X94426644Y-84922197D02*
X94568111Y-84942079D01*
X94568111Y-84942079D02*
X94655795Y-85002489D01*
X94655795Y-85002489D02*
X94696323Y-85056272D01*
X94696323Y-85056272D02*
X94730224Y-85157211D01*
X94730224Y-85157211D02*
X94697088Y-85392989D01*
X94697088Y-85392989D02*
X94636678Y-85480673D01*
X94636678Y-85480673D02*
X94582895Y-85521201D01*
X94582895Y-85521201D02*
X94481956Y-85555102D01*
X94481956Y-85555102D02*
X94199023Y-85515338D01*
X94199023Y-85515338D02*
X94111339Y-85454928D01*
X94111339Y-85454928D02*
X94070810Y-85401145D01*
%TO.C,SW2*%
X72453502Y-87549071D02*
X72588342Y-87616109D01*
X72588342Y-87616109D02*
X72824120Y-87649245D01*
X72824120Y-87649245D02*
X72925059Y-87615344D01*
X72925059Y-87615344D02*
X72978841Y-87574816D01*
X72978841Y-87574816D02*
X73039252Y-87487132D01*
X73039252Y-87487132D02*
X73052506Y-87392821D01*
X73052506Y-87392821D02*
X73018605Y-87291882D01*
X73018605Y-87291882D02*
X72978077Y-87238099D01*
X72978077Y-87238099D02*
X72890393Y-87177689D01*
X72890393Y-87177689D02*
X72708398Y-87104024D01*
X72708398Y-87104024D02*
X72620714Y-87043614D01*
X72620714Y-87043614D02*
X72580185Y-86989831D01*
X72580185Y-86989831D02*
X72546284Y-86888893D01*
X72546284Y-86888893D02*
X72559539Y-86794581D01*
X72559539Y-86794581D02*
X72619949Y-86706898D01*
X72619949Y-86706898D02*
X72673732Y-86666369D01*
X72673732Y-86666369D02*
X72774671Y-86632468D01*
X72774671Y-86632468D02*
X73010449Y-86665605D01*
X73010449Y-86665605D02*
X73145288Y-86732642D01*
X73482005Y-86731878D02*
X73578610Y-87755282D01*
X73578610Y-87755282D02*
X73866642Y-87074457D01*
X73866642Y-87074457D02*
X73955855Y-87808300D01*
X73955855Y-87808300D02*
X74330806Y-86851169D01*
X74647641Y-86991871D02*
X74701424Y-86951343D01*
X74701424Y-86951343D02*
X74802362Y-86917442D01*
X74802362Y-86917442D02*
X75038140Y-86950578D01*
X75038140Y-86950578D02*
X75125824Y-87010988D01*
X75125824Y-87010988D02*
X75166353Y-87064771D01*
X75166353Y-87064771D02*
X75200254Y-87165710D01*
X75200254Y-87165710D02*
X75186999Y-87260021D01*
X75186999Y-87260021D02*
X75119962Y-87394861D01*
X75119962Y-87394861D02*
X74474567Y-87881201D01*
X74474567Y-87881201D02*
X75087590Y-87967355D01*
%TO.C,SW1*%
X47024846Y-69065700D02*
X47167703Y-69113319D01*
X47167703Y-69113319D02*
X47405798Y-69113319D01*
X47405798Y-69113319D02*
X47501036Y-69065700D01*
X47501036Y-69065700D02*
X47548655Y-69018081D01*
X47548655Y-69018081D02*
X47596274Y-68922843D01*
X47596274Y-68922843D02*
X47596274Y-68827605D01*
X47596274Y-68827605D02*
X47548655Y-68732367D01*
X47548655Y-68732367D02*
X47501036Y-68684748D01*
X47501036Y-68684748D02*
X47405798Y-68637129D01*
X47405798Y-68637129D02*
X47215322Y-68589510D01*
X47215322Y-68589510D02*
X47120084Y-68541891D01*
X47120084Y-68541891D02*
X47072465Y-68494272D01*
X47072465Y-68494272D02*
X47024846Y-68399034D01*
X47024846Y-68399034D02*
X47024846Y-68303796D01*
X47024846Y-68303796D02*
X47072465Y-68208558D01*
X47072465Y-68208558D02*
X47120084Y-68160939D01*
X47120084Y-68160939D02*
X47215322Y-68113319D01*
X47215322Y-68113319D02*
X47453417Y-68113319D01*
X47453417Y-68113319D02*
X47596274Y-68160939D01*
X47929608Y-68113319D02*
X48167703Y-69113319D01*
X48167703Y-69113319D02*
X48358179Y-68399034D01*
X48358179Y-68399034D02*
X48548655Y-69113319D01*
X48548655Y-69113319D02*
X48786751Y-68113319D01*
X49691512Y-69113319D02*
X49120084Y-69113319D01*
X49405798Y-69113319D02*
X49405798Y-68113319D01*
X49405798Y-68113319D02*
X49310560Y-68256177D01*
X49310560Y-68256177D02*
X49215322Y-68351415D01*
X49215322Y-68351415D02*
X49120084Y-68399034D01*
%TO.C,D11*%
X196968661Y-103402801D02*
X196829488Y-102412533D01*
X196829488Y-102412533D02*
X197065266Y-102379397D01*
X197065266Y-102379397D02*
X197213360Y-102406670D01*
X197213360Y-102406670D02*
X197320926Y-102487727D01*
X197320926Y-102487727D02*
X197381336Y-102575411D01*
X197381336Y-102575411D02*
X197455001Y-102757406D01*
X197455001Y-102757406D02*
X197474882Y-102898873D01*
X197474882Y-102898873D02*
X197454236Y-103094123D01*
X197454236Y-103094123D02*
X197420335Y-103195061D01*
X197420335Y-103195061D02*
X197339278Y-103302627D01*
X197339278Y-103302627D02*
X197204439Y-103369665D01*
X197204439Y-103369665D02*
X196968661Y-103402801D01*
X198477641Y-103190728D02*
X197911773Y-103270255D01*
X198194707Y-103230491D02*
X198055534Y-102240223D01*
X198055534Y-102240223D02*
X197981104Y-102394945D01*
X197981104Y-102394945D02*
X197900048Y-102502511D01*
X197900048Y-102502511D02*
X197812364Y-102562921D01*
X199420753Y-103058182D02*
X198854886Y-103137709D01*
X199137819Y-103097946D02*
X198998646Y-102107678D01*
X198998646Y-102107678D02*
X198924217Y-102262399D01*
X198924217Y-102262399D02*
X198843160Y-102369965D01*
X198843160Y-102369965D02*
X198755476Y-102430375D01*
X200568282Y-106569934D02*
X200429109Y-105579666D01*
X201134150Y-106490407D02*
X200630222Y-105984185D01*
X200994976Y-105500139D02*
X200508637Y-106145534D01*
%TO.C,D6*%
X157493615Y-105808152D02*
X157493615Y-104808152D01*
X157493615Y-104808152D02*
X157731710Y-104808152D01*
X157731710Y-104808152D02*
X157874567Y-104855772D01*
X157874567Y-104855772D02*
X157969805Y-104951010D01*
X157969805Y-104951010D02*
X158017424Y-105046248D01*
X158017424Y-105046248D02*
X158065043Y-105236724D01*
X158065043Y-105236724D02*
X158065043Y-105379581D01*
X158065043Y-105379581D02*
X158017424Y-105570057D01*
X158017424Y-105570057D02*
X157969805Y-105665295D01*
X157969805Y-105665295D02*
X157874567Y-105760533D01*
X157874567Y-105760533D02*
X157731710Y-105808152D01*
X157731710Y-105808152D02*
X157493615Y-105808152D01*
X158922186Y-104808152D02*
X158731710Y-104808152D01*
X158731710Y-104808152D02*
X158636472Y-104855772D01*
X158636472Y-104855772D02*
X158588853Y-104903391D01*
X158588853Y-104903391D02*
X158493615Y-105046248D01*
X158493615Y-105046248D02*
X158445996Y-105236724D01*
X158445996Y-105236724D02*
X158445996Y-105617676D01*
X158445996Y-105617676D02*
X158493615Y-105712914D01*
X158493615Y-105712914D02*
X158541234Y-105760533D01*
X158541234Y-105760533D02*
X158636472Y-105808152D01*
X158636472Y-105808152D02*
X158826948Y-105808152D01*
X158826948Y-105808152D02*
X158922186Y-105760533D01*
X158922186Y-105760533D02*
X158969805Y-105712914D01*
X158969805Y-105712914D02*
X159017424Y-105617676D01*
X159017424Y-105617676D02*
X159017424Y-105379581D01*
X159017424Y-105379581D02*
X158969805Y-105284343D01*
X158969805Y-105284343D02*
X158922186Y-105236724D01*
X158922186Y-105236724D02*
X158826948Y-105189105D01*
X158826948Y-105189105D02*
X158636472Y-105189105D01*
X158636472Y-105189105D02*
X158541234Y-105236724D01*
X158541234Y-105236724D02*
X158493615Y-105284343D01*
X158493615Y-105284343D02*
X158445996Y-105379581D01*
X154689805Y-109658787D02*
X154689805Y-108658787D01*
X155261233Y-109658787D02*
X154832662Y-109087359D01*
X155261233Y-108658787D02*
X154689805Y-109230216D01*
%TO.C,H2*%
X248978095Y-101127380D02*
X248978095Y-100127380D01*
X248978095Y-100603571D02*
X249549523Y-100603571D01*
X249549523Y-101127380D02*
X249549523Y-100127380D01*
X249978095Y-100222619D02*
X250025714Y-100175000D01*
X250025714Y-100175000D02*
X250120952Y-100127380D01*
X250120952Y-100127380D02*
X250359047Y-100127380D01*
X250359047Y-100127380D02*
X250454285Y-100175000D01*
X250454285Y-100175000D02*
X250501904Y-100222619D01*
X250501904Y-100222619D02*
X250549523Y-100317857D01*
X250549523Y-100317857D02*
X250549523Y-100413095D01*
X250549523Y-100413095D02*
X250501904Y-100555952D01*
X250501904Y-100555952D02*
X249930476Y-101127380D01*
X249930476Y-101127380D02*
X250549523Y-101127380D01*
%TO.C,D12*%
X250847897Y-96437380D02*
X250847897Y-95437380D01*
X250847897Y-95437380D02*
X251085992Y-95437380D01*
X251085992Y-95437380D02*
X251228849Y-95485000D01*
X251228849Y-95485000D02*
X251324087Y-95580238D01*
X251324087Y-95580238D02*
X251371706Y-95675476D01*
X251371706Y-95675476D02*
X251419325Y-95865952D01*
X251419325Y-95865952D02*
X251419325Y-96008809D01*
X251419325Y-96008809D02*
X251371706Y-96199285D01*
X251371706Y-96199285D02*
X251324087Y-96294523D01*
X251324087Y-96294523D02*
X251228849Y-96389761D01*
X251228849Y-96389761D02*
X251085992Y-96437380D01*
X251085992Y-96437380D02*
X250847897Y-96437380D01*
X252371706Y-96437380D02*
X251800278Y-96437380D01*
X252085992Y-96437380D02*
X252085992Y-95437380D01*
X252085992Y-95437380D02*
X251990754Y-95580238D01*
X251990754Y-95580238D02*
X251895516Y-95675476D01*
X251895516Y-95675476D02*
X251800278Y-95723095D01*
X252752659Y-95532619D02*
X252800278Y-95485000D01*
X252800278Y-95485000D02*
X252895516Y-95437380D01*
X252895516Y-95437380D02*
X253133611Y-95437380D01*
X253133611Y-95437380D02*
X253228849Y-95485000D01*
X253228849Y-95485000D02*
X253276468Y-95532619D01*
X253276468Y-95532619D02*
X253324087Y-95627857D01*
X253324087Y-95627857D02*
X253324087Y-95723095D01*
X253324087Y-95723095D02*
X253276468Y-95865952D01*
X253276468Y-95865952D02*
X252705040Y-96437380D01*
X252705040Y-96437380D02*
X253324087Y-96437380D01*
X251060278Y-94997380D02*
X251060278Y-93997380D01*
X251631706Y-94997380D02*
X251203135Y-94425952D01*
X251631706Y-93997380D02*
X251060278Y-94568809D01*
%TO.C,D2*%
X100216406Y-102448355D02*
X100355579Y-101458087D01*
X100355579Y-101458087D02*
X100591357Y-101491224D01*
X100591357Y-101491224D02*
X100726197Y-101558261D01*
X100726197Y-101558261D02*
X100807254Y-101665827D01*
X100807254Y-101665827D02*
X100841155Y-101766765D01*
X100841155Y-101766765D02*
X100861801Y-101962015D01*
X100861801Y-101962015D02*
X100841919Y-102103482D01*
X100841919Y-102103482D02*
X100768255Y-102285477D01*
X100768255Y-102285477D02*
X100707844Y-102373161D01*
X100707844Y-102373161D02*
X100600279Y-102454218D01*
X100600279Y-102454218D02*
X100452184Y-102481492D01*
X100452184Y-102481492D02*
X100216406Y-102448355D01*
X101285437Y-101684944D02*
X101339220Y-101644416D01*
X101339220Y-101644416D02*
X101440159Y-101610515D01*
X101440159Y-101610515D02*
X101675937Y-101643651D01*
X101675937Y-101643651D02*
X101763621Y-101704061D01*
X101763621Y-101704061D02*
X101804149Y-101757844D01*
X101804149Y-101757844D02*
X101838050Y-101858783D01*
X101838050Y-101858783D02*
X101824796Y-101953094D01*
X101824796Y-101953094D02*
X101757758Y-102087934D01*
X101757758Y-102087934D02*
X101112363Y-102574274D01*
X101112363Y-102574274D02*
X101725386Y-102660428D01*
X96208839Y-105814434D02*
X96348012Y-104824166D01*
X96774706Y-105893962D02*
X96429833Y-105268448D01*
X96913880Y-104903693D02*
X96268485Y-105390033D01*
%TO.C,J2*%
X44404215Y-85650252D02*
X44404215Y-86364538D01*
X44404215Y-86364538D02*
X44356596Y-86507395D01*
X44356596Y-86507395D02*
X44261358Y-86602633D01*
X44261358Y-86602633D02*
X44118501Y-86650252D01*
X44118501Y-86650252D02*
X44023263Y-86650252D01*
X44832787Y-85745491D02*
X44880406Y-85697872D01*
X44880406Y-85697872D02*
X44975644Y-85650252D01*
X44975644Y-85650252D02*
X45213739Y-85650252D01*
X45213739Y-85650252D02*
X45308977Y-85697872D01*
X45308977Y-85697872D02*
X45356596Y-85745491D01*
X45356596Y-85745491D02*
X45404215Y-85840729D01*
X45404215Y-85840729D02*
X45404215Y-85935967D01*
X45404215Y-85935967D02*
X45356596Y-86078824D01*
X45356596Y-86078824D02*
X44785168Y-86650252D01*
X44785168Y-86650252D02*
X45404215Y-86650252D01*
%TO.C,D7*%
X139297175Y-105812423D02*
X139297175Y-104812423D01*
X139297175Y-104812423D02*
X139535270Y-104812423D01*
X139535270Y-104812423D02*
X139678127Y-104860043D01*
X139678127Y-104860043D02*
X139773365Y-104955281D01*
X139773365Y-104955281D02*
X139820984Y-105050519D01*
X139820984Y-105050519D02*
X139868603Y-105240995D01*
X139868603Y-105240995D02*
X139868603Y-105383852D01*
X139868603Y-105383852D02*
X139820984Y-105574328D01*
X139820984Y-105574328D02*
X139773365Y-105669566D01*
X139773365Y-105669566D02*
X139678127Y-105764804D01*
X139678127Y-105764804D02*
X139535270Y-105812423D01*
X139535270Y-105812423D02*
X139297175Y-105812423D01*
X140201937Y-104812423D02*
X140868603Y-104812423D01*
X140868603Y-104812423D02*
X140440032Y-105812423D01*
X136693630Y-109673514D02*
X136693630Y-108673514D01*
X137265058Y-109673514D02*
X136836487Y-109102086D01*
X137265058Y-108673514D02*
X136693630Y-109244943D01*
%TO.C,D9*%
X215368347Y-99815233D02*
X215229174Y-98824965D01*
X215229174Y-98824965D02*
X215464952Y-98791829D01*
X215464952Y-98791829D02*
X215613047Y-98819102D01*
X215613047Y-98819102D02*
X215720612Y-98900159D01*
X215720612Y-98900159D02*
X215781023Y-98987843D01*
X215781023Y-98987843D02*
X215854687Y-99169838D01*
X215854687Y-99169838D02*
X215874569Y-99311305D01*
X215874569Y-99311305D02*
X215853923Y-99506555D01*
X215853923Y-99506555D02*
X215820022Y-99607493D01*
X215820022Y-99607493D02*
X215738965Y-99715059D01*
X215738965Y-99715059D02*
X215604125Y-99782097D01*
X215604125Y-99782097D02*
X215368347Y-99815233D01*
X216405771Y-99669433D02*
X216594394Y-99642924D01*
X216594394Y-99642924D02*
X216682078Y-99582513D01*
X216682078Y-99582513D02*
X216722606Y-99528730D01*
X216722606Y-99528730D02*
X216797035Y-99374009D01*
X216797035Y-99374009D02*
X216817682Y-99178759D01*
X216817682Y-99178759D02*
X216764663Y-98801514D01*
X216764663Y-98801514D02*
X216704253Y-98713830D01*
X216704253Y-98713830D02*
X216650470Y-98673302D01*
X216650470Y-98673302D02*
X216549532Y-98639401D01*
X216549532Y-98639401D02*
X216360909Y-98665910D01*
X216360909Y-98665910D02*
X216273225Y-98726320D01*
X216273225Y-98726320D02*
X216232697Y-98780103D01*
X216232697Y-98780103D02*
X216198796Y-98881042D01*
X216198796Y-98881042D02*
X216231932Y-99116820D01*
X216231932Y-99116820D02*
X216292343Y-99204504D01*
X216292343Y-99204504D02*
X216346125Y-99245032D01*
X216346125Y-99245032D02*
X216447064Y-99278933D01*
X216447064Y-99278933D02*
X216635686Y-99252424D01*
X216635686Y-99252424D02*
X216723370Y-99192014D01*
X216723370Y-99192014D02*
X216763899Y-99138231D01*
X216763899Y-99138231D02*
X216797800Y-99037292D01*
X212353043Y-104686365D02*
X212213870Y-103696097D01*
X212918911Y-104606838D02*
X212414983Y-104100616D01*
X212779737Y-103616570D02*
X212293398Y-104261965D01*
%TO.C,D1*%
X81356689Y-102381903D02*
X81495862Y-101391635D01*
X81495862Y-101391635D02*
X81731640Y-101424772D01*
X81731640Y-101424772D02*
X81866480Y-101491809D01*
X81866480Y-101491809D02*
X81947537Y-101599375D01*
X81947537Y-101599375D02*
X81981438Y-101700313D01*
X81981438Y-101700313D02*
X82002084Y-101895563D01*
X82002084Y-101895563D02*
X81982202Y-102037030D01*
X81982202Y-102037030D02*
X81908538Y-102219025D01*
X81908538Y-102219025D02*
X81848127Y-102306709D01*
X81848127Y-102306709D02*
X81740562Y-102387766D01*
X81740562Y-102387766D02*
X81592467Y-102415040D01*
X81592467Y-102415040D02*
X81356689Y-102381903D01*
X82865669Y-102593976D02*
X82299802Y-102514449D01*
X82582735Y-102554213D02*
X82721909Y-101563945D01*
X82721909Y-101563945D02*
X82607715Y-101692157D01*
X82607715Y-101692157D02*
X82500150Y-101773214D01*
X82500150Y-101773214D02*
X82399211Y-101807115D01*
X85859841Y-104986265D02*
X85999014Y-103995997D01*
X86425708Y-105065793D02*
X86080835Y-104440279D01*
X86564882Y-104075524D02*
X85919487Y-104561864D01*
%TO.C,D4*%
X128210525Y-108617694D02*
X128210525Y-107617694D01*
X128210525Y-107617694D02*
X128448620Y-107617694D01*
X128448620Y-107617694D02*
X128591477Y-107665314D01*
X128591477Y-107665314D02*
X128686715Y-107760552D01*
X128686715Y-107760552D02*
X128734334Y-107855790D01*
X128734334Y-107855790D02*
X128781953Y-108046266D01*
X128781953Y-108046266D02*
X128781953Y-108189123D01*
X128781953Y-108189123D02*
X128734334Y-108379599D01*
X128734334Y-108379599D02*
X128686715Y-108474837D01*
X128686715Y-108474837D02*
X128591477Y-108570075D01*
X128591477Y-108570075D02*
X128448620Y-108617694D01*
X128448620Y-108617694D02*
X128210525Y-108617694D01*
X129639096Y-107951028D02*
X129639096Y-108617694D01*
X129401001Y-107570075D02*
X129162906Y-108284361D01*
X129162906Y-108284361D02*
X129781953Y-108284361D01*
X122648898Y-109717694D02*
X122648898Y-108717694D01*
X123220326Y-109717694D02*
X122791755Y-109146266D01*
X123220326Y-108717694D02*
X122648898Y-109289123D01*
%TO.C,H3*%
X110548095Y-71917380D02*
X110548095Y-70917380D01*
X110548095Y-71393571D02*
X111119523Y-71393571D01*
X111119523Y-71917380D02*
X111119523Y-70917380D01*
X111500476Y-70917380D02*
X112119523Y-70917380D01*
X112119523Y-70917380D02*
X111786190Y-71298333D01*
X111786190Y-71298333D02*
X111929047Y-71298333D01*
X111929047Y-71298333D02*
X112024285Y-71345952D01*
X112024285Y-71345952D02*
X112071904Y-71393571D01*
X112071904Y-71393571D02*
X112119523Y-71488809D01*
X112119523Y-71488809D02*
X112119523Y-71726904D01*
X112119523Y-71726904D02*
X112071904Y-71822142D01*
X112071904Y-71822142D02*
X112024285Y-71869761D01*
X112024285Y-71869761D02*
X111929047Y-71917380D01*
X111929047Y-71917380D02*
X111643333Y-71917380D01*
X111643333Y-71917380D02*
X111548095Y-71869761D01*
X111548095Y-71869761D02*
X111500476Y-71822142D01*
%TO.C,J1*%
X57774392Y-108766765D02*
X58488678Y-108766765D01*
X58488678Y-108766765D02*
X58631535Y-108814384D01*
X58631535Y-108814384D02*
X58726773Y-108909622D01*
X58726773Y-108909622D02*
X58774392Y-109052479D01*
X58774392Y-109052479D02*
X58774392Y-109147717D01*
X58774392Y-107766765D02*
X58774392Y-108338193D01*
X58774392Y-108052479D02*
X57774392Y-108052479D01*
X57774392Y-108052479D02*
X57917250Y-108147717D01*
X57917250Y-108147717D02*
X58012488Y-108242955D01*
X58012488Y-108242955D02*
X58060107Y-108338193D01*
%TO.C,H4*%
X205798095Y-71917380D02*
X205798095Y-70917380D01*
X205798095Y-71393571D02*
X206369523Y-71393571D01*
X206369523Y-71917380D02*
X206369523Y-70917380D01*
X207274285Y-71250714D02*
X207274285Y-71917380D01*
X207036190Y-70869761D02*
X206798095Y-71584047D01*
X206798095Y-71584047D02*
X207417142Y-71584047D01*
%TO.C,D8*%
X176620669Y-105763972D02*
X176620669Y-104763972D01*
X176620669Y-104763972D02*
X176858764Y-104763972D01*
X176858764Y-104763972D02*
X177001621Y-104811592D01*
X177001621Y-104811592D02*
X177096859Y-104906830D01*
X177096859Y-104906830D02*
X177144478Y-105002068D01*
X177144478Y-105002068D02*
X177192097Y-105192544D01*
X177192097Y-105192544D02*
X177192097Y-105335401D01*
X177192097Y-105335401D02*
X177144478Y-105525877D01*
X177144478Y-105525877D02*
X177096859Y-105621115D01*
X177096859Y-105621115D02*
X177001621Y-105716353D01*
X177001621Y-105716353D02*
X176858764Y-105763972D01*
X176858764Y-105763972D02*
X176620669Y-105763972D01*
X177763526Y-105192544D02*
X177668288Y-105144925D01*
X177668288Y-105144925D02*
X177620669Y-105097306D01*
X177620669Y-105097306D02*
X177573050Y-105002068D01*
X177573050Y-105002068D02*
X177573050Y-104954449D01*
X177573050Y-104954449D02*
X177620669Y-104859211D01*
X177620669Y-104859211D02*
X177668288Y-104811592D01*
X177668288Y-104811592D02*
X177763526Y-104763972D01*
X177763526Y-104763972D02*
X177954002Y-104763972D01*
X177954002Y-104763972D02*
X178049240Y-104811592D01*
X178049240Y-104811592D02*
X178096859Y-104859211D01*
X178096859Y-104859211D02*
X178144478Y-104954449D01*
X178144478Y-104954449D02*
X178144478Y-105002068D01*
X178144478Y-105002068D02*
X178096859Y-105097306D01*
X178096859Y-105097306D02*
X178049240Y-105144925D01*
X178049240Y-105144925D02*
X177954002Y-105192544D01*
X177954002Y-105192544D02*
X177763526Y-105192544D01*
X177763526Y-105192544D02*
X177668288Y-105240163D01*
X177668288Y-105240163D02*
X177620669Y-105287782D01*
X177620669Y-105287782D02*
X177573050Y-105383020D01*
X177573050Y-105383020D02*
X177573050Y-105573496D01*
X177573050Y-105573496D02*
X177620669Y-105668734D01*
X177620669Y-105668734D02*
X177668288Y-105716353D01*
X177668288Y-105716353D02*
X177763526Y-105763972D01*
X177763526Y-105763972D02*
X177954002Y-105763972D01*
X177954002Y-105763972D02*
X178049240Y-105716353D01*
X178049240Y-105716353D02*
X178096859Y-105668734D01*
X178096859Y-105668734D02*
X178144478Y-105573496D01*
X178144478Y-105573496D02*
X178144478Y-105383020D01*
X178144478Y-105383020D02*
X178096859Y-105287782D01*
X178096859Y-105287782D02*
X178049240Y-105240163D01*
X178049240Y-105240163D02*
X177954002Y-105192544D01*
X173599042Y-109614607D02*
X173599042Y-108614607D01*
X174170470Y-109614607D02*
X173741899Y-109043179D01*
X174170470Y-108614607D02*
X173599042Y-109186036D01*
%TO.C,H1*%
X55938095Y-92237380D02*
X55938095Y-91237380D01*
X55938095Y-91713571D02*
X56509523Y-91713571D01*
X56509523Y-92237380D02*
X56509523Y-91237380D01*
X57509523Y-92237380D02*
X56938095Y-92237380D01*
X57223809Y-92237380D02*
X57223809Y-91237380D01*
X57223809Y-91237380D02*
X57128571Y-91380238D01*
X57128571Y-91380238D02*
X57033333Y-91475476D01*
X57033333Y-91475476D02*
X56938095Y-91523095D01*
%TO.C,D3*%
X65020116Y-81547573D02*
X64020116Y-81547573D01*
X64020116Y-81547573D02*
X64020116Y-81309478D01*
X64020116Y-81309478D02*
X64067736Y-81166621D01*
X64067736Y-81166621D02*
X64162974Y-81071383D01*
X64162974Y-81071383D02*
X64258212Y-81023764D01*
X64258212Y-81023764D02*
X64448688Y-80976145D01*
X64448688Y-80976145D02*
X64591545Y-80976145D01*
X64591545Y-80976145D02*
X64782021Y-81023764D01*
X64782021Y-81023764D02*
X64877259Y-81071383D01*
X64877259Y-81071383D02*
X64972497Y-81166621D01*
X64972497Y-81166621D02*
X65020116Y-81309478D01*
X65020116Y-81309478D02*
X65020116Y-81547573D01*
X64020116Y-80642811D02*
X64020116Y-80023764D01*
X64020116Y-80023764D02*
X64401069Y-80357097D01*
X64401069Y-80357097D02*
X64401069Y-80214240D01*
X64401069Y-80214240D02*
X64448688Y-80119002D01*
X64448688Y-80119002D02*
X64496307Y-80071383D01*
X64496307Y-80071383D02*
X64591545Y-80023764D01*
X64591545Y-80023764D02*
X64829640Y-80023764D01*
X64829640Y-80023764D02*
X64924878Y-80071383D01*
X64924878Y-80071383D02*
X64972497Y-80119002D01*
X64972497Y-80119002D02*
X65020116Y-80214240D01*
X65020116Y-80214240D02*
X65020116Y-80499954D01*
X65020116Y-80499954D02*
X64972497Y-80595192D01*
X64972497Y-80595192D02*
X64924878Y-80642811D01*
X63247380Y-81831904D02*
X62247380Y-81831904D01*
X63247380Y-81260476D02*
X62675952Y-81689047D01*
X62247380Y-81260476D02*
X62818809Y-81831904D01*
%TO.C,D10*%
X237777198Y-94918661D02*
X238767466Y-94779488D01*
X238767466Y-94779488D02*
X238800602Y-95015266D01*
X238800602Y-95015266D02*
X238773329Y-95163360D01*
X238773329Y-95163360D02*
X238692272Y-95270926D01*
X238692272Y-95270926D02*
X238604588Y-95331336D01*
X238604588Y-95331336D02*
X238422593Y-95405001D01*
X238422593Y-95405001D02*
X238281126Y-95424882D01*
X238281126Y-95424882D02*
X238085876Y-95404236D01*
X238085876Y-95404236D02*
X237984938Y-95370335D01*
X237984938Y-95370335D02*
X237877372Y-95289278D01*
X237877372Y-95289278D02*
X237810334Y-95154439D01*
X237810334Y-95154439D02*
X237777198Y-94918661D01*
X237989271Y-96427641D02*
X237909744Y-95861773D01*
X237949508Y-96144707D02*
X238939776Y-96005534D01*
X238939776Y-96005534D02*
X238785054Y-95931104D01*
X238785054Y-95931104D02*
X238677488Y-95850048D01*
X238677488Y-95850048D02*
X238617078Y-95762364D01*
X239065694Y-96901491D02*
X239078949Y-96995802D01*
X239078949Y-96995802D02*
X239045048Y-97096740D01*
X239045048Y-97096740D02*
X239004519Y-97150523D01*
X239004519Y-97150523D02*
X238916835Y-97210933D01*
X238916835Y-97210933D02*
X238734840Y-97284598D01*
X238734840Y-97284598D02*
X238499062Y-97317735D01*
X238499062Y-97317735D02*
X238303812Y-97297088D01*
X238303812Y-97297088D02*
X238202874Y-97263187D01*
X238202874Y-97263187D02*
X238149091Y-97222659D01*
X238149091Y-97222659D02*
X238088681Y-97134975D01*
X238088681Y-97134975D02*
X238075426Y-97040664D01*
X238075426Y-97040664D02*
X238109327Y-96939725D01*
X238109327Y-96939725D02*
X238149855Y-96885942D01*
X238149855Y-96885942D02*
X238237539Y-96825532D01*
X238237539Y-96825532D02*
X238419535Y-96751867D01*
X238419535Y-96751867D02*
X238655313Y-96718731D01*
X238655313Y-96718731D02*
X238850562Y-96739377D01*
X238850562Y-96739377D02*
X238951501Y-96773278D01*
X238951501Y-96773278D02*
X239005284Y-96813807D01*
X239005284Y-96813807D02*
X239065694Y-96901491D01*
X236579423Y-97835265D02*
X237569691Y-97696092D01*
X236658950Y-98401133D02*
X237165172Y-97897205D01*
X237649218Y-98261959D02*
X237003823Y-97775620D01*
%TO.C,D5*%
X162477380Y-84108094D02*
X161477380Y-84108094D01*
X161477380Y-84108094D02*
X161477380Y-83869999D01*
X161477380Y-83869999D02*
X161525000Y-83727142D01*
X161525000Y-83727142D02*
X161620238Y-83631904D01*
X161620238Y-83631904D02*
X161715476Y-83584285D01*
X161715476Y-83584285D02*
X161905952Y-83536666D01*
X161905952Y-83536666D02*
X162048809Y-83536666D01*
X162048809Y-83536666D02*
X162239285Y-83584285D01*
X162239285Y-83584285D02*
X162334523Y-83631904D01*
X162334523Y-83631904D02*
X162429761Y-83727142D01*
X162429761Y-83727142D02*
X162477380Y-83869999D01*
X162477380Y-83869999D02*
X162477380Y-84108094D01*
X161477380Y-82631904D02*
X161477380Y-83108094D01*
X161477380Y-83108094D02*
X161953571Y-83155713D01*
X161953571Y-83155713D02*
X161905952Y-83108094D01*
X161905952Y-83108094D02*
X161858333Y-83012856D01*
X161858333Y-83012856D02*
X161858333Y-82774761D01*
X161858333Y-82774761D02*
X161905952Y-82679523D01*
X161905952Y-82679523D02*
X161953571Y-82631904D01*
X161953571Y-82631904D02*
X162048809Y-82584285D01*
X162048809Y-82584285D02*
X162286904Y-82584285D01*
X162286904Y-82584285D02*
X162382142Y-82631904D01*
X162382142Y-82631904D02*
X162429761Y-82679523D01*
X162429761Y-82679523D02*
X162477380Y-82774761D01*
X162477380Y-82774761D02*
X162477380Y-83012856D01*
X162477380Y-83012856D02*
X162429761Y-83108094D01*
X162429761Y-83108094D02*
X162382142Y-83155713D01*
X161037380Y-85641904D02*
X160037380Y-85641904D01*
X161037380Y-85070476D02*
X160465952Y-85499047D01*
X160037380Y-85070476D02*
X160608809Y-85641904D01*
D11*
%TO.C,SW12*%
X242718013Y-75155871D02*
X242718013Y-90355871D01*
X242718013Y-90355871D02*
X257918013Y-90355871D01*
X257918013Y-90355871D02*
X257918013Y-75155871D01*
X257918013Y-75155871D02*
X242718013Y-75155871D01*
%TO.C,SW11*%
X217459901Y-89829744D02*
X219575332Y-104881819D01*
X219575332Y-104881819D02*
X234627407Y-102766388D01*
X234627407Y-102766388D02*
X232511976Y-87714313D01*
X232511976Y-87714313D02*
X217459901Y-89829744D01*
%TO.C,SW10*%
X197843777Y-87510270D02*
X199959208Y-102562345D01*
X199959208Y-102562345D02*
X215011283Y-100446914D01*
X215011283Y-100446914D02*
X212895852Y-85394839D01*
X212895852Y-85394839D02*
X197843777Y-87510270D01*
%TO.C,SW9*%
X179785013Y-95098264D02*
X181900444Y-110150339D01*
X181900444Y-110150339D02*
X196952519Y-108034908D01*
X196952519Y-108034908D02*
X194837088Y-92982833D01*
X194837088Y-92982833D02*
X179785013Y-95098264D01*
%TO.C,SW8*%
X160749289Y-91032872D02*
X160749289Y-106232872D01*
X160749289Y-106232872D02*
X175949289Y-106232872D01*
X175949289Y-106232872D02*
X175949289Y-91032872D01*
X175949289Y-91032872D02*
X160749289Y-91032872D01*
%TO.C,SW7*%
X141840000Y-91010000D02*
X141840000Y-106210000D01*
X141840000Y-106210000D02*
X157040000Y-106210000D01*
X157040000Y-106210000D02*
X157040000Y-91010000D01*
X157040000Y-91010000D02*
X141840000Y-91010000D01*
%TO.C,SW6*%
X141737293Y-71975443D02*
X141737293Y-87175443D01*
X141737293Y-87175443D02*
X156937293Y-87175443D01*
X156937293Y-87175443D02*
X156937293Y-71975443D01*
X156937293Y-71975443D02*
X141737293Y-71975443D01*
%TO.C,SW5*%
X122634050Y-91020077D02*
X122634050Y-106220077D01*
X122634050Y-106220077D02*
X137834050Y-106220077D01*
X137834050Y-106220077D02*
X137834050Y-91020077D01*
X137834050Y-91020077D02*
X122634050Y-91020077D01*
%TO.C,SW4*%
X103771781Y-92970936D02*
X101656350Y-108023011D01*
X101656350Y-108023011D02*
X116708425Y-110138442D01*
X116708425Y-110138442D02*
X118823856Y-95086367D01*
X118823856Y-95086367D02*
X103771781Y-92970936D01*
%TO.C,SW3*%
X85680471Y-85360902D02*
X83565040Y-100412977D01*
X83565040Y-100412977D02*
X98617115Y-102528408D01*
X98617115Y-102528408D02*
X100732546Y-87476333D01*
X100732546Y-87476333D02*
X85680471Y-85360902D01*
%TO.C,SW2*%
X66097482Y-87746646D02*
X63982051Y-102798721D01*
X63982051Y-102798721D02*
X79034126Y-104914152D01*
X79034126Y-104914152D02*
X81149557Y-89862077D01*
X81149557Y-89862077D02*
X66097482Y-87746646D01*
%TO.C,SW1*%
X40758179Y-70145939D02*
X40758179Y-85345939D01*
X40758179Y-85345939D02*
X55958179Y-85345939D01*
X55958179Y-85345939D02*
X55958179Y-70145939D01*
X55958179Y-70145939D02*
X40758179Y-70145939D01*
%TO.C,D11*%
X202137900Y-104867538D02*
X200227311Y-105136054D01*
X205622133Y-104623897D02*
G75*
G03*
X205622133Y-104623897I-1750635J0D01*
G01*
%TO.C,D6*%
X156481075Y-108191407D02*
X154551710Y-108191407D01*
X159982345Y-108191407D02*
G75*
G03*
X159982345Y-108191407I-1750635J0D01*
G01*
%TO.C,D12*%
X252851548Y-93530000D02*
X250922183Y-93530000D01*
X256352818Y-93530000D02*
G75*
G03*
X256352818Y-93530000I-1750635J0D01*
G01*
%TO.C,D2*%
X98186897Y-104610631D02*
X96276308Y-104342115D01*
X101671130Y-104854272D02*
G75*
G03*
X101671130Y-104854272I-1750635J0D01*
G01*
%TO.C,J2*%
X43439931Y-87062112D02*
X44769931Y-87062112D01*
X43439931Y-88392112D02*
X43439931Y-87062112D01*
X43439931Y-89662112D02*
X43439931Y-107502112D01*
X43439931Y-89662112D02*
X46099931Y-89662112D01*
X43439931Y-107502112D02*
X46099931Y-107502112D01*
X46099931Y-89662112D02*
X46099931Y-107502112D01*
%TO.C,D7*%
X138484900Y-108206134D02*
X136555535Y-108206134D01*
X141986170Y-108206134D02*
G75*
G03*
X141986170Y-108206134I-1750635J0D01*
G01*
%TO.C,D9*%
X213922661Y-102983969D02*
X212012072Y-103252485D01*
X217406894Y-102740328D02*
G75*
G03*
X217406894Y-102740328I-1750635J0D01*
G01*
%TO.C,D1*%
X87837899Y-103782462D02*
X85927310Y-103513946D01*
X91322132Y-104026103D02*
G75*
G03*
X91322132Y-104026103I-1750635J0D01*
G01*
%TO.C,D4*%
X124440168Y-108250314D02*
X122510803Y-108250314D01*
X127941438Y-108250314D02*
G75*
G03*
X127941438Y-108250314I-1750635J0D01*
G01*
%TO.C,J1*%
X57407012Y-107103432D02*
X57407012Y-108433432D01*
X56077012Y-107103432D02*
X57407012Y-107103432D01*
X54807012Y-107103432D02*
X47127012Y-107103432D01*
X54807012Y-107103432D02*
X54807012Y-109763432D01*
X47127012Y-107103432D02*
X47127012Y-109763432D01*
X54807012Y-109763432D02*
X47127012Y-109763432D01*
%TO.C,D8*%
X175390312Y-108147227D02*
X173460947Y-108147227D01*
X178891582Y-108147227D02*
G75*
G03*
X178891582Y-108147227I-1750635J0D01*
G01*
%TO.C,D3*%
X61780000Y-80040635D02*
X61780000Y-81970000D01*
X63530635Y-78290000D02*
G75*
G03*
X63530635Y-78290000I-1750635J0D01*
G01*
%TO.C,D10*%
X235677538Y-96682101D02*
X235946054Y-98592690D01*
X237184532Y-94948503D02*
G75*
G03*
X237184532Y-94948503I-1750635J0D01*
G01*
%TO.C,D5*%
X159570000Y-83850635D02*
X159570000Y-85780000D01*
X161320635Y-82100000D02*
G75*
G03*
X161320635Y-82100000I-1750635J0D01*
G01*
%TD*%
M02*
