<?xml version="1.0" encoding="utf-8"?>
<!-- Generator: Fusion 360, Shaper Origin Export Add-In, Version 1.6.10  -->
<svg xmlns="http://www.w3.org/2000/svg" xmlns:xlink="http://www.w3.org/1999/xlink" xmlns:shaper="http://www.shapertools.com/namespaces/shaper" shaper:fusionaddin="version:1.6.10" width="14cm" height="1.875cm" version="1.1" x="0cm" y="0cm" viewBox="0 0 14 1.875" enable-background="new 0 0 14 1.875" xml:space="preserve"><path d="M-7,-1.7425 L7,-1.7425 7,0.1325 -7,0.1325 -7,-1.7425z" transform="matrix(1,0,0,-1,7,0.1325)" fill="rgb(0,0,0)" stroke-linecap="round" stroke-linejoin="round" /><path d="M-1.88,-1.5525 L-3.3,-1.5525 -3.3,-0.1325 -1.88,-0.1325 -1.88,-1.5525z" transform="matrix(1,0,0,-1,7,0.1325)" fill="rgb(255,255,255)" stroke="rgb(0,0,0)" stroke-width="0.0010cm" stroke-linecap="round" stroke-linejoin="round" /><path d="M0.71,-0.1325 L0.71,-1.5525 -0.71,-1.5525 -0.71,-0.1325 0.71,-0.1325z" transform="matrix(1,0,0,-1,7,0.1325)" fill="rgb(255,255,255)" stroke="rgb(0,0,0)" stroke-width="0.0010cm" stroke-linecap="round" stroke-linejoin="round" /><path d="M1.88,-0.1325 L3.3,-0.1325 3.3,-1.5525 1.88,-1.5525 1.88,-0.1325z" transform="matrix(1,0,0,-1,7,0.1325)" fill="rgb(255,255,255)" stroke="rgb(0,0,0)" stroke-width="0.0010cm" stroke-linecap="round" stroke-linejoin="round" /></svg>