%TF.GenerationSoftware,KiCad,Pcbnew,(7.0.0)*%
%TF.CreationDate,2023-05-23T21:59:02+07:00*%
%TF.ProjectId,top_keyboard_pcb,746f705f-6b65-4796-926f-6172645f7063,rev?*%
%TF.SameCoordinates,Original*%
%TF.FileFunction,Drillmap*%
%TF.FilePolarity,Positive*%
%FSLAX45Y45*%
G04 Gerber Fmt 4.5, Leading zero omitted, Abs format (unit mm)*
G04 Created by KiCad (PCBNEW (7.0.0)) date 2023-05-23 21:59:02*
%MOMM*%
%LPD*%
G01*
G04 APERTURE LIST*
%ADD10C,0.100000*%
%ADD11C,0.200000*%
%ADD12C,0.110000*%
%ADD13C,0.120000*%
G04 APERTURE END LIST*
D10*
X4046453Y-6959636D02*
X26042193Y-6959636D01*
X26042193Y-6959636D02*
X26042193Y-11058065D01*
X26042193Y-11058065D02*
X4046453Y-11058065D01*
X4046453Y-11058065D02*
X4046453Y-6959636D01*
D11*
D10*
X4426993Y-8789211D02*
X4526993Y-8889211D01*
X4526993Y-8789211D02*
X4426993Y-8889211D01*
X4426993Y-9043211D02*
X4526993Y-9143211D01*
X4526993Y-9043211D02*
X4426993Y-9143211D01*
X4426993Y-9297211D02*
X4526993Y-9397211D01*
X4526993Y-9297211D02*
X4426993Y-9397211D01*
X4426993Y-9551211D02*
X4526993Y-9651211D01*
X4526993Y-9551211D02*
X4426993Y-9651211D01*
X4426993Y-9805211D02*
X4526993Y-9905211D01*
X4526993Y-9805211D02*
X4426993Y-9905211D01*
X4426993Y-10059211D02*
X4526993Y-10159211D01*
X4526993Y-10059211D02*
X4426993Y-10159211D01*
X4426993Y-10313211D02*
X4526993Y-10413211D01*
X4526993Y-10313211D02*
X4426993Y-10413211D01*
X4426993Y-10567211D02*
X4526993Y-10667211D01*
X4526993Y-10567211D02*
X4426993Y-10667211D01*
X4795701Y-10793343D02*
X4895701Y-10893343D01*
X4895701Y-10793343D02*
X4795701Y-10893343D01*
X5049701Y-10793343D02*
X5149701Y-10893343D01*
X5149701Y-10793343D02*
X5049701Y-10893343D01*
X5303701Y-10793343D02*
X5403701Y-10893343D01*
X5403701Y-10793343D02*
X5303701Y-10893343D01*
X5557701Y-10793343D02*
X5657701Y-10893343D01*
X5657701Y-10793343D02*
X5557701Y-10893343D01*
D12*
X6405000Y-9144000D02*
G75*
G03*
X6405000Y-9144000I-55000J0D01*
G01*
X12583000Y-8972000D02*
G75*
G03*
X12583000Y-8972000I-55000J0D01*
G01*
X6178000Y-7774000D02*
X6178000Y-7884000D01*
X6123000Y-7829000D02*
X6233000Y-7829000D01*
X6178000Y-8282000D02*
X6178000Y-8392000D01*
X6123000Y-8337000D02*
X6233000Y-8337000D01*
X8454094Y-10276910D02*
X8454094Y-10386910D01*
X8399094Y-10331910D02*
X8509094Y-10331910D01*
X8957150Y-10347610D02*
X8957150Y-10457610D01*
X8902150Y-10402610D02*
X9012150Y-10402610D01*
X9488993Y-10359727D02*
X9488993Y-10469727D01*
X9433993Y-10414727D02*
X9543993Y-10414727D01*
X9992050Y-10430427D02*
X9992050Y-10540427D01*
X9937050Y-10485427D02*
X10047050Y-10485427D01*
X12111080Y-10770031D02*
X12111080Y-10880031D01*
X12056080Y-10825031D02*
X12166080Y-10825031D01*
X12619080Y-10770031D02*
X12619080Y-10880031D01*
X12564080Y-10825031D02*
X12674080Y-10825031D01*
X13515553Y-10765613D02*
X13515553Y-10875613D01*
X13460553Y-10820613D02*
X13570553Y-10820613D01*
X14023553Y-10765613D02*
X14023553Y-10875613D01*
X13968553Y-10820613D02*
X14078553Y-10820613D01*
X15315171Y-10764141D02*
X15315171Y-10874141D01*
X15260171Y-10819141D02*
X15370171Y-10819141D01*
X15823171Y-10764141D02*
X15823171Y-10874141D01*
X15768171Y-10819141D02*
X15878171Y-10819141D01*
X15957000Y-8155000D02*
X15957000Y-8265000D01*
X15902000Y-8210000D02*
X16012000Y-8210000D01*
X15957000Y-8663000D02*
X15957000Y-8773000D01*
X15902000Y-8718000D02*
X16012000Y-8718000D01*
X17206095Y-10759723D02*
X17206095Y-10869723D01*
X17151095Y-10814723D02*
X17261095Y-10814723D01*
X17714095Y-10759723D02*
X17714095Y-10869723D01*
X17659095Y-10814723D02*
X17769095Y-10814723D01*
X19884094Y-10478090D02*
X19884094Y-10588090D01*
X19829094Y-10533090D02*
X19939094Y-10533090D01*
X20387150Y-10407390D02*
X20387150Y-10517390D01*
X20332150Y-10462390D02*
X20442150Y-10462390D01*
X21062570Y-10289733D02*
X21062570Y-10399733D01*
X21007570Y-10344733D02*
X21117570Y-10344733D01*
X21565626Y-10219033D02*
X21565626Y-10329033D01*
X21510626Y-10274033D02*
X21620626Y-10274033D01*
X23543390Y-9439850D02*
X23543390Y-9549850D01*
X23488390Y-9494850D02*
X23598390Y-9494850D01*
X23614090Y-9942907D02*
X23614090Y-10052907D01*
X23559090Y-9997907D02*
X23669090Y-9997907D01*
X24952218Y-9298000D02*
X24952218Y-9408000D01*
X24897218Y-9353000D02*
X25007218Y-9353000D01*
X25460218Y-9298000D02*
X25460218Y-9408000D01*
X25405218Y-9353000D02*
X25515218Y-9353000D01*
D13*
X4878245Y-7227021D02*
X4878245Y-7142167D01*
X4793391Y-7142167D01*
X4793391Y-7227021D01*
X4878245Y-7227021D01*
X5378245Y-7437021D02*
X5378245Y-7352167D01*
X5293391Y-7352167D01*
X5293391Y-7437021D01*
X5378245Y-7437021D01*
X7381119Y-9091209D02*
X7381119Y-9006355D01*
X7296266Y-9006355D01*
X7296266Y-9091209D01*
X7381119Y-9091209D01*
X7847027Y-9368751D02*
X7847027Y-9283898D01*
X7762173Y-9283898D01*
X7762173Y-9368751D01*
X7847027Y-9368751D01*
X9339418Y-8852634D02*
X9339418Y-8767781D01*
X9254565Y-8767781D01*
X9254565Y-8852634D01*
X9339418Y-8852634D01*
X9805326Y-9130177D02*
X9805326Y-9045323D01*
X9720472Y-9045323D01*
X9720472Y-9130177D01*
X9805326Y-9130177D01*
X11148549Y-9613638D02*
X11148549Y-9528784D01*
X11063696Y-9528784D01*
X11063696Y-9613638D01*
X11148549Y-9613638D01*
X11614457Y-9891180D02*
X11614457Y-9806327D01*
X11529603Y-9806327D01*
X11529603Y-9891180D01*
X11614457Y-9891180D01*
X13065832Y-9314435D02*
X13065832Y-9229581D01*
X12980978Y-9229581D01*
X12980978Y-9314435D01*
X13065832Y-9314435D01*
X13565832Y-9524435D02*
X13565832Y-9439581D01*
X13480978Y-9439581D01*
X13480978Y-9524435D01*
X13565832Y-9524435D01*
X14976156Y-7409971D02*
X14976156Y-7325117D01*
X14891302Y-7325117D01*
X14891302Y-7409971D01*
X14976156Y-7409971D01*
X14986427Y-9313427D02*
X14986427Y-9228573D01*
X14901573Y-9228573D01*
X14901573Y-9313427D01*
X14986427Y-9313427D01*
X15476156Y-7619971D02*
X15476156Y-7535117D01*
X15391302Y-7535117D01*
X15391302Y-7619971D01*
X15476156Y-7619971D01*
X15486427Y-9523427D02*
X15486427Y-9438573D01*
X15401573Y-9438573D01*
X15401573Y-9523427D01*
X15486427Y-9523427D01*
X16877356Y-9315714D02*
X16877356Y-9230860D01*
X16792502Y-9230860D01*
X16792502Y-9315714D01*
X16877356Y-9315714D01*
X17377356Y-9525714D02*
X17377356Y-9440860D01*
X17292502Y-9440860D01*
X17292502Y-9525714D01*
X17377356Y-9525714D01*
X18797191Y-9614827D02*
X18797191Y-9529974D01*
X18712338Y-9529974D01*
X18712338Y-9614827D01*
X18797191Y-9614827D01*
X19321552Y-9753197D02*
X19321552Y-9668343D01*
X19236698Y-9668343D01*
X19236698Y-9753197D01*
X19321552Y-9753197D01*
X20603068Y-8856028D02*
X20603068Y-8771174D01*
X20518214Y-8771174D01*
X20518214Y-8856028D01*
X20603068Y-8856028D01*
X21127428Y-8994398D02*
X21127428Y-8909544D01*
X21042575Y-8909544D01*
X21042575Y-8994398D01*
X21127428Y-8994398D01*
X22564680Y-9087975D02*
X22564680Y-9003122D01*
X22479826Y-9003122D01*
X22479826Y-9087975D01*
X22564680Y-9087975D01*
X23089040Y-9226345D02*
X23089040Y-9141491D01*
X23004187Y-9141491D01*
X23004187Y-9226345D01*
X23089040Y-9226345D01*
X25074228Y-7728014D02*
X25074228Y-7643160D01*
X24989374Y-7643160D01*
X24989374Y-7728014D01*
X25074228Y-7728014D01*
X25574228Y-7938014D02*
X25574228Y-7853160D01*
X25489374Y-7853160D01*
X25489374Y-7938014D01*
X25574228Y-7938014D01*
D11*
X4289072Y-11356541D02*
X4289072Y-11156541D01*
X4289072Y-11156541D02*
X4336691Y-11156541D01*
X4336691Y-11156541D02*
X4365262Y-11166065D01*
X4365262Y-11166065D02*
X4384310Y-11185112D01*
X4384310Y-11185112D02*
X4393834Y-11204160D01*
X4393834Y-11204160D02*
X4403358Y-11242255D01*
X4403358Y-11242255D02*
X4403358Y-11270826D01*
X4403358Y-11270826D02*
X4393834Y-11308922D01*
X4393834Y-11308922D02*
X4384310Y-11327969D01*
X4384310Y-11327969D02*
X4365262Y-11347017D01*
X4365262Y-11347017D02*
X4336691Y-11356541D01*
X4336691Y-11356541D02*
X4289072Y-11356541D01*
X4489072Y-11356541D02*
X4489072Y-11223207D01*
X4489072Y-11261303D02*
X4498596Y-11242255D01*
X4498596Y-11242255D02*
X4508120Y-11232731D01*
X4508120Y-11232731D02*
X4527167Y-11223207D01*
X4527167Y-11223207D02*
X4546215Y-11223207D01*
X4612881Y-11356541D02*
X4612881Y-11223207D01*
X4612881Y-11156541D02*
X4603358Y-11166065D01*
X4603358Y-11166065D02*
X4612881Y-11175588D01*
X4612881Y-11175588D02*
X4622405Y-11166065D01*
X4622405Y-11166065D02*
X4612881Y-11156541D01*
X4612881Y-11156541D02*
X4612881Y-11175588D01*
X4736691Y-11356541D02*
X4717643Y-11347017D01*
X4717643Y-11347017D02*
X4708120Y-11327969D01*
X4708120Y-11327969D02*
X4708120Y-11156541D01*
X4841453Y-11356541D02*
X4822405Y-11347017D01*
X4822405Y-11347017D02*
X4812881Y-11327969D01*
X4812881Y-11327969D02*
X4812881Y-11156541D01*
X5037643Y-11356541D02*
X5037643Y-11156541D01*
X5037643Y-11156541D02*
X5104310Y-11299398D01*
X5104310Y-11299398D02*
X5170977Y-11156541D01*
X5170977Y-11156541D02*
X5170977Y-11356541D01*
X5351929Y-11356541D02*
X5351929Y-11251779D01*
X5351929Y-11251779D02*
X5342405Y-11232731D01*
X5342405Y-11232731D02*
X5323358Y-11223207D01*
X5323358Y-11223207D02*
X5285262Y-11223207D01*
X5285262Y-11223207D02*
X5266215Y-11232731D01*
X5351929Y-11347017D02*
X5332881Y-11356541D01*
X5332881Y-11356541D02*
X5285262Y-11356541D01*
X5285262Y-11356541D02*
X5266215Y-11347017D01*
X5266215Y-11347017D02*
X5256691Y-11327969D01*
X5256691Y-11327969D02*
X5256691Y-11308922D01*
X5256691Y-11308922D02*
X5266215Y-11289874D01*
X5266215Y-11289874D02*
X5285262Y-11280350D01*
X5285262Y-11280350D02*
X5332881Y-11280350D01*
X5332881Y-11280350D02*
X5351929Y-11270826D01*
X5447167Y-11223207D02*
X5447167Y-11423207D01*
X5447167Y-11232731D02*
X5466215Y-11223207D01*
X5466215Y-11223207D02*
X5504310Y-11223207D01*
X5504310Y-11223207D02*
X5523358Y-11232731D01*
X5523358Y-11232731D02*
X5532881Y-11242255D01*
X5532881Y-11242255D02*
X5542405Y-11261303D01*
X5542405Y-11261303D02*
X5542405Y-11318445D01*
X5542405Y-11318445D02*
X5532881Y-11337493D01*
X5532881Y-11337493D02*
X5523358Y-11347017D01*
X5523358Y-11347017D02*
X5504310Y-11356541D01*
X5504310Y-11356541D02*
X5466215Y-11356541D01*
X5466215Y-11356541D02*
X5447167Y-11347017D01*
X5628119Y-11337493D02*
X5637643Y-11347017D01*
X5637643Y-11347017D02*
X5628119Y-11356541D01*
X5628119Y-11356541D02*
X5618596Y-11347017D01*
X5618596Y-11347017D02*
X5628119Y-11337493D01*
X5628119Y-11337493D02*
X5628119Y-11356541D01*
X5628119Y-11232731D02*
X5637643Y-11242255D01*
X5637643Y-11242255D02*
X5628119Y-11251779D01*
X5628119Y-11251779D02*
X5618596Y-11242255D01*
X5618596Y-11242255D02*
X5628119Y-11232731D01*
X5628119Y-11232731D02*
X5628119Y-11251779D01*
D10*
X3941453Y-11653065D02*
X4041453Y-11753065D01*
X4041453Y-11653065D02*
X3941453Y-11753065D01*
D11*
X4393834Y-11776541D02*
X4279548Y-11776541D01*
X4336691Y-11776541D02*
X4336691Y-11576541D01*
X4336691Y-11576541D02*
X4317643Y-11605112D01*
X4317643Y-11605112D02*
X4298596Y-11624160D01*
X4298596Y-11624160D02*
X4279548Y-11633684D01*
X4479548Y-11757493D02*
X4489072Y-11767017D01*
X4489072Y-11767017D02*
X4479548Y-11776541D01*
X4479548Y-11776541D02*
X4470024Y-11767017D01*
X4470024Y-11767017D02*
X4479548Y-11757493D01*
X4479548Y-11757493D02*
X4479548Y-11776541D01*
X4612881Y-11576541D02*
X4631929Y-11576541D01*
X4631929Y-11576541D02*
X4650977Y-11586065D01*
X4650977Y-11586065D02*
X4660501Y-11595588D01*
X4660501Y-11595588D02*
X4670024Y-11614636D01*
X4670024Y-11614636D02*
X4679548Y-11652731D01*
X4679548Y-11652731D02*
X4679548Y-11700350D01*
X4679548Y-11700350D02*
X4670024Y-11738445D01*
X4670024Y-11738445D02*
X4660501Y-11757493D01*
X4660501Y-11757493D02*
X4650977Y-11767017D01*
X4650977Y-11767017D02*
X4631929Y-11776541D01*
X4631929Y-11776541D02*
X4612881Y-11776541D01*
X4612881Y-11776541D02*
X4593834Y-11767017D01*
X4593834Y-11767017D02*
X4584310Y-11757493D01*
X4584310Y-11757493D02*
X4574786Y-11738445D01*
X4574786Y-11738445D02*
X4565262Y-11700350D01*
X4565262Y-11700350D02*
X4565262Y-11652731D01*
X4565262Y-11652731D02*
X4574786Y-11614636D01*
X4574786Y-11614636D02*
X4584310Y-11595588D01*
X4584310Y-11595588D02*
X4593834Y-11586065D01*
X4593834Y-11586065D02*
X4612881Y-11576541D01*
X4803358Y-11576541D02*
X4822405Y-11576541D01*
X4822405Y-11576541D02*
X4841453Y-11586065D01*
X4841453Y-11586065D02*
X4850977Y-11595588D01*
X4850977Y-11595588D02*
X4860501Y-11614636D01*
X4860501Y-11614636D02*
X4870024Y-11652731D01*
X4870024Y-11652731D02*
X4870024Y-11700350D01*
X4870024Y-11700350D02*
X4860501Y-11738445D01*
X4860501Y-11738445D02*
X4850977Y-11757493D01*
X4850977Y-11757493D02*
X4841453Y-11767017D01*
X4841453Y-11767017D02*
X4822405Y-11776541D01*
X4822405Y-11776541D02*
X4803358Y-11776541D01*
X4803358Y-11776541D02*
X4784310Y-11767017D01*
X4784310Y-11767017D02*
X4774786Y-11757493D01*
X4774786Y-11757493D02*
X4765262Y-11738445D01*
X4765262Y-11738445D02*
X4755739Y-11700350D01*
X4755739Y-11700350D02*
X4755739Y-11652731D01*
X4755739Y-11652731D02*
X4765262Y-11614636D01*
X4765262Y-11614636D02*
X4774786Y-11595588D01*
X4774786Y-11595588D02*
X4784310Y-11586065D01*
X4784310Y-11586065D02*
X4803358Y-11576541D01*
X4993834Y-11576541D02*
X5012882Y-11576541D01*
X5012882Y-11576541D02*
X5031929Y-11586065D01*
X5031929Y-11586065D02*
X5041453Y-11595588D01*
X5041453Y-11595588D02*
X5050977Y-11614636D01*
X5050977Y-11614636D02*
X5060501Y-11652731D01*
X5060501Y-11652731D02*
X5060501Y-11700350D01*
X5060501Y-11700350D02*
X5050977Y-11738445D01*
X5050977Y-11738445D02*
X5041453Y-11757493D01*
X5041453Y-11757493D02*
X5031929Y-11767017D01*
X5031929Y-11767017D02*
X5012882Y-11776541D01*
X5012882Y-11776541D02*
X4993834Y-11776541D01*
X4993834Y-11776541D02*
X4974786Y-11767017D01*
X4974786Y-11767017D02*
X4965262Y-11757493D01*
X4965262Y-11757493D02*
X4955739Y-11738445D01*
X4955739Y-11738445D02*
X4946215Y-11700350D01*
X4946215Y-11700350D02*
X4946215Y-11652731D01*
X4946215Y-11652731D02*
X4955739Y-11614636D01*
X4955739Y-11614636D02*
X4965262Y-11595588D01*
X4965262Y-11595588D02*
X4974786Y-11586065D01*
X4974786Y-11586065D02*
X4993834Y-11576541D01*
X5146215Y-11776541D02*
X5146215Y-11643207D01*
X5146215Y-11662255D02*
X5155739Y-11652731D01*
X5155739Y-11652731D02*
X5174786Y-11643207D01*
X5174786Y-11643207D02*
X5203358Y-11643207D01*
X5203358Y-11643207D02*
X5222405Y-11652731D01*
X5222405Y-11652731D02*
X5231929Y-11671779D01*
X5231929Y-11671779D02*
X5231929Y-11776541D01*
X5231929Y-11671779D02*
X5241453Y-11652731D01*
X5241453Y-11652731D02*
X5260501Y-11643207D01*
X5260501Y-11643207D02*
X5289072Y-11643207D01*
X5289072Y-11643207D02*
X5308120Y-11652731D01*
X5308120Y-11652731D02*
X5317643Y-11671779D01*
X5317643Y-11671779D02*
X5317643Y-11776541D01*
X5412882Y-11776541D02*
X5412882Y-11643207D01*
X5412882Y-11662255D02*
X5422405Y-11652731D01*
X5422405Y-11652731D02*
X5441453Y-11643207D01*
X5441453Y-11643207D02*
X5470024Y-11643207D01*
X5470024Y-11643207D02*
X5489072Y-11652731D01*
X5489072Y-11652731D02*
X5498596Y-11671779D01*
X5498596Y-11671779D02*
X5498596Y-11776541D01*
X5498596Y-11671779D02*
X5508120Y-11652731D01*
X5508120Y-11652731D02*
X5527167Y-11643207D01*
X5527167Y-11643207D02*
X5555739Y-11643207D01*
X5555739Y-11643207D02*
X5574786Y-11652731D01*
X5574786Y-11652731D02*
X5584310Y-11671779D01*
X5584310Y-11671779D02*
X5584310Y-11776541D01*
X5942405Y-11567017D02*
X5770977Y-11824160D01*
X6167167Y-11576541D02*
X6186215Y-11576541D01*
X6186215Y-11576541D02*
X6205262Y-11586065D01*
X6205262Y-11586065D02*
X6214786Y-11595588D01*
X6214786Y-11595588D02*
X6224310Y-11614636D01*
X6224310Y-11614636D02*
X6233834Y-11652731D01*
X6233834Y-11652731D02*
X6233834Y-11700350D01*
X6233834Y-11700350D02*
X6224310Y-11738445D01*
X6224310Y-11738445D02*
X6214786Y-11757493D01*
X6214786Y-11757493D02*
X6205262Y-11767017D01*
X6205262Y-11767017D02*
X6186215Y-11776541D01*
X6186215Y-11776541D02*
X6167167Y-11776541D01*
X6167167Y-11776541D02*
X6148120Y-11767017D01*
X6148120Y-11767017D02*
X6138596Y-11757493D01*
X6138596Y-11757493D02*
X6129072Y-11738445D01*
X6129072Y-11738445D02*
X6119548Y-11700350D01*
X6119548Y-11700350D02*
X6119548Y-11652731D01*
X6119548Y-11652731D02*
X6129072Y-11614636D01*
X6129072Y-11614636D02*
X6138596Y-11595588D01*
X6138596Y-11595588D02*
X6148120Y-11586065D01*
X6148120Y-11586065D02*
X6167167Y-11576541D01*
X6319548Y-11757493D02*
X6329072Y-11767017D01*
X6329072Y-11767017D02*
X6319548Y-11776541D01*
X6319548Y-11776541D02*
X6310024Y-11767017D01*
X6310024Y-11767017D02*
X6319548Y-11757493D01*
X6319548Y-11757493D02*
X6319548Y-11776541D01*
X6452881Y-11576541D02*
X6471929Y-11576541D01*
X6471929Y-11576541D02*
X6490977Y-11586065D01*
X6490977Y-11586065D02*
X6500501Y-11595588D01*
X6500501Y-11595588D02*
X6510024Y-11614636D01*
X6510024Y-11614636D02*
X6519548Y-11652731D01*
X6519548Y-11652731D02*
X6519548Y-11700350D01*
X6519548Y-11700350D02*
X6510024Y-11738445D01*
X6510024Y-11738445D02*
X6500501Y-11757493D01*
X6500501Y-11757493D02*
X6490977Y-11767017D01*
X6490977Y-11767017D02*
X6471929Y-11776541D01*
X6471929Y-11776541D02*
X6452881Y-11776541D01*
X6452881Y-11776541D02*
X6433834Y-11767017D01*
X6433834Y-11767017D02*
X6424310Y-11757493D01*
X6424310Y-11757493D02*
X6414786Y-11738445D01*
X6414786Y-11738445D02*
X6405262Y-11700350D01*
X6405262Y-11700350D02*
X6405262Y-11652731D01*
X6405262Y-11652731D02*
X6414786Y-11614636D01*
X6414786Y-11614636D02*
X6424310Y-11595588D01*
X6424310Y-11595588D02*
X6433834Y-11586065D01*
X6433834Y-11586065D02*
X6452881Y-11576541D01*
X6586215Y-11576541D02*
X6710024Y-11576541D01*
X6710024Y-11576541D02*
X6643358Y-11652731D01*
X6643358Y-11652731D02*
X6671929Y-11652731D01*
X6671929Y-11652731D02*
X6690977Y-11662255D01*
X6690977Y-11662255D02*
X6700501Y-11671779D01*
X6700501Y-11671779D02*
X6710024Y-11690826D01*
X6710024Y-11690826D02*
X6710024Y-11738445D01*
X6710024Y-11738445D02*
X6700501Y-11757493D01*
X6700501Y-11757493D02*
X6690977Y-11767017D01*
X6690977Y-11767017D02*
X6671929Y-11776541D01*
X6671929Y-11776541D02*
X6614786Y-11776541D01*
X6614786Y-11776541D02*
X6595739Y-11767017D01*
X6595739Y-11767017D02*
X6586215Y-11757493D01*
X6805262Y-11776541D02*
X6843358Y-11776541D01*
X6843358Y-11776541D02*
X6862405Y-11767017D01*
X6862405Y-11767017D02*
X6871929Y-11757493D01*
X6871929Y-11757493D02*
X6890977Y-11728922D01*
X6890977Y-11728922D02*
X6900501Y-11690826D01*
X6900501Y-11690826D02*
X6900501Y-11614636D01*
X6900501Y-11614636D02*
X6890977Y-11595588D01*
X6890977Y-11595588D02*
X6881453Y-11586065D01*
X6881453Y-11586065D02*
X6862405Y-11576541D01*
X6862405Y-11576541D02*
X6824310Y-11576541D01*
X6824310Y-11576541D02*
X6805262Y-11586065D01*
X6805262Y-11586065D02*
X6795739Y-11595588D01*
X6795739Y-11595588D02*
X6786215Y-11614636D01*
X6786215Y-11614636D02*
X6786215Y-11662255D01*
X6786215Y-11662255D02*
X6795739Y-11681303D01*
X6795739Y-11681303D02*
X6805262Y-11690826D01*
X6805262Y-11690826D02*
X6824310Y-11700350D01*
X6824310Y-11700350D02*
X6862405Y-11700350D01*
X6862405Y-11700350D02*
X6881453Y-11690826D01*
X6881453Y-11690826D02*
X6890977Y-11681303D01*
X6890977Y-11681303D02*
X6900501Y-11662255D01*
X7071929Y-11643207D02*
X7071929Y-11776541D01*
X7024310Y-11567017D02*
X6976691Y-11709874D01*
X6976691Y-11709874D02*
X7100501Y-11709874D01*
X7167167Y-11576541D02*
X7167167Y-11614636D01*
X7243358Y-11576541D02*
X7243358Y-11614636D01*
X7506215Y-11852731D02*
X7496691Y-11843207D01*
X7496691Y-11843207D02*
X7477643Y-11814636D01*
X7477643Y-11814636D02*
X7468120Y-11795588D01*
X7468120Y-11795588D02*
X7458596Y-11767017D01*
X7458596Y-11767017D02*
X7449072Y-11719398D01*
X7449072Y-11719398D02*
X7449072Y-11681303D01*
X7449072Y-11681303D02*
X7458596Y-11633684D01*
X7458596Y-11633684D02*
X7468120Y-11605112D01*
X7468120Y-11605112D02*
X7477643Y-11586065D01*
X7477643Y-11586065D02*
X7496691Y-11557493D01*
X7496691Y-11557493D02*
X7506215Y-11547969D01*
X7687167Y-11776541D02*
X7572882Y-11776541D01*
X7630024Y-11776541D02*
X7630024Y-11576541D01*
X7630024Y-11576541D02*
X7610977Y-11605112D01*
X7610977Y-11605112D02*
X7591929Y-11624160D01*
X7591929Y-11624160D02*
X7572882Y-11633684D01*
X7763358Y-11595588D02*
X7772882Y-11586065D01*
X7772882Y-11586065D02*
X7791929Y-11576541D01*
X7791929Y-11576541D02*
X7839548Y-11576541D01*
X7839548Y-11576541D02*
X7858596Y-11586065D01*
X7858596Y-11586065D02*
X7868120Y-11595588D01*
X7868120Y-11595588D02*
X7877643Y-11614636D01*
X7877643Y-11614636D02*
X7877643Y-11633684D01*
X7877643Y-11633684D02*
X7868120Y-11662255D01*
X7868120Y-11662255D02*
X7753834Y-11776541D01*
X7753834Y-11776541D02*
X7877643Y-11776541D01*
X8083358Y-11776541D02*
X8083358Y-11576541D01*
X8169072Y-11776541D02*
X8169072Y-11671779D01*
X8169072Y-11671779D02*
X8159548Y-11652731D01*
X8159548Y-11652731D02*
X8140501Y-11643207D01*
X8140501Y-11643207D02*
X8111929Y-11643207D01*
X8111929Y-11643207D02*
X8092882Y-11652731D01*
X8092882Y-11652731D02*
X8083358Y-11662255D01*
X8292882Y-11776541D02*
X8273834Y-11767017D01*
X8273834Y-11767017D02*
X8264310Y-11757493D01*
X8264310Y-11757493D02*
X8254786Y-11738445D01*
X8254786Y-11738445D02*
X8254786Y-11681303D01*
X8254786Y-11681303D02*
X8264310Y-11662255D01*
X8264310Y-11662255D02*
X8273834Y-11652731D01*
X8273834Y-11652731D02*
X8292882Y-11643207D01*
X8292882Y-11643207D02*
X8321453Y-11643207D01*
X8321453Y-11643207D02*
X8340501Y-11652731D01*
X8340501Y-11652731D02*
X8350024Y-11662255D01*
X8350024Y-11662255D02*
X8359548Y-11681303D01*
X8359548Y-11681303D02*
X8359548Y-11738445D01*
X8359548Y-11738445D02*
X8350024Y-11757493D01*
X8350024Y-11757493D02*
X8340501Y-11767017D01*
X8340501Y-11767017D02*
X8321453Y-11776541D01*
X8321453Y-11776541D02*
X8292882Y-11776541D01*
X8473834Y-11776541D02*
X8454786Y-11767017D01*
X8454786Y-11767017D02*
X8445263Y-11747969D01*
X8445263Y-11747969D02*
X8445263Y-11576541D01*
X8626215Y-11767017D02*
X8607167Y-11776541D01*
X8607167Y-11776541D02*
X8569072Y-11776541D01*
X8569072Y-11776541D02*
X8550025Y-11767017D01*
X8550025Y-11767017D02*
X8540501Y-11747969D01*
X8540501Y-11747969D02*
X8540501Y-11671779D01*
X8540501Y-11671779D02*
X8550025Y-11652731D01*
X8550025Y-11652731D02*
X8569072Y-11643207D01*
X8569072Y-11643207D02*
X8607167Y-11643207D01*
X8607167Y-11643207D02*
X8626215Y-11652731D01*
X8626215Y-11652731D02*
X8635739Y-11671779D01*
X8635739Y-11671779D02*
X8635739Y-11690826D01*
X8635739Y-11690826D02*
X8540501Y-11709874D01*
X8711929Y-11767017D02*
X8730977Y-11776541D01*
X8730977Y-11776541D02*
X8769072Y-11776541D01*
X8769072Y-11776541D02*
X8788120Y-11767017D01*
X8788120Y-11767017D02*
X8797644Y-11747969D01*
X8797644Y-11747969D02*
X8797644Y-11738445D01*
X8797644Y-11738445D02*
X8788120Y-11719398D01*
X8788120Y-11719398D02*
X8769072Y-11709874D01*
X8769072Y-11709874D02*
X8740501Y-11709874D01*
X8740501Y-11709874D02*
X8721453Y-11700350D01*
X8721453Y-11700350D02*
X8711929Y-11681303D01*
X8711929Y-11681303D02*
X8711929Y-11671779D01*
X8711929Y-11671779D02*
X8721453Y-11652731D01*
X8721453Y-11652731D02*
X8740501Y-11643207D01*
X8740501Y-11643207D02*
X8769072Y-11643207D01*
X8769072Y-11643207D02*
X8788120Y-11652731D01*
X8864310Y-11852731D02*
X8873834Y-11843207D01*
X8873834Y-11843207D02*
X8892882Y-11814636D01*
X8892882Y-11814636D02*
X8902406Y-11795588D01*
X8902406Y-11795588D02*
X8911929Y-11767017D01*
X8911929Y-11767017D02*
X8921453Y-11719398D01*
X8921453Y-11719398D02*
X8921453Y-11681303D01*
X8921453Y-11681303D02*
X8911929Y-11633684D01*
X8911929Y-11633684D02*
X8902406Y-11605112D01*
X8902406Y-11605112D02*
X8892882Y-11586065D01*
X8892882Y-11586065D02*
X8873834Y-11557493D01*
X8873834Y-11557493D02*
X8864310Y-11547969D01*
D12*
X4041453Y-11967065D02*
G75*
G03*
X4041453Y-11967065I-55000J0D01*
G01*
D11*
X4393834Y-12040541D02*
X4279548Y-12040541D01*
X4336691Y-12040541D02*
X4336691Y-11840541D01*
X4336691Y-11840541D02*
X4317643Y-11869112D01*
X4317643Y-11869112D02*
X4298596Y-11888160D01*
X4298596Y-11888160D02*
X4279548Y-11897684D01*
X4479548Y-12021493D02*
X4489072Y-12031017D01*
X4489072Y-12031017D02*
X4479548Y-12040541D01*
X4479548Y-12040541D02*
X4470024Y-12031017D01*
X4470024Y-12031017D02*
X4479548Y-12021493D01*
X4479548Y-12021493D02*
X4479548Y-12040541D01*
X4679548Y-12040541D02*
X4565262Y-12040541D01*
X4622405Y-12040541D02*
X4622405Y-11840541D01*
X4622405Y-11840541D02*
X4603358Y-11869112D01*
X4603358Y-11869112D02*
X4584310Y-11888160D01*
X4584310Y-11888160D02*
X4565262Y-11897684D01*
X4803358Y-11840541D02*
X4822405Y-11840541D01*
X4822405Y-11840541D02*
X4841453Y-11850065D01*
X4841453Y-11850065D02*
X4850977Y-11859588D01*
X4850977Y-11859588D02*
X4860501Y-11878636D01*
X4860501Y-11878636D02*
X4870024Y-11916731D01*
X4870024Y-11916731D02*
X4870024Y-11964350D01*
X4870024Y-11964350D02*
X4860501Y-12002445D01*
X4860501Y-12002445D02*
X4850977Y-12021493D01*
X4850977Y-12021493D02*
X4841453Y-12031017D01*
X4841453Y-12031017D02*
X4822405Y-12040541D01*
X4822405Y-12040541D02*
X4803358Y-12040541D01*
X4803358Y-12040541D02*
X4784310Y-12031017D01*
X4784310Y-12031017D02*
X4774786Y-12021493D01*
X4774786Y-12021493D02*
X4765262Y-12002445D01*
X4765262Y-12002445D02*
X4755739Y-11964350D01*
X4755739Y-11964350D02*
X4755739Y-11916731D01*
X4755739Y-11916731D02*
X4765262Y-11878636D01*
X4765262Y-11878636D02*
X4774786Y-11859588D01*
X4774786Y-11859588D02*
X4784310Y-11850065D01*
X4784310Y-11850065D02*
X4803358Y-11840541D01*
X4993834Y-11840541D02*
X5012882Y-11840541D01*
X5012882Y-11840541D02*
X5031929Y-11850065D01*
X5031929Y-11850065D02*
X5041453Y-11859588D01*
X5041453Y-11859588D02*
X5050977Y-11878636D01*
X5050977Y-11878636D02*
X5060501Y-11916731D01*
X5060501Y-11916731D02*
X5060501Y-11964350D01*
X5060501Y-11964350D02*
X5050977Y-12002445D01*
X5050977Y-12002445D02*
X5041453Y-12021493D01*
X5041453Y-12021493D02*
X5031929Y-12031017D01*
X5031929Y-12031017D02*
X5012882Y-12040541D01*
X5012882Y-12040541D02*
X4993834Y-12040541D01*
X4993834Y-12040541D02*
X4974786Y-12031017D01*
X4974786Y-12031017D02*
X4965262Y-12021493D01*
X4965262Y-12021493D02*
X4955739Y-12002445D01*
X4955739Y-12002445D02*
X4946215Y-11964350D01*
X4946215Y-11964350D02*
X4946215Y-11916731D01*
X4946215Y-11916731D02*
X4955739Y-11878636D01*
X4955739Y-11878636D02*
X4965262Y-11859588D01*
X4965262Y-11859588D02*
X4974786Y-11850065D01*
X4974786Y-11850065D02*
X4993834Y-11840541D01*
X5146215Y-12040541D02*
X5146215Y-11907207D01*
X5146215Y-11926255D02*
X5155739Y-11916731D01*
X5155739Y-11916731D02*
X5174786Y-11907207D01*
X5174786Y-11907207D02*
X5203358Y-11907207D01*
X5203358Y-11907207D02*
X5222405Y-11916731D01*
X5222405Y-11916731D02*
X5231929Y-11935779D01*
X5231929Y-11935779D02*
X5231929Y-12040541D01*
X5231929Y-11935779D02*
X5241453Y-11916731D01*
X5241453Y-11916731D02*
X5260501Y-11907207D01*
X5260501Y-11907207D02*
X5289072Y-11907207D01*
X5289072Y-11907207D02*
X5308120Y-11916731D01*
X5308120Y-11916731D02*
X5317643Y-11935779D01*
X5317643Y-11935779D02*
X5317643Y-12040541D01*
X5412882Y-12040541D02*
X5412882Y-11907207D01*
X5412882Y-11926255D02*
X5422405Y-11916731D01*
X5422405Y-11916731D02*
X5441453Y-11907207D01*
X5441453Y-11907207D02*
X5470024Y-11907207D01*
X5470024Y-11907207D02*
X5489072Y-11916731D01*
X5489072Y-11916731D02*
X5498596Y-11935779D01*
X5498596Y-11935779D02*
X5498596Y-12040541D01*
X5498596Y-11935779D02*
X5508120Y-11916731D01*
X5508120Y-11916731D02*
X5527167Y-11907207D01*
X5527167Y-11907207D02*
X5555739Y-11907207D01*
X5555739Y-11907207D02*
X5574786Y-11916731D01*
X5574786Y-11916731D02*
X5584310Y-11935779D01*
X5584310Y-11935779D02*
X5584310Y-12040541D01*
X5942405Y-11831017D02*
X5770977Y-12088160D01*
X6167167Y-11840541D02*
X6186215Y-11840541D01*
X6186215Y-11840541D02*
X6205262Y-11850065D01*
X6205262Y-11850065D02*
X6214786Y-11859588D01*
X6214786Y-11859588D02*
X6224310Y-11878636D01*
X6224310Y-11878636D02*
X6233834Y-11916731D01*
X6233834Y-11916731D02*
X6233834Y-11964350D01*
X6233834Y-11964350D02*
X6224310Y-12002445D01*
X6224310Y-12002445D02*
X6214786Y-12021493D01*
X6214786Y-12021493D02*
X6205262Y-12031017D01*
X6205262Y-12031017D02*
X6186215Y-12040541D01*
X6186215Y-12040541D02*
X6167167Y-12040541D01*
X6167167Y-12040541D02*
X6148120Y-12031017D01*
X6148120Y-12031017D02*
X6138596Y-12021493D01*
X6138596Y-12021493D02*
X6129072Y-12002445D01*
X6129072Y-12002445D02*
X6119548Y-11964350D01*
X6119548Y-11964350D02*
X6119548Y-11916731D01*
X6119548Y-11916731D02*
X6129072Y-11878636D01*
X6129072Y-11878636D02*
X6138596Y-11859588D01*
X6138596Y-11859588D02*
X6148120Y-11850065D01*
X6148120Y-11850065D02*
X6167167Y-11840541D01*
X6319548Y-12021493D02*
X6329072Y-12031017D01*
X6329072Y-12031017D02*
X6319548Y-12040541D01*
X6319548Y-12040541D02*
X6310024Y-12031017D01*
X6310024Y-12031017D02*
X6319548Y-12021493D01*
X6319548Y-12021493D02*
X6319548Y-12040541D01*
X6452881Y-11840541D02*
X6471929Y-11840541D01*
X6471929Y-11840541D02*
X6490977Y-11850065D01*
X6490977Y-11850065D02*
X6500501Y-11859588D01*
X6500501Y-11859588D02*
X6510024Y-11878636D01*
X6510024Y-11878636D02*
X6519548Y-11916731D01*
X6519548Y-11916731D02*
X6519548Y-11964350D01*
X6519548Y-11964350D02*
X6510024Y-12002445D01*
X6510024Y-12002445D02*
X6500501Y-12021493D01*
X6500501Y-12021493D02*
X6490977Y-12031017D01*
X6490977Y-12031017D02*
X6471929Y-12040541D01*
X6471929Y-12040541D02*
X6452881Y-12040541D01*
X6452881Y-12040541D02*
X6433834Y-12031017D01*
X6433834Y-12031017D02*
X6424310Y-12021493D01*
X6424310Y-12021493D02*
X6414786Y-12002445D01*
X6414786Y-12002445D02*
X6405262Y-11964350D01*
X6405262Y-11964350D02*
X6405262Y-11916731D01*
X6405262Y-11916731D02*
X6414786Y-11878636D01*
X6414786Y-11878636D02*
X6424310Y-11859588D01*
X6424310Y-11859588D02*
X6433834Y-11850065D01*
X6433834Y-11850065D02*
X6452881Y-11840541D01*
X6690977Y-11907207D02*
X6690977Y-12040541D01*
X6643358Y-11831017D02*
X6595739Y-11973874D01*
X6595739Y-11973874D02*
X6719548Y-11973874D01*
X6776691Y-11840541D02*
X6900501Y-11840541D01*
X6900501Y-11840541D02*
X6833834Y-11916731D01*
X6833834Y-11916731D02*
X6862405Y-11916731D01*
X6862405Y-11916731D02*
X6881453Y-11926255D01*
X6881453Y-11926255D02*
X6890977Y-11935779D01*
X6890977Y-11935779D02*
X6900501Y-11954826D01*
X6900501Y-11954826D02*
X6900501Y-12002445D01*
X6900501Y-12002445D02*
X6890977Y-12021493D01*
X6890977Y-12021493D02*
X6881453Y-12031017D01*
X6881453Y-12031017D02*
X6862405Y-12040541D01*
X6862405Y-12040541D02*
X6805262Y-12040541D01*
X6805262Y-12040541D02*
X6786215Y-12031017D01*
X6786215Y-12031017D02*
X6776691Y-12021493D01*
X6967167Y-11840541D02*
X7090977Y-11840541D01*
X7090977Y-11840541D02*
X7024310Y-11916731D01*
X7024310Y-11916731D02*
X7052882Y-11916731D01*
X7052882Y-11916731D02*
X7071929Y-11926255D01*
X7071929Y-11926255D02*
X7081453Y-11935779D01*
X7081453Y-11935779D02*
X7090977Y-11954826D01*
X7090977Y-11954826D02*
X7090977Y-12002445D01*
X7090977Y-12002445D02*
X7081453Y-12021493D01*
X7081453Y-12021493D02*
X7071929Y-12031017D01*
X7071929Y-12031017D02*
X7052882Y-12040541D01*
X7052882Y-12040541D02*
X6995739Y-12040541D01*
X6995739Y-12040541D02*
X6976691Y-12031017D01*
X6976691Y-12031017D02*
X6967167Y-12021493D01*
X7167167Y-11840541D02*
X7167167Y-11878636D01*
X7243358Y-11840541D02*
X7243358Y-11878636D01*
X7506215Y-12116731D02*
X7496691Y-12107207D01*
X7496691Y-12107207D02*
X7477643Y-12078636D01*
X7477643Y-12078636D02*
X7468120Y-12059588D01*
X7468120Y-12059588D02*
X7458596Y-12031017D01*
X7458596Y-12031017D02*
X7449072Y-11983398D01*
X7449072Y-11983398D02*
X7449072Y-11945303D01*
X7449072Y-11945303D02*
X7458596Y-11897684D01*
X7458596Y-11897684D02*
X7468120Y-11869112D01*
X7468120Y-11869112D02*
X7477643Y-11850065D01*
X7477643Y-11850065D02*
X7496691Y-11821493D01*
X7496691Y-11821493D02*
X7506215Y-11811969D01*
X7572882Y-11859588D02*
X7582405Y-11850065D01*
X7582405Y-11850065D02*
X7601453Y-11840541D01*
X7601453Y-11840541D02*
X7649072Y-11840541D01*
X7649072Y-11840541D02*
X7668120Y-11850065D01*
X7668120Y-11850065D02*
X7677643Y-11859588D01*
X7677643Y-11859588D02*
X7687167Y-11878636D01*
X7687167Y-11878636D02*
X7687167Y-11897684D01*
X7687167Y-11897684D02*
X7677643Y-11926255D01*
X7677643Y-11926255D02*
X7563358Y-12040541D01*
X7563358Y-12040541D02*
X7687167Y-12040541D01*
X7892882Y-12040541D02*
X7892882Y-11840541D01*
X7978596Y-12040541D02*
X7978596Y-11935779D01*
X7978596Y-11935779D02*
X7969072Y-11916731D01*
X7969072Y-11916731D02*
X7950024Y-11907207D01*
X7950024Y-11907207D02*
X7921453Y-11907207D01*
X7921453Y-11907207D02*
X7902405Y-11916731D01*
X7902405Y-11916731D02*
X7892882Y-11926255D01*
X8102405Y-12040541D02*
X8083358Y-12031017D01*
X8083358Y-12031017D02*
X8073834Y-12021493D01*
X8073834Y-12021493D02*
X8064310Y-12002445D01*
X8064310Y-12002445D02*
X8064310Y-11945303D01*
X8064310Y-11945303D02*
X8073834Y-11926255D01*
X8073834Y-11926255D02*
X8083358Y-11916731D01*
X8083358Y-11916731D02*
X8102405Y-11907207D01*
X8102405Y-11907207D02*
X8130977Y-11907207D01*
X8130977Y-11907207D02*
X8150024Y-11916731D01*
X8150024Y-11916731D02*
X8159548Y-11926255D01*
X8159548Y-11926255D02*
X8169072Y-11945303D01*
X8169072Y-11945303D02*
X8169072Y-12002445D01*
X8169072Y-12002445D02*
X8159548Y-12021493D01*
X8159548Y-12021493D02*
X8150024Y-12031017D01*
X8150024Y-12031017D02*
X8130977Y-12040541D01*
X8130977Y-12040541D02*
X8102405Y-12040541D01*
X8283358Y-12040541D02*
X8264310Y-12031017D01*
X8264310Y-12031017D02*
X8254786Y-12011969D01*
X8254786Y-12011969D02*
X8254786Y-11840541D01*
X8435739Y-12031017D02*
X8416691Y-12040541D01*
X8416691Y-12040541D02*
X8378596Y-12040541D01*
X8378596Y-12040541D02*
X8359548Y-12031017D01*
X8359548Y-12031017D02*
X8350024Y-12011969D01*
X8350024Y-12011969D02*
X8350024Y-11935779D01*
X8350024Y-11935779D02*
X8359548Y-11916731D01*
X8359548Y-11916731D02*
X8378596Y-11907207D01*
X8378596Y-11907207D02*
X8416691Y-11907207D01*
X8416691Y-11907207D02*
X8435739Y-11916731D01*
X8435739Y-11916731D02*
X8445263Y-11935779D01*
X8445263Y-11935779D02*
X8445263Y-11954826D01*
X8445263Y-11954826D02*
X8350024Y-11973874D01*
X8521453Y-12031017D02*
X8540501Y-12040541D01*
X8540501Y-12040541D02*
X8578596Y-12040541D01*
X8578596Y-12040541D02*
X8597644Y-12031017D01*
X8597644Y-12031017D02*
X8607167Y-12011969D01*
X8607167Y-12011969D02*
X8607167Y-12002445D01*
X8607167Y-12002445D02*
X8597644Y-11983398D01*
X8597644Y-11983398D02*
X8578596Y-11973874D01*
X8578596Y-11973874D02*
X8550025Y-11973874D01*
X8550025Y-11973874D02*
X8530977Y-11964350D01*
X8530977Y-11964350D02*
X8521453Y-11945303D01*
X8521453Y-11945303D02*
X8521453Y-11935779D01*
X8521453Y-11935779D02*
X8530977Y-11916731D01*
X8530977Y-11916731D02*
X8550025Y-11907207D01*
X8550025Y-11907207D02*
X8578596Y-11907207D01*
X8578596Y-11907207D02*
X8597644Y-11916731D01*
X8673834Y-12116731D02*
X8683358Y-12107207D01*
X8683358Y-12107207D02*
X8702406Y-12078636D01*
X8702406Y-12078636D02*
X8711929Y-12059588D01*
X8711929Y-12059588D02*
X8721453Y-12031017D01*
X8721453Y-12031017D02*
X8730977Y-11983398D01*
X8730977Y-11983398D02*
X8730977Y-11945303D01*
X8730977Y-11945303D02*
X8721453Y-11897684D01*
X8721453Y-11897684D02*
X8711929Y-11869112D01*
X8711929Y-11869112D02*
X8702406Y-11850065D01*
X8702406Y-11850065D02*
X8683358Y-11821493D01*
X8683358Y-11821493D02*
X8673834Y-11811969D01*
D12*
X3986453Y-12176065D02*
X3986453Y-12286065D01*
X3931453Y-12231065D02*
X4041453Y-12231065D01*
D11*
X4393834Y-12304541D02*
X4279548Y-12304541D01*
X4336691Y-12304541D02*
X4336691Y-12104541D01*
X4336691Y-12104541D02*
X4317643Y-12133112D01*
X4317643Y-12133112D02*
X4298596Y-12152160D01*
X4298596Y-12152160D02*
X4279548Y-12161684D01*
X4479548Y-12285493D02*
X4489072Y-12295017D01*
X4489072Y-12295017D02*
X4479548Y-12304541D01*
X4479548Y-12304541D02*
X4470024Y-12295017D01*
X4470024Y-12295017D02*
X4479548Y-12285493D01*
X4479548Y-12285493D02*
X4479548Y-12304541D01*
X4679548Y-12304541D02*
X4565262Y-12304541D01*
X4622405Y-12304541D02*
X4622405Y-12104541D01*
X4622405Y-12104541D02*
X4603358Y-12133112D01*
X4603358Y-12133112D02*
X4584310Y-12152160D01*
X4584310Y-12152160D02*
X4565262Y-12161684D01*
X4803358Y-12104541D02*
X4822405Y-12104541D01*
X4822405Y-12104541D02*
X4841453Y-12114065D01*
X4841453Y-12114065D02*
X4850977Y-12123588D01*
X4850977Y-12123588D02*
X4860501Y-12142636D01*
X4860501Y-12142636D02*
X4870024Y-12180731D01*
X4870024Y-12180731D02*
X4870024Y-12228350D01*
X4870024Y-12228350D02*
X4860501Y-12266445D01*
X4860501Y-12266445D02*
X4850977Y-12285493D01*
X4850977Y-12285493D02*
X4841453Y-12295017D01*
X4841453Y-12295017D02*
X4822405Y-12304541D01*
X4822405Y-12304541D02*
X4803358Y-12304541D01*
X4803358Y-12304541D02*
X4784310Y-12295017D01*
X4784310Y-12295017D02*
X4774786Y-12285493D01*
X4774786Y-12285493D02*
X4765262Y-12266445D01*
X4765262Y-12266445D02*
X4755739Y-12228350D01*
X4755739Y-12228350D02*
X4755739Y-12180731D01*
X4755739Y-12180731D02*
X4765262Y-12142636D01*
X4765262Y-12142636D02*
X4774786Y-12123588D01*
X4774786Y-12123588D02*
X4784310Y-12114065D01*
X4784310Y-12114065D02*
X4803358Y-12104541D01*
X4993834Y-12104541D02*
X5012882Y-12104541D01*
X5012882Y-12104541D02*
X5031929Y-12114065D01*
X5031929Y-12114065D02*
X5041453Y-12123588D01*
X5041453Y-12123588D02*
X5050977Y-12142636D01*
X5050977Y-12142636D02*
X5060501Y-12180731D01*
X5060501Y-12180731D02*
X5060501Y-12228350D01*
X5060501Y-12228350D02*
X5050977Y-12266445D01*
X5050977Y-12266445D02*
X5041453Y-12285493D01*
X5041453Y-12285493D02*
X5031929Y-12295017D01*
X5031929Y-12295017D02*
X5012882Y-12304541D01*
X5012882Y-12304541D02*
X4993834Y-12304541D01*
X4993834Y-12304541D02*
X4974786Y-12295017D01*
X4974786Y-12295017D02*
X4965262Y-12285493D01*
X4965262Y-12285493D02*
X4955739Y-12266445D01*
X4955739Y-12266445D02*
X4946215Y-12228350D01*
X4946215Y-12228350D02*
X4946215Y-12180731D01*
X4946215Y-12180731D02*
X4955739Y-12142636D01*
X4955739Y-12142636D02*
X4965262Y-12123588D01*
X4965262Y-12123588D02*
X4974786Y-12114065D01*
X4974786Y-12114065D02*
X4993834Y-12104541D01*
X5146215Y-12304541D02*
X5146215Y-12171207D01*
X5146215Y-12190255D02*
X5155739Y-12180731D01*
X5155739Y-12180731D02*
X5174786Y-12171207D01*
X5174786Y-12171207D02*
X5203358Y-12171207D01*
X5203358Y-12171207D02*
X5222405Y-12180731D01*
X5222405Y-12180731D02*
X5231929Y-12199779D01*
X5231929Y-12199779D02*
X5231929Y-12304541D01*
X5231929Y-12199779D02*
X5241453Y-12180731D01*
X5241453Y-12180731D02*
X5260501Y-12171207D01*
X5260501Y-12171207D02*
X5289072Y-12171207D01*
X5289072Y-12171207D02*
X5308120Y-12180731D01*
X5308120Y-12180731D02*
X5317643Y-12199779D01*
X5317643Y-12199779D02*
X5317643Y-12304541D01*
X5412882Y-12304541D02*
X5412882Y-12171207D01*
X5412882Y-12190255D02*
X5422405Y-12180731D01*
X5422405Y-12180731D02*
X5441453Y-12171207D01*
X5441453Y-12171207D02*
X5470024Y-12171207D01*
X5470024Y-12171207D02*
X5489072Y-12180731D01*
X5489072Y-12180731D02*
X5498596Y-12199779D01*
X5498596Y-12199779D02*
X5498596Y-12304541D01*
X5498596Y-12199779D02*
X5508120Y-12180731D01*
X5508120Y-12180731D02*
X5527167Y-12171207D01*
X5527167Y-12171207D02*
X5555739Y-12171207D01*
X5555739Y-12171207D02*
X5574786Y-12180731D01*
X5574786Y-12180731D02*
X5584310Y-12199779D01*
X5584310Y-12199779D02*
X5584310Y-12304541D01*
X5942405Y-12095017D02*
X5770977Y-12352160D01*
X6167167Y-12104541D02*
X6186215Y-12104541D01*
X6186215Y-12104541D02*
X6205262Y-12114065D01*
X6205262Y-12114065D02*
X6214786Y-12123588D01*
X6214786Y-12123588D02*
X6224310Y-12142636D01*
X6224310Y-12142636D02*
X6233834Y-12180731D01*
X6233834Y-12180731D02*
X6233834Y-12228350D01*
X6233834Y-12228350D02*
X6224310Y-12266445D01*
X6224310Y-12266445D02*
X6214786Y-12285493D01*
X6214786Y-12285493D02*
X6205262Y-12295017D01*
X6205262Y-12295017D02*
X6186215Y-12304541D01*
X6186215Y-12304541D02*
X6167167Y-12304541D01*
X6167167Y-12304541D02*
X6148120Y-12295017D01*
X6148120Y-12295017D02*
X6138596Y-12285493D01*
X6138596Y-12285493D02*
X6129072Y-12266445D01*
X6129072Y-12266445D02*
X6119548Y-12228350D01*
X6119548Y-12228350D02*
X6119548Y-12180731D01*
X6119548Y-12180731D02*
X6129072Y-12142636D01*
X6129072Y-12142636D02*
X6138596Y-12123588D01*
X6138596Y-12123588D02*
X6148120Y-12114065D01*
X6148120Y-12114065D02*
X6167167Y-12104541D01*
X6319548Y-12285493D02*
X6329072Y-12295017D01*
X6329072Y-12295017D02*
X6319548Y-12304541D01*
X6319548Y-12304541D02*
X6310024Y-12295017D01*
X6310024Y-12295017D02*
X6319548Y-12285493D01*
X6319548Y-12285493D02*
X6319548Y-12304541D01*
X6452881Y-12104541D02*
X6471929Y-12104541D01*
X6471929Y-12104541D02*
X6490977Y-12114065D01*
X6490977Y-12114065D02*
X6500501Y-12123588D01*
X6500501Y-12123588D02*
X6510024Y-12142636D01*
X6510024Y-12142636D02*
X6519548Y-12180731D01*
X6519548Y-12180731D02*
X6519548Y-12228350D01*
X6519548Y-12228350D02*
X6510024Y-12266445D01*
X6510024Y-12266445D02*
X6500501Y-12285493D01*
X6500501Y-12285493D02*
X6490977Y-12295017D01*
X6490977Y-12295017D02*
X6471929Y-12304541D01*
X6471929Y-12304541D02*
X6452881Y-12304541D01*
X6452881Y-12304541D02*
X6433834Y-12295017D01*
X6433834Y-12295017D02*
X6424310Y-12285493D01*
X6424310Y-12285493D02*
X6414786Y-12266445D01*
X6414786Y-12266445D02*
X6405262Y-12228350D01*
X6405262Y-12228350D02*
X6405262Y-12180731D01*
X6405262Y-12180731D02*
X6414786Y-12142636D01*
X6414786Y-12142636D02*
X6424310Y-12123588D01*
X6424310Y-12123588D02*
X6433834Y-12114065D01*
X6433834Y-12114065D02*
X6452881Y-12104541D01*
X6690977Y-12171207D02*
X6690977Y-12304541D01*
X6643358Y-12095017D02*
X6595739Y-12237874D01*
X6595739Y-12237874D02*
X6719548Y-12237874D01*
X6776691Y-12104541D02*
X6900501Y-12104541D01*
X6900501Y-12104541D02*
X6833834Y-12180731D01*
X6833834Y-12180731D02*
X6862405Y-12180731D01*
X6862405Y-12180731D02*
X6881453Y-12190255D01*
X6881453Y-12190255D02*
X6890977Y-12199779D01*
X6890977Y-12199779D02*
X6900501Y-12218826D01*
X6900501Y-12218826D02*
X6900501Y-12266445D01*
X6900501Y-12266445D02*
X6890977Y-12285493D01*
X6890977Y-12285493D02*
X6881453Y-12295017D01*
X6881453Y-12295017D02*
X6862405Y-12304541D01*
X6862405Y-12304541D02*
X6805262Y-12304541D01*
X6805262Y-12304541D02*
X6786215Y-12295017D01*
X6786215Y-12295017D02*
X6776691Y-12285493D01*
X6967167Y-12104541D02*
X7090977Y-12104541D01*
X7090977Y-12104541D02*
X7024310Y-12180731D01*
X7024310Y-12180731D02*
X7052882Y-12180731D01*
X7052882Y-12180731D02*
X7071929Y-12190255D01*
X7071929Y-12190255D02*
X7081453Y-12199779D01*
X7081453Y-12199779D02*
X7090977Y-12218826D01*
X7090977Y-12218826D02*
X7090977Y-12266445D01*
X7090977Y-12266445D02*
X7081453Y-12285493D01*
X7081453Y-12285493D02*
X7071929Y-12295017D01*
X7071929Y-12295017D02*
X7052882Y-12304541D01*
X7052882Y-12304541D02*
X6995739Y-12304541D01*
X6995739Y-12304541D02*
X6976691Y-12295017D01*
X6976691Y-12295017D02*
X6967167Y-12285493D01*
X7167167Y-12104541D02*
X7167167Y-12142636D01*
X7243358Y-12104541D02*
X7243358Y-12142636D01*
X7506215Y-12380731D02*
X7496691Y-12371207D01*
X7496691Y-12371207D02*
X7477643Y-12342636D01*
X7477643Y-12342636D02*
X7468120Y-12323588D01*
X7468120Y-12323588D02*
X7458596Y-12295017D01*
X7458596Y-12295017D02*
X7449072Y-12247398D01*
X7449072Y-12247398D02*
X7449072Y-12209303D01*
X7449072Y-12209303D02*
X7458596Y-12161684D01*
X7458596Y-12161684D02*
X7468120Y-12133112D01*
X7468120Y-12133112D02*
X7477643Y-12114065D01*
X7477643Y-12114065D02*
X7496691Y-12085493D01*
X7496691Y-12085493D02*
X7506215Y-12075969D01*
X7572882Y-12123588D02*
X7582405Y-12114065D01*
X7582405Y-12114065D02*
X7601453Y-12104541D01*
X7601453Y-12104541D02*
X7649072Y-12104541D01*
X7649072Y-12104541D02*
X7668120Y-12114065D01*
X7668120Y-12114065D02*
X7677643Y-12123588D01*
X7677643Y-12123588D02*
X7687167Y-12142636D01*
X7687167Y-12142636D02*
X7687167Y-12161684D01*
X7687167Y-12161684D02*
X7677643Y-12190255D01*
X7677643Y-12190255D02*
X7563358Y-12304541D01*
X7563358Y-12304541D02*
X7687167Y-12304541D01*
X7858596Y-12171207D02*
X7858596Y-12304541D01*
X7810977Y-12095017D02*
X7763358Y-12237874D01*
X7763358Y-12237874D02*
X7887167Y-12237874D01*
X8083358Y-12304541D02*
X8083358Y-12104541D01*
X8169072Y-12304541D02*
X8169072Y-12199779D01*
X8169072Y-12199779D02*
X8159548Y-12180731D01*
X8159548Y-12180731D02*
X8140501Y-12171207D01*
X8140501Y-12171207D02*
X8111929Y-12171207D01*
X8111929Y-12171207D02*
X8092882Y-12180731D01*
X8092882Y-12180731D02*
X8083358Y-12190255D01*
X8292882Y-12304541D02*
X8273834Y-12295017D01*
X8273834Y-12295017D02*
X8264310Y-12285493D01*
X8264310Y-12285493D02*
X8254786Y-12266445D01*
X8254786Y-12266445D02*
X8254786Y-12209303D01*
X8254786Y-12209303D02*
X8264310Y-12190255D01*
X8264310Y-12190255D02*
X8273834Y-12180731D01*
X8273834Y-12180731D02*
X8292882Y-12171207D01*
X8292882Y-12171207D02*
X8321453Y-12171207D01*
X8321453Y-12171207D02*
X8340501Y-12180731D01*
X8340501Y-12180731D02*
X8350024Y-12190255D01*
X8350024Y-12190255D02*
X8359548Y-12209303D01*
X8359548Y-12209303D02*
X8359548Y-12266445D01*
X8359548Y-12266445D02*
X8350024Y-12285493D01*
X8350024Y-12285493D02*
X8340501Y-12295017D01*
X8340501Y-12295017D02*
X8321453Y-12304541D01*
X8321453Y-12304541D02*
X8292882Y-12304541D01*
X8473834Y-12304541D02*
X8454786Y-12295017D01*
X8454786Y-12295017D02*
X8445263Y-12275969D01*
X8445263Y-12275969D02*
X8445263Y-12104541D01*
X8626215Y-12295017D02*
X8607167Y-12304541D01*
X8607167Y-12304541D02*
X8569072Y-12304541D01*
X8569072Y-12304541D02*
X8550025Y-12295017D01*
X8550025Y-12295017D02*
X8540501Y-12275969D01*
X8540501Y-12275969D02*
X8540501Y-12199779D01*
X8540501Y-12199779D02*
X8550025Y-12180731D01*
X8550025Y-12180731D02*
X8569072Y-12171207D01*
X8569072Y-12171207D02*
X8607167Y-12171207D01*
X8607167Y-12171207D02*
X8626215Y-12180731D01*
X8626215Y-12180731D02*
X8635739Y-12199779D01*
X8635739Y-12199779D02*
X8635739Y-12218826D01*
X8635739Y-12218826D02*
X8540501Y-12237874D01*
X8711929Y-12295017D02*
X8730977Y-12304541D01*
X8730977Y-12304541D02*
X8769072Y-12304541D01*
X8769072Y-12304541D02*
X8788120Y-12295017D01*
X8788120Y-12295017D02*
X8797644Y-12275969D01*
X8797644Y-12275969D02*
X8797644Y-12266445D01*
X8797644Y-12266445D02*
X8788120Y-12247398D01*
X8788120Y-12247398D02*
X8769072Y-12237874D01*
X8769072Y-12237874D02*
X8740501Y-12237874D01*
X8740501Y-12237874D02*
X8721453Y-12228350D01*
X8721453Y-12228350D02*
X8711929Y-12209303D01*
X8711929Y-12209303D02*
X8711929Y-12199779D01*
X8711929Y-12199779D02*
X8721453Y-12180731D01*
X8721453Y-12180731D02*
X8740501Y-12171207D01*
X8740501Y-12171207D02*
X8769072Y-12171207D01*
X8769072Y-12171207D02*
X8788120Y-12180731D01*
X8864310Y-12380731D02*
X8873834Y-12371207D01*
X8873834Y-12371207D02*
X8892882Y-12342636D01*
X8892882Y-12342636D02*
X8902406Y-12323588D01*
X8902406Y-12323588D02*
X8911929Y-12295017D01*
X8911929Y-12295017D02*
X8921453Y-12247398D01*
X8921453Y-12247398D02*
X8921453Y-12209303D01*
X8921453Y-12209303D02*
X8911929Y-12161684D01*
X8911929Y-12161684D02*
X8902406Y-12133112D01*
X8902406Y-12133112D02*
X8892882Y-12114065D01*
X8892882Y-12114065D02*
X8873834Y-12085493D01*
X8873834Y-12085493D02*
X8864310Y-12075969D01*
D13*
X4023880Y-12537491D02*
X4023880Y-12452638D01*
X3939026Y-12452638D01*
X3939026Y-12537491D01*
X4023880Y-12537491D01*
D11*
X4393834Y-12568541D02*
X4279548Y-12568541D01*
X4336691Y-12568541D02*
X4336691Y-12368541D01*
X4336691Y-12368541D02*
X4317643Y-12397112D01*
X4317643Y-12397112D02*
X4298596Y-12416160D01*
X4298596Y-12416160D02*
X4279548Y-12425684D01*
X4479548Y-12549493D02*
X4489072Y-12559017D01*
X4489072Y-12559017D02*
X4479548Y-12568541D01*
X4479548Y-12568541D02*
X4470024Y-12559017D01*
X4470024Y-12559017D02*
X4479548Y-12549493D01*
X4479548Y-12549493D02*
X4479548Y-12568541D01*
X4565262Y-12387588D02*
X4574786Y-12378065D01*
X4574786Y-12378065D02*
X4593834Y-12368541D01*
X4593834Y-12368541D02*
X4641453Y-12368541D01*
X4641453Y-12368541D02*
X4660501Y-12378065D01*
X4660501Y-12378065D02*
X4670024Y-12387588D01*
X4670024Y-12387588D02*
X4679548Y-12406636D01*
X4679548Y-12406636D02*
X4679548Y-12425684D01*
X4679548Y-12425684D02*
X4670024Y-12454255D01*
X4670024Y-12454255D02*
X4555739Y-12568541D01*
X4555739Y-12568541D02*
X4679548Y-12568541D01*
X4803358Y-12368541D02*
X4822405Y-12368541D01*
X4822405Y-12368541D02*
X4841453Y-12378065D01*
X4841453Y-12378065D02*
X4850977Y-12387588D01*
X4850977Y-12387588D02*
X4860501Y-12406636D01*
X4860501Y-12406636D02*
X4870024Y-12444731D01*
X4870024Y-12444731D02*
X4870024Y-12492350D01*
X4870024Y-12492350D02*
X4860501Y-12530445D01*
X4860501Y-12530445D02*
X4850977Y-12549493D01*
X4850977Y-12549493D02*
X4841453Y-12559017D01*
X4841453Y-12559017D02*
X4822405Y-12568541D01*
X4822405Y-12568541D02*
X4803358Y-12568541D01*
X4803358Y-12568541D02*
X4784310Y-12559017D01*
X4784310Y-12559017D02*
X4774786Y-12549493D01*
X4774786Y-12549493D02*
X4765262Y-12530445D01*
X4765262Y-12530445D02*
X4755739Y-12492350D01*
X4755739Y-12492350D02*
X4755739Y-12444731D01*
X4755739Y-12444731D02*
X4765262Y-12406636D01*
X4765262Y-12406636D02*
X4774786Y-12387588D01*
X4774786Y-12387588D02*
X4784310Y-12378065D01*
X4784310Y-12378065D02*
X4803358Y-12368541D01*
X4993834Y-12368541D02*
X5012882Y-12368541D01*
X5012882Y-12368541D02*
X5031929Y-12378065D01*
X5031929Y-12378065D02*
X5041453Y-12387588D01*
X5041453Y-12387588D02*
X5050977Y-12406636D01*
X5050977Y-12406636D02*
X5060501Y-12444731D01*
X5060501Y-12444731D02*
X5060501Y-12492350D01*
X5060501Y-12492350D02*
X5050977Y-12530445D01*
X5050977Y-12530445D02*
X5041453Y-12549493D01*
X5041453Y-12549493D02*
X5031929Y-12559017D01*
X5031929Y-12559017D02*
X5012882Y-12568541D01*
X5012882Y-12568541D02*
X4993834Y-12568541D01*
X4993834Y-12568541D02*
X4974786Y-12559017D01*
X4974786Y-12559017D02*
X4965262Y-12549493D01*
X4965262Y-12549493D02*
X4955739Y-12530445D01*
X4955739Y-12530445D02*
X4946215Y-12492350D01*
X4946215Y-12492350D02*
X4946215Y-12444731D01*
X4946215Y-12444731D02*
X4955739Y-12406636D01*
X4955739Y-12406636D02*
X4965262Y-12387588D01*
X4965262Y-12387588D02*
X4974786Y-12378065D01*
X4974786Y-12378065D02*
X4993834Y-12368541D01*
X5146215Y-12568541D02*
X5146215Y-12435207D01*
X5146215Y-12454255D02*
X5155739Y-12444731D01*
X5155739Y-12444731D02*
X5174786Y-12435207D01*
X5174786Y-12435207D02*
X5203358Y-12435207D01*
X5203358Y-12435207D02*
X5222405Y-12444731D01*
X5222405Y-12444731D02*
X5231929Y-12463779D01*
X5231929Y-12463779D02*
X5231929Y-12568541D01*
X5231929Y-12463779D02*
X5241453Y-12444731D01*
X5241453Y-12444731D02*
X5260501Y-12435207D01*
X5260501Y-12435207D02*
X5289072Y-12435207D01*
X5289072Y-12435207D02*
X5308120Y-12444731D01*
X5308120Y-12444731D02*
X5317643Y-12463779D01*
X5317643Y-12463779D02*
X5317643Y-12568541D01*
X5412882Y-12568541D02*
X5412882Y-12435207D01*
X5412882Y-12454255D02*
X5422405Y-12444731D01*
X5422405Y-12444731D02*
X5441453Y-12435207D01*
X5441453Y-12435207D02*
X5470024Y-12435207D01*
X5470024Y-12435207D02*
X5489072Y-12444731D01*
X5489072Y-12444731D02*
X5498596Y-12463779D01*
X5498596Y-12463779D02*
X5498596Y-12568541D01*
X5498596Y-12463779D02*
X5508120Y-12444731D01*
X5508120Y-12444731D02*
X5527167Y-12435207D01*
X5527167Y-12435207D02*
X5555739Y-12435207D01*
X5555739Y-12435207D02*
X5574786Y-12444731D01*
X5574786Y-12444731D02*
X5584310Y-12463779D01*
X5584310Y-12463779D02*
X5584310Y-12568541D01*
X5942405Y-12359017D02*
X5770977Y-12616160D01*
X6167167Y-12368541D02*
X6186215Y-12368541D01*
X6186215Y-12368541D02*
X6205262Y-12378065D01*
X6205262Y-12378065D02*
X6214786Y-12387588D01*
X6214786Y-12387588D02*
X6224310Y-12406636D01*
X6224310Y-12406636D02*
X6233834Y-12444731D01*
X6233834Y-12444731D02*
X6233834Y-12492350D01*
X6233834Y-12492350D02*
X6224310Y-12530445D01*
X6224310Y-12530445D02*
X6214786Y-12549493D01*
X6214786Y-12549493D02*
X6205262Y-12559017D01*
X6205262Y-12559017D02*
X6186215Y-12568541D01*
X6186215Y-12568541D02*
X6167167Y-12568541D01*
X6167167Y-12568541D02*
X6148120Y-12559017D01*
X6148120Y-12559017D02*
X6138596Y-12549493D01*
X6138596Y-12549493D02*
X6129072Y-12530445D01*
X6129072Y-12530445D02*
X6119548Y-12492350D01*
X6119548Y-12492350D02*
X6119548Y-12444731D01*
X6119548Y-12444731D02*
X6129072Y-12406636D01*
X6129072Y-12406636D02*
X6138596Y-12387588D01*
X6138596Y-12387588D02*
X6148120Y-12378065D01*
X6148120Y-12378065D02*
X6167167Y-12368541D01*
X6319548Y-12549493D02*
X6329072Y-12559017D01*
X6329072Y-12559017D02*
X6319548Y-12568541D01*
X6319548Y-12568541D02*
X6310024Y-12559017D01*
X6310024Y-12559017D02*
X6319548Y-12549493D01*
X6319548Y-12549493D02*
X6319548Y-12568541D01*
X6452881Y-12368541D02*
X6471929Y-12368541D01*
X6471929Y-12368541D02*
X6490977Y-12378065D01*
X6490977Y-12378065D02*
X6500501Y-12387588D01*
X6500501Y-12387588D02*
X6510024Y-12406636D01*
X6510024Y-12406636D02*
X6519548Y-12444731D01*
X6519548Y-12444731D02*
X6519548Y-12492350D01*
X6519548Y-12492350D02*
X6510024Y-12530445D01*
X6510024Y-12530445D02*
X6500501Y-12549493D01*
X6500501Y-12549493D02*
X6490977Y-12559017D01*
X6490977Y-12559017D02*
X6471929Y-12568541D01*
X6471929Y-12568541D02*
X6452881Y-12568541D01*
X6452881Y-12568541D02*
X6433834Y-12559017D01*
X6433834Y-12559017D02*
X6424310Y-12549493D01*
X6424310Y-12549493D02*
X6414786Y-12530445D01*
X6414786Y-12530445D02*
X6405262Y-12492350D01*
X6405262Y-12492350D02*
X6405262Y-12444731D01*
X6405262Y-12444731D02*
X6414786Y-12406636D01*
X6414786Y-12406636D02*
X6424310Y-12387588D01*
X6424310Y-12387588D02*
X6433834Y-12378065D01*
X6433834Y-12378065D02*
X6452881Y-12368541D01*
X6690977Y-12435207D02*
X6690977Y-12568541D01*
X6643358Y-12359017D02*
X6595739Y-12501874D01*
X6595739Y-12501874D02*
X6719548Y-12501874D01*
X6776691Y-12368541D02*
X6910024Y-12368541D01*
X6910024Y-12368541D02*
X6824310Y-12568541D01*
X6976691Y-12387588D02*
X6986215Y-12378065D01*
X6986215Y-12378065D02*
X7005262Y-12368541D01*
X7005262Y-12368541D02*
X7052882Y-12368541D01*
X7052882Y-12368541D02*
X7071929Y-12378065D01*
X7071929Y-12378065D02*
X7081453Y-12387588D01*
X7081453Y-12387588D02*
X7090977Y-12406636D01*
X7090977Y-12406636D02*
X7090977Y-12425684D01*
X7090977Y-12425684D02*
X7081453Y-12454255D01*
X7081453Y-12454255D02*
X6967167Y-12568541D01*
X6967167Y-12568541D02*
X7090977Y-12568541D01*
X7167167Y-12368541D02*
X7167167Y-12406636D01*
X7243358Y-12368541D02*
X7243358Y-12406636D01*
X7506215Y-12644731D02*
X7496691Y-12635207D01*
X7496691Y-12635207D02*
X7477643Y-12606636D01*
X7477643Y-12606636D02*
X7468120Y-12587588D01*
X7468120Y-12587588D02*
X7458596Y-12559017D01*
X7458596Y-12559017D02*
X7449072Y-12511398D01*
X7449072Y-12511398D02*
X7449072Y-12473303D01*
X7449072Y-12473303D02*
X7458596Y-12425684D01*
X7458596Y-12425684D02*
X7468120Y-12397112D01*
X7468120Y-12397112D02*
X7477643Y-12378065D01*
X7477643Y-12378065D02*
X7496691Y-12349493D01*
X7496691Y-12349493D02*
X7506215Y-12339969D01*
X7572882Y-12387588D02*
X7582405Y-12378065D01*
X7582405Y-12378065D02*
X7601453Y-12368541D01*
X7601453Y-12368541D02*
X7649072Y-12368541D01*
X7649072Y-12368541D02*
X7668120Y-12378065D01*
X7668120Y-12378065D02*
X7677643Y-12387588D01*
X7677643Y-12387588D02*
X7687167Y-12406636D01*
X7687167Y-12406636D02*
X7687167Y-12425684D01*
X7687167Y-12425684D02*
X7677643Y-12454255D01*
X7677643Y-12454255D02*
X7563358Y-12568541D01*
X7563358Y-12568541D02*
X7687167Y-12568541D01*
X7858596Y-12435207D02*
X7858596Y-12568541D01*
X7810977Y-12359017D02*
X7763358Y-12501874D01*
X7763358Y-12501874D02*
X7887167Y-12501874D01*
X8083358Y-12568541D02*
X8083358Y-12368541D01*
X8169072Y-12568541D02*
X8169072Y-12463779D01*
X8169072Y-12463779D02*
X8159548Y-12444731D01*
X8159548Y-12444731D02*
X8140501Y-12435207D01*
X8140501Y-12435207D02*
X8111929Y-12435207D01*
X8111929Y-12435207D02*
X8092882Y-12444731D01*
X8092882Y-12444731D02*
X8083358Y-12454255D01*
X8292882Y-12568541D02*
X8273834Y-12559017D01*
X8273834Y-12559017D02*
X8264310Y-12549493D01*
X8264310Y-12549493D02*
X8254786Y-12530445D01*
X8254786Y-12530445D02*
X8254786Y-12473303D01*
X8254786Y-12473303D02*
X8264310Y-12454255D01*
X8264310Y-12454255D02*
X8273834Y-12444731D01*
X8273834Y-12444731D02*
X8292882Y-12435207D01*
X8292882Y-12435207D02*
X8321453Y-12435207D01*
X8321453Y-12435207D02*
X8340501Y-12444731D01*
X8340501Y-12444731D02*
X8350024Y-12454255D01*
X8350024Y-12454255D02*
X8359548Y-12473303D01*
X8359548Y-12473303D02*
X8359548Y-12530445D01*
X8359548Y-12530445D02*
X8350024Y-12549493D01*
X8350024Y-12549493D02*
X8340501Y-12559017D01*
X8340501Y-12559017D02*
X8321453Y-12568541D01*
X8321453Y-12568541D02*
X8292882Y-12568541D01*
X8473834Y-12568541D02*
X8454786Y-12559017D01*
X8454786Y-12559017D02*
X8445263Y-12539969D01*
X8445263Y-12539969D02*
X8445263Y-12368541D01*
X8626215Y-12559017D02*
X8607167Y-12568541D01*
X8607167Y-12568541D02*
X8569072Y-12568541D01*
X8569072Y-12568541D02*
X8550025Y-12559017D01*
X8550025Y-12559017D02*
X8540501Y-12539969D01*
X8540501Y-12539969D02*
X8540501Y-12463779D01*
X8540501Y-12463779D02*
X8550025Y-12444731D01*
X8550025Y-12444731D02*
X8569072Y-12435207D01*
X8569072Y-12435207D02*
X8607167Y-12435207D01*
X8607167Y-12435207D02*
X8626215Y-12444731D01*
X8626215Y-12444731D02*
X8635739Y-12463779D01*
X8635739Y-12463779D02*
X8635739Y-12482826D01*
X8635739Y-12482826D02*
X8540501Y-12501874D01*
X8711929Y-12559017D02*
X8730977Y-12568541D01*
X8730977Y-12568541D02*
X8769072Y-12568541D01*
X8769072Y-12568541D02*
X8788120Y-12559017D01*
X8788120Y-12559017D02*
X8797644Y-12539969D01*
X8797644Y-12539969D02*
X8797644Y-12530445D01*
X8797644Y-12530445D02*
X8788120Y-12511398D01*
X8788120Y-12511398D02*
X8769072Y-12501874D01*
X8769072Y-12501874D02*
X8740501Y-12501874D01*
X8740501Y-12501874D02*
X8721453Y-12492350D01*
X8721453Y-12492350D02*
X8711929Y-12473303D01*
X8711929Y-12473303D02*
X8711929Y-12463779D01*
X8711929Y-12463779D02*
X8721453Y-12444731D01*
X8721453Y-12444731D02*
X8740501Y-12435207D01*
X8740501Y-12435207D02*
X8769072Y-12435207D01*
X8769072Y-12435207D02*
X8788120Y-12444731D01*
X8864310Y-12644731D02*
X8873834Y-12635207D01*
X8873834Y-12635207D02*
X8892882Y-12606636D01*
X8892882Y-12606636D02*
X8902406Y-12587588D01*
X8902406Y-12587588D02*
X8911929Y-12559017D01*
X8911929Y-12559017D02*
X8921453Y-12511398D01*
X8921453Y-12511398D02*
X8921453Y-12473303D01*
X8921453Y-12473303D02*
X8911929Y-12425684D01*
X8911929Y-12425684D02*
X8902406Y-12397112D01*
X8902406Y-12397112D02*
X8892882Y-12378065D01*
X8892882Y-12378065D02*
X8873834Y-12349493D01*
X8873834Y-12349493D02*
X8864310Y-12339969D01*
M02*
