M48
; DRILL file {KiCad (7.0.0)} date Tue May 23 21:59:01 2023
; FORMAT={-:-/ absolute / inch / decimal}
; #@! TF.CreationDate,2023-05-23T21:59:01+07:00
; #@! TF.GenerationSoftware,Kicad,Pcbnew,(7.0.0)
; #@! TF.FileFunction,NonPlated,1,2,NPTH
FMAT,2
INCH
; #@! TA.AperFunction,NonPlated,NPTH,ComponentDrill
T1C0.0748
; #@! TA.AperFunction,NonPlated,NPTH,ComponentDrill
T2C0.1260
; #@! TA.AperFunction,NonPlated,NPTH,ComponentDrill
T3C0.1358
%
G90
G05
T1
X1.6873Y-3.0609
X2.1204Y-3.0609
X2.6425Y-3.7624
X3.0713Y-3.8227
X3.4135Y-3.6685
X3.8423Y-3.7287
X4.1257Y-3.9681
X4.5546Y-4.0284
X4.9108Y-3.8827
X5.3439Y-3.8827
X5.6629Y-3.1329
X5.6669Y-3.8823
X6.096Y-3.1329
X6.1Y-3.8823
X6.4114Y-3.8832
X6.8445Y-3.8832
X7.2017Y-4.0288
X7.6305Y-3.9685
X7.9126Y-3.7301
X8.3415Y-3.6698
X8.6849Y-3.8214
X9.1138Y-3.7611
X9.6385Y-3.2581
X10.0716Y-3.2581
T2
X2.2323Y-3.7823
X4.3823Y-2.9823
X8.1323Y-2.9823
X9.8323Y-4.1323
T3
X1.9039Y-3.0609
X2.8569Y-3.7925
X3.6279Y-3.6986
X4.3402Y-3.9982
X5.1273Y-3.8827
X5.8794Y-3.1329
X5.8835Y-3.8823
X6.6279Y-3.8832
X7.4161Y-3.9987
X8.1271Y-3.6999
X8.8994Y-3.7913
X9.855Y-3.2581
T0
M30
