%TF.GenerationSoftware,KiCad,Pcbnew,(7.0.0)*%
%TF.CreationDate,2023-05-23T21:59:02+07:00*%
%TF.ProjectId,top_keyboard_pcb,746f705f-6b65-4796-926f-6172645f7063,rev?*%
%TF.SameCoordinates,Original*%
%TF.FileFunction,Drillmap*%
%TF.FilePolarity,Positive*%
%FSLAX45Y45*%
G04 Gerber Fmt 4.5, Leading zero omitted, Abs format (unit mm)*
G04 Created by KiCad (PCBNEW (7.0.0)) date 2023-05-23 21:59:02*
%MOMM*%
%LPD*%
G01*
G04 APERTURE LIST*
%ADD10C,0.100000*%
%ADD11C,0.200000*%
%ADD12C,0.190000*%
%ADD13C,0.320000*%
%ADD14C,0.345000*%
G04 APERTURE END LIST*
D10*
X4046453Y-6959636D02*
X26042193Y-6959636D01*
X26042193Y-6959636D02*
X26042193Y-11058065D01*
X26042193Y-11058065D02*
X4046453Y-11058065D01*
X4046453Y-11058065D02*
X4046453Y-6959636D01*
D11*
D12*
X4190818Y-7679594D02*
X4380818Y-7869594D01*
X4380818Y-7679594D02*
X4190818Y-7869594D01*
X5290818Y-7679594D02*
X5480818Y-7869594D01*
X5480818Y-7679594D02*
X5290818Y-7869594D01*
X6616933Y-9461495D02*
X6806933Y-9651495D01*
X6806933Y-9461495D02*
X6616933Y-9651495D01*
X7706228Y-9614585D02*
X7896228Y-9804585D01*
X7896228Y-9614585D02*
X7706228Y-9804585D01*
X8575232Y-9222920D02*
X8765232Y-9412920D01*
X8765232Y-9222920D02*
X8575232Y-9412920D01*
X9664527Y-9376011D02*
X9854527Y-9566011D01*
X9854527Y-9376011D02*
X9664527Y-9566011D01*
X10384363Y-9983924D02*
X10574363Y-10173924D01*
X10574363Y-9983924D02*
X10384363Y-10173924D01*
X11473658Y-10137014D02*
X11663658Y-10327014D01*
X11663658Y-10137014D02*
X11473658Y-10327014D01*
X12378405Y-9767008D02*
X12568405Y-9957008D01*
X12568405Y-9767008D02*
X12378405Y-9957008D01*
X13478405Y-9767008D02*
X13668405Y-9957008D01*
X13668405Y-9767008D02*
X13478405Y-9957008D01*
X14288729Y-7862544D02*
X14478729Y-8052544D01*
X14478729Y-7862544D02*
X14288729Y-8052544D01*
X14299000Y-9766000D02*
X14489000Y-9956000D01*
X14489000Y-9766000D02*
X14299000Y-9956000D01*
X15388729Y-7862544D02*
X15578729Y-8052544D01*
X15578729Y-7862544D02*
X15388729Y-8052544D01*
X15399000Y-9766000D02*
X15589000Y-9956000D01*
X15589000Y-9766000D02*
X15399000Y-9956000D01*
X16189929Y-9768287D02*
X16379929Y-9958287D01*
X16379929Y-9768287D02*
X16189929Y-9958287D01*
X17289929Y-9768287D02*
X17479929Y-9958287D01*
X17479929Y-9768287D02*
X17289929Y-9958287D01*
X18197229Y-10138204D02*
X18387229Y-10328204D01*
X18387229Y-10138204D02*
X18197229Y-10328204D01*
X19286524Y-9985113D02*
X19476524Y-10175113D01*
X19476524Y-9985113D02*
X19286524Y-10175113D01*
X20003106Y-9379404D02*
X20193106Y-9569404D01*
X20193106Y-9379404D02*
X20003106Y-9569404D01*
X21092400Y-9226314D02*
X21282400Y-9416314D01*
X21282400Y-9226314D02*
X21092400Y-9416314D01*
X21964718Y-9611352D02*
X22154718Y-9801352D01*
X22154718Y-9611352D02*
X21964718Y-9801352D01*
X23054013Y-9458261D02*
X23244013Y-9648261D01*
X23244013Y-9458261D02*
X23054013Y-9648261D01*
X24386801Y-8180587D02*
X24576801Y-8370587D01*
X24576801Y-8180587D02*
X24386801Y-8370587D01*
X25486801Y-8180587D02*
X25676801Y-8370587D01*
X25676801Y-8180587D02*
X25486801Y-8370587D01*
D13*
X5830000Y-9607000D02*
G75*
G03*
X5830000Y-9607000I-160000J0D01*
G01*
X11291000Y-7575000D02*
G75*
G03*
X11291000Y-7575000I-160000J0D01*
G01*
X20816000Y-7575000D02*
G75*
G03*
X20816000Y-7575000I-160000J0D01*
G01*
X25134000Y-10496000D02*
G75*
G03*
X25134000Y-10496000I-160000J0D01*
G01*
D14*
X4835818Y-7602094D02*
X4835818Y-7947094D01*
X4663318Y-7774594D02*
X5008318Y-7774594D01*
X7256580Y-9460540D02*
X7256580Y-9805540D01*
X7084080Y-9633040D02*
X7429080Y-9633040D01*
X9214879Y-9221966D02*
X9214879Y-9566966D01*
X9042379Y-9394466D02*
X9387379Y-9394466D01*
X11024010Y-9982969D02*
X11024010Y-10327969D01*
X10851510Y-10155469D02*
X11196510Y-10155469D01*
X13023405Y-9689508D02*
X13023405Y-10034508D01*
X12850905Y-9862008D02*
X13195905Y-9862008D01*
X14933729Y-7785044D02*
X14933729Y-8130044D01*
X14761229Y-7957544D02*
X15106229Y-7957544D01*
X14944000Y-9688500D02*
X14944000Y-10033500D01*
X14771500Y-9861000D02*
X15116500Y-9861000D01*
X16834929Y-9690787D02*
X16834929Y-10035787D01*
X16662429Y-9863287D02*
X17007429Y-9863287D01*
X18836877Y-9984159D02*
X18836877Y-10329159D01*
X18664377Y-10156659D02*
X19009377Y-10156659D01*
X20642753Y-9225359D02*
X20642753Y-9570359D01*
X20470253Y-9397859D02*
X20815253Y-9397859D01*
X22604365Y-9457307D02*
X22604365Y-9802307D01*
X22431865Y-9629807D02*
X22776865Y-9629807D01*
X25031801Y-8103087D02*
X25031801Y-8448087D01*
X24859301Y-8275587D02*
X25204301Y-8275587D01*
D11*
X4289072Y-11356541D02*
X4289072Y-11156541D01*
X4289072Y-11156541D02*
X4336691Y-11156541D01*
X4336691Y-11156541D02*
X4365262Y-11166065D01*
X4365262Y-11166065D02*
X4384310Y-11185112D01*
X4384310Y-11185112D02*
X4393834Y-11204160D01*
X4393834Y-11204160D02*
X4403358Y-11242255D01*
X4403358Y-11242255D02*
X4403358Y-11270826D01*
X4403358Y-11270826D02*
X4393834Y-11308922D01*
X4393834Y-11308922D02*
X4384310Y-11327969D01*
X4384310Y-11327969D02*
X4365262Y-11347017D01*
X4365262Y-11347017D02*
X4336691Y-11356541D01*
X4336691Y-11356541D02*
X4289072Y-11356541D01*
X4489072Y-11356541D02*
X4489072Y-11223207D01*
X4489072Y-11261303D02*
X4498596Y-11242255D01*
X4498596Y-11242255D02*
X4508120Y-11232731D01*
X4508120Y-11232731D02*
X4527167Y-11223207D01*
X4527167Y-11223207D02*
X4546215Y-11223207D01*
X4612881Y-11356541D02*
X4612881Y-11223207D01*
X4612881Y-11156541D02*
X4603358Y-11166065D01*
X4603358Y-11166065D02*
X4612881Y-11175588D01*
X4612881Y-11175588D02*
X4622405Y-11166065D01*
X4622405Y-11166065D02*
X4612881Y-11156541D01*
X4612881Y-11156541D02*
X4612881Y-11175588D01*
X4736691Y-11356541D02*
X4717643Y-11347017D01*
X4717643Y-11347017D02*
X4708120Y-11327969D01*
X4708120Y-11327969D02*
X4708120Y-11156541D01*
X4841453Y-11356541D02*
X4822405Y-11347017D01*
X4822405Y-11347017D02*
X4812881Y-11327969D01*
X4812881Y-11327969D02*
X4812881Y-11156541D01*
X5037643Y-11356541D02*
X5037643Y-11156541D01*
X5037643Y-11156541D02*
X5104310Y-11299398D01*
X5104310Y-11299398D02*
X5170977Y-11156541D01*
X5170977Y-11156541D02*
X5170977Y-11356541D01*
X5351929Y-11356541D02*
X5351929Y-11251779D01*
X5351929Y-11251779D02*
X5342405Y-11232731D01*
X5342405Y-11232731D02*
X5323358Y-11223207D01*
X5323358Y-11223207D02*
X5285262Y-11223207D01*
X5285262Y-11223207D02*
X5266215Y-11232731D01*
X5351929Y-11347017D02*
X5332881Y-11356541D01*
X5332881Y-11356541D02*
X5285262Y-11356541D01*
X5285262Y-11356541D02*
X5266215Y-11347017D01*
X5266215Y-11347017D02*
X5256691Y-11327969D01*
X5256691Y-11327969D02*
X5256691Y-11308922D01*
X5256691Y-11308922D02*
X5266215Y-11289874D01*
X5266215Y-11289874D02*
X5285262Y-11280350D01*
X5285262Y-11280350D02*
X5332881Y-11280350D01*
X5332881Y-11280350D02*
X5351929Y-11270826D01*
X5447167Y-11223207D02*
X5447167Y-11423207D01*
X5447167Y-11232731D02*
X5466215Y-11223207D01*
X5466215Y-11223207D02*
X5504310Y-11223207D01*
X5504310Y-11223207D02*
X5523358Y-11232731D01*
X5523358Y-11232731D02*
X5532881Y-11242255D01*
X5532881Y-11242255D02*
X5542405Y-11261303D01*
X5542405Y-11261303D02*
X5542405Y-11318445D01*
X5542405Y-11318445D02*
X5532881Y-11337493D01*
X5532881Y-11337493D02*
X5523358Y-11347017D01*
X5523358Y-11347017D02*
X5504310Y-11356541D01*
X5504310Y-11356541D02*
X5466215Y-11356541D01*
X5466215Y-11356541D02*
X5447167Y-11347017D01*
X5628119Y-11337493D02*
X5637643Y-11347017D01*
X5637643Y-11347017D02*
X5628119Y-11356541D01*
X5628119Y-11356541D02*
X5618596Y-11347017D01*
X5618596Y-11347017D02*
X5628119Y-11337493D01*
X5628119Y-11337493D02*
X5628119Y-11356541D01*
X5628119Y-11232731D02*
X5637643Y-11242255D01*
X5637643Y-11242255D02*
X5628119Y-11251779D01*
X5628119Y-11251779D02*
X5618596Y-11242255D01*
X5618596Y-11242255D02*
X5628119Y-11232731D01*
X5628119Y-11232731D02*
X5628119Y-11251779D01*
D12*
X3851453Y-11608065D02*
X4041453Y-11798065D01*
X4041453Y-11608065D02*
X3851453Y-11798065D01*
D11*
X4393834Y-11776541D02*
X4279548Y-11776541D01*
X4336691Y-11776541D02*
X4336691Y-11576541D01*
X4336691Y-11576541D02*
X4317643Y-11605112D01*
X4317643Y-11605112D02*
X4298596Y-11624160D01*
X4298596Y-11624160D02*
X4279548Y-11633684D01*
X4479548Y-11757493D02*
X4489072Y-11767017D01*
X4489072Y-11767017D02*
X4479548Y-11776541D01*
X4479548Y-11776541D02*
X4470024Y-11767017D01*
X4470024Y-11767017D02*
X4479548Y-11757493D01*
X4479548Y-11757493D02*
X4479548Y-11776541D01*
X4584310Y-11776541D02*
X4622405Y-11776541D01*
X4622405Y-11776541D02*
X4641453Y-11767017D01*
X4641453Y-11767017D02*
X4650977Y-11757493D01*
X4650977Y-11757493D02*
X4670024Y-11728922D01*
X4670024Y-11728922D02*
X4679548Y-11690826D01*
X4679548Y-11690826D02*
X4679548Y-11614636D01*
X4679548Y-11614636D02*
X4670024Y-11595588D01*
X4670024Y-11595588D02*
X4660501Y-11586065D01*
X4660501Y-11586065D02*
X4641453Y-11576541D01*
X4641453Y-11576541D02*
X4603358Y-11576541D01*
X4603358Y-11576541D02*
X4584310Y-11586065D01*
X4584310Y-11586065D02*
X4574786Y-11595588D01*
X4574786Y-11595588D02*
X4565262Y-11614636D01*
X4565262Y-11614636D02*
X4565262Y-11662255D01*
X4565262Y-11662255D02*
X4574786Y-11681303D01*
X4574786Y-11681303D02*
X4584310Y-11690826D01*
X4584310Y-11690826D02*
X4603358Y-11700350D01*
X4603358Y-11700350D02*
X4641453Y-11700350D01*
X4641453Y-11700350D02*
X4660501Y-11690826D01*
X4660501Y-11690826D02*
X4670024Y-11681303D01*
X4670024Y-11681303D02*
X4679548Y-11662255D01*
X4803358Y-11576541D02*
X4822405Y-11576541D01*
X4822405Y-11576541D02*
X4841453Y-11586065D01*
X4841453Y-11586065D02*
X4850977Y-11595588D01*
X4850977Y-11595588D02*
X4860501Y-11614636D01*
X4860501Y-11614636D02*
X4870024Y-11652731D01*
X4870024Y-11652731D02*
X4870024Y-11700350D01*
X4870024Y-11700350D02*
X4860501Y-11738445D01*
X4860501Y-11738445D02*
X4850977Y-11757493D01*
X4850977Y-11757493D02*
X4841453Y-11767017D01*
X4841453Y-11767017D02*
X4822405Y-11776541D01*
X4822405Y-11776541D02*
X4803358Y-11776541D01*
X4803358Y-11776541D02*
X4784310Y-11767017D01*
X4784310Y-11767017D02*
X4774786Y-11757493D01*
X4774786Y-11757493D02*
X4765262Y-11738445D01*
X4765262Y-11738445D02*
X4755739Y-11700350D01*
X4755739Y-11700350D02*
X4755739Y-11652731D01*
X4755739Y-11652731D02*
X4765262Y-11614636D01*
X4765262Y-11614636D02*
X4774786Y-11595588D01*
X4774786Y-11595588D02*
X4784310Y-11586065D01*
X4784310Y-11586065D02*
X4803358Y-11576541D01*
X4993834Y-11576541D02*
X5012882Y-11576541D01*
X5012882Y-11576541D02*
X5031929Y-11586065D01*
X5031929Y-11586065D02*
X5041453Y-11595588D01*
X5041453Y-11595588D02*
X5050977Y-11614636D01*
X5050977Y-11614636D02*
X5060501Y-11652731D01*
X5060501Y-11652731D02*
X5060501Y-11700350D01*
X5060501Y-11700350D02*
X5050977Y-11738445D01*
X5050977Y-11738445D02*
X5041453Y-11757493D01*
X5041453Y-11757493D02*
X5031929Y-11767017D01*
X5031929Y-11767017D02*
X5012882Y-11776541D01*
X5012882Y-11776541D02*
X4993834Y-11776541D01*
X4993834Y-11776541D02*
X4974786Y-11767017D01*
X4974786Y-11767017D02*
X4965262Y-11757493D01*
X4965262Y-11757493D02*
X4955739Y-11738445D01*
X4955739Y-11738445D02*
X4946215Y-11700350D01*
X4946215Y-11700350D02*
X4946215Y-11652731D01*
X4946215Y-11652731D02*
X4955739Y-11614636D01*
X4955739Y-11614636D02*
X4965262Y-11595588D01*
X4965262Y-11595588D02*
X4974786Y-11586065D01*
X4974786Y-11586065D02*
X4993834Y-11576541D01*
X5146215Y-11776541D02*
X5146215Y-11643207D01*
X5146215Y-11662255D02*
X5155739Y-11652731D01*
X5155739Y-11652731D02*
X5174786Y-11643207D01*
X5174786Y-11643207D02*
X5203358Y-11643207D01*
X5203358Y-11643207D02*
X5222405Y-11652731D01*
X5222405Y-11652731D02*
X5231929Y-11671779D01*
X5231929Y-11671779D02*
X5231929Y-11776541D01*
X5231929Y-11671779D02*
X5241453Y-11652731D01*
X5241453Y-11652731D02*
X5260501Y-11643207D01*
X5260501Y-11643207D02*
X5289072Y-11643207D01*
X5289072Y-11643207D02*
X5308120Y-11652731D01*
X5308120Y-11652731D02*
X5317643Y-11671779D01*
X5317643Y-11671779D02*
X5317643Y-11776541D01*
X5412882Y-11776541D02*
X5412882Y-11643207D01*
X5412882Y-11662255D02*
X5422405Y-11652731D01*
X5422405Y-11652731D02*
X5441453Y-11643207D01*
X5441453Y-11643207D02*
X5470024Y-11643207D01*
X5470024Y-11643207D02*
X5489072Y-11652731D01*
X5489072Y-11652731D02*
X5498596Y-11671779D01*
X5498596Y-11671779D02*
X5498596Y-11776541D01*
X5498596Y-11671779D02*
X5508120Y-11652731D01*
X5508120Y-11652731D02*
X5527167Y-11643207D01*
X5527167Y-11643207D02*
X5555739Y-11643207D01*
X5555739Y-11643207D02*
X5574786Y-11652731D01*
X5574786Y-11652731D02*
X5584310Y-11671779D01*
X5584310Y-11671779D02*
X5584310Y-11776541D01*
X5942405Y-11567017D02*
X5770977Y-11824160D01*
X6167167Y-11576541D02*
X6186215Y-11576541D01*
X6186215Y-11576541D02*
X6205262Y-11586065D01*
X6205262Y-11586065D02*
X6214786Y-11595588D01*
X6214786Y-11595588D02*
X6224310Y-11614636D01*
X6224310Y-11614636D02*
X6233834Y-11652731D01*
X6233834Y-11652731D02*
X6233834Y-11700350D01*
X6233834Y-11700350D02*
X6224310Y-11738445D01*
X6224310Y-11738445D02*
X6214786Y-11757493D01*
X6214786Y-11757493D02*
X6205262Y-11767017D01*
X6205262Y-11767017D02*
X6186215Y-11776541D01*
X6186215Y-11776541D02*
X6167167Y-11776541D01*
X6167167Y-11776541D02*
X6148120Y-11767017D01*
X6148120Y-11767017D02*
X6138596Y-11757493D01*
X6138596Y-11757493D02*
X6129072Y-11738445D01*
X6129072Y-11738445D02*
X6119548Y-11700350D01*
X6119548Y-11700350D02*
X6119548Y-11652731D01*
X6119548Y-11652731D02*
X6129072Y-11614636D01*
X6129072Y-11614636D02*
X6138596Y-11595588D01*
X6138596Y-11595588D02*
X6148120Y-11586065D01*
X6148120Y-11586065D02*
X6167167Y-11576541D01*
X6319548Y-11757493D02*
X6329072Y-11767017D01*
X6329072Y-11767017D02*
X6319548Y-11776541D01*
X6319548Y-11776541D02*
X6310024Y-11767017D01*
X6310024Y-11767017D02*
X6319548Y-11757493D01*
X6319548Y-11757493D02*
X6319548Y-11776541D01*
X6452881Y-11576541D02*
X6471929Y-11576541D01*
X6471929Y-11576541D02*
X6490977Y-11586065D01*
X6490977Y-11586065D02*
X6500501Y-11595588D01*
X6500501Y-11595588D02*
X6510024Y-11614636D01*
X6510024Y-11614636D02*
X6519548Y-11652731D01*
X6519548Y-11652731D02*
X6519548Y-11700350D01*
X6519548Y-11700350D02*
X6510024Y-11738445D01*
X6510024Y-11738445D02*
X6500501Y-11757493D01*
X6500501Y-11757493D02*
X6490977Y-11767017D01*
X6490977Y-11767017D02*
X6471929Y-11776541D01*
X6471929Y-11776541D02*
X6452881Y-11776541D01*
X6452881Y-11776541D02*
X6433834Y-11767017D01*
X6433834Y-11767017D02*
X6424310Y-11757493D01*
X6424310Y-11757493D02*
X6414786Y-11738445D01*
X6414786Y-11738445D02*
X6405262Y-11700350D01*
X6405262Y-11700350D02*
X6405262Y-11652731D01*
X6405262Y-11652731D02*
X6414786Y-11614636D01*
X6414786Y-11614636D02*
X6424310Y-11595588D01*
X6424310Y-11595588D02*
X6433834Y-11586065D01*
X6433834Y-11586065D02*
X6452881Y-11576541D01*
X6586215Y-11576541D02*
X6719548Y-11576541D01*
X6719548Y-11576541D02*
X6633834Y-11776541D01*
X6881453Y-11643207D02*
X6881453Y-11776541D01*
X6833834Y-11567017D02*
X6786215Y-11709874D01*
X6786215Y-11709874D02*
X6910024Y-11709874D01*
X7014786Y-11662255D02*
X6995739Y-11652731D01*
X6995739Y-11652731D02*
X6986215Y-11643207D01*
X6986215Y-11643207D02*
X6976691Y-11624160D01*
X6976691Y-11624160D02*
X6976691Y-11614636D01*
X6976691Y-11614636D02*
X6986215Y-11595588D01*
X6986215Y-11595588D02*
X6995739Y-11586065D01*
X6995739Y-11586065D02*
X7014786Y-11576541D01*
X7014786Y-11576541D02*
X7052882Y-11576541D01*
X7052882Y-11576541D02*
X7071929Y-11586065D01*
X7071929Y-11586065D02*
X7081453Y-11595588D01*
X7081453Y-11595588D02*
X7090977Y-11614636D01*
X7090977Y-11614636D02*
X7090977Y-11624160D01*
X7090977Y-11624160D02*
X7081453Y-11643207D01*
X7081453Y-11643207D02*
X7071929Y-11652731D01*
X7071929Y-11652731D02*
X7052882Y-11662255D01*
X7052882Y-11662255D02*
X7014786Y-11662255D01*
X7014786Y-11662255D02*
X6995739Y-11671779D01*
X6995739Y-11671779D02*
X6986215Y-11681303D01*
X6986215Y-11681303D02*
X6976691Y-11700350D01*
X6976691Y-11700350D02*
X6976691Y-11738445D01*
X6976691Y-11738445D02*
X6986215Y-11757493D01*
X6986215Y-11757493D02*
X6995739Y-11767017D01*
X6995739Y-11767017D02*
X7014786Y-11776541D01*
X7014786Y-11776541D02*
X7052882Y-11776541D01*
X7052882Y-11776541D02*
X7071929Y-11767017D01*
X7071929Y-11767017D02*
X7081453Y-11757493D01*
X7081453Y-11757493D02*
X7090977Y-11738445D01*
X7090977Y-11738445D02*
X7090977Y-11700350D01*
X7090977Y-11700350D02*
X7081453Y-11681303D01*
X7081453Y-11681303D02*
X7071929Y-11671779D01*
X7071929Y-11671779D02*
X7052882Y-11662255D01*
X7167167Y-11576541D02*
X7167167Y-11614636D01*
X7243358Y-11576541D02*
X7243358Y-11614636D01*
X7506215Y-11852731D02*
X7496691Y-11843207D01*
X7496691Y-11843207D02*
X7477643Y-11814636D01*
X7477643Y-11814636D02*
X7468120Y-11795588D01*
X7468120Y-11795588D02*
X7458596Y-11767017D01*
X7458596Y-11767017D02*
X7449072Y-11719398D01*
X7449072Y-11719398D02*
X7449072Y-11681303D01*
X7449072Y-11681303D02*
X7458596Y-11633684D01*
X7458596Y-11633684D02*
X7468120Y-11605112D01*
X7468120Y-11605112D02*
X7477643Y-11586065D01*
X7477643Y-11586065D02*
X7496691Y-11557493D01*
X7496691Y-11557493D02*
X7506215Y-11547969D01*
X7572882Y-11595588D02*
X7582405Y-11586065D01*
X7582405Y-11586065D02*
X7601453Y-11576541D01*
X7601453Y-11576541D02*
X7649072Y-11576541D01*
X7649072Y-11576541D02*
X7668120Y-11586065D01*
X7668120Y-11586065D02*
X7677643Y-11595588D01*
X7677643Y-11595588D02*
X7687167Y-11614636D01*
X7687167Y-11614636D02*
X7687167Y-11633684D01*
X7687167Y-11633684D02*
X7677643Y-11662255D01*
X7677643Y-11662255D02*
X7563358Y-11776541D01*
X7563358Y-11776541D02*
X7687167Y-11776541D01*
X7858596Y-11643207D02*
X7858596Y-11776541D01*
X7810977Y-11567017D02*
X7763358Y-11709874D01*
X7763358Y-11709874D02*
X7887167Y-11709874D01*
X8083358Y-11776541D02*
X8083358Y-11576541D01*
X8169072Y-11776541D02*
X8169072Y-11671779D01*
X8169072Y-11671779D02*
X8159548Y-11652731D01*
X8159548Y-11652731D02*
X8140501Y-11643207D01*
X8140501Y-11643207D02*
X8111929Y-11643207D01*
X8111929Y-11643207D02*
X8092882Y-11652731D01*
X8092882Y-11652731D02*
X8083358Y-11662255D01*
X8292882Y-11776541D02*
X8273834Y-11767017D01*
X8273834Y-11767017D02*
X8264310Y-11757493D01*
X8264310Y-11757493D02*
X8254786Y-11738445D01*
X8254786Y-11738445D02*
X8254786Y-11681303D01*
X8254786Y-11681303D02*
X8264310Y-11662255D01*
X8264310Y-11662255D02*
X8273834Y-11652731D01*
X8273834Y-11652731D02*
X8292882Y-11643207D01*
X8292882Y-11643207D02*
X8321453Y-11643207D01*
X8321453Y-11643207D02*
X8340501Y-11652731D01*
X8340501Y-11652731D02*
X8350024Y-11662255D01*
X8350024Y-11662255D02*
X8359548Y-11681303D01*
X8359548Y-11681303D02*
X8359548Y-11738445D01*
X8359548Y-11738445D02*
X8350024Y-11757493D01*
X8350024Y-11757493D02*
X8340501Y-11767017D01*
X8340501Y-11767017D02*
X8321453Y-11776541D01*
X8321453Y-11776541D02*
X8292882Y-11776541D01*
X8473834Y-11776541D02*
X8454786Y-11767017D01*
X8454786Y-11767017D02*
X8445263Y-11747969D01*
X8445263Y-11747969D02*
X8445263Y-11576541D01*
X8626215Y-11767017D02*
X8607167Y-11776541D01*
X8607167Y-11776541D02*
X8569072Y-11776541D01*
X8569072Y-11776541D02*
X8550025Y-11767017D01*
X8550025Y-11767017D02*
X8540501Y-11747969D01*
X8540501Y-11747969D02*
X8540501Y-11671779D01*
X8540501Y-11671779D02*
X8550025Y-11652731D01*
X8550025Y-11652731D02*
X8569072Y-11643207D01*
X8569072Y-11643207D02*
X8607167Y-11643207D01*
X8607167Y-11643207D02*
X8626215Y-11652731D01*
X8626215Y-11652731D02*
X8635739Y-11671779D01*
X8635739Y-11671779D02*
X8635739Y-11690826D01*
X8635739Y-11690826D02*
X8540501Y-11709874D01*
X8711929Y-11767017D02*
X8730977Y-11776541D01*
X8730977Y-11776541D02*
X8769072Y-11776541D01*
X8769072Y-11776541D02*
X8788120Y-11767017D01*
X8788120Y-11767017D02*
X8797644Y-11747969D01*
X8797644Y-11747969D02*
X8797644Y-11738445D01*
X8797644Y-11738445D02*
X8788120Y-11719398D01*
X8788120Y-11719398D02*
X8769072Y-11709874D01*
X8769072Y-11709874D02*
X8740501Y-11709874D01*
X8740501Y-11709874D02*
X8721453Y-11700350D01*
X8721453Y-11700350D02*
X8711929Y-11681303D01*
X8711929Y-11681303D02*
X8711929Y-11671779D01*
X8711929Y-11671779D02*
X8721453Y-11652731D01*
X8721453Y-11652731D02*
X8740501Y-11643207D01*
X8740501Y-11643207D02*
X8769072Y-11643207D01*
X8769072Y-11643207D02*
X8788120Y-11652731D01*
X8864310Y-11852731D02*
X8873834Y-11843207D01*
X8873834Y-11843207D02*
X8892882Y-11814636D01*
X8892882Y-11814636D02*
X8902406Y-11795588D01*
X8902406Y-11795588D02*
X8911929Y-11767017D01*
X8911929Y-11767017D02*
X8921453Y-11719398D01*
X8921453Y-11719398D02*
X8921453Y-11681303D01*
X8921453Y-11681303D02*
X8911929Y-11633684D01*
X8911929Y-11633684D02*
X8902406Y-11605112D01*
X8902406Y-11605112D02*
X8892882Y-11586065D01*
X8892882Y-11586065D02*
X8873834Y-11557493D01*
X8873834Y-11557493D02*
X8864310Y-11547969D01*
X9193834Y-11852731D02*
X9184310Y-11843207D01*
X9184310Y-11843207D02*
X9165263Y-11814636D01*
X9165263Y-11814636D02*
X9155739Y-11795588D01*
X9155739Y-11795588D02*
X9146215Y-11767017D01*
X9146215Y-11767017D02*
X9136691Y-11719398D01*
X9136691Y-11719398D02*
X9136691Y-11681303D01*
X9136691Y-11681303D02*
X9146215Y-11633684D01*
X9146215Y-11633684D02*
X9155739Y-11605112D01*
X9155739Y-11605112D02*
X9165263Y-11586065D01*
X9165263Y-11586065D02*
X9184310Y-11557493D01*
X9184310Y-11557493D02*
X9193834Y-11547969D01*
X9270025Y-11643207D02*
X9270025Y-11776541D01*
X9270025Y-11662255D02*
X9279548Y-11652731D01*
X9279548Y-11652731D02*
X9298596Y-11643207D01*
X9298596Y-11643207D02*
X9327167Y-11643207D01*
X9327167Y-11643207D02*
X9346215Y-11652731D01*
X9346215Y-11652731D02*
X9355739Y-11671779D01*
X9355739Y-11671779D02*
X9355739Y-11776541D01*
X9479548Y-11776541D02*
X9460501Y-11767017D01*
X9460501Y-11767017D02*
X9450977Y-11757493D01*
X9450977Y-11757493D02*
X9441453Y-11738445D01*
X9441453Y-11738445D02*
X9441453Y-11681303D01*
X9441453Y-11681303D02*
X9450977Y-11662255D01*
X9450977Y-11662255D02*
X9460501Y-11652731D01*
X9460501Y-11652731D02*
X9479548Y-11643207D01*
X9479548Y-11643207D02*
X9508120Y-11643207D01*
X9508120Y-11643207D02*
X9527167Y-11652731D01*
X9527167Y-11652731D02*
X9536691Y-11662255D01*
X9536691Y-11662255D02*
X9546215Y-11681303D01*
X9546215Y-11681303D02*
X9546215Y-11738445D01*
X9546215Y-11738445D02*
X9536691Y-11757493D01*
X9536691Y-11757493D02*
X9527167Y-11767017D01*
X9527167Y-11767017D02*
X9508120Y-11776541D01*
X9508120Y-11776541D02*
X9479548Y-11776541D01*
X9603358Y-11643207D02*
X9679548Y-11643207D01*
X9631929Y-11576541D02*
X9631929Y-11747969D01*
X9631929Y-11747969D02*
X9641453Y-11767017D01*
X9641453Y-11767017D02*
X9660501Y-11776541D01*
X9660501Y-11776541D02*
X9679548Y-11776541D01*
X9866215Y-11643207D02*
X9866215Y-11843207D01*
X9866215Y-11652731D02*
X9885263Y-11643207D01*
X9885263Y-11643207D02*
X9923358Y-11643207D01*
X9923358Y-11643207D02*
X9942406Y-11652731D01*
X9942406Y-11652731D02*
X9951929Y-11662255D01*
X9951929Y-11662255D02*
X9961453Y-11681303D01*
X9961453Y-11681303D02*
X9961453Y-11738445D01*
X9961453Y-11738445D02*
X9951929Y-11757493D01*
X9951929Y-11757493D02*
X9942406Y-11767017D01*
X9942406Y-11767017D02*
X9923358Y-11776541D01*
X9923358Y-11776541D02*
X9885263Y-11776541D01*
X9885263Y-11776541D02*
X9866215Y-11767017D01*
X10075739Y-11776541D02*
X10056691Y-11767017D01*
X10056691Y-11767017D02*
X10047167Y-11747969D01*
X10047167Y-11747969D02*
X10047167Y-11576541D01*
X10237644Y-11776541D02*
X10237644Y-11671779D01*
X10237644Y-11671779D02*
X10228120Y-11652731D01*
X10228120Y-11652731D02*
X10209072Y-11643207D01*
X10209072Y-11643207D02*
X10170977Y-11643207D01*
X10170977Y-11643207D02*
X10151929Y-11652731D01*
X10237644Y-11767017D02*
X10218596Y-11776541D01*
X10218596Y-11776541D02*
X10170977Y-11776541D01*
X10170977Y-11776541D02*
X10151929Y-11767017D01*
X10151929Y-11767017D02*
X10142406Y-11747969D01*
X10142406Y-11747969D02*
X10142406Y-11728922D01*
X10142406Y-11728922D02*
X10151929Y-11709874D01*
X10151929Y-11709874D02*
X10170977Y-11700350D01*
X10170977Y-11700350D02*
X10218596Y-11700350D01*
X10218596Y-11700350D02*
X10237644Y-11690826D01*
X10304310Y-11643207D02*
X10380501Y-11643207D01*
X10332882Y-11576541D02*
X10332882Y-11747969D01*
X10332882Y-11747969D02*
X10342406Y-11767017D01*
X10342406Y-11767017D02*
X10361453Y-11776541D01*
X10361453Y-11776541D02*
X10380501Y-11776541D01*
X10523358Y-11767017D02*
X10504310Y-11776541D01*
X10504310Y-11776541D02*
X10466215Y-11776541D01*
X10466215Y-11776541D02*
X10447167Y-11767017D01*
X10447167Y-11767017D02*
X10437644Y-11747969D01*
X10437644Y-11747969D02*
X10437644Y-11671779D01*
X10437644Y-11671779D02*
X10447167Y-11652731D01*
X10447167Y-11652731D02*
X10466215Y-11643207D01*
X10466215Y-11643207D02*
X10504310Y-11643207D01*
X10504310Y-11643207D02*
X10523358Y-11652731D01*
X10523358Y-11652731D02*
X10532882Y-11671779D01*
X10532882Y-11671779D02*
X10532882Y-11690826D01*
X10532882Y-11690826D02*
X10437644Y-11709874D01*
X10704310Y-11776541D02*
X10704310Y-11576541D01*
X10704310Y-11767017D02*
X10685263Y-11776541D01*
X10685263Y-11776541D02*
X10647167Y-11776541D01*
X10647167Y-11776541D02*
X10628120Y-11767017D01*
X10628120Y-11767017D02*
X10618596Y-11757493D01*
X10618596Y-11757493D02*
X10609072Y-11738445D01*
X10609072Y-11738445D02*
X10609072Y-11681303D01*
X10609072Y-11681303D02*
X10618596Y-11662255D01*
X10618596Y-11662255D02*
X10628120Y-11652731D01*
X10628120Y-11652731D02*
X10647167Y-11643207D01*
X10647167Y-11643207D02*
X10685263Y-11643207D01*
X10685263Y-11643207D02*
X10704310Y-11652731D01*
X10780501Y-11852731D02*
X10790025Y-11843207D01*
X10790025Y-11843207D02*
X10809072Y-11814636D01*
X10809072Y-11814636D02*
X10818596Y-11795588D01*
X10818596Y-11795588D02*
X10828120Y-11767017D01*
X10828120Y-11767017D02*
X10837644Y-11719398D01*
X10837644Y-11719398D02*
X10837644Y-11681303D01*
X10837644Y-11681303D02*
X10828120Y-11633684D01*
X10828120Y-11633684D02*
X10818596Y-11605112D01*
X10818596Y-11605112D02*
X10809072Y-11586065D01*
X10809072Y-11586065D02*
X10790025Y-11557493D01*
X10790025Y-11557493D02*
X10780501Y-11547969D01*
X4041453Y-12013065D02*
G75*
G03*
X4041453Y-12013065I-100000J0D01*
G01*
X4270024Y-11886541D02*
X4393834Y-11886541D01*
X4393834Y-11886541D02*
X4327167Y-11962731D01*
X4327167Y-11962731D02*
X4355739Y-11962731D01*
X4355739Y-11962731D02*
X4374786Y-11972255D01*
X4374786Y-11972255D02*
X4384310Y-11981779D01*
X4384310Y-11981779D02*
X4393834Y-12000826D01*
X4393834Y-12000826D02*
X4393834Y-12048445D01*
X4393834Y-12048445D02*
X4384310Y-12067493D01*
X4384310Y-12067493D02*
X4374786Y-12077017D01*
X4374786Y-12077017D02*
X4355739Y-12086541D01*
X4355739Y-12086541D02*
X4298596Y-12086541D01*
X4298596Y-12086541D02*
X4279548Y-12077017D01*
X4279548Y-12077017D02*
X4270024Y-12067493D01*
X4479548Y-12067493D02*
X4489072Y-12077017D01*
X4489072Y-12077017D02*
X4479548Y-12086541D01*
X4479548Y-12086541D02*
X4470024Y-12077017D01*
X4470024Y-12077017D02*
X4479548Y-12067493D01*
X4479548Y-12067493D02*
X4479548Y-12086541D01*
X4565262Y-11905588D02*
X4574786Y-11896065D01*
X4574786Y-11896065D02*
X4593834Y-11886541D01*
X4593834Y-11886541D02*
X4641453Y-11886541D01*
X4641453Y-11886541D02*
X4660501Y-11896065D01*
X4660501Y-11896065D02*
X4670024Y-11905588D01*
X4670024Y-11905588D02*
X4679548Y-11924636D01*
X4679548Y-11924636D02*
X4679548Y-11943684D01*
X4679548Y-11943684D02*
X4670024Y-11972255D01*
X4670024Y-11972255D02*
X4555739Y-12086541D01*
X4555739Y-12086541D02*
X4679548Y-12086541D01*
X4803358Y-11886541D02*
X4822405Y-11886541D01*
X4822405Y-11886541D02*
X4841453Y-11896065D01*
X4841453Y-11896065D02*
X4850977Y-11905588D01*
X4850977Y-11905588D02*
X4860501Y-11924636D01*
X4860501Y-11924636D02*
X4870024Y-11962731D01*
X4870024Y-11962731D02*
X4870024Y-12010350D01*
X4870024Y-12010350D02*
X4860501Y-12048445D01*
X4860501Y-12048445D02*
X4850977Y-12067493D01*
X4850977Y-12067493D02*
X4841453Y-12077017D01*
X4841453Y-12077017D02*
X4822405Y-12086541D01*
X4822405Y-12086541D02*
X4803358Y-12086541D01*
X4803358Y-12086541D02*
X4784310Y-12077017D01*
X4784310Y-12077017D02*
X4774786Y-12067493D01*
X4774786Y-12067493D02*
X4765262Y-12048445D01*
X4765262Y-12048445D02*
X4755739Y-12010350D01*
X4755739Y-12010350D02*
X4755739Y-11962731D01*
X4755739Y-11962731D02*
X4765262Y-11924636D01*
X4765262Y-11924636D02*
X4774786Y-11905588D01*
X4774786Y-11905588D02*
X4784310Y-11896065D01*
X4784310Y-11896065D02*
X4803358Y-11886541D01*
X4993834Y-11886541D02*
X5012882Y-11886541D01*
X5012882Y-11886541D02*
X5031929Y-11896065D01*
X5031929Y-11896065D02*
X5041453Y-11905588D01*
X5041453Y-11905588D02*
X5050977Y-11924636D01*
X5050977Y-11924636D02*
X5060501Y-11962731D01*
X5060501Y-11962731D02*
X5060501Y-12010350D01*
X5060501Y-12010350D02*
X5050977Y-12048445D01*
X5050977Y-12048445D02*
X5041453Y-12067493D01*
X5041453Y-12067493D02*
X5031929Y-12077017D01*
X5031929Y-12077017D02*
X5012882Y-12086541D01*
X5012882Y-12086541D02*
X4993834Y-12086541D01*
X4993834Y-12086541D02*
X4974786Y-12077017D01*
X4974786Y-12077017D02*
X4965262Y-12067493D01*
X4965262Y-12067493D02*
X4955739Y-12048445D01*
X4955739Y-12048445D02*
X4946215Y-12010350D01*
X4946215Y-12010350D02*
X4946215Y-11962731D01*
X4946215Y-11962731D02*
X4955739Y-11924636D01*
X4955739Y-11924636D02*
X4965262Y-11905588D01*
X4965262Y-11905588D02*
X4974786Y-11896065D01*
X4974786Y-11896065D02*
X4993834Y-11886541D01*
X5146215Y-12086541D02*
X5146215Y-11953207D01*
X5146215Y-11972255D02*
X5155739Y-11962731D01*
X5155739Y-11962731D02*
X5174786Y-11953207D01*
X5174786Y-11953207D02*
X5203358Y-11953207D01*
X5203358Y-11953207D02*
X5222405Y-11962731D01*
X5222405Y-11962731D02*
X5231929Y-11981779D01*
X5231929Y-11981779D02*
X5231929Y-12086541D01*
X5231929Y-11981779D02*
X5241453Y-11962731D01*
X5241453Y-11962731D02*
X5260501Y-11953207D01*
X5260501Y-11953207D02*
X5289072Y-11953207D01*
X5289072Y-11953207D02*
X5308120Y-11962731D01*
X5308120Y-11962731D02*
X5317643Y-11981779D01*
X5317643Y-11981779D02*
X5317643Y-12086541D01*
X5412882Y-12086541D02*
X5412882Y-11953207D01*
X5412882Y-11972255D02*
X5422405Y-11962731D01*
X5422405Y-11962731D02*
X5441453Y-11953207D01*
X5441453Y-11953207D02*
X5470024Y-11953207D01*
X5470024Y-11953207D02*
X5489072Y-11962731D01*
X5489072Y-11962731D02*
X5498596Y-11981779D01*
X5498596Y-11981779D02*
X5498596Y-12086541D01*
X5498596Y-11981779D02*
X5508120Y-11962731D01*
X5508120Y-11962731D02*
X5527167Y-11953207D01*
X5527167Y-11953207D02*
X5555739Y-11953207D01*
X5555739Y-11953207D02*
X5574786Y-11962731D01*
X5574786Y-11962731D02*
X5584310Y-11981779D01*
X5584310Y-11981779D02*
X5584310Y-12086541D01*
X5942405Y-11877017D02*
X5770977Y-12134160D01*
X6167167Y-11886541D02*
X6186215Y-11886541D01*
X6186215Y-11886541D02*
X6205262Y-11896065D01*
X6205262Y-11896065D02*
X6214786Y-11905588D01*
X6214786Y-11905588D02*
X6224310Y-11924636D01*
X6224310Y-11924636D02*
X6233834Y-11962731D01*
X6233834Y-11962731D02*
X6233834Y-12010350D01*
X6233834Y-12010350D02*
X6224310Y-12048445D01*
X6224310Y-12048445D02*
X6214786Y-12067493D01*
X6214786Y-12067493D02*
X6205262Y-12077017D01*
X6205262Y-12077017D02*
X6186215Y-12086541D01*
X6186215Y-12086541D02*
X6167167Y-12086541D01*
X6167167Y-12086541D02*
X6148120Y-12077017D01*
X6148120Y-12077017D02*
X6138596Y-12067493D01*
X6138596Y-12067493D02*
X6129072Y-12048445D01*
X6129072Y-12048445D02*
X6119548Y-12010350D01*
X6119548Y-12010350D02*
X6119548Y-11962731D01*
X6119548Y-11962731D02*
X6129072Y-11924636D01*
X6129072Y-11924636D02*
X6138596Y-11905588D01*
X6138596Y-11905588D02*
X6148120Y-11896065D01*
X6148120Y-11896065D02*
X6167167Y-11886541D01*
X6319548Y-12067493D02*
X6329072Y-12077017D01*
X6329072Y-12077017D02*
X6319548Y-12086541D01*
X6319548Y-12086541D02*
X6310024Y-12077017D01*
X6310024Y-12077017D02*
X6319548Y-12067493D01*
X6319548Y-12067493D02*
X6319548Y-12086541D01*
X6519548Y-12086541D02*
X6405262Y-12086541D01*
X6462405Y-12086541D02*
X6462405Y-11886541D01*
X6462405Y-11886541D02*
X6443358Y-11915112D01*
X6443358Y-11915112D02*
X6424310Y-11934160D01*
X6424310Y-11934160D02*
X6405262Y-11943684D01*
X6595739Y-11905588D02*
X6605262Y-11896065D01*
X6605262Y-11896065D02*
X6624310Y-11886541D01*
X6624310Y-11886541D02*
X6671929Y-11886541D01*
X6671929Y-11886541D02*
X6690977Y-11896065D01*
X6690977Y-11896065D02*
X6700501Y-11905588D01*
X6700501Y-11905588D02*
X6710024Y-11924636D01*
X6710024Y-11924636D02*
X6710024Y-11943684D01*
X6710024Y-11943684D02*
X6700501Y-11972255D01*
X6700501Y-11972255D02*
X6586215Y-12086541D01*
X6586215Y-12086541D02*
X6710024Y-12086541D01*
X6881453Y-11886541D02*
X6843358Y-11886541D01*
X6843358Y-11886541D02*
X6824310Y-11896065D01*
X6824310Y-11896065D02*
X6814786Y-11905588D01*
X6814786Y-11905588D02*
X6795739Y-11934160D01*
X6795739Y-11934160D02*
X6786215Y-11972255D01*
X6786215Y-11972255D02*
X6786215Y-12048445D01*
X6786215Y-12048445D02*
X6795739Y-12067493D01*
X6795739Y-12067493D02*
X6805262Y-12077017D01*
X6805262Y-12077017D02*
X6824310Y-12086541D01*
X6824310Y-12086541D02*
X6862405Y-12086541D01*
X6862405Y-12086541D02*
X6881453Y-12077017D01*
X6881453Y-12077017D02*
X6890977Y-12067493D01*
X6890977Y-12067493D02*
X6900501Y-12048445D01*
X6900501Y-12048445D02*
X6900501Y-12000826D01*
X6900501Y-12000826D02*
X6890977Y-11981779D01*
X6890977Y-11981779D02*
X6881453Y-11972255D01*
X6881453Y-11972255D02*
X6862405Y-11962731D01*
X6862405Y-11962731D02*
X6824310Y-11962731D01*
X6824310Y-11962731D02*
X6805262Y-11972255D01*
X6805262Y-11972255D02*
X6795739Y-11981779D01*
X6795739Y-11981779D02*
X6786215Y-12000826D01*
X7024310Y-11886541D02*
X7043358Y-11886541D01*
X7043358Y-11886541D02*
X7062405Y-11896065D01*
X7062405Y-11896065D02*
X7071929Y-11905588D01*
X7071929Y-11905588D02*
X7081453Y-11924636D01*
X7081453Y-11924636D02*
X7090977Y-11962731D01*
X7090977Y-11962731D02*
X7090977Y-12010350D01*
X7090977Y-12010350D02*
X7081453Y-12048445D01*
X7081453Y-12048445D02*
X7071929Y-12067493D01*
X7071929Y-12067493D02*
X7062405Y-12077017D01*
X7062405Y-12077017D02*
X7043358Y-12086541D01*
X7043358Y-12086541D02*
X7024310Y-12086541D01*
X7024310Y-12086541D02*
X7005262Y-12077017D01*
X7005262Y-12077017D02*
X6995739Y-12067493D01*
X6995739Y-12067493D02*
X6986215Y-12048445D01*
X6986215Y-12048445D02*
X6976691Y-12010350D01*
X6976691Y-12010350D02*
X6976691Y-11962731D01*
X6976691Y-11962731D02*
X6986215Y-11924636D01*
X6986215Y-11924636D02*
X6995739Y-11905588D01*
X6995739Y-11905588D02*
X7005262Y-11896065D01*
X7005262Y-11896065D02*
X7024310Y-11886541D01*
X7167167Y-11886541D02*
X7167167Y-11924636D01*
X7243358Y-11886541D02*
X7243358Y-11924636D01*
X7506215Y-12162731D02*
X7496691Y-12153207D01*
X7496691Y-12153207D02*
X7477643Y-12124636D01*
X7477643Y-12124636D02*
X7468120Y-12105588D01*
X7468120Y-12105588D02*
X7458596Y-12077017D01*
X7458596Y-12077017D02*
X7449072Y-12029398D01*
X7449072Y-12029398D02*
X7449072Y-11991303D01*
X7449072Y-11991303D02*
X7458596Y-11943684D01*
X7458596Y-11943684D02*
X7468120Y-11915112D01*
X7468120Y-11915112D02*
X7477643Y-11896065D01*
X7477643Y-11896065D02*
X7496691Y-11867493D01*
X7496691Y-11867493D02*
X7506215Y-11857969D01*
X7668120Y-11953207D02*
X7668120Y-12086541D01*
X7620501Y-11877017D02*
X7572882Y-12019874D01*
X7572882Y-12019874D02*
X7696691Y-12019874D01*
X7892882Y-12086541D02*
X7892882Y-11886541D01*
X7978596Y-12086541D02*
X7978596Y-11981779D01*
X7978596Y-11981779D02*
X7969072Y-11962731D01*
X7969072Y-11962731D02*
X7950024Y-11953207D01*
X7950024Y-11953207D02*
X7921453Y-11953207D01*
X7921453Y-11953207D02*
X7902405Y-11962731D01*
X7902405Y-11962731D02*
X7892882Y-11972255D01*
X8102405Y-12086541D02*
X8083358Y-12077017D01*
X8083358Y-12077017D02*
X8073834Y-12067493D01*
X8073834Y-12067493D02*
X8064310Y-12048445D01*
X8064310Y-12048445D02*
X8064310Y-11991303D01*
X8064310Y-11991303D02*
X8073834Y-11972255D01*
X8073834Y-11972255D02*
X8083358Y-11962731D01*
X8083358Y-11962731D02*
X8102405Y-11953207D01*
X8102405Y-11953207D02*
X8130977Y-11953207D01*
X8130977Y-11953207D02*
X8150024Y-11962731D01*
X8150024Y-11962731D02*
X8159548Y-11972255D01*
X8159548Y-11972255D02*
X8169072Y-11991303D01*
X8169072Y-11991303D02*
X8169072Y-12048445D01*
X8169072Y-12048445D02*
X8159548Y-12067493D01*
X8159548Y-12067493D02*
X8150024Y-12077017D01*
X8150024Y-12077017D02*
X8130977Y-12086541D01*
X8130977Y-12086541D02*
X8102405Y-12086541D01*
X8283358Y-12086541D02*
X8264310Y-12077017D01*
X8264310Y-12077017D02*
X8254786Y-12057969D01*
X8254786Y-12057969D02*
X8254786Y-11886541D01*
X8435739Y-12077017D02*
X8416691Y-12086541D01*
X8416691Y-12086541D02*
X8378596Y-12086541D01*
X8378596Y-12086541D02*
X8359548Y-12077017D01*
X8359548Y-12077017D02*
X8350024Y-12057969D01*
X8350024Y-12057969D02*
X8350024Y-11981779D01*
X8350024Y-11981779D02*
X8359548Y-11962731D01*
X8359548Y-11962731D02*
X8378596Y-11953207D01*
X8378596Y-11953207D02*
X8416691Y-11953207D01*
X8416691Y-11953207D02*
X8435739Y-11962731D01*
X8435739Y-11962731D02*
X8445263Y-11981779D01*
X8445263Y-11981779D02*
X8445263Y-12000826D01*
X8445263Y-12000826D02*
X8350024Y-12019874D01*
X8521453Y-12077017D02*
X8540501Y-12086541D01*
X8540501Y-12086541D02*
X8578596Y-12086541D01*
X8578596Y-12086541D02*
X8597644Y-12077017D01*
X8597644Y-12077017D02*
X8607167Y-12057969D01*
X8607167Y-12057969D02*
X8607167Y-12048445D01*
X8607167Y-12048445D02*
X8597644Y-12029398D01*
X8597644Y-12029398D02*
X8578596Y-12019874D01*
X8578596Y-12019874D02*
X8550025Y-12019874D01*
X8550025Y-12019874D02*
X8530977Y-12010350D01*
X8530977Y-12010350D02*
X8521453Y-11991303D01*
X8521453Y-11991303D02*
X8521453Y-11981779D01*
X8521453Y-11981779D02*
X8530977Y-11962731D01*
X8530977Y-11962731D02*
X8550025Y-11953207D01*
X8550025Y-11953207D02*
X8578596Y-11953207D01*
X8578596Y-11953207D02*
X8597644Y-11962731D01*
X8673834Y-12162731D02*
X8683358Y-12153207D01*
X8683358Y-12153207D02*
X8702406Y-12124636D01*
X8702406Y-12124636D02*
X8711929Y-12105588D01*
X8711929Y-12105588D02*
X8721453Y-12077017D01*
X8721453Y-12077017D02*
X8730977Y-12029398D01*
X8730977Y-12029398D02*
X8730977Y-11991303D01*
X8730977Y-11991303D02*
X8721453Y-11943684D01*
X8721453Y-11943684D02*
X8711929Y-11915112D01*
X8711929Y-11915112D02*
X8702406Y-11896065D01*
X8702406Y-11896065D02*
X8683358Y-11867493D01*
X8683358Y-11867493D02*
X8673834Y-11857969D01*
X9003358Y-12162731D02*
X8993834Y-12153207D01*
X8993834Y-12153207D02*
X8974786Y-12124636D01*
X8974786Y-12124636D02*
X8965263Y-12105588D01*
X8965263Y-12105588D02*
X8955739Y-12077017D01*
X8955739Y-12077017D02*
X8946215Y-12029398D01*
X8946215Y-12029398D02*
X8946215Y-11991303D01*
X8946215Y-11991303D02*
X8955739Y-11943684D01*
X8955739Y-11943684D02*
X8965263Y-11915112D01*
X8965263Y-11915112D02*
X8974786Y-11896065D01*
X8974786Y-11896065D02*
X8993834Y-11867493D01*
X8993834Y-11867493D02*
X9003358Y-11857969D01*
X9079548Y-11953207D02*
X9079548Y-12086541D01*
X9079548Y-11972255D02*
X9089072Y-11962731D01*
X9089072Y-11962731D02*
X9108120Y-11953207D01*
X9108120Y-11953207D02*
X9136691Y-11953207D01*
X9136691Y-11953207D02*
X9155739Y-11962731D01*
X9155739Y-11962731D02*
X9165263Y-11981779D01*
X9165263Y-11981779D02*
X9165263Y-12086541D01*
X9289072Y-12086541D02*
X9270025Y-12077017D01*
X9270025Y-12077017D02*
X9260501Y-12067493D01*
X9260501Y-12067493D02*
X9250977Y-12048445D01*
X9250977Y-12048445D02*
X9250977Y-11991303D01*
X9250977Y-11991303D02*
X9260501Y-11972255D01*
X9260501Y-11972255D02*
X9270025Y-11962731D01*
X9270025Y-11962731D02*
X9289072Y-11953207D01*
X9289072Y-11953207D02*
X9317644Y-11953207D01*
X9317644Y-11953207D02*
X9336691Y-11962731D01*
X9336691Y-11962731D02*
X9346215Y-11972255D01*
X9346215Y-11972255D02*
X9355739Y-11991303D01*
X9355739Y-11991303D02*
X9355739Y-12048445D01*
X9355739Y-12048445D02*
X9346215Y-12067493D01*
X9346215Y-12067493D02*
X9336691Y-12077017D01*
X9336691Y-12077017D02*
X9317644Y-12086541D01*
X9317644Y-12086541D02*
X9289072Y-12086541D01*
X9412882Y-11953207D02*
X9489072Y-11953207D01*
X9441453Y-11886541D02*
X9441453Y-12057969D01*
X9441453Y-12057969D02*
X9450977Y-12077017D01*
X9450977Y-12077017D02*
X9470025Y-12086541D01*
X9470025Y-12086541D02*
X9489072Y-12086541D01*
X9675739Y-11953207D02*
X9675739Y-12153207D01*
X9675739Y-11962731D02*
X9694786Y-11953207D01*
X9694786Y-11953207D02*
X9732882Y-11953207D01*
X9732882Y-11953207D02*
X9751929Y-11962731D01*
X9751929Y-11962731D02*
X9761453Y-11972255D01*
X9761453Y-11972255D02*
X9770977Y-11991303D01*
X9770977Y-11991303D02*
X9770977Y-12048445D01*
X9770977Y-12048445D02*
X9761453Y-12067493D01*
X9761453Y-12067493D02*
X9751929Y-12077017D01*
X9751929Y-12077017D02*
X9732882Y-12086541D01*
X9732882Y-12086541D02*
X9694786Y-12086541D01*
X9694786Y-12086541D02*
X9675739Y-12077017D01*
X9885263Y-12086541D02*
X9866215Y-12077017D01*
X9866215Y-12077017D02*
X9856691Y-12057969D01*
X9856691Y-12057969D02*
X9856691Y-11886541D01*
X10047167Y-12086541D02*
X10047167Y-11981779D01*
X10047167Y-11981779D02*
X10037644Y-11962731D01*
X10037644Y-11962731D02*
X10018596Y-11953207D01*
X10018596Y-11953207D02*
X9980501Y-11953207D01*
X9980501Y-11953207D02*
X9961453Y-11962731D01*
X10047167Y-12077017D02*
X10028120Y-12086541D01*
X10028120Y-12086541D02*
X9980501Y-12086541D01*
X9980501Y-12086541D02*
X9961453Y-12077017D01*
X9961453Y-12077017D02*
X9951929Y-12057969D01*
X9951929Y-12057969D02*
X9951929Y-12038922D01*
X9951929Y-12038922D02*
X9961453Y-12019874D01*
X9961453Y-12019874D02*
X9980501Y-12010350D01*
X9980501Y-12010350D02*
X10028120Y-12010350D01*
X10028120Y-12010350D02*
X10047167Y-12000826D01*
X10113834Y-11953207D02*
X10190025Y-11953207D01*
X10142406Y-11886541D02*
X10142406Y-12057969D01*
X10142406Y-12057969D02*
X10151929Y-12077017D01*
X10151929Y-12077017D02*
X10170977Y-12086541D01*
X10170977Y-12086541D02*
X10190025Y-12086541D01*
X10332882Y-12077017D02*
X10313834Y-12086541D01*
X10313834Y-12086541D02*
X10275739Y-12086541D01*
X10275739Y-12086541D02*
X10256691Y-12077017D01*
X10256691Y-12077017D02*
X10247167Y-12057969D01*
X10247167Y-12057969D02*
X10247167Y-11981779D01*
X10247167Y-11981779D02*
X10256691Y-11962731D01*
X10256691Y-11962731D02*
X10275739Y-11953207D01*
X10275739Y-11953207D02*
X10313834Y-11953207D01*
X10313834Y-11953207D02*
X10332882Y-11962731D01*
X10332882Y-11962731D02*
X10342406Y-11981779D01*
X10342406Y-11981779D02*
X10342406Y-12000826D01*
X10342406Y-12000826D02*
X10247167Y-12019874D01*
X10513834Y-12086541D02*
X10513834Y-11886541D01*
X10513834Y-12077017D02*
X10494787Y-12086541D01*
X10494787Y-12086541D02*
X10456691Y-12086541D01*
X10456691Y-12086541D02*
X10437644Y-12077017D01*
X10437644Y-12077017D02*
X10428120Y-12067493D01*
X10428120Y-12067493D02*
X10418596Y-12048445D01*
X10418596Y-12048445D02*
X10418596Y-11991303D01*
X10418596Y-11991303D02*
X10428120Y-11972255D01*
X10428120Y-11972255D02*
X10437644Y-11962731D01*
X10437644Y-11962731D02*
X10456691Y-11953207D01*
X10456691Y-11953207D02*
X10494787Y-11953207D01*
X10494787Y-11953207D02*
X10513834Y-11962731D01*
X10590025Y-12162731D02*
X10599548Y-12153207D01*
X10599548Y-12153207D02*
X10618596Y-12124636D01*
X10618596Y-12124636D02*
X10628120Y-12105588D01*
X10628120Y-12105588D02*
X10637644Y-12077017D01*
X10637644Y-12077017D02*
X10647167Y-12029398D01*
X10647167Y-12029398D02*
X10647167Y-11991303D01*
X10647167Y-11991303D02*
X10637644Y-11943684D01*
X10637644Y-11943684D02*
X10628120Y-11915112D01*
X10628120Y-11915112D02*
X10618596Y-11896065D01*
X10618596Y-11896065D02*
X10599548Y-11867493D01*
X10599548Y-11867493D02*
X10590025Y-11857969D01*
X3941453Y-12233065D02*
X3941453Y-12433065D01*
X3841453Y-12333065D02*
X4041453Y-12333065D01*
X4270024Y-12206541D02*
X4393834Y-12206541D01*
X4393834Y-12206541D02*
X4327167Y-12282731D01*
X4327167Y-12282731D02*
X4355739Y-12282731D01*
X4355739Y-12282731D02*
X4374786Y-12292255D01*
X4374786Y-12292255D02*
X4384310Y-12301779D01*
X4384310Y-12301779D02*
X4393834Y-12320826D01*
X4393834Y-12320826D02*
X4393834Y-12368445D01*
X4393834Y-12368445D02*
X4384310Y-12387493D01*
X4384310Y-12387493D02*
X4374786Y-12397017D01*
X4374786Y-12397017D02*
X4355739Y-12406541D01*
X4355739Y-12406541D02*
X4298596Y-12406541D01*
X4298596Y-12406541D02*
X4279548Y-12397017D01*
X4279548Y-12397017D02*
X4270024Y-12387493D01*
X4479548Y-12387493D02*
X4489072Y-12397017D01*
X4489072Y-12397017D02*
X4479548Y-12406541D01*
X4479548Y-12406541D02*
X4470024Y-12397017D01*
X4470024Y-12397017D02*
X4479548Y-12387493D01*
X4479548Y-12387493D02*
X4479548Y-12406541D01*
X4660501Y-12273207D02*
X4660501Y-12406541D01*
X4612881Y-12197017D02*
X4565262Y-12339874D01*
X4565262Y-12339874D02*
X4689072Y-12339874D01*
X4860501Y-12206541D02*
X4765262Y-12206541D01*
X4765262Y-12206541D02*
X4755739Y-12301779D01*
X4755739Y-12301779D02*
X4765262Y-12292255D01*
X4765262Y-12292255D02*
X4784310Y-12282731D01*
X4784310Y-12282731D02*
X4831929Y-12282731D01*
X4831929Y-12282731D02*
X4850977Y-12292255D01*
X4850977Y-12292255D02*
X4860501Y-12301779D01*
X4860501Y-12301779D02*
X4870024Y-12320826D01*
X4870024Y-12320826D02*
X4870024Y-12368445D01*
X4870024Y-12368445D02*
X4860501Y-12387493D01*
X4860501Y-12387493D02*
X4850977Y-12397017D01*
X4850977Y-12397017D02*
X4831929Y-12406541D01*
X4831929Y-12406541D02*
X4784310Y-12406541D01*
X4784310Y-12406541D02*
X4765262Y-12397017D01*
X4765262Y-12397017D02*
X4755739Y-12387493D01*
X4993834Y-12206541D02*
X5012882Y-12206541D01*
X5012882Y-12206541D02*
X5031929Y-12216065D01*
X5031929Y-12216065D02*
X5041453Y-12225588D01*
X5041453Y-12225588D02*
X5050977Y-12244636D01*
X5050977Y-12244636D02*
X5060501Y-12282731D01*
X5060501Y-12282731D02*
X5060501Y-12330350D01*
X5060501Y-12330350D02*
X5050977Y-12368445D01*
X5050977Y-12368445D02*
X5041453Y-12387493D01*
X5041453Y-12387493D02*
X5031929Y-12397017D01*
X5031929Y-12397017D02*
X5012882Y-12406541D01*
X5012882Y-12406541D02*
X4993834Y-12406541D01*
X4993834Y-12406541D02*
X4974786Y-12397017D01*
X4974786Y-12397017D02*
X4965262Y-12387493D01*
X4965262Y-12387493D02*
X4955739Y-12368445D01*
X4955739Y-12368445D02*
X4946215Y-12330350D01*
X4946215Y-12330350D02*
X4946215Y-12282731D01*
X4946215Y-12282731D02*
X4955739Y-12244636D01*
X4955739Y-12244636D02*
X4965262Y-12225588D01*
X4965262Y-12225588D02*
X4974786Y-12216065D01*
X4974786Y-12216065D02*
X4993834Y-12206541D01*
X5146215Y-12406541D02*
X5146215Y-12273207D01*
X5146215Y-12292255D02*
X5155739Y-12282731D01*
X5155739Y-12282731D02*
X5174786Y-12273207D01*
X5174786Y-12273207D02*
X5203358Y-12273207D01*
X5203358Y-12273207D02*
X5222405Y-12282731D01*
X5222405Y-12282731D02*
X5231929Y-12301779D01*
X5231929Y-12301779D02*
X5231929Y-12406541D01*
X5231929Y-12301779D02*
X5241453Y-12282731D01*
X5241453Y-12282731D02*
X5260501Y-12273207D01*
X5260501Y-12273207D02*
X5289072Y-12273207D01*
X5289072Y-12273207D02*
X5308120Y-12282731D01*
X5308120Y-12282731D02*
X5317643Y-12301779D01*
X5317643Y-12301779D02*
X5317643Y-12406541D01*
X5412882Y-12406541D02*
X5412882Y-12273207D01*
X5412882Y-12292255D02*
X5422405Y-12282731D01*
X5422405Y-12282731D02*
X5441453Y-12273207D01*
X5441453Y-12273207D02*
X5470024Y-12273207D01*
X5470024Y-12273207D02*
X5489072Y-12282731D01*
X5489072Y-12282731D02*
X5498596Y-12301779D01*
X5498596Y-12301779D02*
X5498596Y-12406541D01*
X5498596Y-12301779D02*
X5508120Y-12282731D01*
X5508120Y-12282731D02*
X5527167Y-12273207D01*
X5527167Y-12273207D02*
X5555739Y-12273207D01*
X5555739Y-12273207D02*
X5574786Y-12282731D01*
X5574786Y-12282731D02*
X5584310Y-12301779D01*
X5584310Y-12301779D02*
X5584310Y-12406541D01*
X5942405Y-12197017D02*
X5770977Y-12454160D01*
X6167167Y-12206541D02*
X6186215Y-12206541D01*
X6186215Y-12206541D02*
X6205262Y-12216065D01*
X6205262Y-12216065D02*
X6214786Y-12225588D01*
X6214786Y-12225588D02*
X6224310Y-12244636D01*
X6224310Y-12244636D02*
X6233834Y-12282731D01*
X6233834Y-12282731D02*
X6233834Y-12330350D01*
X6233834Y-12330350D02*
X6224310Y-12368445D01*
X6224310Y-12368445D02*
X6214786Y-12387493D01*
X6214786Y-12387493D02*
X6205262Y-12397017D01*
X6205262Y-12397017D02*
X6186215Y-12406541D01*
X6186215Y-12406541D02*
X6167167Y-12406541D01*
X6167167Y-12406541D02*
X6148120Y-12397017D01*
X6148120Y-12397017D02*
X6138596Y-12387493D01*
X6138596Y-12387493D02*
X6129072Y-12368445D01*
X6129072Y-12368445D02*
X6119548Y-12330350D01*
X6119548Y-12330350D02*
X6119548Y-12282731D01*
X6119548Y-12282731D02*
X6129072Y-12244636D01*
X6129072Y-12244636D02*
X6138596Y-12225588D01*
X6138596Y-12225588D02*
X6148120Y-12216065D01*
X6148120Y-12216065D02*
X6167167Y-12206541D01*
X6319548Y-12387493D02*
X6329072Y-12397017D01*
X6329072Y-12397017D02*
X6319548Y-12406541D01*
X6319548Y-12406541D02*
X6310024Y-12397017D01*
X6310024Y-12397017D02*
X6319548Y-12387493D01*
X6319548Y-12387493D02*
X6319548Y-12406541D01*
X6519548Y-12406541D02*
X6405262Y-12406541D01*
X6462405Y-12406541D02*
X6462405Y-12206541D01*
X6462405Y-12206541D02*
X6443358Y-12235112D01*
X6443358Y-12235112D02*
X6424310Y-12254160D01*
X6424310Y-12254160D02*
X6405262Y-12263684D01*
X6586215Y-12206541D02*
X6710024Y-12206541D01*
X6710024Y-12206541D02*
X6643358Y-12282731D01*
X6643358Y-12282731D02*
X6671929Y-12282731D01*
X6671929Y-12282731D02*
X6690977Y-12292255D01*
X6690977Y-12292255D02*
X6700501Y-12301779D01*
X6700501Y-12301779D02*
X6710024Y-12320826D01*
X6710024Y-12320826D02*
X6710024Y-12368445D01*
X6710024Y-12368445D02*
X6700501Y-12387493D01*
X6700501Y-12387493D02*
X6690977Y-12397017D01*
X6690977Y-12397017D02*
X6671929Y-12406541D01*
X6671929Y-12406541D02*
X6614786Y-12406541D01*
X6614786Y-12406541D02*
X6595739Y-12397017D01*
X6595739Y-12397017D02*
X6586215Y-12387493D01*
X6890977Y-12206541D02*
X6795739Y-12206541D01*
X6795739Y-12206541D02*
X6786215Y-12301779D01*
X6786215Y-12301779D02*
X6795739Y-12292255D01*
X6795739Y-12292255D02*
X6814786Y-12282731D01*
X6814786Y-12282731D02*
X6862405Y-12282731D01*
X6862405Y-12282731D02*
X6881453Y-12292255D01*
X6881453Y-12292255D02*
X6890977Y-12301779D01*
X6890977Y-12301779D02*
X6900501Y-12320826D01*
X6900501Y-12320826D02*
X6900501Y-12368445D01*
X6900501Y-12368445D02*
X6890977Y-12387493D01*
X6890977Y-12387493D02*
X6881453Y-12397017D01*
X6881453Y-12397017D02*
X6862405Y-12406541D01*
X6862405Y-12406541D02*
X6814786Y-12406541D01*
X6814786Y-12406541D02*
X6795739Y-12397017D01*
X6795739Y-12397017D02*
X6786215Y-12387493D01*
X7014786Y-12292255D02*
X6995739Y-12282731D01*
X6995739Y-12282731D02*
X6986215Y-12273207D01*
X6986215Y-12273207D02*
X6976691Y-12254160D01*
X6976691Y-12254160D02*
X6976691Y-12244636D01*
X6976691Y-12244636D02*
X6986215Y-12225588D01*
X6986215Y-12225588D02*
X6995739Y-12216065D01*
X6995739Y-12216065D02*
X7014786Y-12206541D01*
X7014786Y-12206541D02*
X7052882Y-12206541D01*
X7052882Y-12206541D02*
X7071929Y-12216065D01*
X7071929Y-12216065D02*
X7081453Y-12225588D01*
X7081453Y-12225588D02*
X7090977Y-12244636D01*
X7090977Y-12244636D02*
X7090977Y-12254160D01*
X7090977Y-12254160D02*
X7081453Y-12273207D01*
X7081453Y-12273207D02*
X7071929Y-12282731D01*
X7071929Y-12282731D02*
X7052882Y-12292255D01*
X7052882Y-12292255D02*
X7014786Y-12292255D01*
X7014786Y-12292255D02*
X6995739Y-12301779D01*
X6995739Y-12301779D02*
X6986215Y-12311303D01*
X6986215Y-12311303D02*
X6976691Y-12330350D01*
X6976691Y-12330350D02*
X6976691Y-12368445D01*
X6976691Y-12368445D02*
X6986215Y-12387493D01*
X6986215Y-12387493D02*
X6995739Y-12397017D01*
X6995739Y-12397017D02*
X7014786Y-12406541D01*
X7014786Y-12406541D02*
X7052882Y-12406541D01*
X7052882Y-12406541D02*
X7071929Y-12397017D01*
X7071929Y-12397017D02*
X7081453Y-12387493D01*
X7081453Y-12387493D02*
X7090977Y-12368445D01*
X7090977Y-12368445D02*
X7090977Y-12330350D01*
X7090977Y-12330350D02*
X7081453Y-12311303D01*
X7081453Y-12311303D02*
X7071929Y-12301779D01*
X7071929Y-12301779D02*
X7052882Y-12292255D01*
X7167167Y-12206541D02*
X7167167Y-12244636D01*
X7243358Y-12206541D02*
X7243358Y-12244636D01*
X7506215Y-12482731D02*
X7496691Y-12473207D01*
X7496691Y-12473207D02*
X7477643Y-12444636D01*
X7477643Y-12444636D02*
X7468120Y-12425588D01*
X7468120Y-12425588D02*
X7458596Y-12397017D01*
X7458596Y-12397017D02*
X7449072Y-12349398D01*
X7449072Y-12349398D02*
X7449072Y-12311303D01*
X7449072Y-12311303D02*
X7458596Y-12263684D01*
X7458596Y-12263684D02*
X7468120Y-12235112D01*
X7468120Y-12235112D02*
X7477643Y-12216065D01*
X7477643Y-12216065D02*
X7496691Y-12187493D01*
X7496691Y-12187493D02*
X7506215Y-12177969D01*
X7687167Y-12406541D02*
X7572882Y-12406541D01*
X7630024Y-12406541D02*
X7630024Y-12206541D01*
X7630024Y-12206541D02*
X7610977Y-12235112D01*
X7610977Y-12235112D02*
X7591929Y-12254160D01*
X7591929Y-12254160D02*
X7572882Y-12263684D01*
X7763358Y-12225588D02*
X7772882Y-12216065D01*
X7772882Y-12216065D02*
X7791929Y-12206541D01*
X7791929Y-12206541D02*
X7839548Y-12206541D01*
X7839548Y-12206541D02*
X7858596Y-12216065D01*
X7858596Y-12216065D02*
X7868120Y-12225588D01*
X7868120Y-12225588D02*
X7877643Y-12244636D01*
X7877643Y-12244636D02*
X7877643Y-12263684D01*
X7877643Y-12263684D02*
X7868120Y-12292255D01*
X7868120Y-12292255D02*
X7753834Y-12406541D01*
X7753834Y-12406541D02*
X7877643Y-12406541D01*
X8083358Y-12406541D02*
X8083358Y-12206541D01*
X8169072Y-12406541D02*
X8169072Y-12301779D01*
X8169072Y-12301779D02*
X8159548Y-12282731D01*
X8159548Y-12282731D02*
X8140501Y-12273207D01*
X8140501Y-12273207D02*
X8111929Y-12273207D01*
X8111929Y-12273207D02*
X8092882Y-12282731D01*
X8092882Y-12282731D02*
X8083358Y-12292255D01*
X8292882Y-12406541D02*
X8273834Y-12397017D01*
X8273834Y-12397017D02*
X8264310Y-12387493D01*
X8264310Y-12387493D02*
X8254786Y-12368445D01*
X8254786Y-12368445D02*
X8254786Y-12311303D01*
X8254786Y-12311303D02*
X8264310Y-12292255D01*
X8264310Y-12292255D02*
X8273834Y-12282731D01*
X8273834Y-12282731D02*
X8292882Y-12273207D01*
X8292882Y-12273207D02*
X8321453Y-12273207D01*
X8321453Y-12273207D02*
X8340501Y-12282731D01*
X8340501Y-12282731D02*
X8350024Y-12292255D01*
X8350024Y-12292255D02*
X8359548Y-12311303D01*
X8359548Y-12311303D02*
X8359548Y-12368445D01*
X8359548Y-12368445D02*
X8350024Y-12387493D01*
X8350024Y-12387493D02*
X8340501Y-12397017D01*
X8340501Y-12397017D02*
X8321453Y-12406541D01*
X8321453Y-12406541D02*
X8292882Y-12406541D01*
X8473834Y-12406541D02*
X8454786Y-12397017D01*
X8454786Y-12397017D02*
X8445263Y-12377969D01*
X8445263Y-12377969D02*
X8445263Y-12206541D01*
X8626215Y-12397017D02*
X8607167Y-12406541D01*
X8607167Y-12406541D02*
X8569072Y-12406541D01*
X8569072Y-12406541D02*
X8550025Y-12397017D01*
X8550025Y-12397017D02*
X8540501Y-12377969D01*
X8540501Y-12377969D02*
X8540501Y-12301779D01*
X8540501Y-12301779D02*
X8550025Y-12282731D01*
X8550025Y-12282731D02*
X8569072Y-12273207D01*
X8569072Y-12273207D02*
X8607167Y-12273207D01*
X8607167Y-12273207D02*
X8626215Y-12282731D01*
X8626215Y-12282731D02*
X8635739Y-12301779D01*
X8635739Y-12301779D02*
X8635739Y-12320826D01*
X8635739Y-12320826D02*
X8540501Y-12339874D01*
X8711929Y-12397017D02*
X8730977Y-12406541D01*
X8730977Y-12406541D02*
X8769072Y-12406541D01*
X8769072Y-12406541D02*
X8788120Y-12397017D01*
X8788120Y-12397017D02*
X8797644Y-12377969D01*
X8797644Y-12377969D02*
X8797644Y-12368445D01*
X8797644Y-12368445D02*
X8788120Y-12349398D01*
X8788120Y-12349398D02*
X8769072Y-12339874D01*
X8769072Y-12339874D02*
X8740501Y-12339874D01*
X8740501Y-12339874D02*
X8721453Y-12330350D01*
X8721453Y-12330350D02*
X8711929Y-12311303D01*
X8711929Y-12311303D02*
X8711929Y-12301779D01*
X8711929Y-12301779D02*
X8721453Y-12282731D01*
X8721453Y-12282731D02*
X8740501Y-12273207D01*
X8740501Y-12273207D02*
X8769072Y-12273207D01*
X8769072Y-12273207D02*
X8788120Y-12282731D01*
X8864310Y-12482731D02*
X8873834Y-12473207D01*
X8873834Y-12473207D02*
X8892882Y-12444636D01*
X8892882Y-12444636D02*
X8902406Y-12425588D01*
X8902406Y-12425588D02*
X8911929Y-12397017D01*
X8911929Y-12397017D02*
X8921453Y-12349398D01*
X8921453Y-12349398D02*
X8921453Y-12311303D01*
X8921453Y-12311303D02*
X8911929Y-12263684D01*
X8911929Y-12263684D02*
X8902406Y-12235112D01*
X8902406Y-12235112D02*
X8892882Y-12216065D01*
X8892882Y-12216065D02*
X8873834Y-12187493D01*
X8873834Y-12187493D02*
X8864310Y-12177969D01*
X9193834Y-12482731D02*
X9184310Y-12473207D01*
X9184310Y-12473207D02*
X9165263Y-12444636D01*
X9165263Y-12444636D02*
X9155739Y-12425588D01*
X9155739Y-12425588D02*
X9146215Y-12397017D01*
X9146215Y-12397017D02*
X9136691Y-12349398D01*
X9136691Y-12349398D02*
X9136691Y-12311303D01*
X9136691Y-12311303D02*
X9146215Y-12263684D01*
X9146215Y-12263684D02*
X9155739Y-12235112D01*
X9155739Y-12235112D02*
X9165263Y-12216065D01*
X9165263Y-12216065D02*
X9184310Y-12187493D01*
X9184310Y-12187493D02*
X9193834Y-12177969D01*
X9270025Y-12273207D02*
X9270025Y-12406541D01*
X9270025Y-12292255D02*
X9279548Y-12282731D01*
X9279548Y-12282731D02*
X9298596Y-12273207D01*
X9298596Y-12273207D02*
X9327167Y-12273207D01*
X9327167Y-12273207D02*
X9346215Y-12282731D01*
X9346215Y-12282731D02*
X9355739Y-12301779D01*
X9355739Y-12301779D02*
X9355739Y-12406541D01*
X9479548Y-12406541D02*
X9460501Y-12397017D01*
X9460501Y-12397017D02*
X9450977Y-12387493D01*
X9450977Y-12387493D02*
X9441453Y-12368445D01*
X9441453Y-12368445D02*
X9441453Y-12311303D01*
X9441453Y-12311303D02*
X9450977Y-12292255D01*
X9450977Y-12292255D02*
X9460501Y-12282731D01*
X9460501Y-12282731D02*
X9479548Y-12273207D01*
X9479548Y-12273207D02*
X9508120Y-12273207D01*
X9508120Y-12273207D02*
X9527167Y-12282731D01*
X9527167Y-12282731D02*
X9536691Y-12292255D01*
X9536691Y-12292255D02*
X9546215Y-12311303D01*
X9546215Y-12311303D02*
X9546215Y-12368445D01*
X9546215Y-12368445D02*
X9536691Y-12387493D01*
X9536691Y-12387493D02*
X9527167Y-12397017D01*
X9527167Y-12397017D02*
X9508120Y-12406541D01*
X9508120Y-12406541D02*
X9479548Y-12406541D01*
X9603358Y-12273207D02*
X9679548Y-12273207D01*
X9631929Y-12206541D02*
X9631929Y-12377969D01*
X9631929Y-12377969D02*
X9641453Y-12397017D01*
X9641453Y-12397017D02*
X9660501Y-12406541D01*
X9660501Y-12406541D02*
X9679548Y-12406541D01*
X9866215Y-12273207D02*
X9866215Y-12473207D01*
X9866215Y-12282731D02*
X9885263Y-12273207D01*
X9885263Y-12273207D02*
X9923358Y-12273207D01*
X9923358Y-12273207D02*
X9942406Y-12282731D01*
X9942406Y-12282731D02*
X9951929Y-12292255D01*
X9951929Y-12292255D02*
X9961453Y-12311303D01*
X9961453Y-12311303D02*
X9961453Y-12368445D01*
X9961453Y-12368445D02*
X9951929Y-12387493D01*
X9951929Y-12387493D02*
X9942406Y-12397017D01*
X9942406Y-12397017D02*
X9923358Y-12406541D01*
X9923358Y-12406541D02*
X9885263Y-12406541D01*
X9885263Y-12406541D02*
X9866215Y-12397017D01*
X10075739Y-12406541D02*
X10056691Y-12397017D01*
X10056691Y-12397017D02*
X10047167Y-12377969D01*
X10047167Y-12377969D02*
X10047167Y-12206541D01*
X10237644Y-12406541D02*
X10237644Y-12301779D01*
X10237644Y-12301779D02*
X10228120Y-12282731D01*
X10228120Y-12282731D02*
X10209072Y-12273207D01*
X10209072Y-12273207D02*
X10170977Y-12273207D01*
X10170977Y-12273207D02*
X10151929Y-12282731D01*
X10237644Y-12397017D02*
X10218596Y-12406541D01*
X10218596Y-12406541D02*
X10170977Y-12406541D01*
X10170977Y-12406541D02*
X10151929Y-12397017D01*
X10151929Y-12397017D02*
X10142406Y-12377969D01*
X10142406Y-12377969D02*
X10142406Y-12358922D01*
X10142406Y-12358922D02*
X10151929Y-12339874D01*
X10151929Y-12339874D02*
X10170977Y-12330350D01*
X10170977Y-12330350D02*
X10218596Y-12330350D01*
X10218596Y-12330350D02*
X10237644Y-12320826D01*
X10304310Y-12273207D02*
X10380501Y-12273207D01*
X10332882Y-12206541D02*
X10332882Y-12377969D01*
X10332882Y-12377969D02*
X10342406Y-12397017D01*
X10342406Y-12397017D02*
X10361453Y-12406541D01*
X10361453Y-12406541D02*
X10380501Y-12406541D01*
X10523358Y-12397017D02*
X10504310Y-12406541D01*
X10504310Y-12406541D02*
X10466215Y-12406541D01*
X10466215Y-12406541D02*
X10447167Y-12397017D01*
X10447167Y-12397017D02*
X10437644Y-12377969D01*
X10437644Y-12377969D02*
X10437644Y-12301779D01*
X10437644Y-12301779D02*
X10447167Y-12282731D01*
X10447167Y-12282731D02*
X10466215Y-12273207D01*
X10466215Y-12273207D02*
X10504310Y-12273207D01*
X10504310Y-12273207D02*
X10523358Y-12282731D01*
X10523358Y-12282731D02*
X10532882Y-12301779D01*
X10532882Y-12301779D02*
X10532882Y-12320826D01*
X10532882Y-12320826D02*
X10437644Y-12339874D01*
X10704310Y-12406541D02*
X10704310Y-12206541D01*
X10704310Y-12397017D02*
X10685263Y-12406541D01*
X10685263Y-12406541D02*
X10647167Y-12406541D01*
X10647167Y-12406541D02*
X10628120Y-12397017D01*
X10628120Y-12397017D02*
X10618596Y-12387493D01*
X10618596Y-12387493D02*
X10609072Y-12368445D01*
X10609072Y-12368445D02*
X10609072Y-12311303D01*
X10609072Y-12311303D02*
X10618596Y-12292255D01*
X10618596Y-12292255D02*
X10628120Y-12282731D01*
X10628120Y-12282731D02*
X10647167Y-12273207D01*
X10647167Y-12273207D02*
X10685263Y-12273207D01*
X10685263Y-12273207D02*
X10704310Y-12282731D01*
X10780501Y-12482731D02*
X10790025Y-12473207D01*
X10790025Y-12473207D02*
X10809072Y-12444636D01*
X10809072Y-12444636D02*
X10818596Y-12425588D01*
X10818596Y-12425588D02*
X10828120Y-12397017D01*
X10828120Y-12397017D02*
X10837644Y-12349398D01*
X10837644Y-12349398D02*
X10837644Y-12311303D01*
X10837644Y-12311303D02*
X10828120Y-12263684D01*
X10828120Y-12263684D02*
X10818596Y-12235112D01*
X10818596Y-12235112D02*
X10809072Y-12216065D01*
X10809072Y-12216065D02*
X10790025Y-12187493D01*
X10790025Y-12187493D02*
X10780501Y-12177969D01*
M02*
