<?xml version="1.0" encoding="utf-8"?>
<!-- Generator: Fusion 360, Shaper Origin Export Add-In, Version 1.6.10  -->
<svg xmlns="http://www.w3.org/2000/svg" xmlns:xlink="http://www.w3.org/1999/xlink" xmlns:shaper="http://www.shapertools.com/namespaces/shaper" shaper:fusionaddin="version:1.6.10" width="22.65cm" height="4.6870582cm" version="1.1" x="0cm" y="0cm" viewBox="0 0 22.65 4.6870582" enable-background="new 0 0 22.65 4.6870582" xml:space="preserve"><path d="M-11.2,2.3435291 A0.125,0.125 90 0,1 -11.325,2.2185291 L-11.325,-2.3435291 11.325,-2.3435291 11.325,2.2185291 A0.125,0.125 0 0,1 11.2,2.3435291 L-11.2,2.3435291z" transform="matrix(1,0,0,-1,11.325,2.3435291)" fill="rgb(0,0,0)" stroke-linecap="round" stroke-linejoin="round" /><path d="M-10.8,0.3985291 L-10.8,1.8185291 -9.38,1.8185291 -9.38,0.3985291 -10.8,0.3985291z" transform="matrix(1,0,0,-1,11.325,2.3435291)" fill="rgb(255,255,255)" stroke="rgb(0,0,0)" stroke-width="0.0010cm" stroke-linecap="round" stroke-linejoin="round" /><path d="M-3.1023742,-0.6739291 L-3.3,-2.0801098 -4.7061807,-1.8824839 -4.5085549,-0.4763033 -3.1023742,-0.6739291z" transform="matrix(1,0,0,-1,11.325,2.3435291)" fill="rgb(255,255,255)" stroke="rgb(0,0,0)" stroke-width="0.0010cm" stroke-linecap="round" stroke-linejoin="round" /><path d="M1.19,-0.2701098 L2.61,-0.2701098 2.61,-1.6901098 1.19,-1.6901098 1.19,-0.2701098z" transform="matrix(1,0,0,-1,11.325,2.3435291)" fill="rgb(255,255,255)" stroke="rgb(0,0,0)" stroke-width="0.0010cm" stroke-linecap="round" stroke-linejoin="round" /><path d="M6.8653929,-0.1450713 L8.2715735,0.0525545 8.4691993,-1.3536262 7.0630187,-1.551252 6.8653929,-0.1450713z" transform="matrix(1,0,0,-1,11.325,2.3435291)" fill="rgb(255,255,255)" stroke="rgb(0,0,0)" stroke-width="0.0010cm" stroke-linecap="round" stroke-linejoin="round" /><path d="M0.71,-0.2701098 L0.71,-1.6901098 -0.71,-1.6901098 -0.71,-0.2701098 0.71,-0.2701098z" transform="matrix(1,0,0,-1,11.325,2.3435291)" fill="rgb(255,255,255)" stroke="rgb(0,0,0)" stroke-width="0.0010cm" stroke-linecap="round" stroke-linejoin="round" /><path d="M-6.3204776,0.2832596 L-4.914297,0.0856338 -5.1119228,-1.3205468 -6.5181034,-1.122921 -6.3204776,0.2832596z" transform="matrix(1,0,0,-1,11.325,2.3435291)" fill="rgb(255,255,255)" stroke="rgb(0,0,0)" stroke-width="0.0010cm" stroke-linecap="round" stroke-linejoin="round" /><path d="M10.8,-0.1014709 L9.38,-0.1014709 9.38,1.3185291 10.8,1.3185291 10.8,-0.1014709z" transform="matrix(1,0,0,-1,11.325,2.3435291)" fill="rgb(255,255,255)" stroke="rgb(0,0,0)" stroke-width="0.0010cm" stroke-linecap="round" stroke-linejoin="round" /><path d="M-1.19,-0.2701098 L-1.19,-1.6901098 -2.61,-1.6901098 -2.61,-0.2701098 -1.19,-0.2701098z" transform="matrix(1,0,0,-1,11.325,2.3435291)" fill="rgb(255,255,255)" stroke="rgb(0,0,0)" stroke-width="0.0010cm" stroke-linecap="round" stroke-linejoin="round" /><path d="M3.1023742,-0.6739291 L4.5085549,-0.4763033 4.7061807,-1.8824839 3.3,-2.0801098 3.1023742,-0.6739291z" transform="matrix(1,0,0,-1,11.325,2.3435291)" fill="rgb(255,255,255)" stroke="rgb(0,0,0)" stroke-width="0.0010cm" stroke-linecap="round" stroke-linejoin="round" /><path d="M4.914297,0.0856338 L6.3204776,0.2832596 6.5181034,-1.122921 5.1119228,-1.3205468 4.914297,0.0856338z" transform="matrix(1,0,0,-1,11.325,2.3435291)" fill="rgb(255,255,255)" stroke="rgb(0,0,0)" stroke-width="0.0010cm" stroke-linecap="round" stroke-linejoin="round" /><path d="M-0.71,1.6298902 L0.71,1.6298902 0.71,0.2098902 -0.71,0.2098902 -0.71,1.6298902z" transform="matrix(1,0,0,-1,11.325,2.3435291)" fill="rgb(255,255,255)" stroke="rgb(0,0,0)" stroke-width="0.0010cm" stroke-linecap="round" stroke-linejoin="round" /><path d="M-8.2715735,0.0525545 L-6.8653929,-0.1450713 -7.0630187,-1.551252 -8.4691993,-1.3536262 -8.2715735,0.0525545z" transform="matrix(1,0,0,-1,11.325,2.3435291)" fill="rgb(255,255,255)" stroke="rgb(0,0,0)" stroke-width="0.0010cm" stroke-linecap="round" stroke-linejoin="round" /></svg>