%TF.GenerationSoftware,KiCad,Pcbnew,(7.0.0)*%
%TF.CreationDate,2023-05-23T21:52:25+07:00*%
%TF.ProjectId,bottom_keyboard_pcb,626f7474-6f6d-45f6-9b65-79626f617264,rev?*%
%TF.SameCoordinates,Original*%
%TF.FileFunction,Drillmap*%
%TF.FilePolarity,Positive*%
%FSLAX45Y45*%
G04 Gerber Fmt 4.5, Leading zero omitted, Abs format (unit mm)*
G04 Created by KiCad (PCBNEW (7.0.0)) date 2023-05-23 21:52:25*
%MOMM*%
%LPD*%
G01*
G04 APERTURE LIST*
%ADD10C,0.100000*%
%ADD11C,0.200000*%
%ADD12C,0.110000*%
%ADD13C,0.120000*%
G04 APERTURE END LIST*
D10*
X10033000Y-8842404D02*
X17907000Y-8842404D01*
X17907000Y-8842404D02*
X17907000Y-10541000D01*
X17907000Y-10541000D02*
X10033000Y-10541000D01*
X10033000Y-10541000D02*
X10033000Y-8842404D01*
D11*
D10*
X10364000Y-9474000D02*
X10464000Y-9574000D01*
X10464000Y-9474000D02*
X10364000Y-9574000D01*
X10364000Y-9728000D02*
X10464000Y-9828000D01*
X10464000Y-9728000D02*
X10364000Y-9828000D01*
X10364000Y-9982000D02*
X10464000Y-10082000D01*
X10464000Y-9982000D02*
X10364000Y-10082000D01*
X10364000Y-10236000D02*
X10464000Y-10336000D01*
X10464000Y-10236000D02*
X10364000Y-10336000D01*
D12*
X12501000Y-9779000D02*
G75*
G03*
X12501000Y-9779000I-55000J0D01*
G01*
X12501000Y-10287000D02*
G75*
G03*
X12501000Y-10287000I-55000J0D01*
G01*
X15041000Y-9757218D02*
G75*
G03*
X15041000Y-9757218I-55000J0D01*
G01*
X15041000Y-10265218D02*
G75*
G03*
X15041000Y-10265218I-55000J0D01*
G01*
X17581000Y-9779000D02*
G75*
G03*
X17581000Y-9779000I-55000J0D01*
G01*
X17581000Y-10287000D02*
G75*
G03*
X17581000Y-10287000I-55000J0D01*
G01*
D13*
X11379526Y-9084210D02*
X11379526Y-9204210D01*
X11319526Y-9144210D02*
X11439526Y-9144210D01*
X11879526Y-9294210D02*
X11879526Y-9414210D01*
X11819526Y-9354210D02*
X11939526Y-9354210D01*
X13974000Y-9090000D02*
X13974000Y-9210000D01*
X13914000Y-9150000D02*
X14034000Y-9150000D01*
X14474000Y-9300000D02*
X14474000Y-9420000D01*
X14414000Y-9360000D02*
X14534000Y-9360000D01*
X16560551Y-9080802D02*
X16560551Y-9200802D01*
X16500551Y-9140802D02*
X16620551Y-9140802D01*
X17060552Y-9290802D02*
X17060552Y-9410802D01*
X17000552Y-9350802D02*
X17120552Y-9350802D01*
D11*
X10275619Y-10839476D02*
X10275619Y-10639476D01*
X10275619Y-10639476D02*
X10323238Y-10639476D01*
X10323238Y-10639476D02*
X10351810Y-10649000D01*
X10351810Y-10649000D02*
X10370857Y-10668048D01*
X10370857Y-10668048D02*
X10380381Y-10687095D01*
X10380381Y-10687095D02*
X10389905Y-10725190D01*
X10389905Y-10725190D02*
X10389905Y-10753762D01*
X10389905Y-10753762D02*
X10380381Y-10791857D01*
X10380381Y-10791857D02*
X10370857Y-10810905D01*
X10370857Y-10810905D02*
X10351810Y-10829952D01*
X10351810Y-10829952D02*
X10323238Y-10839476D01*
X10323238Y-10839476D02*
X10275619Y-10839476D01*
X10475619Y-10839476D02*
X10475619Y-10706143D01*
X10475619Y-10744238D02*
X10485143Y-10725190D01*
X10485143Y-10725190D02*
X10494667Y-10715667D01*
X10494667Y-10715667D02*
X10513714Y-10706143D01*
X10513714Y-10706143D02*
X10532762Y-10706143D01*
X10599429Y-10839476D02*
X10599429Y-10706143D01*
X10599429Y-10639476D02*
X10589905Y-10649000D01*
X10589905Y-10649000D02*
X10599429Y-10658524D01*
X10599429Y-10658524D02*
X10608952Y-10649000D01*
X10608952Y-10649000D02*
X10599429Y-10639476D01*
X10599429Y-10639476D02*
X10599429Y-10658524D01*
X10723238Y-10839476D02*
X10704190Y-10829952D01*
X10704190Y-10829952D02*
X10694667Y-10810905D01*
X10694667Y-10810905D02*
X10694667Y-10639476D01*
X10828000Y-10839476D02*
X10808952Y-10829952D01*
X10808952Y-10829952D02*
X10799429Y-10810905D01*
X10799429Y-10810905D02*
X10799429Y-10639476D01*
X11024190Y-10839476D02*
X11024190Y-10639476D01*
X11024190Y-10639476D02*
X11090857Y-10782333D01*
X11090857Y-10782333D02*
X11157524Y-10639476D01*
X11157524Y-10639476D02*
X11157524Y-10839476D01*
X11338476Y-10839476D02*
X11338476Y-10734714D01*
X11338476Y-10734714D02*
X11328952Y-10715667D01*
X11328952Y-10715667D02*
X11309905Y-10706143D01*
X11309905Y-10706143D02*
X11271809Y-10706143D01*
X11271809Y-10706143D02*
X11252762Y-10715667D01*
X11338476Y-10829952D02*
X11319428Y-10839476D01*
X11319428Y-10839476D02*
X11271809Y-10839476D01*
X11271809Y-10839476D02*
X11252762Y-10829952D01*
X11252762Y-10829952D02*
X11243238Y-10810905D01*
X11243238Y-10810905D02*
X11243238Y-10791857D01*
X11243238Y-10791857D02*
X11252762Y-10772810D01*
X11252762Y-10772810D02*
X11271809Y-10763286D01*
X11271809Y-10763286D02*
X11319428Y-10763286D01*
X11319428Y-10763286D02*
X11338476Y-10753762D01*
X11433714Y-10706143D02*
X11433714Y-10906143D01*
X11433714Y-10715667D02*
X11452762Y-10706143D01*
X11452762Y-10706143D02*
X11490857Y-10706143D01*
X11490857Y-10706143D02*
X11509905Y-10715667D01*
X11509905Y-10715667D02*
X11519428Y-10725190D01*
X11519428Y-10725190D02*
X11528952Y-10744238D01*
X11528952Y-10744238D02*
X11528952Y-10801381D01*
X11528952Y-10801381D02*
X11519428Y-10820429D01*
X11519428Y-10820429D02*
X11509905Y-10829952D01*
X11509905Y-10829952D02*
X11490857Y-10839476D01*
X11490857Y-10839476D02*
X11452762Y-10839476D01*
X11452762Y-10839476D02*
X11433714Y-10829952D01*
X11614667Y-10820429D02*
X11624190Y-10829952D01*
X11624190Y-10829952D02*
X11614667Y-10839476D01*
X11614667Y-10839476D02*
X11605143Y-10829952D01*
X11605143Y-10829952D02*
X11614667Y-10820429D01*
X11614667Y-10820429D02*
X11614667Y-10839476D01*
X11614667Y-10715667D02*
X11624190Y-10725190D01*
X11624190Y-10725190D02*
X11614667Y-10734714D01*
X11614667Y-10734714D02*
X11605143Y-10725190D01*
X11605143Y-10725190D02*
X11614667Y-10715667D01*
X11614667Y-10715667D02*
X11614667Y-10734714D01*
D10*
X9928000Y-11136000D02*
X10028000Y-11236000D01*
X10028000Y-11136000D02*
X9928000Y-11236000D01*
D11*
X10380381Y-11259476D02*
X10266095Y-11259476D01*
X10323238Y-11259476D02*
X10323238Y-11059476D01*
X10323238Y-11059476D02*
X10304190Y-11088048D01*
X10304190Y-11088048D02*
X10285143Y-11107095D01*
X10285143Y-11107095D02*
X10266095Y-11116619D01*
X10466095Y-11240428D02*
X10475619Y-11249952D01*
X10475619Y-11249952D02*
X10466095Y-11259476D01*
X10466095Y-11259476D02*
X10456571Y-11249952D01*
X10456571Y-11249952D02*
X10466095Y-11240428D01*
X10466095Y-11240428D02*
X10466095Y-11259476D01*
X10599429Y-11059476D02*
X10618476Y-11059476D01*
X10618476Y-11059476D02*
X10637524Y-11069000D01*
X10637524Y-11069000D02*
X10647048Y-11078524D01*
X10647048Y-11078524D02*
X10656571Y-11097571D01*
X10656571Y-11097571D02*
X10666095Y-11135667D01*
X10666095Y-11135667D02*
X10666095Y-11183286D01*
X10666095Y-11183286D02*
X10656571Y-11221381D01*
X10656571Y-11221381D02*
X10647048Y-11240428D01*
X10647048Y-11240428D02*
X10637524Y-11249952D01*
X10637524Y-11249952D02*
X10618476Y-11259476D01*
X10618476Y-11259476D02*
X10599429Y-11259476D01*
X10599429Y-11259476D02*
X10580381Y-11249952D01*
X10580381Y-11249952D02*
X10570857Y-11240428D01*
X10570857Y-11240428D02*
X10561333Y-11221381D01*
X10561333Y-11221381D02*
X10551810Y-11183286D01*
X10551810Y-11183286D02*
X10551810Y-11135667D01*
X10551810Y-11135667D02*
X10561333Y-11097571D01*
X10561333Y-11097571D02*
X10570857Y-11078524D01*
X10570857Y-11078524D02*
X10580381Y-11069000D01*
X10580381Y-11069000D02*
X10599429Y-11059476D01*
X10789905Y-11059476D02*
X10808952Y-11059476D01*
X10808952Y-11059476D02*
X10828000Y-11069000D01*
X10828000Y-11069000D02*
X10837524Y-11078524D01*
X10837524Y-11078524D02*
X10847048Y-11097571D01*
X10847048Y-11097571D02*
X10856571Y-11135667D01*
X10856571Y-11135667D02*
X10856571Y-11183286D01*
X10856571Y-11183286D02*
X10847048Y-11221381D01*
X10847048Y-11221381D02*
X10837524Y-11240428D01*
X10837524Y-11240428D02*
X10828000Y-11249952D01*
X10828000Y-11249952D02*
X10808952Y-11259476D01*
X10808952Y-11259476D02*
X10789905Y-11259476D01*
X10789905Y-11259476D02*
X10770857Y-11249952D01*
X10770857Y-11249952D02*
X10761333Y-11240428D01*
X10761333Y-11240428D02*
X10751810Y-11221381D01*
X10751810Y-11221381D02*
X10742286Y-11183286D01*
X10742286Y-11183286D02*
X10742286Y-11135667D01*
X10742286Y-11135667D02*
X10751810Y-11097571D01*
X10751810Y-11097571D02*
X10761333Y-11078524D01*
X10761333Y-11078524D02*
X10770857Y-11069000D01*
X10770857Y-11069000D02*
X10789905Y-11059476D01*
X10980381Y-11059476D02*
X10999429Y-11059476D01*
X10999429Y-11059476D02*
X11018476Y-11069000D01*
X11018476Y-11069000D02*
X11028000Y-11078524D01*
X11028000Y-11078524D02*
X11037524Y-11097571D01*
X11037524Y-11097571D02*
X11047048Y-11135667D01*
X11047048Y-11135667D02*
X11047048Y-11183286D01*
X11047048Y-11183286D02*
X11037524Y-11221381D01*
X11037524Y-11221381D02*
X11028000Y-11240428D01*
X11028000Y-11240428D02*
X11018476Y-11249952D01*
X11018476Y-11249952D02*
X10999429Y-11259476D01*
X10999429Y-11259476D02*
X10980381Y-11259476D01*
X10980381Y-11259476D02*
X10961333Y-11249952D01*
X10961333Y-11249952D02*
X10951810Y-11240428D01*
X10951810Y-11240428D02*
X10942286Y-11221381D01*
X10942286Y-11221381D02*
X10932762Y-11183286D01*
X10932762Y-11183286D02*
X10932762Y-11135667D01*
X10932762Y-11135667D02*
X10942286Y-11097571D01*
X10942286Y-11097571D02*
X10951810Y-11078524D01*
X10951810Y-11078524D02*
X10961333Y-11069000D01*
X10961333Y-11069000D02*
X10980381Y-11059476D01*
X11132762Y-11259476D02*
X11132762Y-11126143D01*
X11132762Y-11145190D02*
X11142286Y-11135667D01*
X11142286Y-11135667D02*
X11161333Y-11126143D01*
X11161333Y-11126143D02*
X11189905Y-11126143D01*
X11189905Y-11126143D02*
X11208952Y-11135667D01*
X11208952Y-11135667D02*
X11218476Y-11154714D01*
X11218476Y-11154714D02*
X11218476Y-11259476D01*
X11218476Y-11154714D02*
X11228000Y-11135667D01*
X11228000Y-11135667D02*
X11247048Y-11126143D01*
X11247048Y-11126143D02*
X11275619Y-11126143D01*
X11275619Y-11126143D02*
X11294667Y-11135667D01*
X11294667Y-11135667D02*
X11304190Y-11154714D01*
X11304190Y-11154714D02*
X11304190Y-11259476D01*
X11399429Y-11259476D02*
X11399429Y-11126143D01*
X11399429Y-11145190D02*
X11408952Y-11135667D01*
X11408952Y-11135667D02*
X11428000Y-11126143D01*
X11428000Y-11126143D02*
X11456571Y-11126143D01*
X11456571Y-11126143D02*
X11475619Y-11135667D01*
X11475619Y-11135667D02*
X11485143Y-11154714D01*
X11485143Y-11154714D02*
X11485143Y-11259476D01*
X11485143Y-11154714D02*
X11494667Y-11135667D01*
X11494667Y-11135667D02*
X11513714Y-11126143D01*
X11513714Y-11126143D02*
X11542286Y-11126143D01*
X11542286Y-11126143D02*
X11561333Y-11135667D01*
X11561333Y-11135667D02*
X11570857Y-11154714D01*
X11570857Y-11154714D02*
X11570857Y-11259476D01*
X11928952Y-11049952D02*
X11757524Y-11307095D01*
X12153714Y-11059476D02*
X12172762Y-11059476D01*
X12172762Y-11059476D02*
X12191810Y-11069000D01*
X12191810Y-11069000D02*
X12201333Y-11078524D01*
X12201333Y-11078524D02*
X12210857Y-11097571D01*
X12210857Y-11097571D02*
X12220381Y-11135667D01*
X12220381Y-11135667D02*
X12220381Y-11183286D01*
X12220381Y-11183286D02*
X12210857Y-11221381D01*
X12210857Y-11221381D02*
X12201333Y-11240428D01*
X12201333Y-11240428D02*
X12191810Y-11249952D01*
X12191810Y-11249952D02*
X12172762Y-11259476D01*
X12172762Y-11259476D02*
X12153714Y-11259476D01*
X12153714Y-11259476D02*
X12134667Y-11249952D01*
X12134667Y-11249952D02*
X12125143Y-11240428D01*
X12125143Y-11240428D02*
X12115619Y-11221381D01*
X12115619Y-11221381D02*
X12106095Y-11183286D01*
X12106095Y-11183286D02*
X12106095Y-11135667D01*
X12106095Y-11135667D02*
X12115619Y-11097571D01*
X12115619Y-11097571D02*
X12125143Y-11078524D01*
X12125143Y-11078524D02*
X12134667Y-11069000D01*
X12134667Y-11069000D02*
X12153714Y-11059476D01*
X12306095Y-11240428D02*
X12315619Y-11249952D01*
X12315619Y-11249952D02*
X12306095Y-11259476D01*
X12306095Y-11259476D02*
X12296571Y-11249952D01*
X12296571Y-11249952D02*
X12306095Y-11240428D01*
X12306095Y-11240428D02*
X12306095Y-11259476D01*
X12439429Y-11059476D02*
X12458476Y-11059476D01*
X12458476Y-11059476D02*
X12477524Y-11069000D01*
X12477524Y-11069000D02*
X12487048Y-11078524D01*
X12487048Y-11078524D02*
X12496571Y-11097571D01*
X12496571Y-11097571D02*
X12506095Y-11135667D01*
X12506095Y-11135667D02*
X12506095Y-11183286D01*
X12506095Y-11183286D02*
X12496571Y-11221381D01*
X12496571Y-11221381D02*
X12487048Y-11240428D01*
X12487048Y-11240428D02*
X12477524Y-11249952D01*
X12477524Y-11249952D02*
X12458476Y-11259476D01*
X12458476Y-11259476D02*
X12439429Y-11259476D01*
X12439429Y-11259476D02*
X12420381Y-11249952D01*
X12420381Y-11249952D02*
X12410857Y-11240428D01*
X12410857Y-11240428D02*
X12401333Y-11221381D01*
X12401333Y-11221381D02*
X12391810Y-11183286D01*
X12391810Y-11183286D02*
X12391810Y-11135667D01*
X12391810Y-11135667D02*
X12401333Y-11097571D01*
X12401333Y-11097571D02*
X12410857Y-11078524D01*
X12410857Y-11078524D02*
X12420381Y-11069000D01*
X12420381Y-11069000D02*
X12439429Y-11059476D01*
X12572762Y-11059476D02*
X12696571Y-11059476D01*
X12696571Y-11059476D02*
X12629905Y-11135667D01*
X12629905Y-11135667D02*
X12658476Y-11135667D01*
X12658476Y-11135667D02*
X12677524Y-11145190D01*
X12677524Y-11145190D02*
X12687048Y-11154714D01*
X12687048Y-11154714D02*
X12696571Y-11173762D01*
X12696571Y-11173762D02*
X12696571Y-11221381D01*
X12696571Y-11221381D02*
X12687048Y-11240428D01*
X12687048Y-11240428D02*
X12677524Y-11249952D01*
X12677524Y-11249952D02*
X12658476Y-11259476D01*
X12658476Y-11259476D02*
X12601333Y-11259476D01*
X12601333Y-11259476D02*
X12582286Y-11249952D01*
X12582286Y-11249952D02*
X12572762Y-11240428D01*
X12791810Y-11259476D02*
X12829905Y-11259476D01*
X12829905Y-11259476D02*
X12848952Y-11249952D01*
X12848952Y-11249952D02*
X12858476Y-11240428D01*
X12858476Y-11240428D02*
X12877524Y-11211857D01*
X12877524Y-11211857D02*
X12887048Y-11173762D01*
X12887048Y-11173762D02*
X12887048Y-11097571D01*
X12887048Y-11097571D02*
X12877524Y-11078524D01*
X12877524Y-11078524D02*
X12868000Y-11069000D01*
X12868000Y-11069000D02*
X12848952Y-11059476D01*
X12848952Y-11059476D02*
X12810857Y-11059476D01*
X12810857Y-11059476D02*
X12791810Y-11069000D01*
X12791810Y-11069000D02*
X12782286Y-11078524D01*
X12782286Y-11078524D02*
X12772762Y-11097571D01*
X12772762Y-11097571D02*
X12772762Y-11145190D01*
X12772762Y-11145190D02*
X12782286Y-11164238D01*
X12782286Y-11164238D02*
X12791810Y-11173762D01*
X12791810Y-11173762D02*
X12810857Y-11183286D01*
X12810857Y-11183286D02*
X12848952Y-11183286D01*
X12848952Y-11183286D02*
X12868000Y-11173762D01*
X12868000Y-11173762D02*
X12877524Y-11164238D01*
X12877524Y-11164238D02*
X12887048Y-11145190D01*
X13058476Y-11126143D02*
X13058476Y-11259476D01*
X13010857Y-11049952D02*
X12963238Y-11192809D01*
X12963238Y-11192809D02*
X13087048Y-11192809D01*
X13153714Y-11059476D02*
X13153714Y-11097571D01*
X13229905Y-11059476D02*
X13229905Y-11097571D01*
X13492762Y-11335667D02*
X13483238Y-11326143D01*
X13483238Y-11326143D02*
X13464191Y-11297571D01*
X13464191Y-11297571D02*
X13454667Y-11278524D01*
X13454667Y-11278524D02*
X13445143Y-11249952D01*
X13445143Y-11249952D02*
X13435619Y-11202333D01*
X13435619Y-11202333D02*
X13435619Y-11164238D01*
X13435619Y-11164238D02*
X13445143Y-11116619D01*
X13445143Y-11116619D02*
X13454667Y-11088048D01*
X13454667Y-11088048D02*
X13464191Y-11069000D01*
X13464191Y-11069000D02*
X13483238Y-11040429D01*
X13483238Y-11040429D02*
X13492762Y-11030905D01*
X13654667Y-11126143D02*
X13654667Y-11259476D01*
X13607048Y-11049952D02*
X13559429Y-11192809D01*
X13559429Y-11192809D02*
X13683238Y-11192809D01*
X13879429Y-11259476D02*
X13879429Y-11059476D01*
X13965143Y-11259476D02*
X13965143Y-11154714D01*
X13965143Y-11154714D02*
X13955619Y-11135667D01*
X13955619Y-11135667D02*
X13936572Y-11126143D01*
X13936572Y-11126143D02*
X13908000Y-11126143D01*
X13908000Y-11126143D02*
X13888952Y-11135667D01*
X13888952Y-11135667D02*
X13879429Y-11145190D01*
X14088952Y-11259476D02*
X14069905Y-11249952D01*
X14069905Y-11249952D02*
X14060381Y-11240428D01*
X14060381Y-11240428D02*
X14050857Y-11221381D01*
X14050857Y-11221381D02*
X14050857Y-11164238D01*
X14050857Y-11164238D02*
X14060381Y-11145190D01*
X14060381Y-11145190D02*
X14069905Y-11135667D01*
X14069905Y-11135667D02*
X14088952Y-11126143D01*
X14088952Y-11126143D02*
X14117524Y-11126143D01*
X14117524Y-11126143D02*
X14136572Y-11135667D01*
X14136572Y-11135667D02*
X14146095Y-11145190D01*
X14146095Y-11145190D02*
X14155619Y-11164238D01*
X14155619Y-11164238D02*
X14155619Y-11221381D01*
X14155619Y-11221381D02*
X14146095Y-11240428D01*
X14146095Y-11240428D02*
X14136572Y-11249952D01*
X14136572Y-11249952D02*
X14117524Y-11259476D01*
X14117524Y-11259476D02*
X14088952Y-11259476D01*
X14269905Y-11259476D02*
X14250857Y-11249952D01*
X14250857Y-11249952D02*
X14241333Y-11230905D01*
X14241333Y-11230905D02*
X14241333Y-11059476D01*
X14422286Y-11249952D02*
X14403238Y-11259476D01*
X14403238Y-11259476D02*
X14365143Y-11259476D01*
X14365143Y-11259476D02*
X14346095Y-11249952D01*
X14346095Y-11249952D02*
X14336572Y-11230905D01*
X14336572Y-11230905D02*
X14336572Y-11154714D01*
X14336572Y-11154714D02*
X14346095Y-11135667D01*
X14346095Y-11135667D02*
X14365143Y-11126143D01*
X14365143Y-11126143D02*
X14403238Y-11126143D01*
X14403238Y-11126143D02*
X14422286Y-11135667D01*
X14422286Y-11135667D02*
X14431810Y-11154714D01*
X14431810Y-11154714D02*
X14431810Y-11173762D01*
X14431810Y-11173762D02*
X14336572Y-11192809D01*
X14508000Y-11249952D02*
X14527048Y-11259476D01*
X14527048Y-11259476D02*
X14565143Y-11259476D01*
X14565143Y-11259476D02*
X14584191Y-11249952D01*
X14584191Y-11249952D02*
X14593714Y-11230905D01*
X14593714Y-11230905D02*
X14593714Y-11221381D01*
X14593714Y-11221381D02*
X14584191Y-11202333D01*
X14584191Y-11202333D02*
X14565143Y-11192809D01*
X14565143Y-11192809D02*
X14536572Y-11192809D01*
X14536572Y-11192809D02*
X14517524Y-11183286D01*
X14517524Y-11183286D02*
X14508000Y-11164238D01*
X14508000Y-11164238D02*
X14508000Y-11154714D01*
X14508000Y-11154714D02*
X14517524Y-11135667D01*
X14517524Y-11135667D02*
X14536572Y-11126143D01*
X14536572Y-11126143D02*
X14565143Y-11126143D01*
X14565143Y-11126143D02*
X14584191Y-11135667D01*
X14660381Y-11335667D02*
X14669905Y-11326143D01*
X14669905Y-11326143D02*
X14688953Y-11297571D01*
X14688953Y-11297571D02*
X14698476Y-11278524D01*
X14698476Y-11278524D02*
X14708000Y-11249952D01*
X14708000Y-11249952D02*
X14717524Y-11202333D01*
X14717524Y-11202333D02*
X14717524Y-11164238D01*
X14717524Y-11164238D02*
X14708000Y-11116619D01*
X14708000Y-11116619D02*
X14698476Y-11088048D01*
X14698476Y-11088048D02*
X14688953Y-11069000D01*
X14688953Y-11069000D02*
X14669905Y-11040429D01*
X14669905Y-11040429D02*
X14660381Y-11030905D01*
D12*
X10028000Y-11450000D02*
G75*
G03*
X10028000Y-11450000I-55000J0D01*
G01*
D11*
X10380381Y-11523476D02*
X10266095Y-11523476D01*
X10323238Y-11523476D02*
X10323238Y-11323476D01*
X10323238Y-11323476D02*
X10304190Y-11352048D01*
X10304190Y-11352048D02*
X10285143Y-11371095D01*
X10285143Y-11371095D02*
X10266095Y-11380619D01*
X10466095Y-11504428D02*
X10475619Y-11513952D01*
X10475619Y-11513952D02*
X10466095Y-11523476D01*
X10466095Y-11523476D02*
X10456571Y-11513952D01*
X10456571Y-11513952D02*
X10466095Y-11504428D01*
X10466095Y-11504428D02*
X10466095Y-11523476D01*
X10666095Y-11523476D02*
X10551810Y-11523476D01*
X10608952Y-11523476D02*
X10608952Y-11323476D01*
X10608952Y-11323476D02*
X10589905Y-11352048D01*
X10589905Y-11352048D02*
X10570857Y-11371095D01*
X10570857Y-11371095D02*
X10551810Y-11380619D01*
X10789905Y-11323476D02*
X10808952Y-11323476D01*
X10808952Y-11323476D02*
X10828000Y-11333000D01*
X10828000Y-11333000D02*
X10837524Y-11342524D01*
X10837524Y-11342524D02*
X10847048Y-11361571D01*
X10847048Y-11361571D02*
X10856571Y-11399667D01*
X10856571Y-11399667D02*
X10856571Y-11447286D01*
X10856571Y-11447286D02*
X10847048Y-11485381D01*
X10847048Y-11485381D02*
X10837524Y-11504428D01*
X10837524Y-11504428D02*
X10828000Y-11513952D01*
X10828000Y-11513952D02*
X10808952Y-11523476D01*
X10808952Y-11523476D02*
X10789905Y-11523476D01*
X10789905Y-11523476D02*
X10770857Y-11513952D01*
X10770857Y-11513952D02*
X10761333Y-11504428D01*
X10761333Y-11504428D02*
X10751810Y-11485381D01*
X10751810Y-11485381D02*
X10742286Y-11447286D01*
X10742286Y-11447286D02*
X10742286Y-11399667D01*
X10742286Y-11399667D02*
X10751810Y-11361571D01*
X10751810Y-11361571D02*
X10761333Y-11342524D01*
X10761333Y-11342524D02*
X10770857Y-11333000D01*
X10770857Y-11333000D02*
X10789905Y-11323476D01*
X10980381Y-11323476D02*
X10999429Y-11323476D01*
X10999429Y-11323476D02*
X11018476Y-11333000D01*
X11018476Y-11333000D02*
X11028000Y-11342524D01*
X11028000Y-11342524D02*
X11037524Y-11361571D01*
X11037524Y-11361571D02*
X11047048Y-11399667D01*
X11047048Y-11399667D02*
X11047048Y-11447286D01*
X11047048Y-11447286D02*
X11037524Y-11485381D01*
X11037524Y-11485381D02*
X11028000Y-11504428D01*
X11028000Y-11504428D02*
X11018476Y-11513952D01*
X11018476Y-11513952D02*
X10999429Y-11523476D01*
X10999429Y-11523476D02*
X10980381Y-11523476D01*
X10980381Y-11523476D02*
X10961333Y-11513952D01*
X10961333Y-11513952D02*
X10951810Y-11504428D01*
X10951810Y-11504428D02*
X10942286Y-11485381D01*
X10942286Y-11485381D02*
X10932762Y-11447286D01*
X10932762Y-11447286D02*
X10932762Y-11399667D01*
X10932762Y-11399667D02*
X10942286Y-11361571D01*
X10942286Y-11361571D02*
X10951810Y-11342524D01*
X10951810Y-11342524D02*
X10961333Y-11333000D01*
X10961333Y-11333000D02*
X10980381Y-11323476D01*
X11132762Y-11523476D02*
X11132762Y-11390143D01*
X11132762Y-11409190D02*
X11142286Y-11399667D01*
X11142286Y-11399667D02*
X11161333Y-11390143D01*
X11161333Y-11390143D02*
X11189905Y-11390143D01*
X11189905Y-11390143D02*
X11208952Y-11399667D01*
X11208952Y-11399667D02*
X11218476Y-11418714D01*
X11218476Y-11418714D02*
X11218476Y-11523476D01*
X11218476Y-11418714D02*
X11228000Y-11399667D01*
X11228000Y-11399667D02*
X11247048Y-11390143D01*
X11247048Y-11390143D02*
X11275619Y-11390143D01*
X11275619Y-11390143D02*
X11294667Y-11399667D01*
X11294667Y-11399667D02*
X11304190Y-11418714D01*
X11304190Y-11418714D02*
X11304190Y-11523476D01*
X11399429Y-11523476D02*
X11399429Y-11390143D01*
X11399429Y-11409190D02*
X11408952Y-11399667D01*
X11408952Y-11399667D02*
X11428000Y-11390143D01*
X11428000Y-11390143D02*
X11456571Y-11390143D01*
X11456571Y-11390143D02*
X11475619Y-11399667D01*
X11475619Y-11399667D02*
X11485143Y-11418714D01*
X11485143Y-11418714D02*
X11485143Y-11523476D01*
X11485143Y-11418714D02*
X11494667Y-11399667D01*
X11494667Y-11399667D02*
X11513714Y-11390143D01*
X11513714Y-11390143D02*
X11542286Y-11390143D01*
X11542286Y-11390143D02*
X11561333Y-11399667D01*
X11561333Y-11399667D02*
X11570857Y-11418714D01*
X11570857Y-11418714D02*
X11570857Y-11523476D01*
X11928952Y-11313952D02*
X11757524Y-11571095D01*
X12153714Y-11323476D02*
X12172762Y-11323476D01*
X12172762Y-11323476D02*
X12191810Y-11333000D01*
X12191810Y-11333000D02*
X12201333Y-11342524D01*
X12201333Y-11342524D02*
X12210857Y-11361571D01*
X12210857Y-11361571D02*
X12220381Y-11399667D01*
X12220381Y-11399667D02*
X12220381Y-11447286D01*
X12220381Y-11447286D02*
X12210857Y-11485381D01*
X12210857Y-11485381D02*
X12201333Y-11504428D01*
X12201333Y-11504428D02*
X12191810Y-11513952D01*
X12191810Y-11513952D02*
X12172762Y-11523476D01*
X12172762Y-11523476D02*
X12153714Y-11523476D01*
X12153714Y-11523476D02*
X12134667Y-11513952D01*
X12134667Y-11513952D02*
X12125143Y-11504428D01*
X12125143Y-11504428D02*
X12115619Y-11485381D01*
X12115619Y-11485381D02*
X12106095Y-11447286D01*
X12106095Y-11447286D02*
X12106095Y-11399667D01*
X12106095Y-11399667D02*
X12115619Y-11361571D01*
X12115619Y-11361571D02*
X12125143Y-11342524D01*
X12125143Y-11342524D02*
X12134667Y-11333000D01*
X12134667Y-11333000D02*
X12153714Y-11323476D01*
X12306095Y-11504428D02*
X12315619Y-11513952D01*
X12315619Y-11513952D02*
X12306095Y-11523476D01*
X12306095Y-11523476D02*
X12296571Y-11513952D01*
X12296571Y-11513952D02*
X12306095Y-11504428D01*
X12306095Y-11504428D02*
X12306095Y-11523476D01*
X12439429Y-11323476D02*
X12458476Y-11323476D01*
X12458476Y-11323476D02*
X12477524Y-11333000D01*
X12477524Y-11333000D02*
X12487048Y-11342524D01*
X12487048Y-11342524D02*
X12496571Y-11361571D01*
X12496571Y-11361571D02*
X12506095Y-11399667D01*
X12506095Y-11399667D02*
X12506095Y-11447286D01*
X12506095Y-11447286D02*
X12496571Y-11485381D01*
X12496571Y-11485381D02*
X12487048Y-11504428D01*
X12487048Y-11504428D02*
X12477524Y-11513952D01*
X12477524Y-11513952D02*
X12458476Y-11523476D01*
X12458476Y-11523476D02*
X12439429Y-11523476D01*
X12439429Y-11523476D02*
X12420381Y-11513952D01*
X12420381Y-11513952D02*
X12410857Y-11504428D01*
X12410857Y-11504428D02*
X12401333Y-11485381D01*
X12401333Y-11485381D02*
X12391810Y-11447286D01*
X12391810Y-11447286D02*
X12391810Y-11399667D01*
X12391810Y-11399667D02*
X12401333Y-11361571D01*
X12401333Y-11361571D02*
X12410857Y-11342524D01*
X12410857Y-11342524D02*
X12420381Y-11333000D01*
X12420381Y-11333000D02*
X12439429Y-11323476D01*
X12677524Y-11390143D02*
X12677524Y-11523476D01*
X12629905Y-11313952D02*
X12582286Y-11456809D01*
X12582286Y-11456809D02*
X12706095Y-11456809D01*
X12763238Y-11323476D02*
X12887048Y-11323476D01*
X12887048Y-11323476D02*
X12820381Y-11399667D01*
X12820381Y-11399667D02*
X12848952Y-11399667D01*
X12848952Y-11399667D02*
X12868000Y-11409190D01*
X12868000Y-11409190D02*
X12877524Y-11418714D01*
X12877524Y-11418714D02*
X12887048Y-11437762D01*
X12887048Y-11437762D02*
X12887048Y-11485381D01*
X12887048Y-11485381D02*
X12877524Y-11504428D01*
X12877524Y-11504428D02*
X12868000Y-11513952D01*
X12868000Y-11513952D02*
X12848952Y-11523476D01*
X12848952Y-11523476D02*
X12791810Y-11523476D01*
X12791810Y-11523476D02*
X12772762Y-11513952D01*
X12772762Y-11513952D02*
X12763238Y-11504428D01*
X12953714Y-11323476D02*
X13077524Y-11323476D01*
X13077524Y-11323476D02*
X13010857Y-11399667D01*
X13010857Y-11399667D02*
X13039429Y-11399667D01*
X13039429Y-11399667D02*
X13058476Y-11409190D01*
X13058476Y-11409190D02*
X13068000Y-11418714D01*
X13068000Y-11418714D02*
X13077524Y-11437762D01*
X13077524Y-11437762D02*
X13077524Y-11485381D01*
X13077524Y-11485381D02*
X13068000Y-11504428D01*
X13068000Y-11504428D02*
X13058476Y-11513952D01*
X13058476Y-11513952D02*
X13039429Y-11523476D01*
X13039429Y-11523476D02*
X12982286Y-11523476D01*
X12982286Y-11523476D02*
X12963238Y-11513952D01*
X12963238Y-11513952D02*
X12953714Y-11504428D01*
X13153714Y-11323476D02*
X13153714Y-11361571D01*
X13229905Y-11323476D02*
X13229905Y-11361571D01*
X13492762Y-11599667D02*
X13483238Y-11590143D01*
X13483238Y-11590143D02*
X13464191Y-11561571D01*
X13464191Y-11561571D02*
X13454667Y-11542524D01*
X13454667Y-11542524D02*
X13445143Y-11513952D01*
X13445143Y-11513952D02*
X13435619Y-11466333D01*
X13435619Y-11466333D02*
X13435619Y-11428238D01*
X13435619Y-11428238D02*
X13445143Y-11380619D01*
X13445143Y-11380619D02*
X13454667Y-11352048D01*
X13454667Y-11352048D02*
X13464191Y-11333000D01*
X13464191Y-11333000D02*
X13483238Y-11304428D01*
X13483238Y-11304428D02*
X13492762Y-11294905D01*
X13654667Y-11323476D02*
X13616571Y-11323476D01*
X13616571Y-11323476D02*
X13597524Y-11333000D01*
X13597524Y-11333000D02*
X13588000Y-11342524D01*
X13588000Y-11342524D02*
X13568952Y-11371095D01*
X13568952Y-11371095D02*
X13559429Y-11409190D01*
X13559429Y-11409190D02*
X13559429Y-11485381D01*
X13559429Y-11485381D02*
X13568952Y-11504428D01*
X13568952Y-11504428D02*
X13578476Y-11513952D01*
X13578476Y-11513952D02*
X13597524Y-11523476D01*
X13597524Y-11523476D02*
X13635619Y-11523476D01*
X13635619Y-11523476D02*
X13654667Y-11513952D01*
X13654667Y-11513952D02*
X13664191Y-11504428D01*
X13664191Y-11504428D02*
X13673714Y-11485381D01*
X13673714Y-11485381D02*
X13673714Y-11437762D01*
X13673714Y-11437762D02*
X13664191Y-11418714D01*
X13664191Y-11418714D02*
X13654667Y-11409190D01*
X13654667Y-11409190D02*
X13635619Y-11399667D01*
X13635619Y-11399667D02*
X13597524Y-11399667D01*
X13597524Y-11399667D02*
X13578476Y-11409190D01*
X13578476Y-11409190D02*
X13568952Y-11418714D01*
X13568952Y-11418714D02*
X13559429Y-11437762D01*
X13879429Y-11523476D02*
X13879429Y-11323476D01*
X13965143Y-11523476D02*
X13965143Y-11418714D01*
X13965143Y-11418714D02*
X13955619Y-11399667D01*
X13955619Y-11399667D02*
X13936572Y-11390143D01*
X13936572Y-11390143D02*
X13908000Y-11390143D01*
X13908000Y-11390143D02*
X13888952Y-11399667D01*
X13888952Y-11399667D02*
X13879429Y-11409190D01*
X14088952Y-11523476D02*
X14069905Y-11513952D01*
X14069905Y-11513952D02*
X14060381Y-11504428D01*
X14060381Y-11504428D02*
X14050857Y-11485381D01*
X14050857Y-11485381D02*
X14050857Y-11428238D01*
X14050857Y-11428238D02*
X14060381Y-11409190D01*
X14060381Y-11409190D02*
X14069905Y-11399667D01*
X14069905Y-11399667D02*
X14088952Y-11390143D01*
X14088952Y-11390143D02*
X14117524Y-11390143D01*
X14117524Y-11390143D02*
X14136572Y-11399667D01*
X14136572Y-11399667D02*
X14146095Y-11409190D01*
X14146095Y-11409190D02*
X14155619Y-11428238D01*
X14155619Y-11428238D02*
X14155619Y-11485381D01*
X14155619Y-11485381D02*
X14146095Y-11504428D01*
X14146095Y-11504428D02*
X14136572Y-11513952D01*
X14136572Y-11513952D02*
X14117524Y-11523476D01*
X14117524Y-11523476D02*
X14088952Y-11523476D01*
X14269905Y-11523476D02*
X14250857Y-11513952D01*
X14250857Y-11513952D02*
X14241333Y-11494905D01*
X14241333Y-11494905D02*
X14241333Y-11323476D01*
X14422286Y-11513952D02*
X14403238Y-11523476D01*
X14403238Y-11523476D02*
X14365143Y-11523476D01*
X14365143Y-11523476D02*
X14346095Y-11513952D01*
X14346095Y-11513952D02*
X14336572Y-11494905D01*
X14336572Y-11494905D02*
X14336572Y-11418714D01*
X14336572Y-11418714D02*
X14346095Y-11399667D01*
X14346095Y-11399667D02*
X14365143Y-11390143D01*
X14365143Y-11390143D02*
X14403238Y-11390143D01*
X14403238Y-11390143D02*
X14422286Y-11399667D01*
X14422286Y-11399667D02*
X14431810Y-11418714D01*
X14431810Y-11418714D02*
X14431810Y-11437762D01*
X14431810Y-11437762D02*
X14336572Y-11456809D01*
X14508000Y-11513952D02*
X14527048Y-11523476D01*
X14527048Y-11523476D02*
X14565143Y-11523476D01*
X14565143Y-11523476D02*
X14584191Y-11513952D01*
X14584191Y-11513952D02*
X14593714Y-11494905D01*
X14593714Y-11494905D02*
X14593714Y-11485381D01*
X14593714Y-11485381D02*
X14584191Y-11466333D01*
X14584191Y-11466333D02*
X14565143Y-11456809D01*
X14565143Y-11456809D02*
X14536572Y-11456809D01*
X14536572Y-11456809D02*
X14517524Y-11447286D01*
X14517524Y-11447286D02*
X14508000Y-11428238D01*
X14508000Y-11428238D02*
X14508000Y-11418714D01*
X14508000Y-11418714D02*
X14517524Y-11399667D01*
X14517524Y-11399667D02*
X14536572Y-11390143D01*
X14536572Y-11390143D02*
X14565143Y-11390143D01*
X14565143Y-11390143D02*
X14584191Y-11399667D01*
X14660381Y-11599667D02*
X14669905Y-11590143D01*
X14669905Y-11590143D02*
X14688953Y-11561571D01*
X14688953Y-11561571D02*
X14698476Y-11542524D01*
X14698476Y-11542524D02*
X14708000Y-11513952D01*
X14708000Y-11513952D02*
X14717524Y-11466333D01*
X14717524Y-11466333D02*
X14717524Y-11428238D01*
X14717524Y-11428238D02*
X14708000Y-11380619D01*
X14708000Y-11380619D02*
X14698476Y-11352048D01*
X14698476Y-11352048D02*
X14688953Y-11333000D01*
X14688953Y-11333000D02*
X14669905Y-11304428D01*
X14669905Y-11304428D02*
X14660381Y-11294905D01*
D13*
X9968000Y-11654000D02*
X9968000Y-11774000D01*
X9908000Y-11714000D02*
X10028000Y-11714000D01*
D11*
X10380381Y-11787476D02*
X10266095Y-11787476D01*
X10323238Y-11787476D02*
X10323238Y-11587476D01*
X10323238Y-11587476D02*
X10304190Y-11616048D01*
X10304190Y-11616048D02*
X10285143Y-11635095D01*
X10285143Y-11635095D02*
X10266095Y-11644619D01*
X10466095Y-11768428D02*
X10475619Y-11777952D01*
X10475619Y-11777952D02*
X10466095Y-11787476D01*
X10466095Y-11787476D02*
X10456571Y-11777952D01*
X10456571Y-11777952D02*
X10466095Y-11768428D01*
X10466095Y-11768428D02*
X10466095Y-11787476D01*
X10551810Y-11606524D02*
X10561333Y-11597000D01*
X10561333Y-11597000D02*
X10580381Y-11587476D01*
X10580381Y-11587476D02*
X10628000Y-11587476D01*
X10628000Y-11587476D02*
X10647048Y-11597000D01*
X10647048Y-11597000D02*
X10656571Y-11606524D01*
X10656571Y-11606524D02*
X10666095Y-11625571D01*
X10666095Y-11625571D02*
X10666095Y-11644619D01*
X10666095Y-11644619D02*
X10656571Y-11673190D01*
X10656571Y-11673190D02*
X10542286Y-11787476D01*
X10542286Y-11787476D02*
X10666095Y-11787476D01*
X10789905Y-11587476D02*
X10808952Y-11587476D01*
X10808952Y-11587476D02*
X10828000Y-11597000D01*
X10828000Y-11597000D02*
X10837524Y-11606524D01*
X10837524Y-11606524D02*
X10847048Y-11625571D01*
X10847048Y-11625571D02*
X10856571Y-11663667D01*
X10856571Y-11663667D02*
X10856571Y-11711286D01*
X10856571Y-11711286D02*
X10847048Y-11749381D01*
X10847048Y-11749381D02*
X10837524Y-11768428D01*
X10837524Y-11768428D02*
X10828000Y-11777952D01*
X10828000Y-11777952D02*
X10808952Y-11787476D01*
X10808952Y-11787476D02*
X10789905Y-11787476D01*
X10789905Y-11787476D02*
X10770857Y-11777952D01*
X10770857Y-11777952D02*
X10761333Y-11768428D01*
X10761333Y-11768428D02*
X10751810Y-11749381D01*
X10751810Y-11749381D02*
X10742286Y-11711286D01*
X10742286Y-11711286D02*
X10742286Y-11663667D01*
X10742286Y-11663667D02*
X10751810Y-11625571D01*
X10751810Y-11625571D02*
X10761333Y-11606524D01*
X10761333Y-11606524D02*
X10770857Y-11597000D01*
X10770857Y-11597000D02*
X10789905Y-11587476D01*
X10980381Y-11587476D02*
X10999429Y-11587476D01*
X10999429Y-11587476D02*
X11018476Y-11597000D01*
X11018476Y-11597000D02*
X11028000Y-11606524D01*
X11028000Y-11606524D02*
X11037524Y-11625571D01*
X11037524Y-11625571D02*
X11047048Y-11663667D01*
X11047048Y-11663667D02*
X11047048Y-11711286D01*
X11047048Y-11711286D02*
X11037524Y-11749381D01*
X11037524Y-11749381D02*
X11028000Y-11768428D01*
X11028000Y-11768428D02*
X11018476Y-11777952D01*
X11018476Y-11777952D02*
X10999429Y-11787476D01*
X10999429Y-11787476D02*
X10980381Y-11787476D01*
X10980381Y-11787476D02*
X10961333Y-11777952D01*
X10961333Y-11777952D02*
X10951810Y-11768428D01*
X10951810Y-11768428D02*
X10942286Y-11749381D01*
X10942286Y-11749381D02*
X10932762Y-11711286D01*
X10932762Y-11711286D02*
X10932762Y-11663667D01*
X10932762Y-11663667D02*
X10942286Y-11625571D01*
X10942286Y-11625571D02*
X10951810Y-11606524D01*
X10951810Y-11606524D02*
X10961333Y-11597000D01*
X10961333Y-11597000D02*
X10980381Y-11587476D01*
X11132762Y-11787476D02*
X11132762Y-11654143D01*
X11132762Y-11673190D02*
X11142286Y-11663667D01*
X11142286Y-11663667D02*
X11161333Y-11654143D01*
X11161333Y-11654143D02*
X11189905Y-11654143D01*
X11189905Y-11654143D02*
X11208952Y-11663667D01*
X11208952Y-11663667D02*
X11218476Y-11682714D01*
X11218476Y-11682714D02*
X11218476Y-11787476D01*
X11218476Y-11682714D02*
X11228000Y-11663667D01*
X11228000Y-11663667D02*
X11247048Y-11654143D01*
X11247048Y-11654143D02*
X11275619Y-11654143D01*
X11275619Y-11654143D02*
X11294667Y-11663667D01*
X11294667Y-11663667D02*
X11304190Y-11682714D01*
X11304190Y-11682714D02*
X11304190Y-11787476D01*
X11399429Y-11787476D02*
X11399429Y-11654143D01*
X11399429Y-11673190D02*
X11408952Y-11663667D01*
X11408952Y-11663667D02*
X11428000Y-11654143D01*
X11428000Y-11654143D02*
X11456571Y-11654143D01*
X11456571Y-11654143D02*
X11475619Y-11663667D01*
X11475619Y-11663667D02*
X11485143Y-11682714D01*
X11485143Y-11682714D02*
X11485143Y-11787476D01*
X11485143Y-11682714D02*
X11494667Y-11663667D01*
X11494667Y-11663667D02*
X11513714Y-11654143D01*
X11513714Y-11654143D02*
X11542286Y-11654143D01*
X11542286Y-11654143D02*
X11561333Y-11663667D01*
X11561333Y-11663667D02*
X11570857Y-11682714D01*
X11570857Y-11682714D02*
X11570857Y-11787476D01*
X11928952Y-11577952D02*
X11757524Y-11835095D01*
X12153714Y-11587476D02*
X12172762Y-11587476D01*
X12172762Y-11587476D02*
X12191810Y-11597000D01*
X12191810Y-11597000D02*
X12201333Y-11606524D01*
X12201333Y-11606524D02*
X12210857Y-11625571D01*
X12210857Y-11625571D02*
X12220381Y-11663667D01*
X12220381Y-11663667D02*
X12220381Y-11711286D01*
X12220381Y-11711286D02*
X12210857Y-11749381D01*
X12210857Y-11749381D02*
X12201333Y-11768428D01*
X12201333Y-11768428D02*
X12191810Y-11777952D01*
X12191810Y-11777952D02*
X12172762Y-11787476D01*
X12172762Y-11787476D02*
X12153714Y-11787476D01*
X12153714Y-11787476D02*
X12134667Y-11777952D01*
X12134667Y-11777952D02*
X12125143Y-11768428D01*
X12125143Y-11768428D02*
X12115619Y-11749381D01*
X12115619Y-11749381D02*
X12106095Y-11711286D01*
X12106095Y-11711286D02*
X12106095Y-11663667D01*
X12106095Y-11663667D02*
X12115619Y-11625571D01*
X12115619Y-11625571D02*
X12125143Y-11606524D01*
X12125143Y-11606524D02*
X12134667Y-11597000D01*
X12134667Y-11597000D02*
X12153714Y-11587476D01*
X12306095Y-11768428D02*
X12315619Y-11777952D01*
X12315619Y-11777952D02*
X12306095Y-11787476D01*
X12306095Y-11787476D02*
X12296571Y-11777952D01*
X12296571Y-11777952D02*
X12306095Y-11768428D01*
X12306095Y-11768428D02*
X12306095Y-11787476D01*
X12439429Y-11587476D02*
X12458476Y-11587476D01*
X12458476Y-11587476D02*
X12477524Y-11597000D01*
X12477524Y-11597000D02*
X12487048Y-11606524D01*
X12487048Y-11606524D02*
X12496571Y-11625571D01*
X12496571Y-11625571D02*
X12506095Y-11663667D01*
X12506095Y-11663667D02*
X12506095Y-11711286D01*
X12506095Y-11711286D02*
X12496571Y-11749381D01*
X12496571Y-11749381D02*
X12487048Y-11768428D01*
X12487048Y-11768428D02*
X12477524Y-11777952D01*
X12477524Y-11777952D02*
X12458476Y-11787476D01*
X12458476Y-11787476D02*
X12439429Y-11787476D01*
X12439429Y-11787476D02*
X12420381Y-11777952D01*
X12420381Y-11777952D02*
X12410857Y-11768428D01*
X12410857Y-11768428D02*
X12401333Y-11749381D01*
X12401333Y-11749381D02*
X12391810Y-11711286D01*
X12391810Y-11711286D02*
X12391810Y-11663667D01*
X12391810Y-11663667D02*
X12401333Y-11625571D01*
X12401333Y-11625571D02*
X12410857Y-11606524D01*
X12410857Y-11606524D02*
X12420381Y-11597000D01*
X12420381Y-11597000D02*
X12439429Y-11587476D01*
X12677524Y-11654143D02*
X12677524Y-11787476D01*
X12629905Y-11577952D02*
X12582286Y-11720809D01*
X12582286Y-11720809D02*
X12706095Y-11720809D01*
X12763238Y-11587476D02*
X12896571Y-11587476D01*
X12896571Y-11587476D02*
X12810857Y-11787476D01*
X12963238Y-11606524D02*
X12972762Y-11597000D01*
X12972762Y-11597000D02*
X12991810Y-11587476D01*
X12991810Y-11587476D02*
X13039429Y-11587476D01*
X13039429Y-11587476D02*
X13058476Y-11597000D01*
X13058476Y-11597000D02*
X13068000Y-11606524D01*
X13068000Y-11606524D02*
X13077524Y-11625571D01*
X13077524Y-11625571D02*
X13077524Y-11644619D01*
X13077524Y-11644619D02*
X13068000Y-11673190D01*
X13068000Y-11673190D02*
X12953714Y-11787476D01*
X12953714Y-11787476D02*
X13077524Y-11787476D01*
X13153714Y-11587476D02*
X13153714Y-11625571D01*
X13229905Y-11587476D02*
X13229905Y-11625571D01*
X13492762Y-11863667D02*
X13483238Y-11854143D01*
X13483238Y-11854143D02*
X13464191Y-11825571D01*
X13464191Y-11825571D02*
X13454667Y-11806524D01*
X13454667Y-11806524D02*
X13445143Y-11777952D01*
X13445143Y-11777952D02*
X13435619Y-11730333D01*
X13435619Y-11730333D02*
X13435619Y-11692238D01*
X13435619Y-11692238D02*
X13445143Y-11644619D01*
X13445143Y-11644619D02*
X13454667Y-11616048D01*
X13454667Y-11616048D02*
X13464191Y-11597000D01*
X13464191Y-11597000D02*
X13483238Y-11568428D01*
X13483238Y-11568428D02*
X13492762Y-11558905D01*
X13654667Y-11587476D02*
X13616571Y-11587476D01*
X13616571Y-11587476D02*
X13597524Y-11597000D01*
X13597524Y-11597000D02*
X13588000Y-11606524D01*
X13588000Y-11606524D02*
X13568952Y-11635095D01*
X13568952Y-11635095D02*
X13559429Y-11673190D01*
X13559429Y-11673190D02*
X13559429Y-11749381D01*
X13559429Y-11749381D02*
X13568952Y-11768428D01*
X13568952Y-11768428D02*
X13578476Y-11777952D01*
X13578476Y-11777952D02*
X13597524Y-11787476D01*
X13597524Y-11787476D02*
X13635619Y-11787476D01*
X13635619Y-11787476D02*
X13654667Y-11777952D01*
X13654667Y-11777952D02*
X13664191Y-11768428D01*
X13664191Y-11768428D02*
X13673714Y-11749381D01*
X13673714Y-11749381D02*
X13673714Y-11701762D01*
X13673714Y-11701762D02*
X13664191Y-11682714D01*
X13664191Y-11682714D02*
X13654667Y-11673190D01*
X13654667Y-11673190D02*
X13635619Y-11663667D01*
X13635619Y-11663667D02*
X13597524Y-11663667D01*
X13597524Y-11663667D02*
X13578476Y-11673190D01*
X13578476Y-11673190D02*
X13568952Y-11682714D01*
X13568952Y-11682714D02*
X13559429Y-11701762D01*
X13879429Y-11787476D02*
X13879429Y-11587476D01*
X13965143Y-11787476D02*
X13965143Y-11682714D01*
X13965143Y-11682714D02*
X13955619Y-11663667D01*
X13955619Y-11663667D02*
X13936572Y-11654143D01*
X13936572Y-11654143D02*
X13908000Y-11654143D01*
X13908000Y-11654143D02*
X13888952Y-11663667D01*
X13888952Y-11663667D02*
X13879429Y-11673190D01*
X14088952Y-11787476D02*
X14069905Y-11777952D01*
X14069905Y-11777952D02*
X14060381Y-11768428D01*
X14060381Y-11768428D02*
X14050857Y-11749381D01*
X14050857Y-11749381D02*
X14050857Y-11692238D01*
X14050857Y-11692238D02*
X14060381Y-11673190D01*
X14060381Y-11673190D02*
X14069905Y-11663667D01*
X14069905Y-11663667D02*
X14088952Y-11654143D01*
X14088952Y-11654143D02*
X14117524Y-11654143D01*
X14117524Y-11654143D02*
X14136572Y-11663667D01*
X14136572Y-11663667D02*
X14146095Y-11673190D01*
X14146095Y-11673190D02*
X14155619Y-11692238D01*
X14155619Y-11692238D02*
X14155619Y-11749381D01*
X14155619Y-11749381D02*
X14146095Y-11768428D01*
X14146095Y-11768428D02*
X14136572Y-11777952D01*
X14136572Y-11777952D02*
X14117524Y-11787476D01*
X14117524Y-11787476D02*
X14088952Y-11787476D01*
X14269905Y-11787476D02*
X14250857Y-11777952D01*
X14250857Y-11777952D02*
X14241333Y-11758905D01*
X14241333Y-11758905D02*
X14241333Y-11587476D01*
X14422286Y-11777952D02*
X14403238Y-11787476D01*
X14403238Y-11787476D02*
X14365143Y-11787476D01*
X14365143Y-11787476D02*
X14346095Y-11777952D01*
X14346095Y-11777952D02*
X14336572Y-11758905D01*
X14336572Y-11758905D02*
X14336572Y-11682714D01*
X14336572Y-11682714D02*
X14346095Y-11663667D01*
X14346095Y-11663667D02*
X14365143Y-11654143D01*
X14365143Y-11654143D02*
X14403238Y-11654143D01*
X14403238Y-11654143D02*
X14422286Y-11663667D01*
X14422286Y-11663667D02*
X14431810Y-11682714D01*
X14431810Y-11682714D02*
X14431810Y-11701762D01*
X14431810Y-11701762D02*
X14336572Y-11720809D01*
X14508000Y-11777952D02*
X14527048Y-11787476D01*
X14527048Y-11787476D02*
X14565143Y-11787476D01*
X14565143Y-11787476D02*
X14584191Y-11777952D01*
X14584191Y-11777952D02*
X14593714Y-11758905D01*
X14593714Y-11758905D02*
X14593714Y-11749381D01*
X14593714Y-11749381D02*
X14584191Y-11730333D01*
X14584191Y-11730333D02*
X14565143Y-11720809D01*
X14565143Y-11720809D02*
X14536572Y-11720809D01*
X14536572Y-11720809D02*
X14517524Y-11711286D01*
X14517524Y-11711286D02*
X14508000Y-11692238D01*
X14508000Y-11692238D02*
X14508000Y-11682714D01*
X14508000Y-11682714D02*
X14517524Y-11663667D01*
X14517524Y-11663667D02*
X14536572Y-11654143D01*
X14536572Y-11654143D02*
X14565143Y-11654143D01*
X14565143Y-11654143D02*
X14584191Y-11663667D01*
X14660381Y-11863667D02*
X14669905Y-11854143D01*
X14669905Y-11854143D02*
X14688953Y-11825571D01*
X14688953Y-11825571D02*
X14698476Y-11806524D01*
X14698476Y-11806524D02*
X14708000Y-11777952D01*
X14708000Y-11777952D02*
X14717524Y-11730333D01*
X14717524Y-11730333D02*
X14717524Y-11692238D01*
X14717524Y-11692238D02*
X14708000Y-11644619D01*
X14708000Y-11644619D02*
X14698476Y-11616048D01*
X14698476Y-11616048D02*
X14688953Y-11597000D01*
X14688953Y-11597000D02*
X14669905Y-11568428D01*
X14669905Y-11568428D02*
X14660381Y-11558905D01*
M02*
