%TF.GenerationSoftware,KiCad,Pcbnew,(7.0.0)*%
%TF.CreationDate,2023-05-19T14:17:50+07:00*%
%TF.ProjectId,wonder-reader-mk2-v2,776f6e64-6572-42d7-9265-616465722d6d,rev?*%
%TF.SameCoordinates,Original*%
%TF.FileFunction,Paste,Top*%
%TF.FilePolarity,Positive*%
%FSLAX46Y46*%
G04 Gerber Fmt 4.6, Leading zero omitted, Abs format (unit mm)*
G04 Created by KiCad (PCBNEW (7.0.0)) date 2023-05-19 14:17:50*
%MOMM*%
%LPD*%
G01*
G04 APERTURE LIST*
%ADD10R,2.000000X1.500000*%
%ADD11R,2.000000X3.800000*%
%ADD12R,0.300000X1.300000*%
%ADD13R,1.800000X2.200000*%
G04 APERTURE END LIST*
%TO.C,R1*%
G36*
G01*
X134726743Y-109728175D02*
X134726743Y-108828175D01*
G75*
G02*
X134976743Y-108578175I250000J0D01*
G01*
X135501743Y-108578175D01*
G75*
G02*
X135751743Y-108828175I0J-250000D01*
G01*
X135751743Y-109728175D01*
G75*
G02*
X135501743Y-109978175I-250000J0D01*
G01*
X134976743Y-109978175D01*
G75*
G02*
X134726743Y-109728175I0J250000D01*
G01*
G37*
G36*
G01*
X136551743Y-109728175D02*
X136551743Y-108828175D01*
G75*
G02*
X136801743Y-108578175I250000J0D01*
G01*
X137326743Y-108578175D01*
G75*
G02*
X137576743Y-108828175I0J-250000D01*
G01*
X137576743Y-109728175D01*
G75*
G02*
X137326743Y-109978175I-250000J0D01*
G01*
X136801743Y-109978175D01*
G75*
G02*
X136551743Y-109728175I0J250000D01*
G01*
G37*
%TD*%
D10*
%TO.C,U3*%
X108314890Y-120562520D03*
X108314890Y-122862520D03*
D11*
X114614890Y-122862520D03*
D10*
X108314890Y-125162520D03*
%TD*%
D12*
%TO.C,J12*%
X179381216Y-74872391D03*
X178881216Y-74872391D03*
X178381216Y-74872391D03*
X177881216Y-74872391D03*
X177381216Y-74872391D03*
X176881216Y-74872391D03*
X176381216Y-74872391D03*
X175881216Y-74872391D03*
X175381216Y-74872391D03*
X174881216Y-74872391D03*
X174381216Y-74872391D03*
X173881216Y-74872391D03*
D13*
X181281216Y-71622391D03*
X171981216Y-71622391D03*
%TD*%
D12*
%TO.C,J8*%
X156022651Y-74764154D03*
X155522651Y-74764154D03*
X155022651Y-74764154D03*
X154522651Y-74764154D03*
X154022651Y-74764154D03*
X153522651Y-74764154D03*
X153022651Y-74764154D03*
X152522651Y-74764154D03*
X152022651Y-74764154D03*
X151522651Y-74764154D03*
X151022651Y-74764154D03*
X150522651Y-74764154D03*
D13*
X157922651Y-71514154D03*
X148622651Y-71514154D03*
%TD*%
%TO.C,R3*%
G36*
G01*
X127579854Y-74986004D02*
X126679854Y-74986004D01*
G75*
G02*
X126429854Y-74736004I0J250000D01*
G01*
X126429854Y-74211004D01*
G75*
G02*
X126679854Y-73961004I250000J0D01*
G01*
X127579854Y-73961004D01*
G75*
G02*
X127829854Y-74211004I0J-250000D01*
G01*
X127829854Y-74736004D01*
G75*
G02*
X127579854Y-74986004I-250000J0D01*
G01*
G37*
G36*
G01*
X127579854Y-73161004D02*
X126679854Y-73161004D01*
G75*
G02*
X126429854Y-72911004I0J250000D01*
G01*
X126429854Y-72386004D01*
G75*
G02*
X126679854Y-72136004I250000J0D01*
G01*
X127579854Y-72136004D01*
G75*
G02*
X127829854Y-72386004I0J-250000D01*
G01*
X127829854Y-72911004D01*
G75*
G02*
X127579854Y-73161004I-250000J0D01*
G01*
G37*
%TD*%
%TO.C,R4*%
G36*
G01*
X127571053Y-82705000D02*
X126671053Y-82705000D01*
G75*
G02*
X126421053Y-82455000I0J250000D01*
G01*
X126421053Y-81930000D01*
G75*
G02*
X126671053Y-81680000I250000J0D01*
G01*
X127571053Y-81680000D01*
G75*
G02*
X127821053Y-81930000I0J-250000D01*
G01*
X127821053Y-82455000D01*
G75*
G02*
X127571053Y-82705000I-250000J0D01*
G01*
G37*
G36*
G01*
X127571053Y-80880000D02*
X126671053Y-80880000D01*
G75*
G02*
X126421053Y-80630000I0J250000D01*
G01*
X126421053Y-80105000D01*
G75*
G02*
X126671053Y-79855000I250000J0D01*
G01*
X127571053Y-79855000D01*
G75*
G02*
X127821053Y-80105000I0J-250000D01*
G01*
X127821053Y-80630000D01*
G75*
G02*
X127571053Y-80880000I-250000J0D01*
G01*
G37*
%TD*%
%TO.C,R5*%
G36*
G01*
X127571053Y-86488938D02*
X126671053Y-86488938D01*
G75*
G02*
X126421053Y-86238938I0J250000D01*
G01*
X126421053Y-85713938D01*
G75*
G02*
X126671053Y-85463938I250000J0D01*
G01*
X127571053Y-85463938D01*
G75*
G02*
X127821053Y-85713938I0J-250000D01*
G01*
X127821053Y-86238938D01*
G75*
G02*
X127571053Y-86488938I-250000J0D01*
G01*
G37*
G36*
G01*
X127571053Y-84663938D02*
X126671053Y-84663938D01*
G75*
G02*
X126421053Y-84413938I0J250000D01*
G01*
X126421053Y-83888938D01*
G75*
G02*
X126671053Y-83638938I250000J0D01*
G01*
X127571053Y-83638938D01*
G75*
G02*
X127821053Y-83888938I0J-250000D01*
G01*
X127821053Y-84413938D01*
G75*
G02*
X127571053Y-84663938I-250000J0D01*
G01*
G37*
%TD*%
%TO.C,R2*%
G36*
G01*
X127554034Y-78884819D02*
X126654034Y-78884819D01*
G75*
G02*
X126404034Y-78634819I0J250000D01*
G01*
X126404034Y-78109819D01*
G75*
G02*
X126654034Y-77859819I250000J0D01*
G01*
X127554034Y-77859819D01*
G75*
G02*
X127804034Y-78109819I0J-250000D01*
G01*
X127804034Y-78634819D01*
G75*
G02*
X127554034Y-78884819I-250000J0D01*
G01*
G37*
G36*
G01*
X127554034Y-77059819D02*
X126654034Y-77059819D01*
G75*
G02*
X126404034Y-76809819I0J250000D01*
G01*
X126404034Y-76284819D01*
G75*
G02*
X126654034Y-76034819I250000J0D01*
G01*
X127554034Y-76034819D01*
G75*
G02*
X127804034Y-76284819I0J-250000D01*
G01*
X127804034Y-76809819D01*
G75*
G02*
X127554034Y-77059819I-250000J0D01*
G01*
G37*
%TD*%
M02*
