M48
; DRILL file {KiCad (7.0.0)} date Fri May 19 14:17:52 2023
; FORMAT={-:-/ absolute / inch / decimal}
; #@! TF.CreationDate,2023-05-19T14:17:52+07:00
; #@! TF.GenerationSoftware,Kicad,Pcbnew,(7.0.0)
; #@! TF.FileFunction,Plated,1,2,PTH
FMAT,2
INCH
; #@! TA.AperFunction,Plated,PTH,ViaDrill
T1C0.0236
; #@! TA.AperFunction,Plated,PTH,ComponentDrill
T2C0.0315
; #@! TA.AperFunction,Plated,PTH,ComponentDrill
T3C0.0394
; #@! TA.AperFunction,Plated,PTH,ComponentDrill
T4C0.0402
%
G90
G05
T1
X4.1993Y-3.5492
X4.4197Y-3.6
X4.713Y-3.4933
X4.7197Y-4.35
X4.8697Y-3.55
X4.9197Y-3.0432
X4.938Y-2.952
X4.9431Y-3.3981
X5.0668Y-3.1168
X5.0694Y-3.2
X5.3441Y-3.4
X5.9Y-4.6
X5.9401Y-2.8652
X6.0Y-2.8647
X6.05Y-4.7
X6.1Y-4.05
X6.1697Y-4.7912
X6.2197Y-4.5
X6.2697Y-4.2
X6.335Y-3.8351
X6.45Y-5.22
T2
X4.1344Y-2.799
X4.1344Y-2.899
X4.1344Y-2.999
X4.1344Y-3.099
X4.1344Y-3.199
X4.1344Y-3.299
X4.1344Y-3.399
X4.1344Y-3.499
X4.1344Y-3.599
X4.1344Y-3.699
X4.1344Y-3.799
X4.1344Y-3.899
X4.1344Y-3.999
X4.1344Y-4.099
X4.1344Y-4.199
X4.1344Y-4.299
X4.1344Y-4.399
X4.1344Y-4.499
X4.1344Y-4.599
X4.2693Y-3.3249
X4.3688Y-5.1148
X4.3693Y-3.3249
X4.4476Y-5.1148
X4.4693Y-3.3249
X4.5693Y-3.3249
X4.6455Y-4.4553
X4.6455Y-4.5553
X4.6455Y-4.6553
X4.6455Y-4.7553
X4.6455Y-4.8553
X4.6455Y-4.9553
X4.6455Y-5.0553
X4.6455Y-5.1553
X4.6693Y-3.3249
X4.7693Y-3.3249
X4.8693Y-3.3249
X4.9455Y-4.4553
X4.9455Y-4.5553
X4.9455Y-4.6553
X4.9455Y-4.7553
X4.9455Y-4.8553
X4.9455Y-4.9553
X4.9455Y-5.0553
X4.9455Y-5.1553
X5.1343Y-4.4989
X5.1343Y-4.5989
X5.1344Y-2.799
X5.1344Y-2.899
X5.1344Y-2.999
X5.1344Y-3.099
X5.1344Y-3.199
X5.1344Y-3.299
X5.1344Y-3.399
X5.1344Y-3.499
X5.1344Y-3.599
X5.1344Y-3.699
X5.1344Y-3.799
X5.1344Y-3.899
X5.1344Y-3.999
X5.1344Y-4.099
X5.1344Y-4.199
X5.1344Y-4.299
X5.1344Y-4.399
X5.2182Y-4.9319
X5.2182Y-5.1288
X5.8Y-3.1218
X5.8Y-3.6218
X5.8021Y-3.7616
X5.8021Y-4.2616
X5.8021Y-4.3998
X5.8021Y-4.8998
X5.9Y-3.1218
X5.9Y-3.6218
X5.9021Y-3.7616
X5.9021Y-4.2616
X5.9021Y-4.3998
X5.9021Y-4.8998
X6.0Y-3.1218
X6.0Y-3.6218
X6.0021Y-3.7616
X6.0021Y-4.2616
X6.0021Y-4.3998
X6.0021Y-4.8998
X6.1Y-3.1218
X6.1Y-3.6218
X6.1021Y-3.7616
X6.1021Y-4.2616
X6.1021Y-4.3998
X6.1021Y-4.8998
X6.2Y-3.1218
X6.2Y-3.6218
X6.2021Y-3.7616
X6.2021Y-4.2616
X6.2021Y-4.3998
X6.2021Y-4.8998
X6.3Y-3.1218
X6.3Y-3.6218
X6.3021Y-3.7616
X6.3021Y-4.2616
X6.3021Y-4.3998
X6.3021Y-4.8998
X6.4Y-3.1218
X6.4Y-3.6218
X6.4021Y-3.7616
X6.4021Y-4.2616
X6.4021Y-4.3998
X6.4021Y-4.8998
X6.5Y-3.1218
X6.5Y-3.6218
X6.5021Y-3.7616
X6.5021Y-4.2616
X6.5021Y-4.3998
X6.5021Y-4.8998
T3
X4.1421Y-4.7919
X4.1421Y-4.8919
X5.2688Y-3.0005
X5.2688Y-3.1005
X5.2688Y-3.2005
X5.2688Y-3.3005
X5.2688Y-3.4005
X5.2688Y-3.5005
X5.2688Y-3.6005
X5.2688Y-3.7005
X5.2688Y-3.8505
X5.2688Y-3.9505
X5.2688Y-4.0505
X5.2688Y-4.1505
X5.3247Y-4.4187
X5.3247Y-4.5187
X5.4188Y-2.8509
X5.4188Y-2.9509
X5.4188Y-3.0509
X5.4188Y-3.1509
X5.5034Y-4.278
X5.5034Y-4.378
X5.5034Y-4.478
X5.5034Y-4.578
X5.5034Y-4.678
X5.5034Y-4.778
X5.5034Y-4.878
X5.5034Y-4.978
X5.5034Y-5.078
X5.5034Y-5.178
X5.8123Y-5.0324
X5.8129Y-5.1745
X5.9123Y-5.0324
X5.9129Y-5.1745
X6.0123Y-5.0324
X6.0129Y-5.1745
X6.1123Y-5.0324
X6.1129Y-5.1745
X6.2123Y-5.0324
X6.2129Y-5.1745
X6.7512Y-3.3632
X6.7515Y-3.2208
X6.7521Y-3.0773
X6.8512Y-3.3632
X6.8515Y-3.2208
X6.8521Y-3.0773
X6.9512Y-3.3632
X6.9515Y-3.2208
X6.9521Y-3.0773
X7.0512Y-3.3632
X7.0515Y-3.2208
X7.0521Y-3.0773
T4
X4.2825Y-3.4905
X4.2825Y-3.5905
X4.2825Y-3.6905
X4.2825Y-3.7905
X4.2825Y-3.8905
X4.2825Y-3.9905
X4.2825Y-4.0905
X4.2825Y-4.1905
X4.7825Y-3.4905
X4.7825Y-3.5905
X4.7825Y-3.6905
X4.7825Y-3.7905
X4.7825Y-3.8905
X4.7825Y-3.9905
X4.7825Y-4.0905
X4.7825Y-4.1905
T0
M30
