<?xml version="1.0" encoding="utf-8"?>
<!-- Generator: Fusion 360, Shaper Origin Export Add-In, Version 1.7.0  -->
<svg xmlns="http://www.w3.org/2000/svg" xmlns:xlink="http://www.w3.org/1999/xlink" xmlns:shaper="http://www.shapertools.com/namespaces/shaper" shaper:fusionaddin="version:1.7.0" width="16cm" height="7.5cm" version="1.1" x="0cm" y="0cm" viewBox="0 0 16 7.5" enable-background="new 0 0 16 7.5" xml:space="preserve"><path d="M-6.05,-2.575 L-7.15,-2.575 -7.15,-0.475 3.8,-0.475 3.8,0.475 8,0.475 8,2.275 -8,2.275 -8,-5.225 8,-5.225 8,-4.9875804 A0.24,0.24 317.2980386 1,0 8,-4.6620517 L8,-2.325 6.5,-2.325 6.5,-3.875 -6.05,-3.875 -6.05,-2.575z" transform="matrix(1,0,0,-1,8,2.275)" fill="rgb(0,0,0)" shaper:cutDepth="0.16cm" stroke-linecap="round" stroke-linejoin="round" /><path d="M-5.8593852,0.4271357 a0.1,0.1 0 1,1 0.2,0 a0.1,0.1 0 1,1 -0.2,0z" transform="matrix(1,0,0,-1,8,2.275)" fill="rgb(255,255,255)" stroke="rgb(0,0,0)" stroke-width="0.0010cm" stroke-linecap="round" stroke-linejoin="round" shaper:cutDepth="0.16cm" /><path d="M-5.3513852,0.4271357 a0.1,0.1 0 1,1 0.2,0 a0.1,0.1 0 1,1 -0.2,0z" transform="matrix(1,0,0,-1,8,2.275)" fill="rgb(255,255,255)" stroke="rgb(0,0,0)" stroke-width="0.0010cm" stroke-linecap="round" stroke-linejoin="round" shaper:cutDepth="0.16cm" /><path d="M-4.8306147,0.4271357 a0.1,0.1 0 1,1 0.2,0 a0.1,0.1 0 1,1 -0.2,0z" transform="matrix(1,0,0,-1,8,2.275)" fill="rgb(255,255,255)" stroke="rgb(0,0,0)" stroke-width="0.0010cm" stroke-linecap="round" stroke-linejoin="round" shaper:cutDepth="0.16cm" /><path d="M-4.31,-0.025 a0.11,0.11 0 1,1 0.22,0 a0.11,0.11 0 1,1 -0.22,0z" transform="matrix(1,0,0,-1,8,2.275)" fill="rgb(255,255,255)" stroke="rgb(0,0,0)" stroke-width="0.0010cm" stroke-linecap="round" stroke-linejoin="round" shaper:cutDepth="0.16cm" /><path d="M4.89,-4.575 a0.11,0.11 0 1,1 0.22,0 a0.11,0.11 0 1,1 -0.22,0z" transform="matrix(1,0,0,-1,8,2.275)" fill="rgb(255,255,255)" stroke="rgb(0,0,0)" stroke-width="0.0010cm" stroke-linecap="round" stroke-linejoin="round" shaper:cutDepth="0.16cm" /><path d="M6.59,0.875 a0.11,0.11 0 1,1 0.22,0 a0.11,0.11 0 1,1 -0.22,0z" transform="matrix(1,0,0,-1,8,2.275)" fill="rgb(255,255,255)" stroke="rgb(0,0,0)" stroke-width="0.0010cm" stroke-linecap="round" stroke-linejoin="round" shaper:cutDepth="0.16cm" /><path d="M-6.61,-4.575 a0.11,0.11 0 1,1 0.22,0 a0.11,0.11 0 1,1 -0.22,0z" transform="matrix(1,0,0,-1,8,2.275)" fill="rgb(255,255,255)" stroke="rgb(0,0,0)" stroke-width="0.0010cm" stroke-linecap="round" stroke-linejoin="round" shaper:cutDepth="0.16cm" /><path d="M-3.39,-0.025 a0.29,0.29 0 1,1 0.58,0 a0.29,0.29 0 1,1 -0.58,0z" transform="matrix(1,0,0,-1,8,2.275)" fill="rgb(255,255,255)" stroke="rgb(0,0,0)" stroke-width="0.0010cm" stroke-linecap="round" stroke-linejoin="round" shaper:cutDepth="0.16cm" /><path d="M3.01,-0.025 a0.29,0.29 0 1,1 0.58,0 a0.29,0.29 0 1,1 -0.58,0z" transform="matrix(1,0,0,-1,8,2.275)" fill="rgb(255,255,255)" stroke="rgb(0,0,0)" stroke-width="0.0010cm" stroke-linecap="round" stroke-linejoin="round" shaper:cutDepth="0.16cm" /><path d="M-7.6336261,-4.8248161 a0.24,0.24 0 1,1 0.48,0 a0.24,0.24 0 1,1 -0.48,0z" transform="matrix(1,0,0,-1,8,2.275)" fill="rgb(255,255,255)" stroke="rgb(0,0,0)" stroke-width="0.0010cm" stroke-linecap="round" stroke-linejoin="round" shaper:cutDepth="0.16cm" /><path d="M0.015,1.74 a0.2,0.2 0 1,1 0.4,0 a0.2,0.2 0 1,1 -0.4,0z" transform="matrix(1,0,0,-1,8,2.275)" fill="rgb(255,255,255)" stroke="rgb(0,0,0)" stroke-width="0.0010cm" stroke-linecap="round" stroke-linejoin="round" shaper:cutDepth="0.16cm" /><path d="M0.015,0.04 a0.2,0.2 0 1,1 0.4,0 a0.2,0.2 0 1,1 -0.4,0z" transform="matrix(1,0,0,-1,8,2.275)" fill="rgb(255,255,255)" stroke="rgb(0,0,0)" stroke-width="0.0010cm" stroke-linecap="round" stroke-linejoin="round" shaper:cutDepth="0.16cm" /><path d="M6.945,-3.265 a0.2,0.2 0 1,1 0.4,0 a0.2,0.2 0 1,1 -0.4,0z" transform="matrix(1,0,0,-1,8,2.275)" fill="rgb(255,255,255)" stroke="rgb(0,0,0)" stroke-width="0.0010cm" stroke-linecap="round" stroke-linejoin="round" shaper:cutDepth="0.16cm" /><path d="M-4.285,-4.63 a0.2,0.2 0 1,1 0.4,0 a0.2,0.2 0 1,1 -0.4,0z" transform="matrix(1,0,0,-1,8,2.275)" fill="rgb(255,255,255)" stroke="rgb(0,0,0)" stroke-width="0.0010cm" stroke-linecap="round" stroke-linejoin="round" shaper:cutDepth="0.16cm" /><path d="M-2.4725,-4.63 a0.2,0.2 0 1,1 0.4,0 a0.2,0.2 0 1,1 -0.4,0z" transform="matrix(1,0,0,-1,8,2.275)" fill="rgb(255,255,255)" stroke="rgb(0,0,0)" stroke-width="0.0010cm" stroke-linecap="round" stroke-linejoin="round" shaper:cutDepth="0.16cm" /><path d="M5.3547177,1.2960479 a0.2,0.2 0 1,1 0.4,0 a0.2,0.2 0 1,1 -0.4,0z" transform="matrix(1,0,0,-1,8,2.275)" fill="rgb(255,255,255)" stroke="rgb(0,0,0)" stroke-width="0.0010cm" stroke-linecap="round" stroke-linejoin="round" shaper:cutDepth="0.16cm" /><path d="M-1.785,0.64 a0.2,0.2 0 1,1 0.4,0 a0.2,0.2 0 1,1 -0.4,0z" transform="matrix(1,0,0,-1,8,2.275)" fill="rgb(255,255,255)" stroke="rgb(0,0,0)" stroke-width="0.0010cm" stroke-linecap="round" stroke-linejoin="round" shaper:cutDepth="0.16cm" /><path d="M-5.3247177,1.2960479 a0.2,0.2 0 1,1 0.4,0 a0.2,0.2 0 1,1 -0.4,0z" transform="matrix(1,0,0,-1,8,2.275)" fill="rgb(255,255,255)" stroke="rgb(0,0,0)" stroke-width="0.0010cm" stroke-linecap="round" stroke-linejoin="round" shaper:cutDepth="0.16cm" /><path d="M1.815,0.64 a0.2,0.2 0 1,1 0.4,0 a0.2,0.2 0 1,1 -0.4,0z" transform="matrix(1,0,0,-1,8,2.275)" fill="rgb(255,255,255)" stroke="rgb(0,0,0)" stroke-width="0.0010cm" stroke-linecap="round" stroke-linejoin="round" shaper:cutDepth="0.16cm" /><path d="M2.5025,-4.63 a0.2,0.2 0 1,1 0.4,0 a0.2,0.2 0 1,1 -0.4,0z" transform="matrix(1,0,0,-1,8,2.275)" fill="rgb(255,255,255)" stroke="rgb(0,0,0)" stroke-width="0.0010cm" stroke-linecap="round" stroke-linejoin="round" shaper:cutDepth="0.16cm" /><path d="M-6.915,-3.265 a0.2,0.2 0 1,1 0.4,0 a0.2,0.2 0 1,1 -0.4,0z" transform="matrix(1,0,0,-1,8,2.275)" fill="rgb(255,255,255)" stroke="rgb(0,0,0)" stroke-width="0.0010cm" stroke-linecap="round" stroke-linejoin="round" shaper:cutDepth="0.16cm" /><path d="M0.015,-4.63 a0.2,0.2 0 1,1 0.4,0 a0.2,0.2 0 1,1 -0.4,0z" transform="matrix(1,0,0,-1,8,2.275)" fill="rgb(255,255,255)" stroke="rgb(0,0,0)" stroke-width="0.0010cm" stroke-linecap="round" stroke-linejoin="round" shaper:cutDepth="0.16cm" /><path d="M3.5028528,1.4104887 a0.2,0.2 0 1,1 0.4,0 a0.2,0.2 0 1,1 -0.4,0z" transform="matrix(1,0,0,-1,8,2.275)" fill="rgb(255,255,255)" stroke="rgb(0,0,0)" stroke-width="0.0010cm" stroke-linecap="round" stroke-linejoin="round" shaper:cutDepth="0.16cm" /><path d="M-3.4728528,1.4104887 a0.2,0.2 0 1,1 0.4,0 a0.2,0.2 0 1,1 -0.4,0z" transform="matrix(1,0,0,-1,8,2.275)" fill="rgb(255,255,255)" stroke="rgb(0,0,0)" stroke-width="0.0010cm" stroke-linecap="round" stroke-linejoin="round" shaper:cutDepth="0.16cm" /></svg>