%TF.GenerationSoftware,KiCad,Pcbnew,(7.0.0)*%
%TF.CreationDate,2023-05-19T14:17:49+07:00*%
%TF.ProjectId,wonder-reader-mk2-v2,776f6e64-6572-42d7-9265-616465722d6d,rev?*%
%TF.SameCoordinates,Original*%
%TF.FileFunction,Copper,L1,Top*%
%TF.FilePolarity,Positive*%
%FSLAX46Y46*%
G04 Gerber Fmt 4.6, Leading zero omitted, Abs format (unit mm)*
G04 Created by KiCad (PCBNEW (7.0.0)) date 2023-05-19 14:17:49*
%MOMM*%
%LPD*%
G01*
G04 APERTURE LIST*
%TA.AperFunction,ComponentPad*%
%ADD10R,1.600000X1.600000*%
%TD*%
%TA.AperFunction,ComponentPad*%
%ADD11O,1.600000X1.600000*%
%TD*%
%TA.AperFunction,SMDPad,CuDef*%
%ADD12R,2.000000X1.500000*%
%TD*%
%TA.AperFunction,SMDPad,CuDef*%
%ADD13R,2.000000X3.800000*%
%TD*%
%TA.AperFunction,SMDPad,CuDef*%
%ADD14R,0.300000X1.300000*%
%TD*%
%TA.AperFunction,SMDPad,CuDef*%
%ADD15R,1.800000X2.200000*%
%TD*%
%TA.AperFunction,ComponentPad*%
%ADD16C,1.600000*%
%TD*%
%TA.AperFunction,ComponentPad*%
%ADD17R,1.700000X1.700000*%
%TD*%
%TA.AperFunction,ComponentPad*%
%ADD18O,1.700000X1.700000*%
%TD*%
%TA.AperFunction,ComponentPad*%
%ADD19R,2.000000X1.200000*%
%TD*%
%TA.AperFunction,ComponentPad*%
%ADD20O,2.000000X1.200000*%
%TD*%
%TA.AperFunction,ComponentPad*%
%ADD21R,1.530000X1.530000*%
%TD*%
%TA.AperFunction,ComponentPad*%
%ADD22C,1.530000*%
%TD*%
%TA.AperFunction,ComponentPad*%
%ADD23O,1.200000X2.000000*%
%TD*%
%TA.AperFunction,ViaPad*%
%ADD24C,0.900000*%
%TD*%
%TA.AperFunction,Conductor*%
%ADD25C,0.300000*%
%TD*%
%TA.AperFunction,Conductor*%
%ADD26C,0.500000*%
%TD*%
%TA.AperFunction,Conductor*%
%ADD27C,1.200000*%
%TD*%
%TA.AperFunction,Conductor*%
%ADD28C,0.800000*%
%TD*%
%TA.AperFunction,Conductor*%
%ADD29C,0.250000*%
%TD*%
G04 APERTURE END LIST*
%TO.P,R1,1*%
%TO.N,/Limit_In*%
%TA.AperFunction,SMDPad,CuDef*%
G36*
G01*
X134726743Y-109728175D02*
X134726743Y-108828175D01*
G75*
G02*
X134976743Y-108578175I250000J0D01*
G01*
X135501743Y-108578175D01*
G75*
G02*
X135751743Y-108828175I0J-250000D01*
G01*
X135751743Y-109728175D01*
G75*
G02*
X135501743Y-109978175I-250000J0D01*
G01*
X134976743Y-109978175D01*
G75*
G02*
X134726743Y-109728175I0J250000D01*
G01*
G37*
%TD.AperFunction*%
%TO.P,R1,2*%
%TO.N,GND*%
%TA.AperFunction,SMDPad,CuDef*%
G36*
G01*
X136551743Y-109728175D02*
X136551743Y-108828175D01*
G75*
G02*
X136801743Y-108578175I250000J0D01*
G01*
X137326743Y-108578175D01*
G75*
G02*
X137576743Y-108828175I0J-250000D01*
G01*
X137576743Y-109728175D01*
G75*
G02*
X137326743Y-109978175I-250000J0D01*
G01*
X136801743Y-109978175D01*
G75*
G02*
X136551743Y-109728175I0J250000D01*
G01*
G37*
%TD.AperFunction*%
%TD*%
D10*
%TO.P,A1,1,GND*%
%TO.N,GND*%
X165154532Y-111755464D03*
D11*
%TO.P,A1,2,VDD*%
%TO.N,Net-(A1-VDD)*%
X162614532Y-111755464D03*
%TO.P,A1,3,1B*%
%TO.N,Net-(A1-1B)*%
X160074532Y-111755464D03*
%TO.P,A1,4,1A*%
%TO.N,Net-(A1-1A)*%
X157534532Y-111755464D03*
%TO.P,A1,5,2A*%
%TO.N,Net-(A1-2A)*%
X154994532Y-111755464D03*
%TO.P,A1,6,2B*%
%TO.N,Net-(A1-2B)*%
X152454532Y-111755464D03*
%TO.P,A1,7,GND*%
%TO.N,GND*%
X149914532Y-111755464D03*
%TO.P,A1,8,VMOT*%
%TO.N,Net-(A1-VMOT)*%
X147374532Y-111755464D03*
%TO.P,A1,9,~{ENABLE}*%
%TO.N,Net-(A1-~{ENABLE})*%
X147374532Y-124455464D03*
%TO.P,A1,10,MS1*%
%TO.N,unconnected-(A1-MS1-Pad10)*%
X149914532Y-124455464D03*
%TO.P,A1,11,MS2*%
%TO.N,unconnected-(A1-MS2-Pad11)*%
X152454532Y-124455464D03*
%TO.P,A1,12,MS3*%
%TO.N,unconnected-(A1-MS3-Pad12)*%
X154994532Y-124455464D03*
%TO.P,A1,13,~{RESET}*%
%TO.N,Net-(A1-~{RESET})*%
X157534532Y-124455464D03*
%TO.P,A1,14,~{SLEEP}*%
X160074532Y-124455464D03*
%TO.P,A1,15,STEP*%
%TO.N,Net-(A1-STEP)*%
X162614532Y-124455464D03*
%TO.P,A1,16,DIR*%
%TO.N,Net-(A1-DIR)*%
X165154532Y-124455464D03*
%TD*%
D12*
%TO.P,U3,1,GND*%
%TO.N,GND*%
X108314890Y-120562520D03*
%TO.P,U3,2,VO*%
%TO.N,+3.3V*%
X108314890Y-122862520D03*
D13*
X114614890Y-122862520D03*
D12*
%TO.P,U3,3,VI*%
%TO.N,+12V*%
X108314890Y-125162520D03*
%TD*%
D14*
%TO.P,J12,1,Pin_1*%
%TO.N,Net-(J12-Pin_1)*%
X179381216Y-74872391D03*
%TO.P,J12,2,Pin_2*%
%TO.N,Net-(J12-Pin_2)*%
X178881216Y-74872391D03*
%TO.P,J12,3,Pin_3*%
%TO.N,Net-(J12-Pin_3)*%
X178381216Y-74872391D03*
%TO.P,J12,4,Pin_4*%
%TO.N,Net-(J12-Pin_4)*%
X177881216Y-74872391D03*
%TO.P,J12,5,Pin_5*%
%TO.N,Net-(J11-Pin_1)*%
X177381216Y-74872391D03*
%TO.P,J12,6,Pin_6*%
%TO.N,Net-(J11-Pin_2)*%
X176881216Y-74872391D03*
%TO.P,J12,7,Pin_7*%
%TO.N,Net-(J11-Pin_3)*%
X176381216Y-74872391D03*
%TO.P,J12,8,Pin_8*%
%TO.N,Net-(J11-Pin_4)*%
X175881216Y-74872391D03*
%TO.P,J12,9,Pin_9*%
%TO.N,Net-(J10-Pin_1)*%
X175381216Y-74872391D03*
%TO.P,J12,10,Pin_10*%
%TO.N,Net-(J10-Pin_2)*%
X174881216Y-74872391D03*
%TO.P,J12,11,Pin_11*%
%TO.N,Net-(J10-Pin_3)*%
X174381216Y-74872391D03*
%TO.P,J12,12,Pin_12*%
%TO.N,Net-(J10-Pin_4)*%
X173881216Y-74872391D03*
D15*
%TO.P,J12,MP,MountPin*%
%TO.N,unconnected-(J12-MountPin-PadMP)*%
X181281216Y-71622391D03*
X171981216Y-71622391D03*
%TD*%
D10*
%TO.P,U5,1,QB*%
%TO.N,Net-(J3-Pin_9)*%
X125616850Y-130944114D03*
D11*
%TO.P,U5,2,QC*%
%TO.N,Net-(J3-Pin_8)*%
X125616850Y-128404114D03*
%TO.P,U5,3,QD*%
%TO.N,Net-(J3-Pin_7)*%
X125616850Y-125864114D03*
%TO.P,U5,4,QE*%
%TO.N,Net-(J3-Pin_6)*%
X125616850Y-123324114D03*
%TO.P,U5,5,QF*%
%TO.N,Net-(J3-Pin_5)*%
X125616850Y-120784114D03*
%TO.P,U5,6,QG*%
%TO.N,Net-(J3-Pin_4)*%
X125616850Y-118244114D03*
%TO.P,U5,7,QH*%
%TO.N,unconnected-(U5-QH-Pad7)*%
X125616850Y-115704114D03*
%TO.P,U5,8,GND*%
%TO.N,GND*%
X125616850Y-113164114D03*
%TO.P,U5,9,QH'*%
%TO.N,unconnected-(U5-QH'-Pad9)*%
X117996850Y-113164114D03*
%TO.P,U5,10,~{SRCLR}*%
%TO.N,+3.3V*%
X117996850Y-115704114D03*
%TO.P,U5,11,SRCLK*%
%TO.N,/SER*%
X117996850Y-118244114D03*
%TO.P,U5,12,RCLK*%
%TO.N,/RCLK*%
X117996850Y-120784114D03*
%TO.P,U5,13,~{OE}*%
%TO.N,GND*%
X117996850Y-123324114D03*
%TO.P,U5,14,SER*%
%TO.N,/SRCLK*%
X117996850Y-125864114D03*
%TO.P,U5,15,QA*%
%TO.N,Net-(J3-Pin_10)*%
X117996850Y-128404114D03*
%TO.P,U5,16,VCC*%
%TO.N,+3.3V*%
X117996850Y-130944114D03*
%TD*%
D16*
%TO.P,C1,1*%
%TO.N,+12V*%
X132541682Y-130270696D03*
%TO.P,C1,2*%
%TO.N,GND*%
X132541682Y-125270696D03*
%TD*%
D17*
%TO.P,J3,1,Pin_1*%
%TO.N,GND*%
X139787204Y-108660183D03*
D18*
%TO.P,J3,2,Pin_2*%
%TO.N,+12V*%
X139787204Y-111200183D03*
%TO.P,J3,3,Pin_3*%
%TO.N,+3.3V*%
X139787204Y-113740183D03*
%TO.P,J3,4,Pin_4*%
%TO.N,Net-(J3-Pin_4)*%
X139787204Y-116280183D03*
%TO.P,J3,5,Pin_5*%
%TO.N,Net-(J3-Pin_5)*%
X139787204Y-118820183D03*
%TO.P,J3,6,Pin_6*%
%TO.N,Net-(J3-Pin_6)*%
X139787204Y-121360183D03*
%TO.P,J3,7,Pin_7*%
%TO.N,Net-(J3-Pin_7)*%
X139787204Y-123900183D03*
%TO.P,J3,8,Pin_8*%
%TO.N,Net-(J3-Pin_8)*%
X139787204Y-126440183D03*
%TO.P,J3,9,Pin_9*%
%TO.N,Net-(J3-Pin_9)*%
X139787204Y-128980183D03*
%TO.P,J3,10,Pin_10*%
%TO.N,Net-(J3-Pin_10)*%
X139787204Y-131520183D03*
%TD*%
D17*
%TO.P,J7,1,Pin_1*%
%TO.N,Net-(A3-DIR)*%
X147646952Y-131432444D03*
D18*
%TO.P,J7,2,Pin_2*%
%TO.N,Net-(A1-STEP)*%
X150186952Y-131432444D03*
%TO.P,J7,3,Pin_3*%
%TO.N,Net-(A1-DIR)*%
X152726952Y-131432444D03*
%TO.P,J7,4,Pin_4*%
%TO.N,Net-(A2-STEP)*%
X155266952Y-131432444D03*
%TO.P,J7,5,Pin_5*%
%TO.N,Net-(A2-DIR)*%
X157806952Y-131432444D03*
%TD*%
D17*
%TO.P,J6,1,Pin_1*%
%TO.N,/TX*%
X137638552Y-72413937D03*
D18*
%TO.P,J6,2,Pin_2*%
%TO.N,/RX*%
X137638552Y-74953937D03*
%TO.P,J6,3,Pin_3*%
%TO.N,GND*%
X137638552Y-77493937D03*
%TO.P,J6,4,Pin_4*%
%TO.N,+3.3V*%
X137638552Y-80033937D03*
%TD*%
D16*
%TO.P,C2,1*%
%TO.N,GND*%
X110968553Y-129915928D03*
%TO.P,C2,2*%
%TO.N,+3.3V*%
X112968553Y-129915928D03*
%TD*%
D14*
%TO.P,J8,1,Pin_1*%
%TO.N,Net-(A3-1B)*%
X156022651Y-74764154D03*
%TO.P,J8,2,Pin_2*%
%TO.N,Net-(A3-1A)*%
X155522651Y-74764154D03*
%TO.P,J8,3,Pin_3*%
%TO.N,Net-(A3-2A)*%
X155022651Y-74764154D03*
%TO.P,J8,4,Pin_4*%
%TO.N,Net-(A3-2B)*%
X154522651Y-74764154D03*
%TO.P,J8,5,Pin_5*%
%TO.N,Net-(A2-1B)*%
X154022651Y-74764154D03*
%TO.P,J8,6,Pin_6*%
%TO.N,Net-(A2-1A)*%
X153522651Y-74764154D03*
%TO.P,J8,7,Pin_7*%
%TO.N,Net-(A2-2A)*%
X153022651Y-74764154D03*
%TO.P,J8,8,Pin_8*%
%TO.N,Net-(A2-2B)*%
X152522651Y-74764154D03*
%TO.P,J8,9,Pin_9*%
%TO.N,Net-(A1-1B)*%
X152022651Y-74764154D03*
%TO.P,J8,10,Pin_10*%
%TO.N,Net-(A1-1A)*%
X151522651Y-74764154D03*
%TO.P,J8,11,Pin_11*%
%TO.N,Net-(A1-2A)*%
X151022651Y-74764154D03*
%TO.P,J8,12,Pin_12*%
%TO.N,Net-(A1-2B)*%
X150522651Y-74764154D03*
D15*
%TO.P,J8,MP,MountPin*%
%TO.N,unconnected-(J8-MountPin-PadMP)*%
X157922651Y-71514154D03*
X148622651Y-71514154D03*
%TD*%
D10*
%TO.P,A2,1,GND*%
%TO.N,GND*%
X165154532Y-95545464D03*
D11*
%TO.P,A2,2,VDD*%
%TO.N,Net-(A1-VDD)*%
X162614532Y-95545464D03*
%TO.P,A2,3,1B*%
%TO.N,Net-(A2-1B)*%
X160074532Y-95545464D03*
%TO.P,A2,4,1A*%
%TO.N,Net-(A2-1A)*%
X157534532Y-95545464D03*
%TO.P,A2,5,2A*%
%TO.N,Net-(A2-2A)*%
X154994532Y-95545464D03*
%TO.P,A2,6,2B*%
%TO.N,Net-(A2-2B)*%
X152454532Y-95545464D03*
%TO.P,A2,7,GND*%
%TO.N,GND*%
X149914532Y-95545464D03*
%TO.P,A2,8,VMOT*%
%TO.N,Net-(A1-VMOT)*%
X147374532Y-95545464D03*
%TO.P,A2,9,~{ENABLE}*%
%TO.N,Net-(A1-~{ENABLE})*%
X147374532Y-108245464D03*
%TO.P,A2,10,MS1*%
%TO.N,unconnected-(A2-MS1-Pad10)*%
X149914532Y-108245464D03*
%TO.P,A2,11,MS2*%
%TO.N,unconnected-(A2-MS2-Pad11)*%
X152454532Y-108245464D03*
%TO.P,A2,12,MS3*%
%TO.N,unconnected-(A2-MS3-Pad12)*%
X154994532Y-108245464D03*
%TO.P,A2,13,~{RESET}*%
%TO.N,Net-(A2-~{RESET})*%
X157534532Y-108245464D03*
%TO.P,A2,14,~{SLEEP}*%
X160074532Y-108245464D03*
%TO.P,A2,15,STEP*%
%TO.N,Net-(A2-STEP)*%
X162614532Y-108245464D03*
%TO.P,A2,16,DIR*%
%TO.N,Net-(A2-DIR)*%
X165154532Y-108245464D03*
%TD*%
%TO.P,R3,1*%
%TO.N,GND*%
%TA.AperFunction,SMDPad,CuDef*%
G36*
G01*
X127579854Y-74986004D02*
X126679854Y-74986004D01*
G75*
G02*
X126429854Y-74736004I0J250000D01*
G01*
X126429854Y-74211004D01*
G75*
G02*
X126679854Y-73961004I250000J0D01*
G01*
X127579854Y-73961004D01*
G75*
G02*
X127829854Y-74211004I0J-250000D01*
G01*
X127829854Y-74736004D01*
G75*
G02*
X127579854Y-74986004I-250000J0D01*
G01*
G37*
%TD.AperFunction*%
%TO.P,R3,2*%
%TO.N,/Matrix_I4*%
%TA.AperFunction,SMDPad,CuDef*%
G36*
G01*
X127579854Y-73161004D02*
X126679854Y-73161004D01*
G75*
G02*
X126429854Y-72911004I0J250000D01*
G01*
X126429854Y-72386004D01*
G75*
G02*
X126679854Y-72136004I250000J0D01*
G01*
X127579854Y-72136004D01*
G75*
G02*
X127829854Y-72386004I0J-250000D01*
G01*
X127829854Y-72911004D01*
G75*
G02*
X127579854Y-73161004I-250000J0D01*
G01*
G37*
%TD.AperFunction*%
%TD*%
D17*
%TO.P,J4,1,Pin_1*%
%TO.N,+3.3V*%
X135246505Y-114775026D03*
D18*
%TO.P,J4,2,Pin_2*%
%TO.N,/Limit_In*%
X135246505Y-112235026D03*
%TD*%
D17*
%TO.P,J5,1,Pin_1*%
%TO.N,/Matrix_I4*%
X133828552Y-76213937D03*
D18*
%TO.P,J5,2,Pin_2*%
%TO.N,/Matrix_I3*%
X133828552Y-78753937D03*
%TO.P,J5,3,Pin_3*%
%TO.N,/Matrix_I2*%
X133828552Y-81293937D03*
%TO.P,J5,4,Pin_4*%
%TO.N,/Matrix_I1*%
X133828552Y-83833937D03*
%TO.P,J5,5,Pin_5*%
%TO.N,/Matrix_O4*%
X133828552Y-86373937D03*
%TO.P,J5,6,Pin_6*%
%TO.N,/Matrix_O3*%
X133828552Y-88913937D03*
%TO.P,J5,7,Pin_7*%
%TO.N,/Matrix_O2*%
X133828552Y-91453937D03*
%TO.P,J5,8,Pin_8*%
%TO.N,/Matrix_O1*%
X133828552Y-93993937D03*
%TD*%
%TO.P,R4,1*%
%TO.N,GND*%
%TA.AperFunction,SMDPad,CuDef*%
G36*
G01*
X127571053Y-82705000D02*
X126671053Y-82705000D01*
G75*
G02*
X126421053Y-82455000I0J250000D01*
G01*
X126421053Y-81930000D01*
G75*
G02*
X126671053Y-81680000I250000J0D01*
G01*
X127571053Y-81680000D01*
G75*
G02*
X127821053Y-81930000I0J-250000D01*
G01*
X127821053Y-82455000D01*
G75*
G02*
X127571053Y-82705000I-250000J0D01*
G01*
G37*
%TD.AperFunction*%
%TO.P,R4,2*%
%TO.N,/Matrix_I2*%
%TA.AperFunction,SMDPad,CuDef*%
G36*
G01*
X127571053Y-80880000D02*
X126671053Y-80880000D01*
G75*
G02*
X126421053Y-80630000I0J250000D01*
G01*
X126421053Y-80105000D01*
G75*
G02*
X126671053Y-79855000I250000J0D01*
G01*
X127571053Y-79855000D01*
G75*
G02*
X127821053Y-80105000I0J-250000D01*
G01*
X127821053Y-80630000D01*
G75*
G02*
X127571053Y-80880000I-250000J0D01*
G01*
G37*
%TD.AperFunction*%
%TD*%
D19*
%TO.P,U1,1,3V3*%
%TO.N,+3.3V*%
X105014959Y-71094589D03*
D20*
%TO.P,U1,2,CHIP_PU*%
%TO.N,unconnected-(U1-CHIP_PU-Pad2)*%
X105014959Y-73634589D03*
%TO.P,U1,3,SENSOR_VP/GPIO36/ADC1_CH0*%
%TO.N,/Matrix_I4*%
X105014959Y-76174589D03*
%TO.P,U1,4,SENSOR_VN/GPIO39/ADC1_CH3*%
%TO.N,/Matrix_I3*%
X105014959Y-78714589D03*
%TO.P,U1,5,VDET_1/GPIO34/ADC1_CH6*%
%TO.N,/Matrix_I2*%
X105014959Y-81254589D03*
%TO.P,U1,6,VDET_2/GPIO35/ADC1_CH7*%
%TO.N,/Matrix_I1*%
X105014959Y-83794589D03*
%TO.P,U1,7,32K_XP/GPIO32/ADC1_CH4*%
%TO.N,/Matrix_O4*%
X105014959Y-86334589D03*
%TO.P,U1,8,32K_XN/GPIO33/ADC1_CH5*%
%TO.N,/Matrix_O3*%
X105014959Y-88874589D03*
%TO.P,U1,9,DAC_1/ADC2_CH8/GPIO25*%
%TO.N,/LRC*%
X105014959Y-91414589D03*
%TO.P,U1,10,DAC_2/ADC2_CH9/GPIO26*%
%TO.N,/BCLK*%
X105014959Y-93954589D03*
%TO.P,U1,11,ADC2_CH7/GPIO27*%
%TO.N,/Matrix_O2*%
X105014959Y-96494589D03*
%TO.P,U1,12,MTMS/GPIO14/ADC2_CH6*%
%TO.N,unconnected-(U1-MTMS{slash}GPIO14{slash}ADC2_CH6-Pad12)*%
X105014959Y-99034589D03*
%TO.P,U1,13,\u002AMTDI/GPIO12/ADC2_CH5*%
%TO.N,unconnected-(U1-\u002AMTDI{slash}GPIO12{slash}ADC2_CH5-Pad13)*%
X105014959Y-101574589D03*
%TO.P,U1,14,GND*%
%TO.N,unconnected-(U1-GND-Pad14)*%
X105014959Y-104114589D03*
%TO.P,U1,15,MTCK/GPIO13/ADC2_CH4*%
%TO.N,unconnected-(U1-MTCK{slash}GPIO13{slash}ADC2_CH4-Pad15)*%
X105014959Y-106654589D03*
%TO.P,U1,16,SD_DATA2/GPIO9*%
%TO.N,unconnected-(U1-SD_DATA2{slash}GPIO9-Pad16)*%
X105014959Y-109194589D03*
%TO.P,U1,17,SD_DATA3/GPIO10*%
%TO.N,unconnected-(U1-SD_DATA3{slash}GPIO10-Pad17)*%
X105014959Y-111734589D03*
%TO.P,U1,18,CMD*%
%TO.N,unconnected-(U1-CMD-Pad18)*%
X105014959Y-114274589D03*
%TO.P,U1,19,5V*%
%TO.N,unconnected-(U1-5V-Pad19)*%
X105014959Y-116814589D03*
%TO.P,U1,20,SD_CLK/GPIO6*%
%TO.N,unconnected-(U1-SD_CLK{slash}GPIO6-Pad20)*%
X130411279Y-116811869D03*
%TO.P,U1,21,SD_DATA0/GPIO7*%
%TO.N,unconnected-(U1-SD_DATA0{slash}GPIO7-Pad21)*%
X130411279Y-114271869D03*
%TO.P,U1,22,SD_DATA1/GPIO8*%
%TO.N,unconnected-(U1-SD_DATA1{slash}GPIO8-Pad22)*%
X130414959Y-111734589D03*
%TO.P,U1,23,\u002AMTDO/GPIO15/ADC2_CH3*%
%TO.N,unconnected-(U1-\u002AMTDO{slash}GPIO15{slash}ADC2_CH3-Pad23)*%
X130414959Y-109194589D03*
%TO.P,U1,24,ADC2_CH2/\u002AGPIO2*%
%TO.N,/Matrix_O1*%
X130414959Y-106654589D03*
%TO.P,U1,25,\u002AGPIO0/BOOT/ADC2_CH1*%
%TO.N,unconnected-(U1-\u002AGPIO0{slash}BOOT{slash}ADC2_CH1-Pad25)*%
X130414959Y-104114589D03*
%TO.P,U1,26,ADC2_CH0/GPIO4*%
%TO.N,unconnected-(U1-ADC2_CH0{slash}GPIO4-Pad26)*%
X130414959Y-101574589D03*
%TO.P,U1,27,GPIO16*%
%TO.N,/SRCLK*%
X130414959Y-99034589D03*
%TO.P,U1,28,GPIO17*%
%TO.N,/RCLK*%
X130414959Y-96494589D03*
%TO.P,U1,29,\u002AGPIO5*%
%TO.N,/SER*%
X130414959Y-93954589D03*
%TO.P,U1,30,GPIO18*%
%TO.N,/Dir*%
X130414959Y-91414589D03*
%TO.P,U1,31,GPIO19*%
%TO.N,/Step*%
X130414959Y-88874589D03*
%TO.P,U1,32,GND*%
%TO.N,GND*%
X130414959Y-86334589D03*
%TO.P,U1,33,GPIO21*%
%TO.N,/Limit_In*%
X130414959Y-83794589D03*
%TO.P,U1,34,U0RXD/GPIO3*%
%TO.N,/RX*%
X130414959Y-81254589D03*
%TO.P,U1,35,U0TXD/GPIO1*%
%TO.N,/TX*%
X130414959Y-78714589D03*
%TO.P,U1,36,GPIO22*%
%TO.N,/Stepper_Ena*%
X130414959Y-76174589D03*
%TO.P,U1,37,GPIO23*%
%TO.N,/DIN*%
X130414959Y-73634589D03*
%TO.P,U1,38,GND*%
%TO.N,GND*%
X130414959Y-71094589D03*
%TD*%
D17*
%TO.P,J11,1,Pin_1*%
%TO.N,Net-(J11-Pin_1)*%
X179122293Y-78163587D03*
D18*
%TO.P,J11,2,Pin_2*%
%TO.N,Net-(J11-Pin_2)*%
X176582293Y-78163587D03*
%TO.P,J11,3,Pin_3*%
%TO.N,Net-(J11-Pin_3)*%
X174042293Y-78163587D03*
%TO.P,J11,4,Pin_4*%
%TO.N,Net-(J11-Pin_4)*%
X171502293Y-78163587D03*
%TD*%
%TO.P,R5,1*%
%TO.N,GND*%
%TA.AperFunction,SMDPad,CuDef*%
G36*
G01*
X127571053Y-86488938D02*
X126671053Y-86488938D01*
G75*
G02*
X126421053Y-86238938I0J250000D01*
G01*
X126421053Y-85713938D01*
G75*
G02*
X126671053Y-85463938I250000J0D01*
G01*
X127571053Y-85463938D01*
G75*
G02*
X127821053Y-85713938I0J-250000D01*
G01*
X127821053Y-86238938D01*
G75*
G02*
X127571053Y-86488938I-250000J0D01*
G01*
G37*
%TD.AperFunction*%
%TO.P,R5,2*%
%TO.N,/Matrix_I1*%
%TA.AperFunction,SMDPad,CuDef*%
G36*
G01*
X127571053Y-84663938D02*
X126671053Y-84663938D01*
G75*
G02*
X126421053Y-84413938I0J250000D01*
G01*
X126421053Y-83888938D01*
G75*
G02*
X126671053Y-83638938I250000J0D01*
G01*
X127571053Y-83638938D01*
G75*
G02*
X127821053Y-83888938I0J-250000D01*
G01*
X127821053Y-84413938D01*
G75*
G02*
X127571053Y-84663938I-250000J0D01*
G01*
G37*
%TD.AperFunction*%
%TD*%
D17*
%TO.P,J2,1,Pin_1*%
%TO.N,+12V*%
X105210563Y-124253439D03*
D18*
%TO.P,J2,2,Pin_2*%
%TO.N,GND*%
X105210563Y-121713439D03*
%TD*%
D17*
%TO.P,J9,1,Pin_1*%
%TO.N,Net-(J12-Pin_1)*%
X179099848Y-85424370D03*
D18*
%TO.P,J9,2,Pin_2*%
%TO.N,Net-(J12-Pin_2)*%
X176559848Y-85424370D03*
%TO.P,J9,3,Pin_3*%
%TO.N,Net-(J12-Pin_3)*%
X174019848Y-85424370D03*
%TO.P,J9,4,Pin_4*%
%TO.N,Net-(J12-Pin_4)*%
X171479848Y-85424370D03*
%TD*%
D17*
%TO.P,J10,1,Pin_1*%
%TO.N,Net-(J10-Pin_1)*%
X179108102Y-81809580D03*
D18*
%TO.P,J10,2,Pin_2*%
%TO.N,Net-(J10-Pin_2)*%
X176568102Y-81809580D03*
%TO.P,J10,3,Pin_3*%
%TO.N,Net-(J10-Pin_3)*%
X174028102Y-81809580D03*
%TO.P,J10,4,Pin_4*%
%TO.N,Net-(J10-Pin_4)*%
X171488102Y-81809580D03*
%TD*%
D17*
%TO.P,J1,1,Pin_1*%
%TO.N,Net-(J1-Pin_1)*%
X133828552Y-97803937D03*
D18*
%TO.P,J1,2,Pin_2*%
%TO.N,Net-(J1-Pin_2)*%
X133828552Y-100343937D03*
%TO.P,J1,3,Pin_3*%
%TO.N,Net-(J1-Pin_3)*%
X133828552Y-102883937D03*
%TO.P,J1,4,Pin_4*%
%TO.N,Net-(J1-Pin_4)*%
X133828552Y-105423937D03*
%TD*%
D10*
%TO.P,A3,1,GND*%
%TO.N,GND*%
X165099999Y-79293319D03*
D11*
%TO.P,A3,2,VDD*%
%TO.N,Net-(A1-VDD)*%
X162559999Y-79293319D03*
%TO.P,A3,3,1B*%
%TO.N,Net-(A3-1B)*%
X160019999Y-79293319D03*
%TO.P,A3,4,1A*%
%TO.N,Net-(A3-1A)*%
X157479999Y-79293319D03*
%TO.P,A3,5,2A*%
%TO.N,Net-(A3-2A)*%
X154939999Y-79293319D03*
%TO.P,A3,6,2B*%
%TO.N,Net-(A3-2B)*%
X152399999Y-79293319D03*
%TO.P,A3,7,GND*%
%TO.N,GND*%
X149859999Y-79293319D03*
%TO.P,A3,8,VMOT*%
%TO.N,Net-(A1-VMOT)*%
X147319999Y-79293319D03*
%TO.P,A3,9,~{ENABLE}*%
%TO.N,Net-(A1-~{ENABLE})*%
X147319999Y-91993319D03*
%TO.P,A3,10,MS1*%
%TO.N,unconnected-(A3-MS1-Pad10)*%
X149859999Y-91993319D03*
%TO.P,A3,11,MS2*%
%TO.N,unconnected-(A3-MS2-Pad11)*%
X152399999Y-91993319D03*
%TO.P,A3,12,MS3*%
%TO.N,unconnected-(A3-MS3-Pad12)*%
X154939999Y-91993319D03*
%TO.P,A3,13,~{RESET}*%
%TO.N,Net-(A3-~{RESET})*%
X157479999Y-91993319D03*
%TO.P,A3,14,~{SLEEP}*%
X160019999Y-91993319D03*
%TO.P,A3,15,STEP*%
%TO.N,Net-(A3-STEP)*%
X162559999Y-91993319D03*
%TO.P,A3,16,DIR*%
%TO.N,Net-(A3-DIR)*%
X165099999Y-91993319D03*
%TD*%
D21*
%TO.P,U2,1,~{ENABLE}*%
%TO.N,/Stepper_Ena*%
X108776201Y-88658017D03*
D22*
%TO.P,U2,2,MS1*%
%TO.N,unconnected-(U2-MS1-Pad2)*%
X108776202Y-91198018D03*
%TO.P,U2,3,MS2*%
%TO.N,unconnected-(U2-MS2-Pad3)*%
X108776202Y-93738018D03*
%TO.P,U2,4,MS3*%
%TO.N,unconnected-(U2-MS3-Pad4)*%
X108776202Y-96278018D03*
%TO.P,U2,5,~{RESET}*%
%TO.N,Net-(U2-~{RESET})*%
X108776202Y-98818018D03*
%TO.P,U2,6,~{SLEEP}*%
X108776202Y-101358018D03*
%TO.P,U2,7,STEP*%
%TO.N,/Step*%
X108776202Y-103898018D03*
%TO.P,U2,8,DIR*%
%TO.N,/Dir*%
X108776202Y-106438018D03*
%TO.P,U2,9,GND*%
%TO.N,GND*%
X121476202Y-106438018D03*
%TO.P,U2,10,VDD*%
%TO.N,+3.3V*%
X121476202Y-103898018D03*
%TO.P,U2,11,1B*%
%TO.N,Net-(J1-Pin_4)*%
X121476202Y-101358018D03*
%TO.P,U2,12,1A*%
%TO.N,Net-(J1-Pin_3)*%
X121476202Y-98818018D03*
%TO.P,U2,13,2A*%
%TO.N,Net-(J1-Pin_2)*%
X121476202Y-96278018D03*
%TO.P,U2,14,2B*%
%TO.N,Net-(J1-Pin_1)*%
X121476202Y-93738018D03*
%TO.P,U2,15,GND*%
%TO.N,GND*%
X121476202Y-91198018D03*
%TO.P,U2,16,VMOT*%
%TO.N,+12V*%
X121476202Y-88658018D03*
%TD*%
D17*
%TO.P,J14,1,Pin_1*%
%TO.N,GND*%
X147633171Y-127822421D03*
D18*
%TO.P,J14,2,Pin_2*%
%TO.N,Net-(A1-VMOT)*%
X150173171Y-127822421D03*
%TO.P,J14,3,Pin_3*%
%TO.N,Net-(A1-VDD)*%
X152713171Y-127822421D03*
%TO.P,J14,4,Pin_4*%
%TO.N,Net-(A1-~{ENABLE})*%
X155253171Y-127822421D03*
%TO.P,J14,5,Pin_5*%
%TO.N,Net-(A3-STEP)*%
X157793171Y-127822421D03*
%TD*%
%TO.P,R2,1*%
%TO.N,GND*%
%TA.AperFunction,SMDPad,CuDef*%
G36*
G01*
X127554034Y-78884819D02*
X126654034Y-78884819D01*
G75*
G02*
X126404034Y-78634819I0J250000D01*
G01*
X126404034Y-78109819D01*
G75*
G02*
X126654034Y-77859819I250000J0D01*
G01*
X127554034Y-77859819D01*
G75*
G02*
X127804034Y-78109819I0J-250000D01*
G01*
X127804034Y-78634819D01*
G75*
G02*
X127554034Y-78884819I-250000J0D01*
G01*
G37*
%TD.AperFunction*%
%TO.P,R2,2*%
%TO.N,/Matrix_I3*%
%TA.AperFunction,SMDPad,CuDef*%
G36*
G01*
X127554034Y-77059819D02*
X126654034Y-77059819D01*
G75*
G02*
X126404034Y-76809819I0J250000D01*
G01*
X126404034Y-76284819D01*
G75*
G02*
X126654034Y-76034819I250000J0D01*
G01*
X127554034Y-76034819D01*
G75*
G02*
X127804034Y-76284819I0J-250000D01*
G01*
X127804034Y-76809819D01*
G75*
G02*
X127554034Y-77059819I-250000J0D01*
G01*
G37*
%TD.AperFunction*%
%TD*%
D23*
%TO.P,U6,1,VIN*%
%TO.N,+3.3V*%
X108440671Y-84452759D03*
%TO.P,U6,2,GND*%
%TO.N,GND*%
X110980671Y-84452759D03*
%TO.P,U6,3,GAIN*%
X113520671Y-84452759D03*
%TO.P,U6,4,DIN*%
%TO.N,/DIN*%
X116060671Y-84452759D03*
%TO.P,U6,5,BCLK*%
%TO.N,/BCLK*%
X118600671Y-84452759D03*
%TO.P,U6,6,LRC*%
%TO.N,/LRC*%
X121140671Y-84452759D03*
%TO.P,U6,7,SD*%
%TO.N,unconnected-(U6-SD-Pad7)*%
X123680671Y-84452759D03*
%TD*%
D24*
%TO.N,GND*%
X123690453Y-90170000D03*
X128695818Y-79165818D03*
X119880453Y-110490000D03*
X149860000Y-116840000D03*
X124960453Y-77296819D03*
X128762702Y-81280000D03*
X154940000Y-102870000D03*
X125554835Y-86310500D03*
X153670000Y-119380000D03*
X125425735Y-74981102D03*
%TO.N,+3.3V*%
X112260453Y-91440000D03*
X106661702Y-90150250D03*
%TO.N,/Limit_In*%
X135739053Y-86360000D03*
%TO.N,/LRC*%
X119709161Y-88728708D03*
%TO.N,Net-(A3-STEP)*%
X157980453Y-114300000D03*
X160907996Y-97410775D03*
X156710453Y-121696579D03*
X159250453Y-106680000D03*
%TO.N,Net-(A1-2A)*%
X152400000Y-72763655D03*
%TO.N,Net-(A1-2B)*%
X150878921Y-72777222D03*
%TO.N,Net-(A1-STEP)*%
X163830000Y-132587943D03*
%TD*%
D25*
%TO.N,Net-(A1-STEP)*%
X165630879Y-123305465D02*
X163764533Y-123305465D01*
X166304533Y-123979119D02*
X165630879Y-123305465D01*
X166304533Y-129631675D02*
X166304533Y-123979119D01*
X163764533Y-123305465D02*
X162614533Y-124455465D01*
X163830000Y-132106208D02*
X166304533Y-129631675D01*
X163830000Y-132587943D02*
X163830000Y-132106208D01*
D26*
%TO.N,+3.3V*%
X106661702Y-90150250D02*
X106938934Y-89873018D01*
X106938934Y-89873018D02*
X110693471Y-89873018D01*
X110693471Y-89873018D02*
X112260453Y-91440000D01*
D25*
%TO.N,/Limit_In*%
X135839053Y-108678365D02*
X135239243Y-109278175D01*
X135839053Y-86460000D02*
X135839053Y-108678365D01*
X135739053Y-86360000D02*
X135839053Y-86460000D01*
%TO.N,Net-(A3-STEP)*%
X160520453Y-105410000D02*
X159250453Y-106680000D01*
X160520453Y-97798318D02*
X160520453Y-105410000D01*
X160907996Y-97410775D02*
X160520453Y-97798318D01*
%TO.N,GND*%
X125554835Y-86310500D02*
X125888897Y-85976438D01*
X125888897Y-85976438D02*
X127121053Y-85976438D01*
D26*
X154940000Y-102870000D02*
X154940000Y-102414967D01*
X154940000Y-102414967D02*
X149914533Y-97389500D01*
X149914533Y-97389500D02*
X149914533Y-95545465D01*
D25*
X127850202Y-82192500D02*
X127121053Y-82192500D01*
X128762702Y-81280000D02*
X127850202Y-82192500D01*
X127897533Y-79165818D02*
X127104034Y-78372319D01*
X128695818Y-79165818D02*
X127897533Y-79165818D01*
%TO.N,/Matrix_I3*%
X125860581Y-76547319D02*
X127104034Y-76547319D01*
X124243262Y-74930000D02*
X125860581Y-76547319D01*
X108799550Y-74930000D02*
X124243262Y-74930000D01*
X105014960Y-78714590D02*
X108799550Y-74930000D01*
%TO.N,Net-(A1-2B)*%
X150360453Y-74601956D02*
X150522652Y-74764155D01*
X150360453Y-73335602D02*
X150360453Y-74601956D01*
X150878921Y-72817134D02*
X150360453Y-73335602D01*
X150878921Y-72777222D02*
X150878921Y-72817134D01*
%TO.N,Net-(A1-2A)*%
X151022652Y-73764155D02*
X151022652Y-74764155D01*
X152023152Y-72763655D02*
X151022652Y-73764155D01*
X152400000Y-72763655D02*
X152023152Y-72763655D01*
D27*
%TO.N,+12V*%
X106119645Y-125162521D02*
X108314891Y-125162521D01*
X105210564Y-124253440D02*
X106119645Y-125162521D01*
D26*
%TO.N,GND*%
X121476202Y-108894251D02*
X119880453Y-110490000D01*
D27*
X105210564Y-121713440D02*
X106361483Y-120562521D01*
D26*
X148624533Y-126916123D02*
X148624533Y-116840000D01*
X147633172Y-127822422D02*
X148315343Y-127822422D01*
X148624533Y-116840000D02*
X149860000Y-116840000D01*
X151204533Y-124933232D02*
X151204533Y-119380000D01*
X148315343Y-127822422D02*
X151204533Y-124933232D01*
D25*
X127104034Y-78372319D02*
X126035953Y-78372319D01*
D26*
X148624533Y-116840000D02*
X148624533Y-113045465D01*
D25*
X126035953Y-78372319D02*
X124960453Y-77296819D01*
D26*
X122662435Y-91198018D02*
X123690453Y-90170000D01*
D27*
X106361483Y-120562521D02*
X108314891Y-120562521D01*
D26*
X137682234Y-108660184D02*
X137064243Y-109278175D01*
X121476202Y-106438018D02*
X121476202Y-108894251D01*
X151204533Y-119380000D02*
X153670000Y-119380000D01*
X121476202Y-91198018D02*
X122662435Y-91198018D01*
X148624533Y-113045465D02*
X149914533Y-111755465D01*
X139787205Y-108660184D02*
X137682234Y-108660184D01*
D25*
X127129854Y-74473504D02*
X125933333Y-74473504D01*
X125933333Y-74473504D02*
X125425735Y-74981102D01*
D26*
X151204533Y-113045465D02*
X149914533Y-111755465D01*
X151204533Y-119380000D02*
X151204533Y-113045465D01*
X147648894Y-127891762D02*
X148624533Y-126916123D01*
D28*
%TO.N,+3.3V*%
X141237205Y-107210184D02*
X141237205Y-112290184D01*
X136788553Y-80883938D02*
X136788553Y-104915144D01*
D27*
X117996851Y-130944115D02*
X113996740Y-130944115D01*
D28*
X137638553Y-80033938D02*
X136788553Y-80883938D01*
D27*
X113996740Y-130944115D02*
X112968553Y-129915928D01*
D28*
X136281349Y-113740184D02*
X135246506Y-114775027D01*
X141237205Y-112290184D02*
X139787205Y-113740184D01*
X139787205Y-113740184D02*
X136281349Y-113740184D01*
D27*
X121476202Y-103898018D02*
X116396851Y-108977369D01*
X117996851Y-115704115D02*
X114614891Y-119086075D01*
X114614891Y-122862521D02*
X114614891Y-128269590D01*
D28*
X138942165Y-104915144D02*
X141237205Y-107210184D01*
D27*
X116396851Y-114104115D02*
X117996851Y-115704115D01*
X108314891Y-122862521D02*
X114614891Y-122862521D01*
X114614891Y-119086075D02*
X114614891Y-122862521D01*
D28*
X136788553Y-104915144D02*
X138942165Y-104915144D01*
D27*
X114614891Y-128269590D02*
X112968553Y-129915928D01*
X116396851Y-108977369D02*
X116396851Y-114104115D01*
D25*
%TO.N,/RX*%
X134325610Y-82493938D02*
X135528553Y-81290995D01*
X131654308Y-82493938D02*
X134325610Y-82493938D01*
X135528553Y-77063938D02*
X137638553Y-74953938D01*
X130414960Y-81254590D02*
X131654308Y-82493938D01*
X135528553Y-81290995D02*
X135528553Y-77063938D01*
%TO.N,/TX*%
X135028553Y-79250995D02*
X134325610Y-79953938D01*
X135028553Y-75023938D02*
X135028553Y-79250995D01*
X137638553Y-72413938D02*
X135028553Y-75023938D01*
X134325610Y-79953938D02*
X131654308Y-79953938D01*
X131654308Y-79953938D02*
X130414960Y-78714590D01*
D26*
%TO.N,/Limit_In*%
X135246506Y-112235027D02*
X135246506Y-109285438D01*
X135246506Y-109285438D02*
X135239243Y-109278175D01*
D25*
%TO.N,/Matrix_I4*%
X132199205Y-74584590D02*
X132199205Y-73278752D01*
X131568957Y-72648504D02*
X127129854Y-72648504D01*
X132199205Y-73278752D02*
X131568957Y-72648504D01*
X107578546Y-73611004D02*
X126167354Y-73611004D01*
X133828553Y-76213938D02*
X132199205Y-74584590D01*
X126167354Y-73611004D02*
X127129854Y-72648504D01*
X105014960Y-76174590D02*
X107578546Y-73611004D01*
%TO.N,/Matrix_I3*%
X132839205Y-77764590D02*
X128321305Y-77764590D01*
X133828553Y-78753938D02*
X132839205Y-77764590D01*
X128321305Y-77764590D02*
X127104034Y-76547319D01*
%TO.N,/Matrix_I2*%
X133828553Y-81293938D02*
X132197811Y-81293938D01*
X126233963Y-81254590D02*
X127121053Y-80367500D01*
X105014960Y-81254590D02*
X126233963Y-81254590D01*
X131208463Y-80304590D02*
X127183963Y-80304590D01*
X132197811Y-81293938D02*
X131208463Y-80304590D01*
X127183963Y-80304590D02*
X127121053Y-80367500D01*
%TO.N,/Matrix_I1*%
X133828553Y-83833938D02*
X132917901Y-84744590D01*
X132917901Y-84744590D02*
X127714205Y-84744590D01*
X105014960Y-83794590D02*
X105706790Y-83102760D01*
X127714205Y-84744590D02*
X127121053Y-84151438D01*
X105706790Y-83102760D02*
X124740741Y-83102760D01*
X124740741Y-83102760D02*
X125789419Y-84151438D01*
X125789419Y-84151438D02*
X127121053Y-84151438D01*
D29*
%TO.N,/Matrix_O4*%
X132864205Y-85409590D02*
X133828553Y-86373938D01*
X129631812Y-85409590D02*
X132864205Y-85409590D01*
X105765370Y-87085000D02*
X127956402Y-87085000D01*
X127956402Y-87085000D02*
X129631812Y-85409590D01*
X105014960Y-86334590D02*
X105765370Y-87085000D01*
%TO.N,/Matrix_O3*%
X105014960Y-88874590D02*
X106321532Y-87568018D01*
X128900863Y-87499590D02*
X132414205Y-87499590D01*
X126545421Y-88900000D02*
X127500453Y-88900000D01*
X127500453Y-88900000D02*
X128900863Y-87499590D01*
X132414205Y-87499590D02*
X133828553Y-88913938D01*
X125213439Y-87568018D02*
X126545421Y-88900000D01*
X106321532Y-87568018D02*
X125213439Y-87568018D01*
%TO.N,/Matrix_O2*%
X106321532Y-95188018D02*
X122393384Y-95188018D01*
X122393384Y-95188018D02*
X129631812Y-87949590D01*
X105014960Y-96494590D02*
X106321532Y-95188018D01*
X129631812Y-87949590D02*
X131198108Y-87949590D01*
X133828553Y-90580035D02*
X133828553Y-91453938D01*
X131198108Y-87949590D02*
X133828553Y-90580035D01*
D25*
%TO.N,/Matrix_O1*%
X132628553Y-104440997D02*
X132628553Y-95193938D01*
X132628553Y-95193938D02*
X133828553Y-93993938D01*
X130414960Y-106654590D02*
X132628553Y-104440997D01*
D26*
%TO.N,/LRC*%
X105014960Y-91414590D02*
X106013388Y-92413018D01*
X116024851Y-92413018D02*
X119709161Y-88728708D01*
X106013388Y-92413018D02*
X116024851Y-92413018D01*
D28*
%TO.N,Net-(U2-~{RESET})*%
X108776202Y-98818018D02*
X108776202Y-101358018D01*
D25*
%TO.N,/Step*%
X124810233Y-100243018D02*
X124837643Y-100215608D01*
X124837643Y-100215608D02*
X124837643Y-94451907D01*
X124837643Y-94451907D02*
X130414960Y-88874590D01*
X112431202Y-100243018D02*
X124810233Y-100243018D01*
X108776202Y-103898018D02*
X112431202Y-100243018D01*
%TO.N,/Dir*%
X108776202Y-106438018D02*
X112431202Y-102783018D01*
X125337643Y-96491907D02*
X130414960Y-91414590D01*
X112431202Y-102783018D02*
X122986508Y-102783018D01*
X125337643Y-100431883D02*
X125337643Y-96491907D01*
X122986508Y-102783018D02*
X125337643Y-100431883D01*
D26*
%TO.N,/SER*%
X119868320Y-118244115D02*
X121020453Y-117091982D01*
X121020453Y-113720100D02*
X125937643Y-108802910D01*
X121020453Y-117091982D02*
X121020453Y-113720100D01*
X117996851Y-118244115D02*
X119868320Y-118244115D01*
X125937643Y-99086983D02*
X130414960Y-94609666D01*
X125937643Y-108802910D02*
X125937643Y-99086983D01*
X130414960Y-94609666D02*
X130414960Y-93954590D01*
%TO.N,/SRCLK*%
X122420453Y-124460000D02*
X122420453Y-114300000D01*
X127500453Y-109220000D02*
X127500453Y-101949097D01*
X121016338Y-125864115D02*
X122420453Y-124460000D01*
X117996851Y-125864115D02*
X121016338Y-125864115D01*
X122420453Y-114300000D02*
X127500453Y-109220000D01*
X127500453Y-101949097D02*
X130414960Y-99034590D01*
%TO.N,/RCLK*%
X126723092Y-109007411D02*
X126723092Y-100841534D01*
X117996851Y-120784115D02*
X119577518Y-120784115D01*
X121720453Y-114010050D02*
X126723092Y-109007411D01*
X121720453Y-118641180D02*
X121720453Y-114010050D01*
X119577518Y-120784115D02*
X121720453Y-118641180D01*
X130414960Y-97149666D02*
X130414960Y-96494590D01*
X126723092Y-100841534D02*
X130414960Y-97149666D01*
%TO.N,Net-(J3-Pin_9)*%
X135651236Y-121744115D02*
X137303642Y-123396521D01*
X125616851Y-130944115D02*
X129875668Y-126685298D01*
X129875668Y-126685298D02*
X129875668Y-121744115D01*
X137303642Y-126496621D02*
X139787205Y-128980184D01*
X129875668Y-121744115D02*
X135651236Y-121744115D01*
X137303642Y-123396521D02*
X137303642Y-126496621D01*
%TO.N,Net-(J3-Pin_8)*%
X135941186Y-121044115D02*
X138246992Y-123349921D01*
X129172810Y-121044115D02*
X135941186Y-121044115D01*
X125616851Y-128404115D02*
X129172810Y-124848156D01*
X138246992Y-124899971D02*
X139787205Y-126440184D01*
X138246992Y-123349921D02*
X138246992Y-124899971D01*
X129172810Y-124848156D02*
X129172810Y-121044115D01*
%TO.N,Net-(J3-Pin_7)*%
X136231136Y-120344115D02*
X139787205Y-123900184D01*
X125616851Y-125864115D02*
X128445715Y-123035251D01*
X128445715Y-120344115D02*
X136231136Y-120344115D01*
X128445715Y-123035251D02*
X128445715Y-120344115D01*
%TO.N,Net-(J3-Pin_6)*%
X138213021Y-119644115D02*
X138213021Y-119786000D01*
X138213021Y-119786000D02*
X139787205Y-121360184D01*
X127500453Y-121440513D02*
X127500453Y-119890463D01*
X125616851Y-123324115D02*
X127500453Y-121440513D01*
X127746801Y-119644115D02*
X138213021Y-119644115D01*
X127500453Y-119890463D02*
X127746801Y-119644115D01*
%TO.N,Net-(J3-Pin_5)*%
X127456851Y-118944115D02*
X139663274Y-118944115D01*
X139663274Y-118944115D02*
X139787205Y-118820184D01*
X125616851Y-120784115D02*
X127456851Y-118944115D01*
%TO.N,Net-(J3-Pin_4)*%
X125616851Y-118244115D02*
X137823274Y-118244115D01*
X137823274Y-118244115D02*
X139787205Y-116280184D01*
%TO.N,Net-(J3-Pin_10)*%
X117996851Y-128404115D02*
X121786851Y-132194115D01*
X121786851Y-132194115D02*
X126866851Y-132194115D01*
X126866851Y-132194115D02*
X130602763Y-128458203D01*
X130602763Y-122444115D02*
X135159223Y-122444115D01*
X135159223Y-122444115D02*
X135159223Y-126892202D01*
X135159223Y-126892202D02*
X139787205Y-131520184D01*
X130602763Y-128458203D02*
X130602763Y-122444115D01*
D25*
%TO.N,Net-(A2-1B)*%
X161170000Y-94449998D02*
X160074533Y-95545465D01*
X154022652Y-74764155D02*
X154022652Y-73814155D01*
X156522652Y-73764155D02*
X161170000Y-78411503D01*
X154022652Y-73814155D02*
X154072652Y-73764155D01*
X154072652Y-73764155D02*
X156522652Y-73764155D01*
X161170000Y-78411503D02*
X161170000Y-94449998D01*
%TO.N,Net-(A2-1A)*%
X160550879Y-96695465D02*
X158684533Y-96695465D01*
X158684533Y-96695465D02*
X157534533Y-95545465D01*
X153522652Y-74764155D02*
X153522652Y-73607049D01*
X163710000Y-78816974D02*
X163710000Y-92823652D01*
X158157181Y-73264155D02*
X163710000Y-78816974D01*
X161464533Y-95069119D02*
X161464533Y-95781811D01*
X153522652Y-73607049D02*
X153865546Y-73264155D01*
X161464533Y-95781811D02*
X160550879Y-96695465D01*
X163710000Y-92823652D02*
X161464533Y-95069119D01*
X153865546Y-73264155D02*
X158157181Y-73264155D01*
%TO.N,Net-(A2-2A)*%
X153022652Y-77044322D02*
X151250000Y-78816974D01*
X153022652Y-74764155D02*
X153022652Y-77044322D01*
X151250000Y-78816974D02*
X151250000Y-85979548D01*
X151250000Y-85979548D02*
X156330000Y-91059548D01*
X156330000Y-94209998D02*
X154994533Y-95545465D01*
X156330000Y-91059548D02*
X156330000Y-94209998D01*
%TO.N,Net-(A2-2B)*%
X152522652Y-76837216D02*
X151216548Y-78143320D01*
X153550000Y-88986654D02*
X153550000Y-94449998D01*
X148710000Y-84146654D02*
X153550000Y-88986654D01*
X151216548Y-78143320D02*
X149383654Y-78143320D01*
X148710000Y-78816974D02*
X148710000Y-84146654D01*
X152522652Y-74764155D02*
X152522652Y-76837216D01*
X153550000Y-94449998D02*
X152454533Y-95545465D01*
X149383654Y-78143320D02*
X148710000Y-78816974D01*
D26*
%TO.N,Net-(A1-~{ENABLE})*%
X147374533Y-108245465D02*
X146124533Y-109495465D01*
X146124533Y-109495465D02*
X146124533Y-123205465D01*
X146124533Y-106995465D02*
X147374533Y-108245465D01*
X146124533Y-93188787D02*
X146124533Y-106995465D01*
X146124533Y-123205465D02*
X147374533Y-124455465D01*
X147320000Y-91993320D02*
X146124533Y-93188787D01*
D28*
%TO.N,Net-(A2-~{RESET})*%
X160074533Y-108245465D02*
X157534533Y-108245465D01*
D29*
%TO.N,Net-(A2-STEP)*%
X160520453Y-126898582D02*
X156150284Y-131268751D01*
X160446351Y-125804102D02*
X160520453Y-125878204D01*
X164029533Y-109660465D02*
X162614533Y-108245465D01*
X156150284Y-131268751D02*
X155271985Y-131268751D01*
X156409533Y-125804102D02*
X160446351Y-125804102D01*
X164029533Y-120813078D02*
X164029533Y-109660465D01*
X160520453Y-125878204D02*
X160520453Y-126898582D01*
X157277928Y-123121079D02*
X161721532Y-123121079D01*
X161721532Y-123121079D02*
X164029533Y-120813078D01*
X156409533Y-123989474D02*
X157277928Y-123121079D01*
X156409533Y-123989474D02*
X156409533Y-125804102D01*
%TO.N,Net-(A2-DIR)*%
X166279533Y-112880465D02*
X166279533Y-109370465D01*
X161489533Y-127591203D02*
X161489533Y-123989474D01*
X166129998Y-113030000D02*
X166279533Y-112880465D01*
X165600453Y-113030000D02*
X166129998Y-113030000D01*
X161489533Y-123989474D02*
X165600453Y-119878554D01*
X165600453Y-119878554D02*
X165600453Y-113030000D01*
X166279533Y-109370465D02*
X165154533Y-108245465D01*
X157811985Y-131268751D02*
X161489533Y-127591203D01*
D25*
%TO.N,Net-(A3-1B)*%
X156022652Y-75295972D02*
X160020000Y-79293320D01*
X156022652Y-74764155D02*
X156022652Y-75295972D01*
%TO.N,Net-(A3-1A)*%
X157480000Y-79293320D02*
X155522652Y-77335972D01*
X155522652Y-77335972D02*
X155522652Y-74764155D01*
%TO.N,Net-(A3-2A)*%
X155022652Y-79210668D02*
X155022652Y-74764155D01*
X154940000Y-79293320D02*
X155022652Y-79210668D01*
%TO.N,Net-(A3-2B)*%
X153861855Y-77831465D02*
X154522652Y-77831465D01*
X152400000Y-79293320D02*
X153861855Y-77831465D01*
X154522652Y-77831465D02*
X154522652Y-74764155D01*
D28*
%TO.N,Net-(A3-~{RESET})*%
X160020000Y-91993320D02*
X157480000Y-91993320D01*
D25*
%TO.N,Net-(A3-STEP)*%
X157980453Y-120426579D02*
X156710453Y-121696579D01*
X157980453Y-114300000D02*
X157980453Y-120426579D01*
%TO.N,Net-(A3-DIR)*%
X161324533Y-107767698D02*
X166304533Y-102787698D01*
X153913172Y-125000450D02*
X153913172Y-128425722D01*
X161324533Y-122534696D02*
X161324533Y-107767698D01*
X166304533Y-102787698D02*
X166304533Y-93197853D01*
X153844533Y-124931811D02*
X153844533Y-123979119D01*
X153844533Y-124931811D02*
X153913172Y-125000450D01*
X155277573Y-122546079D02*
X161313150Y-122546079D01*
X153913172Y-128425722D02*
X153247132Y-129091762D01*
X147651985Y-131268751D02*
X149828974Y-129091762D01*
X149828974Y-129091762D02*
X153247132Y-129091762D01*
X166304533Y-93197853D02*
X165100000Y-91993320D01*
X153844533Y-123979119D02*
X155277573Y-122546079D01*
%TO.N,Net-(A1-1B)*%
X159418187Y-111755465D02*
X156144533Y-108481811D01*
X151250000Y-87393760D02*
X146170000Y-82313760D01*
X151009442Y-77643320D02*
X152022652Y-76630110D01*
X147308265Y-77643320D02*
X151009442Y-77643320D01*
X156144533Y-108481811D02*
X156144533Y-100861811D01*
X152022652Y-76630110D02*
X152022652Y-74764155D01*
X160074533Y-111755465D02*
X159418187Y-111755465D01*
X146170000Y-78781585D02*
X147308265Y-77643320D01*
X146170000Y-82313760D02*
X146170000Y-78781585D01*
X156144533Y-100861811D02*
X151250000Y-95967278D01*
X151250000Y-95967278D02*
X151250000Y-87393760D01*
%TO.N,Net-(A1-1A)*%
X153844533Y-107769119D02*
X153844533Y-108721811D01*
X150687133Y-77143320D02*
X147101158Y-77143320D01*
X151522652Y-76307801D02*
X150687133Y-77143320D01*
X148524533Y-102449119D02*
X153844533Y-107769119D01*
X156878187Y-111755465D02*
X157534533Y-111755465D01*
X147101158Y-77143320D02*
X145280453Y-78964025D01*
X145280453Y-82550000D02*
X148524533Y-85794080D01*
X153844533Y-108721811D02*
X156878187Y-111755465D01*
X145280453Y-78964025D02*
X145280453Y-82550000D01*
X151522652Y-74764155D02*
X151522652Y-76307801D01*
X148524533Y-85794080D02*
X148524533Y-102449119D01*
D28*
%TO.N,Net-(A1-~{RESET})*%
X160074533Y-124455465D02*
X157534533Y-124455465D01*
D25*
%TO.N,Net-(A1-DIR)*%
X165154533Y-129717054D02*
X165154533Y-124455465D01*
X153926953Y-132632445D02*
X152726953Y-131432445D01*
X162239142Y-132632445D02*
X153926953Y-132632445D01*
X165154533Y-129717054D02*
X162239142Y-132632445D01*
%TO.N,Net-(J12-Pin_1)*%
X181904368Y-83816257D02*
X181904368Y-76424342D01*
X179682736Y-86037888D02*
X181904368Y-83816257D01*
X179099849Y-86037888D02*
X179682736Y-86037888D01*
X180352418Y-74872392D02*
X179381217Y-74872392D01*
X181904368Y-76424342D02*
X180352418Y-74872392D01*
%TO.N,Net-(J12-Pin_2)*%
X181003937Y-84009581D02*
X177974639Y-84009581D01*
X180718261Y-75945341D02*
X178888910Y-75945341D01*
X181404368Y-76631448D02*
X180718261Y-75945341D01*
X181404368Y-83609150D02*
X181003937Y-84009581D01*
X178881217Y-75937648D02*
X178881217Y-74872392D01*
X178888910Y-75945341D02*
X178881217Y-75937648D01*
X181404368Y-83609150D02*
X181404368Y-76631448D01*
X177974639Y-84009581D02*
X176559849Y-85424371D01*
%TO.N,Net-(J12-Pin_3)*%
X180515210Y-83509581D02*
X180899649Y-83125142D01*
X178381217Y-76360366D02*
X178381217Y-74872392D01*
X178484439Y-76463588D02*
X178381217Y-76360366D01*
X180529401Y-76463588D02*
X178484439Y-76463588D01*
X180899649Y-76833837D02*
X180529401Y-76463588D01*
X174019849Y-86037888D02*
X176548156Y-83509581D01*
X180899649Y-83125142D02*
X180899649Y-76833837D01*
X176548156Y-83509581D02*
X180515210Y-83509581D01*
%TO.N,Net-(J12-Pin_4)*%
X180322294Y-76963588D02*
X180399649Y-77040943D01*
X177881217Y-74872392D02*
X177881217Y-76758777D01*
X172679849Y-84837888D02*
X171479849Y-86037888D01*
X177881217Y-76758777D02*
X178086028Y-76963588D01*
X172679849Y-84146564D02*
X172679849Y-84837888D01*
X180399649Y-77040943D02*
X180399649Y-82918035D01*
X178086028Y-76963588D02*
X180322294Y-76963588D01*
X173816832Y-83009581D02*
X172679849Y-84146564D01*
X180308103Y-83009581D02*
X173816832Y-83009581D01*
X180399649Y-82918035D02*
X180308103Y-83009581D01*
%TO.N,Net-(J10-Pin_1)*%
X170302294Y-79413588D02*
X170642294Y-79753588D01*
X175381217Y-74872392D02*
X175381217Y-76136739D01*
X170302294Y-77476445D02*
X170302294Y-79413588D01*
X170642294Y-79753588D02*
X176779314Y-79753588D01*
X175381217Y-76136739D02*
X175054368Y-76463588D01*
X175054368Y-76463588D02*
X171315151Y-76463588D01*
X176779314Y-79753588D02*
X179112516Y-82086790D01*
X171315151Y-76463588D02*
X170302294Y-77476445D01*
%TO.N,Net-(J10-Pin_2)*%
X171199241Y-75872392D02*
X169802294Y-77269339D01*
X174881217Y-75822392D02*
X174831217Y-75872392D01*
X170435188Y-80253588D02*
X175012110Y-80253588D01*
X169802294Y-77269339D02*
X169802294Y-79620695D01*
X174831217Y-75872392D02*
X171199241Y-75872392D01*
X175012110Y-80253588D02*
X176568103Y-81809581D01*
X174881217Y-74872392D02*
X174881217Y-75822392D01*
X169802294Y-79620695D02*
X170435188Y-80253588D01*
%TO.N,Net-(J10-Pin_3)*%
X174381217Y-73922392D02*
X174381217Y-74872392D01*
X170995459Y-83286790D02*
X168802294Y-81093625D01*
X168802294Y-81093625D02*
X168802294Y-76855127D01*
X174032516Y-82086790D02*
X172832516Y-83286790D01*
X168802294Y-76855127D02*
X171785029Y-73872392D01*
X174331217Y-73872392D02*
X174381217Y-73922392D01*
X171785029Y-73872392D02*
X174331217Y-73872392D01*
X172832516Y-83286790D02*
X170995459Y-83286790D01*
%TO.N,Net-(J10-Pin_4)*%
X169302294Y-77062233D02*
X171492135Y-74872392D01*
X171492516Y-82086790D02*
X169302294Y-79896568D01*
X171492135Y-74872392D02*
X173881217Y-74872392D01*
X169302294Y-79896568D02*
X169302294Y-77062233D01*
%TO.N,Net-(J11-Pin_1)*%
X177381217Y-74872392D02*
X177381217Y-77265454D01*
X177381217Y-77265454D02*
X178279351Y-78163588D01*
X178279351Y-78163588D02*
X179122294Y-78163588D01*
%TO.N,Net-(J11-Pin_2)*%
X176582294Y-78163588D02*
X176881217Y-77864665D01*
X176881217Y-77864665D02*
X176881217Y-74872392D01*
%TO.N,Net-(J11-Pin_3)*%
X176381217Y-76906739D02*
X176324368Y-76963588D01*
X175335997Y-77712828D02*
X175335997Y-78069717D01*
X176381217Y-74872392D02*
X176381217Y-76906739D01*
X176324368Y-76963588D02*
X176085237Y-76963588D01*
X174136165Y-78069717D02*
X174042294Y-78163588D01*
X176085237Y-76963588D02*
X175335997Y-77712828D01*
X175335997Y-78069717D02*
X174136165Y-78069717D01*
%TO.N,Net-(J11-Pin_4)*%
X175378130Y-76963588D02*
X172702294Y-76963588D01*
X175881217Y-76460501D02*
X175378130Y-76963588D01*
X175881217Y-74872392D02*
X175881217Y-76460501D01*
X172702294Y-76963588D02*
X171502294Y-78163588D01*
D27*
%TO.N,unconnected-(J8-MountPin-PadMP)*%
X157922652Y-71514155D02*
X148622652Y-71514155D01*
%TO.N,unconnected-(J12-MountPin-PadMP)*%
X171981217Y-71622392D02*
X181281217Y-71622392D01*
%TD*%
%TA.AperFunction,Conductor*%
%TO.N,GND*%
G36*
X149888245Y-126012600D02*
G01*
X149944407Y-126026435D01*
X149988183Y-126064240D01*
X150010049Y-126117789D01*
X150005247Y-126175431D01*
X149974821Y-126224623D01*
X149609508Y-126587081D01*
X149574578Y-126611437D01*
X149500247Y-126646099D01*
X149500236Y-126646105D01*
X149495343Y-126648387D01*
X149490921Y-126651482D01*
X149490911Y-126651489D01*
X149306206Y-126780821D01*
X149306201Y-126780824D01*
X149301771Y-126783927D01*
X149297947Y-126787751D01*
X149179457Y-126906241D01*
X149126710Y-126937536D01*
X149065418Y-126939725D01*
X149010573Y-126912272D01*
X148975594Y-126861893D01*
X148929623Y-126738642D01*
X148921209Y-126723232D01*
X148845673Y-126622329D01*
X148833264Y-126609920D01*
X148732361Y-126534384D01*
X148716949Y-126525969D01*
X148597813Y-126481533D01*
X148582839Y-126477995D01*
X148534286Y-126472775D01*
X148527690Y-126472422D01*
X147771668Y-126472422D01*
X147709317Y-126455605D01*
X147663877Y-126409717D01*
X147647674Y-126347204D01*
X147649362Y-126175431D01*
X147649883Y-126122409D01*
X147667027Y-126060709D01*
X147712670Y-126015789D01*
X147774634Y-125999632D01*
X149888245Y-126012600D01*
G37*
%TD.AperFunction*%
%TD*%
M02*
