%TF.GenerationSoftware,KiCad,Pcbnew,(7.0.0)*%
%TF.CreationDate,2023-05-19T14:17:50+07:00*%
%TF.ProjectId,wonder-reader-mk2-v2,776f6e64-6572-42d7-9265-616465722d6d,rev?*%
%TF.SameCoordinates,Original*%
%TF.FileFunction,Soldermask,Top*%
%TF.FilePolarity,Negative*%
%FSLAX46Y46*%
G04 Gerber Fmt 4.6, Leading zero omitted, Abs format (unit mm)*
G04 Created by KiCad (PCBNEW (7.0.0)) date 2023-05-19 14:17:50*
%MOMM*%
%LPD*%
G01*
G04 APERTURE LIST*
%ADD10R,1.600000X1.600000*%
%ADD11O,1.600000X1.600000*%
%ADD12R,2.000000X1.500000*%
%ADD13R,2.000000X3.800000*%
%ADD14R,0.300000X1.300000*%
%ADD15R,1.800000X2.200000*%
%ADD16C,1.600000*%
%ADD17R,1.700000X1.700000*%
%ADD18O,1.700000X1.700000*%
%ADD19C,2.200000*%
%ADD20R,2.000000X1.200000*%
%ADD21O,2.000000X1.200000*%
%ADD22R,1.530000X1.530000*%
%ADD23C,1.530000*%
%ADD24O,1.200000X2.000000*%
G04 APERTURE END LIST*
%TO.C,R1*%
G36*
G01*
X134726743Y-109728175D02*
X134726743Y-108828175D01*
G75*
G02*
X134976743Y-108578175I250000J0D01*
G01*
X135501743Y-108578175D01*
G75*
G02*
X135751743Y-108828175I0J-250000D01*
G01*
X135751743Y-109728175D01*
G75*
G02*
X135501743Y-109978175I-250000J0D01*
G01*
X134976743Y-109978175D01*
G75*
G02*
X134726743Y-109728175I0J250000D01*
G01*
G37*
G36*
G01*
X136551743Y-109728175D02*
X136551743Y-108828175D01*
G75*
G02*
X136801743Y-108578175I250000J0D01*
G01*
X137326743Y-108578175D01*
G75*
G02*
X137576743Y-108828175I0J-250000D01*
G01*
X137576743Y-109728175D01*
G75*
G02*
X137326743Y-109978175I-250000J0D01*
G01*
X136801743Y-109978175D01*
G75*
G02*
X136551743Y-109728175I0J250000D01*
G01*
G37*
%TD*%
D10*
%TO.C,A1*%
X165154532Y-111755464D03*
D11*
X162614532Y-111755464D03*
X160074532Y-111755464D03*
X157534532Y-111755464D03*
X154994532Y-111755464D03*
X152454532Y-111755464D03*
X149914532Y-111755464D03*
X147374532Y-111755464D03*
X147374532Y-124455464D03*
X149914532Y-124455464D03*
X152454532Y-124455464D03*
X154994532Y-124455464D03*
X157534532Y-124455464D03*
X160074532Y-124455464D03*
X162614532Y-124455464D03*
X165154532Y-124455464D03*
%TD*%
D12*
%TO.C,U3*%
X108314890Y-120562520D03*
X108314890Y-122862520D03*
D13*
X114614890Y-122862520D03*
D12*
X108314890Y-125162520D03*
%TD*%
D14*
%TO.C,J12*%
X179381216Y-74872391D03*
X178881216Y-74872391D03*
X178381216Y-74872391D03*
X177881216Y-74872391D03*
X177381216Y-74872391D03*
X176881216Y-74872391D03*
X176381216Y-74872391D03*
X175881216Y-74872391D03*
X175381216Y-74872391D03*
X174881216Y-74872391D03*
X174381216Y-74872391D03*
X173881216Y-74872391D03*
D15*
X181281216Y-71622391D03*
X171981216Y-71622391D03*
%TD*%
D10*
%TO.C,U5*%
X125616850Y-130944114D03*
D11*
X125616850Y-128404114D03*
X125616850Y-125864114D03*
X125616850Y-123324114D03*
X125616850Y-120784114D03*
X125616850Y-118244114D03*
X125616850Y-115704114D03*
X125616850Y-113164114D03*
X117996850Y-113164114D03*
X117996850Y-115704114D03*
X117996850Y-118244114D03*
X117996850Y-120784114D03*
X117996850Y-123324114D03*
X117996850Y-125864114D03*
X117996850Y-128404114D03*
X117996850Y-130944114D03*
%TD*%
D16*
%TO.C,C1*%
X132541682Y-130270696D03*
X132541682Y-125270696D03*
%TD*%
D17*
%TO.C,J3*%
X139787204Y-108660183D03*
D18*
X139787204Y-111200183D03*
X139787204Y-113740183D03*
X139787204Y-116280183D03*
X139787204Y-118820183D03*
X139787204Y-121360183D03*
X139787204Y-123900183D03*
X139787204Y-126440183D03*
X139787204Y-128980183D03*
X139787204Y-131520183D03*
%TD*%
D17*
%TO.C,J7*%
X147646952Y-131432444D03*
D18*
X150186952Y-131432444D03*
X152726952Y-131432444D03*
X155266952Y-131432444D03*
X157806952Y-131432444D03*
%TD*%
D19*
%TO.C,H3*%
X163272561Y-73597706D03*
%TD*%
D17*
%TO.C,J6*%
X137638552Y-72413937D03*
D18*
X137638552Y-74953937D03*
X137638552Y-77493937D03*
X137638552Y-80033937D03*
%TD*%
D16*
%TO.C,C2*%
X110968553Y-129915928D03*
X112968553Y-129915928D03*
%TD*%
D14*
%TO.C,J8*%
X156022651Y-74764154D03*
X155522651Y-74764154D03*
X155022651Y-74764154D03*
X154522651Y-74764154D03*
X154022651Y-74764154D03*
X153522651Y-74764154D03*
X153022651Y-74764154D03*
X152522651Y-74764154D03*
X152022651Y-74764154D03*
X151522651Y-74764154D03*
X151022651Y-74764154D03*
X150522651Y-74764154D03*
D15*
X157922651Y-71514154D03*
X148622651Y-71514154D03*
%TD*%
D10*
%TO.C,A2*%
X165154532Y-95545464D03*
D11*
X162614532Y-95545464D03*
X160074532Y-95545464D03*
X157534532Y-95545464D03*
X154994532Y-95545464D03*
X152454532Y-95545464D03*
X149914532Y-95545464D03*
X147374532Y-95545464D03*
X147374532Y-108245464D03*
X149914532Y-108245464D03*
X152454532Y-108245464D03*
X154994532Y-108245464D03*
X157534532Y-108245464D03*
X160074532Y-108245464D03*
X162614532Y-108245464D03*
X165154532Y-108245464D03*
%TD*%
%TO.C,R3*%
G36*
G01*
X127579854Y-74986004D02*
X126679854Y-74986004D01*
G75*
G02*
X126429854Y-74736004I0J250000D01*
G01*
X126429854Y-74211004D01*
G75*
G02*
X126679854Y-73961004I250000J0D01*
G01*
X127579854Y-73961004D01*
G75*
G02*
X127829854Y-74211004I0J-250000D01*
G01*
X127829854Y-74736004D01*
G75*
G02*
X127579854Y-74986004I-250000J0D01*
G01*
G37*
G36*
G01*
X127579854Y-73161004D02*
X126679854Y-73161004D01*
G75*
G02*
X126429854Y-72911004I0J250000D01*
G01*
X126429854Y-72386004D01*
G75*
G02*
X126679854Y-72136004I250000J0D01*
G01*
X127579854Y-72136004D01*
G75*
G02*
X127829854Y-72386004I0J-250000D01*
G01*
X127829854Y-72911004D01*
G75*
G02*
X127579854Y-73161004I-250000J0D01*
G01*
G37*
%TD*%
D17*
%TO.C,J4*%
X135246505Y-114775026D03*
D18*
X135246505Y-112235026D03*
%TD*%
D17*
%TO.C,J5*%
X133828552Y-76213937D03*
D18*
X133828552Y-78753937D03*
X133828552Y-81293937D03*
X133828552Y-83833937D03*
X133828552Y-86373937D03*
X133828552Y-88913937D03*
X133828552Y-91453937D03*
X133828552Y-93993937D03*
%TD*%
%TO.C,R4*%
G36*
G01*
X127571053Y-82705000D02*
X126671053Y-82705000D01*
G75*
G02*
X126421053Y-82455000I0J250000D01*
G01*
X126421053Y-81930000D01*
G75*
G02*
X126671053Y-81680000I250000J0D01*
G01*
X127571053Y-81680000D01*
G75*
G02*
X127821053Y-81930000I0J-250000D01*
G01*
X127821053Y-82455000D01*
G75*
G02*
X127571053Y-82705000I-250000J0D01*
G01*
G37*
G36*
G01*
X127571053Y-80880000D02*
X126671053Y-80880000D01*
G75*
G02*
X126421053Y-80630000I0J250000D01*
G01*
X126421053Y-80105000D01*
G75*
G02*
X126671053Y-79855000I250000J0D01*
G01*
X127571053Y-79855000D01*
G75*
G02*
X127821053Y-80105000I0J-250000D01*
G01*
X127821053Y-80630000D01*
G75*
G02*
X127571053Y-80880000I-250000J0D01*
G01*
G37*
%TD*%
D20*
%TO.C,U1*%
X105014959Y-71094589D03*
D21*
X105014959Y-73634589D03*
X105014959Y-76174589D03*
X105014959Y-78714589D03*
X105014959Y-81254589D03*
X105014959Y-83794589D03*
X105014959Y-86334589D03*
X105014959Y-88874589D03*
X105014959Y-91414589D03*
X105014959Y-93954589D03*
X105014959Y-96494589D03*
X105014959Y-99034589D03*
X105014959Y-101574589D03*
X105014959Y-104114589D03*
X105014959Y-106654589D03*
X105014959Y-109194589D03*
X105014959Y-111734589D03*
X105014959Y-114274589D03*
X105014959Y-116814589D03*
X130411279Y-116811869D03*
X130411279Y-114271869D03*
X130414959Y-111734589D03*
X130414959Y-109194589D03*
X130414959Y-106654589D03*
X130414959Y-104114589D03*
X130414959Y-101574589D03*
X130414959Y-99034589D03*
X130414959Y-96494589D03*
X130414959Y-93954589D03*
X130414959Y-91414589D03*
X130414959Y-88874589D03*
X130414959Y-86334589D03*
X130414959Y-83794589D03*
X130414959Y-81254589D03*
X130414959Y-78714589D03*
X130414959Y-76174589D03*
X130414959Y-73634589D03*
X130414959Y-71094589D03*
%TD*%
D17*
%TO.C,J11*%
X179122293Y-78163587D03*
D18*
X176582293Y-78163587D03*
X174042293Y-78163587D03*
X171502293Y-78163587D03*
%TD*%
%TO.C,R5*%
G36*
G01*
X127571053Y-86488938D02*
X126671053Y-86488938D01*
G75*
G02*
X126421053Y-86238938I0J250000D01*
G01*
X126421053Y-85713938D01*
G75*
G02*
X126671053Y-85463938I250000J0D01*
G01*
X127571053Y-85463938D01*
G75*
G02*
X127821053Y-85713938I0J-250000D01*
G01*
X127821053Y-86238938D01*
G75*
G02*
X127571053Y-86488938I-250000J0D01*
G01*
G37*
G36*
G01*
X127571053Y-84663938D02*
X126671053Y-84663938D01*
G75*
G02*
X126421053Y-84413938I0J250000D01*
G01*
X126421053Y-83888938D01*
G75*
G02*
X126671053Y-83638938I250000J0D01*
G01*
X127571053Y-83638938D01*
G75*
G02*
X127821053Y-83888938I0J-250000D01*
G01*
X127821053Y-84413938D01*
G75*
G02*
X127571053Y-84663938I-250000J0D01*
G01*
G37*
%TD*%
D17*
%TO.C,J2*%
X105210563Y-124253439D03*
D18*
X105210563Y-121713439D03*
%TD*%
D19*
%TO.C,H4*%
X163272561Y-129477706D03*
%TD*%
D17*
%TO.C,J9*%
X179099848Y-85424370D03*
D18*
X176559848Y-85424370D03*
X174019848Y-85424370D03*
X171479848Y-85424370D03*
%TD*%
D17*
%TO.C,J10*%
X179108102Y-81809580D03*
D18*
X176568102Y-81809580D03*
X174028102Y-81809580D03*
X171488102Y-81809580D03*
%TD*%
D17*
%TO.C,J1*%
X133828552Y-97803937D03*
D18*
X133828552Y-100343937D03*
X133828552Y-102883937D03*
X133828552Y-105423937D03*
%TD*%
D19*
%TO.C,H1*%
X139815203Y-92863749D03*
%TD*%
D10*
%TO.C,A3*%
X165099999Y-79293319D03*
D11*
X162559999Y-79293319D03*
X160019999Y-79293319D03*
X157479999Y-79293319D03*
X154939999Y-79293319D03*
X152399999Y-79293319D03*
X149859999Y-79293319D03*
X147319999Y-79293319D03*
X147319999Y-91993319D03*
X149859999Y-91993319D03*
X152399999Y-91993319D03*
X154939999Y-91993319D03*
X157479999Y-91993319D03*
X160019999Y-91993319D03*
X162559999Y-91993319D03*
X165099999Y-91993319D03*
%TD*%
D22*
%TO.C,U2*%
X108776201Y-88658017D03*
D23*
X108776202Y-91198018D03*
X108776202Y-93738018D03*
X108776202Y-96278018D03*
X108776202Y-98818018D03*
X108776202Y-101358018D03*
X108776202Y-103898018D03*
X108776202Y-106438018D03*
X121476202Y-106438018D03*
X121476202Y-103898018D03*
X121476202Y-101358018D03*
X121476202Y-98818018D03*
X121476202Y-96278018D03*
X121476202Y-93738018D03*
X121476202Y-91198018D03*
X121476202Y-88658018D03*
%TD*%
D19*
%TO.C,H2*%
X105888553Y-130823938D03*
%TD*%
D17*
%TO.C,J14*%
X147633171Y-127822421D03*
D18*
X150173171Y-127822421D03*
X152713171Y-127822421D03*
X155253171Y-127822421D03*
X157793171Y-127822421D03*
%TD*%
%TO.C,R2*%
G36*
G01*
X127554034Y-78884819D02*
X126654034Y-78884819D01*
G75*
G02*
X126404034Y-78634819I0J250000D01*
G01*
X126404034Y-78109819D01*
G75*
G02*
X126654034Y-77859819I250000J0D01*
G01*
X127554034Y-77859819D01*
G75*
G02*
X127804034Y-78109819I0J-250000D01*
G01*
X127804034Y-78634819D01*
G75*
G02*
X127554034Y-78884819I-250000J0D01*
G01*
G37*
G36*
G01*
X127554034Y-77059819D02*
X126654034Y-77059819D01*
G75*
G02*
X126404034Y-76809819I0J250000D01*
G01*
X126404034Y-76284819D01*
G75*
G02*
X126654034Y-76034819I250000J0D01*
G01*
X127554034Y-76034819D01*
G75*
G02*
X127804034Y-76284819I0J-250000D01*
G01*
X127804034Y-76809819D01*
G75*
G02*
X127554034Y-77059819I-250000J0D01*
G01*
G37*
%TD*%
D24*
%TO.C,U6*%
X108440671Y-84452759D03*
X110980671Y-84452759D03*
X113520671Y-84452759D03*
X116060671Y-84452759D03*
X118600671Y-84452759D03*
X121140671Y-84452759D03*
X123680671Y-84452759D03*
%TD*%
M02*
