%TF.GenerationSoftware,KiCad,Pcbnew,(7.0.0)*%
%TF.CreationDate,2023-05-19T14:17:50+07:00*%
%TF.ProjectId,wonder-reader-mk2-v2,776f6e64-6572-42d7-9265-616465722d6d,rev?*%
%TF.SameCoordinates,Original*%
%TF.FileFunction,Legend,Top*%
%TF.FilePolarity,Positive*%
%FSLAX46Y46*%
G04 Gerber Fmt 4.6, Leading zero omitted, Abs format (unit mm)*
G04 Created by KiCad (PCBNEW (7.0.0)) date 2023-05-19 14:17:50*
%MOMM*%
%LPD*%
G01*
G04 APERTURE LIST*
%ADD10C,0.150000*%
%ADD11C,0.100000*%
%ADD12C,0.120000*%
%ADD13C,0.127000*%
%ADD14C,0.200000*%
G04 APERTURE END LIST*
D10*
%TO.C,R1*%
X137042476Y-108093617D02*
X136709143Y-107617427D01*
X136471048Y-108093617D02*
X136471048Y-107093617D01*
X136471048Y-107093617D02*
X136852000Y-107093617D01*
X136852000Y-107093617D02*
X136947238Y-107141237D01*
X136947238Y-107141237D02*
X136994857Y-107188856D01*
X136994857Y-107188856D02*
X137042476Y-107284094D01*
X137042476Y-107284094D02*
X137042476Y-107426951D01*
X137042476Y-107426951D02*
X136994857Y-107522189D01*
X136994857Y-107522189D02*
X136947238Y-107569808D01*
X136947238Y-107569808D02*
X136852000Y-107617427D01*
X136852000Y-107617427D02*
X136471048Y-107617427D01*
X137994857Y-108093617D02*
X137423429Y-108093617D01*
X137709143Y-108093617D02*
X137709143Y-107093617D01*
X137709143Y-107093617D02*
X137613905Y-107236475D01*
X137613905Y-107236475D02*
X137518667Y-107331713D01*
X137518667Y-107331713D02*
X137423429Y-107379332D01*
%TO.C,A1*%
X159332119Y-118824285D02*
X159332119Y-118348095D01*
X159617833Y-118919523D02*
X158617833Y-118586190D01*
X158617833Y-118586190D02*
X159617833Y-118252857D01*
X159617833Y-117395714D02*
X159617833Y-117967142D01*
X159617833Y-117681428D02*
X158617833Y-117681428D01*
X158617833Y-117681428D02*
X158760691Y-117776666D01*
X158760691Y-117776666D02*
X158855929Y-117871904D01*
X158855929Y-117871904D02*
X158903548Y-117967142D01*
%TO.C,U3*%
X110700547Y-120070629D02*
X110700547Y-120880153D01*
X110700547Y-120880153D02*
X110748166Y-120975391D01*
X110748166Y-120975391D02*
X110795785Y-121023010D01*
X110795785Y-121023010D02*
X110891023Y-121070629D01*
X110891023Y-121070629D02*
X111081499Y-121070629D01*
X111081499Y-121070629D02*
X111176737Y-121023010D01*
X111176737Y-121023010D02*
X111224356Y-120975391D01*
X111224356Y-120975391D02*
X111271975Y-120880153D01*
X111271975Y-120880153D02*
X111271975Y-120070629D01*
X111652928Y-120070629D02*
X112271975Y-120070629D01*
X112271975Y-120070629D02*
X111938642Y-120451582D01*
X111938642Y-120451582D02*
X112081499Y-120451582D01*
X112081499Y-120451582D02*
X112176737Y-120499201D01*
X112176737Y-120499201D02*
X112224356Y-120546820D01*
X112224356Y-120546820D02*
X112271975Y-120642058D01*
X112271975Y-120642058D02*
X112271975Y-120880153D01*
X112271975Y-120880153D02*
X112224356Y-120975391D01*
X112224356Y-120975391D02*
X112176737Y-121023010D01*
X112176737Y-121023010D02*
X112081499Y-121070629D01*
X112081499Y-121070629D02*
X111795785Y-121070629D01*
X111795785Y-121070629D02*
X111700547Y-121023010D01*
X111700547Y-121023010D02*
X111652928Y-120975391D01*
%TO.C,J12*%
X175821693Y-73027380D02*
X175821693Y-73741666D01*
X175821693Y-73741666D02*
X175774074Y-73884523D01*
X175774074Y-73884523D02*
X175678836Y-73979761D01*
X175678836Y-73979761D02*
X175535979Y-74027380D01*
X175535979Y-74027380D02*
X175440741Y-74027380D01*
X176821693Y-74027380D02*
X176250265Y-74027380D01*
X176535979Y-74027380D02*
X176535979Y-73027380D01*
X176535979Y-73027380D02*
X176440741Y-73170238D01*
X176440741Y-73170238D02*
X176345503Y-73265476D01*
X176345503Y-73265476D02*
X176250265Y-73313095D01*
X177202646Y-73122619D02*
X177250265Y-73075000D01*
X177250265Y-73075000D02*
X177345503Y-73027380D01*
X177345503Y-73027380D02*
X177583598Y-73027380D01*
X177583598Y-73027380D02*
X177678836Y-73075000D01*
X177678836Y-73075000D02*
X177726455Y-73122619D01*
X177726455Y-73122619D02*
X177774074Y-73217857D01*
X177774074Y-73217857D02*
X177774074Y-73313095D01*
X177774074Y-73313095D02*
X177726455Y-73455952D01*
X177726455Y-73455952D02*
X177155027Y-74027380D01*
X177155027Y-74027380D02*
X177774074Y-74027380D01*
%TO.C,U5*%
X121044946Y-127651318D02*
X121044946Y-128460842D01*
X121044946Y-128460842D02*
X121092565Y-128556080D01*
X121092565Y-128556080D02*
X121140184Y-128603699D01*
X121140184Y-128603699D02*
X121235422Y-128651318D01*
X121235422Y-128651318D02*
X121425898Y-128651318D01*
X121425898Y-128651318D02*
X121521136Y-128603699D01*
X121521136Y-128603699D02*
X121568755Y-128556080D01*
X121568755Y-128556080D02*
X121616374Y-128460842D01*
X121616374Y-128460842D02*
X121616374Y-127651318D01*
X122568755Y-127651318D02*
X122092565Y-127651318D01*
X122092565Y-127651318D02*
X122044946Y-128127509D01*
X122044946Y-128127509D02*
X122092565Y-128079890D01*
X122092565Y-128079890D02*
X122187803Y-128032271D01*
X122187803Y-128032271D02*
X122425898Y-128032271D01*
X122425898Y-128032271D02*
X122521136Y-128079890D01*
X122521136Y-128079890D02*
X122568755Y-128127509D01*
X122568755Y-128127509D02*
X122616374Y-128222747D01*
X122616374Y-128222747D02*
X122616374Y-128460842D01*
X122616374Y-128460842D02*
X122568755Y-128556080D01*
X122568755Y-128556080D02*
X122521136Y-128603699D01*
X122521136Y-128603699D02*
X122425898Y-128651318D01*
X122425898Y-128651318D02*
X122187803Y-128651318D01*
X122187803Y-128651318D02*
X122092565Y-128603699D01*
X122092565Y-128603699D02*
X122044946Y-128556080D01*
%TO.C,C1*%
X126563824Y-127937362D02*
X126611443Y-127984981D01*
X126611443Y-127984981D02*
X126659062Y-128127838D01*
X126659062Y-128127838D02*
X126659062Y-128223076D01*
X126659062Y-128223076D02*
X126611443Y-128365933D01*
X126611443Y-128365933D02*
X126516205Y-128461171D01*
X126516205Y-128461171D02*
X126420967Y-128508790D01*
X126420967Y-128508790D02*
X126230491Y-128556409D01*
X126230491Y-128556409D02*
X126087634Y-128556409D01*
X126087634Y-128556409D02*
X125897158Y-128508790D01*
X125897158Y-128508790D02*
X125801920Y-128461171D01*
X125801920Y-128461171D02*
X125706682Y-128365933D01*
X125706682Y-128365933D02*
X125659062Y-128223076D01*
X125659062Y-128223076D02*
X125659062Y-128127838D01*
X125659062Y-128127838D02*
X125706682Y-127984981D01*
X125706682Y-127984981D02*
X125754301Y-127937362D01*
X126659062Y-126984981D02*
X126659062Y-127556409D01*
X126659062Y-127270695D02*
X125659062Y-127270695D01*
X125659062Y-127270695D02*
X125801920Y-127365933D01*
X125801920Y-127365933D02*
X125897158Y-127461171D01*
X125897158Y-127461171D02*
X125944777Y-127556409D01*
%TO.C,J3*%
X139453871Y-105697564D02*
X139453871Y-106411850D01*
X139453871Y-106411850D02*
X139406252Y-106554707D01*
X139406252Y-106554707D02*
X139311014Y-106649945D01*
X139311014Y-106649945D02*
X139168157Y-106697564D01*
X139168157Y-106697564D02*
X139072919Y-106697564D01*
X139834824Y-105697564D02*
X140453871Y-105697564D01*
X140453871Y-105697564D02*
X140120538Y-106078517D01*
X140120538Y-106078517D02*
X140263395Y-106078517D01*
X140263395Y-106078517D02*
X140358633Y-106126136D01*
X140358633Y-106126136D02*
X140406252Y-106173755D01*
X140406252Y-106173755D02*
X140453871Y-106268993D01*
X140453871Y-106268993D02*
X140453871Y-106507088D01*
X140453871Y-106507088D02*
X140406252Y-106602326D01*
X140406252Y-106602326D02*
X140358633Y-106649945D01*
X140358633Y-106649945D02*
X140263395Y-106697564D01*
X140263395Y-106697564D02*
X139977681Y-106697564D01*
X139977681Y-106697564D02*
X139882443Y-106649945D01*
X139882443Y-106649945D02*
X139834824Y-106602326D01*
%TO.C,J7*%
X159474539Y-131856386D02*
X160188825Y-131856386D01*
X160188825Y-131856386D02*
X160331682Y-131904005D01*
X160331682Y-131904005D02*
X160426920Y-131999243D01*
X160426920Y-131999243D02*
X160474539Y-132142100D01*
X160474539Y-132142100D02*
X160474539Y-132237338D01*
X159474539Y-131475433D02*
X159474539Y-130808767D01*
X159474539Y-130808767D02*
X160474539Y-131237338D01*
%TO.C,H3*%
X160439941Y-74359610D02*
X159439941Y-74359610D01*
X159916132Y-74359610D02*
X159916132Y-73788182D01*
X160439941Y-73788182D02*
X159439941Y-73788182D01*
X159439941Y-73407229D02*
X159439941Y-72788182D01*
X159439941Y-72788182D02*
X159820894Y-73121515D01*
X159820894Y-73121515D02*
X159820894Y-72978658D01*
X159820894Y-72978658D02*
X159868513Y-72883420D01*
X159868513Y-72883420D02*
X159916132Y-72835801D01*
X159916132Y-72835801D02*
X160011370Y-72788182D01*
X160011370Y-72788182D02*
X160249465Y-72788182D01*
X160249465Y-72788182D02*
X160344703Y-72835801D01*
X160344703Y-72835801D02*
X160392322Y-72883420D01*
X160392322Y-72883420D02*
X160439941Y-72978658D01*
X160439941Y-72978658D02*
X160439941Y-73264372D01*
X160439941Y-73264372D02*
X160392322Y-73359610D01*
X160392322Y-73359610D02*
X160344703Y-73407229D01*
%TO.C,J6*%
X134459385Y-70671817D02*
X134459385Y-71386103D01*
X134459385Y-71386103D02*
X134411766Y-71528960D01*
X134411766Y-71528960D02*
X134316528Y-71624198D01*
X134316528Y-71624198D02*
X134173671Y-71671817D01*
X134173671Y-71671817D02*
X134078433Y-71671817D01*
X135364147Y-70671817D02*
X135173671Y-70671817D01*
X135173671Y-70671817D02*
X135078433Y-70719437D01*
X135078433Y-70719437D02*
X135030814Y-70767056D01*
X135030814Y-70767056D02*
X134935576Y-70909913D01*
X134935576Y-70909913D02*
X134887957Y-71100389D01*
X134887957Y-71100389D02*
X134887957Y-71481341D01*
X134887957Y-71481341D02*
X134935576Y-71576579D01*
X134935576Y-71576579D02*
X134983195Y-71624198D01*
X134983195Y-71624198D02*
X135078433Y-71671817D01*
X135078433Y-71671817D02*
X135268909Y-71671817D01*
X135268909Y-71671817D02*
X135364147Y-71624198D01*
X135364147Y-71624198D02*
X135411766Y-71576579D01*
X135411766Y-71576579D02*
X135459385Y-71481341D01*
X135459385Y-71481341D02*
X135459385Y-71243246D01*
X135459385Y-71243246D02*
X135411766Y-71148008D01*
X135411766Y-71148008D02*
X135364147Y-71100389D01*
X135364147Y-71100389D02*
X135268909Y-71052770D01*
X135268909Y-71052770D02*
X135078433Y-71052770D01*
X135078433Y-71052770D02*
X134983195Y-71100389D01*
X134983195Y-71100389D02*
X134935576Y-71148008D01*
X134935576Y-71148008D02*
X134887957Y-71243246D01*
%TO.C,C2*%
X111755282Y-128645641D02*
X111707663Y-128693260D01*
X111707663Y-128693260D02*
X111564806Y-128740879D01*
X111564806Y-128740879D02*
X111469568Y-128740879D01*
X111469568Y-128740879D02*
X111326711Y-128693260D01*
X111326711Y-128693260D02*
X111231473Y-128598022D01*
X111231473Y-128598022D02*
X111183854Y-128502784D01*
X111183854Y-128502784D02*
X111136235Y-128312308D01*
X111136235Y-128312308D02*
X111136235Y-128169451D01*
X111136235Y-128169451D02*
X111183854Y-127978975D01*
X111183854Y-127978975D02*
X111231473Y-127883737D01*
X111231473Y-127883737D02*
X111326711Y-127788499D01*
X111326711Y-127788499D02*
X111469568Y-127740879D01*
X111469568Y-127740879D02*
X111564806Y-127740879D01*
X111564806Y-127740879D02*
X111707663Y-127788499D01*
X111707663Y-127788499D02*
X111755282Y-127836118D01*
X112136235Y-127836118D02*
X112183854Y-127788499D01*
X112183854Y-127788499D02*
X112279092Y-127740879D01*
X112279092Y-127740879D02*
X112517187Y-127740879D01*
X112517187Y-127740879D02*
X112612425Y-127788499D01*
X112612425Y-127788499D02*
X112660044Y-127836118D01*
X112660044Y-127836118D02*
X112707663Y-127931356D01*
X112707663Y-127931356D02*
X112707663Y-128026594D01*
X112707663Y-128026594D02*
X112660044Y-128169451D01*
X112660044Y-128169451D02*
X112088616Y-128740879D01*
X112088616Y-128740879D02*
X112707663Y-128740879D01*
%TO.C,J8*%
X152939318Y-75981535D02*
X152939318Y-76695821D01*
X152939318Y-76695821D02*
X152891699Y-76838678D01*
X152891699Y-76838678D02*
X152796461Y-76933916D01*
X152796461Y-76933916D02*
X152653604Y-76981535D01*
X152653604Y-76981535D02*
X152558366Y-76981535D01*
X153558366Y-76410107D02*
X153463128Y-76362488D01*
X153463128Y-76362488D02*
X153415509Y-76314869D01*
X153415509Y-76314869D02*
X153367890Y-76219631D01*
X153367890Y-76219631D02*
X153367890Y-76172012D01*
X153367890Y-76172012D02*
X153415509Y-76076774D01*
X153415509Y-76076774D02*
X153463128Y-76029155D01*
X153463128Y-76029155D02*
X153558366Y-75981535D01*
X153558366Y-75981535D02*
X153748842Y-75981535D01*
X153748842Y-75981535D02*
X153844080Y-76029155D01*
X153844080Y-76029155D02*
X153891699Y-76076774D01*
X153891699Y-76076774D02*
X153939318Y-76172012D01*
X153939318Y-76172012D02*
X153939318Y-76219631D01*
X153939318Y-76219631D02*
X153891699Y-76314869D01*
X153891699Y-76314869D02*
X153844080Y-76362488D01*
X153844080Y-76362488D02*
X153748842Y-76410107D01*
X153748842Y-76410107D02*
X153558366Y-76410107D01*
X153558366Y-76410107D02*
X153463128Y-76457726D01*
X153463128Y-76457726D02*
X153415509Y-76505345D01*
X153415509Y-76505345D02*
X153367890Y-76600583D01*
X153367890Y-76600583D02*
X153367890Y-76791059D01*
X153367890Y-76791059D02*
X153415509Y-76886297D01*
X153415509Y-76886297D02*
X153463128Y-76933916D01*
X153463128Y-76933916D02*
X153558366Y-76981535D01*
X153558366Y-76981535D02*
X153748842Y-76981535D01*
X153748842Y-76981535D02*
X153844080Y-76933916D01*
X153844080Y-76933916D02*
X153891699Y-76886297D01*
X153891699Y-76886297D02*
X153939318Y-76791059D01*
X153939318Y-76791059D02*
X153939318Y-76600583D01*
X153939318Y-76600583D02*
X153891699Y-76505345D01*
X153891699Y-76505345D02*
X153844080Y-76457726D01*
X153844080Y-76457726D02*
X153748842Y-76410107D01*
%TO.C,A2*%
X159332119Y-102609750D02*
X159332119Y-102133560D01*
X159617833Y-102704988D02*
X158617833Y-102371655D01*
X158617833Y-102371655D02*
X159617833Y-102038322D01*
X158713072Y-101752607D02*
X158665453Y-101704988D01*
X158665453Y-101704988D02*
X158617833Y-101609750D01*
X158617833Y-101609750D02*
X158617833Y-101371655D01*
X158617833Y-101371655D02*
X158665453Y-101276417D01*
X158665453Y-101276417D02*
X158713072Y-101228798D01*
X158713072Y-101228798D02*
X158808310Y-101181179D01*
X158808310Y-101181179D02*
X158903548Y-101181179D01*
X158903548Y-101181179D02*
X159046405Y-101228798D01*
X159046405Y-101228798D02*
X159617833Y-101800226D01*
X159617833Y-101800226D02*
X159617833Y-101181179D01*
%TO.C,R3*%
X125847234Y-73727670D02*
X125371044Y-74061003D01*
X125847234Y-74299098D02*
X124847234Y-74299098D01*
X124847234Y-74299098D02*
X124847234Y-73918146D01*
X124847234Y-73918146D02*
X124894854Y-73822908D01*
X124894854Y-73822908D02*
X124942473Y-73775289D01*
X124942473Y-73775289D02*
X125037711Y-73727670D01*
X125037711Y-73727670D02*
X125180568Y-73727670D01*
X125180568Y-73727670D02*
X125275806Y-73775289D01*
X125275806Y-73775289D02*
X125323425Y-73822908D01*
X125323425Y-73822908D02*
X125371044Y-73918146D01*
X125371044Y-73918146D02*
X125371044Y-74299098D01*
X124847234Y-73394336D02*
X124847234Y-72775289D01*
X124847234Y-72775289D02*
X125228187Y-73108622D01*
X125228187Y-73108622D02*
X125228187Y-72965765D01*
X125228187Y-72965765D02*
X125275806Y-72870527D01*
X125275806Y-72870527D02*
X125323425Y-72822908D01*
X125323425Y-72822908D02*
X125418663Y-72775289D01*
X125418663Y-72775289D02*
X125656758Y-72775289D01*
X125656758Y-72775289D02*
X125751996Y-72822908D01*
X125751996Y-72822908D02*
X125799615Y-72870527D01*
X125799615Y-72870527D02*
X125847234Y-72965765D01*
X125847234Y-72965765D02*
X125847234Y-73251479D01*
X125847234Y-73251479D02*
X125799615Y-73346717D01*
X125799615Y-73346717D02*
X125751996Y-73394336D01*
%TO.C,J4*%
X134913172Y-116472407D02*
X134913172Y-117186693D01*
X134913172Y-117186693D02*
X134865553Y-117329550D01*
X134865553Y-117329550D02*
X134770315Y-117424788D01*
X134770315Y-117424788D02*
X134627458Y-117472407D01*
X134627458Y-117472407D02*
X134532220Y-117472407D01*
X135817934Y-116805741D02*
X135817934Y-117472407D01*
X135579839Y-116424788D02*
X135341744Y-117139074D01*
X135341744Y-117139074D02*
X135960791Y-117139074D01*
%TO.C,J5*%
X133495219Y-73251318D02*
X133495219Y-73965604D01*
X133495219Y-73965604D02*
X133447600Y-74108461D01*
X133447600Y-74108461D02*
X133352362Y-74203699D01*
X133352362Y-74203699D02*
X133209505Y-74251318D01*
X133209505Y-74251318D02*
X133114267Y-74251318D01*
X134447600Y-73251318D02*
X133971410Y-73251318D01*
X133971410Y-73251318D02*
X133923791Y-73727509D01*
X133923791Y-73727509D02*
X133971410Y-73679890D01*
X133971410Y-73679890D02*
X134066648Y-73632271D01*
X134066648Y-73632271D02*
X134304743Y-73632271D01*
X134304743Y-73632271D02*
X134399981Y-73679890D01*
X134399981Y-73679890D02*
X134447600Y-73727509D01*
X134447600Y-73727509D02*
X134495219Y-73822747D01*
X134495219Y-73822747D02*
X134495219Y-74060842D01*
X134495219Y-74060842D02*
X134447600Y-74156080D01*
X134447600Y-74156080D02*
X134399981Y-74203699D01*
X134399981Y-74203699D02*
X134304743Y-74251318D01*
X134304743Y-74251318D02*
X134066648Y-74251318D01*
X134066648Y-74251318D02*
X133971410Y-74203699D01*
X133971410Y-74203699D02*
X133923791Y-74156080D01*
%TO.C,R4*%
X125838433Y-81446666D02*
X125362243Y-81779999D01*
X125838433Y-82018094D02*
X124838433Y-82018094D01*
X124838433Y-82018094D02*
X124838433Y-81637142D01*
X124838433Y-81637142D02*
X124886053Y-81541904D01*
X124886053Y-81541904D02*
X124933672Y-81494285D01*
X124933672Y-81494285D02*
X125028910Y-81446666D01*
X125028910Y-81446666D02*
X125171767Y-81446666D01*
X125171767Y-81446666D02*
X125267005Y-81494285D01*
X125267005Y-81494285D02*
X125314624Y-81541904D01*
X125314624Y-81541904D02*
X125362243Y-81637142D01*
X125362243Y-81637142D02*
X125362243Y-82018094D01*
X125171767Y-80589523D02*
X125838433Y-80589523D01*
X124790814Y-80827618D02*
X125505100Y-81065713D01*
X125505100Y-81065713D02*
X125505100Y-80446666D01*
%TO.C,J11*%
X180819674Y-78973111D02*
X181533960Y-78973111D01*
X181533960Y-78973111D02*
X181676817Y-79020730D01*
X181676817Y-79020730D02*
X181772055Y-79115968D01*
X181772055Y-79115968D02*
X181819674Y-79258825D01*
X181819674Y-79258825D02*
X181819674Y-79354063D01*
X181819674Y-77973111D02*
X181819674Y-78544539D01*
X181819674Y-78258825D02*
X180819674Y-78258825D01*
X180819674Y-78258825D02*
X180962532Y-78354063D01*
X180962532Y-78354063D02*
X181057770Y-78449301D01*
X181057770Y-78449301D02*
X181105389Y-78544539D01*
X181819674Y-77020730D02*
X181819674Y-77592158D01*
X181819674Y-77306444D02*
X180819674Y-77306444D01*
X180819674Y-77306444D02*
X180962532Y-77401682D01*
X180962532Y-77401682D02*
X181057770Y-77496920D01*
X181057770Y-77496920D02*
X181105389Y-77592158D01*
%TO.C,R5*%
X126049943Y-85119666D02*
X125573753Y-85452999D01*
X126049943Y-85691094D02*
X125049943Y-85691094D01*
X125049943Y-85691094D02*
X125049943Y-85310142D01*
X125049943Y-85310142D02*
X125097563Y-85214904D01*
X125097563Y-85214904D02*
X125145182Y-85167285D01*
X125145182Y-85167285D02*
X125240420Y-85119666D01*
X125240420Y-85119666D02*
X125383277Y-85119666D01*
X125383277Y-85119666D02*
X125478515Y-85167285D01*
X125478515Y-85167285D02*
X125526134Y-85214904D01*
X125526134Y-85214904D02*
X125573753Y-85310142D01*
X125573753Y-85310142D02*
X125573753Y-85691094D01*
X125049943Y-84214904D02*
X125049943Y-84691094D01*
X125049943Y-84691094D02*
X125526134Y-84738713D01*
X125526134Y-84738713D02*
X125478515Y-84691094D01*
X125478515Y-84691094D02*
X125430896Y-84595856D01*
X125430896Y-84595856D02*
X125430896Y-84357761D01*
X125430896Y-84357761D02*
X125478515Y-84262523D01*
X125478515Y-84262523D02*
X125526134Y-84214904D01*
X125526134Y-84214904D02*
X125621372Y-84167285D01*
X125621372Y-84167285D02*
X125859467Y-84167285D01*
X125859467Y-84167285D02*
X125954705Y-84214904D01*
X125954705Y-84214904D02*
X126002324Y-84262523D01*
X126002324Y-84262523D02*
X126049943Y-84357761D01*
X126049943Y-84357761D02*
X126049943Y-84595856D01*
X126049943Y-84595856D02*
X126002324Y-84691094D01*
X126002324Y-84691094D02*
X125954705Y-84738713D01*
%TO.C,J2*%
X104877230Y-125950820D02*
X104877230Y-126665106D01*
X104877230Y-126665106D02*
X104829611Y-126807963D01*
X104829611Y-126807963D02*
X104734373Y-126903201D01*
X104734373Y-126903201D02*
X104591516Y-126950820D01*
X104591516Y-126950820D02*
X104496278Y-126950820D01*
X105305802Y-126046059D02*
X105353421Y-125998440D01*
X105353421Y-125998440D02*
X105448659Y-125950820D01*
X105448659Y-125950820D02*
X105686754Y-125950820D01*
X105686754Y-125950820D02*
X105781992Y-125998440D01*
X105781992Y-125998440D02*
X105829611Y-126046059D01*
X105829611Y-126046059D02*
X105877230Y-126141297D01*
X105877230Y-126141297D02*
X105877230Y-126236535D01*
X105877230Y-126236535D02*
X105829611Y-126379392D01*
X105829611Y-126379392D02*
X105258183Y-126950820D01*
X105258183Y-126950820D02*
X105877230Y-126950820D01*
%TO.C,J9*%
X180797229Y-85757704D02*
X181511515Y-85757704D01*
X181511515Y-85757704D02*
X181654372Y-85805323D01*
X181654372Y-85805323D02*
X181749610Y-85900561D01*
X181749610Y-85900561D02*
X181797229Y-86043418D01*
X181797229Y-86043418D02*
X181797229Y-86138656D01*
X181797229Y-85233894D02*
X181797229Y-85043418D01*
X181797229Y-85043418D02*
X181749610Y-84948180D01*
X181749610Y-84948180D02*
X181701991Y-84900561D01*
X181701991Y-84900561D02*
X181559134Y-84805323D01*
X181559134Y-84805323D02*
X181368658Y-84757704D01*
X181368658Y-84757704D02*
X180987706Y-84757704D01*
X180987706Y-84757704D02*
X180892468Y-84805323D01*
X180892468Y-84805323D02*
X180844849Y-84852942D01*
X180844849Y-84852942D02*
X180797229Y-84948180D01*
X180797229Y-84948180D02*
X180797229Y-85138656D01*
X180797229Y-85138656D02*
X180844849Y-85233894D01*
X180844849Y-85233894D02*
X180892468Y-85281513D01*
X180892468Y-85281513D02*
X180987706Y-85329132D01*
X180987706Y-85329132D02*
X181225801Y-85329132D01*
X181225801Y-85329132D02*
X181321039Y-85281513D01*
X181321039Y-85281513D02*
X181368658Y-85233894D01*
X181368658Y-85233894D02*
X181416277Y-85138656D01*
X181416277Y-85138656D02*
X181416277Y-84948180D01*
X181416277Y-84948180D02*
X181368658Y-84852942D01*
X181368658Y-84852942D02*
X181321039Y-84805323D01*
X181321039Y-84805323D02*
X181225801Y-84757704D01*
%TO.C,J10*%
X180805483Y-82619104D02*
X181519769Y-82619104D01*
X181519769Y-82619104D02*
X181662626Y-82666723D01*
X181662626Y-82666723D02*
X181757864Y-82761961D01*
X181757864Y-82761961D02*
X181805483Y-82904818D01*
X181805483Y-82904818D02*
X181805483Y-83000056D01*
X181805483Y-81619104D02*
X181805483Y-82190532D01*
X181805483Y-81904818D02*
X180805483Y-81904818D01*
X180805483Y-81904818D02*
X180948341Y-82000056D01*
X180948341Y-82000056D02*
X181043579Y-82095294D01*
X181043579Y-82095294D02*
X181091198Y-82190532D01*
X180805483Y-81000056D02*
X180805483Y-80904818D01*
X180805483Y-80904818D02*
X180853103Y-80809580D01*
X180853103Y-80809580D02*
X180900722Y-80761961D01*
X180900722Y-80761961D02*
X180995960Y-80714342D01*
X180995960Y-80714342D02*
X181186436Y-80666723D01*
X181186436Y-80666723D02*
X181424531Y-80666723D01*
X181424531Y-80666723D02*
X181615007Y-80714342D01*
X181615007Y-80714342D02*
X181710245Y-80761961D01*
X181710245Y-80761961D02*
X181757864Y-80809580D01*
X181757864Y-80809580D02*
X181805483Y-80904818D01*
X181805483Y-80904818D02*
X181805483Y-81000056D01*
X181805483Y-81000056D02*
X181757864Y-81095294D01*
X181757864Y-81095294D02*
X181710245Y-81142913D01*
X181710245Y-81142913D02*
X181615007Y-81190532D01*
X181615007Y-81190532D02*
X181424531Y-81238151D01*
X181424531Y-81238151D02*
X181186436Y-81238151D01*
X181186436Y-81238151D02*
X180995960Y-81190532D01*
X180995960Y-81190532D02*
X180900722Y-81142913D01*
X180900722Y-81142913D02*
X180853103Y-81095294D01*
X180853103Y-81095294D02*
X180805483Y-81000056D01*
%TO.C,J1*%
X133479844Y-107029792D02*
X133479844Y-107744078D01*
X133479844Y-107744078D02*
X133432225Y-107886935D01*
X133432225Y-107886935D02*
X133336987Y-107982173D01*
X133336987Y-107982173D02*
X133194130Y-108029792D01*
X133194130Y-108029792D02*
X133098892Y-108029792D01*
X134479844Y-108029792D02*
X133908416Y-108029792D01*
X134194130Y-108029792D02*
X134194130Y-107029792D01*
X134194130Y-107029792D02*
X134098892Y-107172650D01*
X134098892Y-107172650D02*
X134003654Y-107267888D01*
X134003654Y-107267888D02*
X133908416Y-107315507D01*
%TO.C,A3*%
X158062119Y-86357605D02*
X158062119Y-85881415D01*
X158347833Y-86452843D02*
X157347833Y-86119510D01*
X157347833Y-86119510D02*
X158347833Y-85786177D01*
X157347833Y-85548081D02*
X157347833Y-84929034D01*
X157347833Y-84929034D02*
X157728786Y-85262367D01*
X157728786Y-85262367D02*
X157728786Y-85119510D01*
X157728786Y-85119510D02*
X157776405Y-85024272D01*
X157776405Y-85024272D02*
X157824024Y-84976653D01*
X157824024Y-84976653D02*
X157919262Y-84929034D01*
X157919262Y-84929034D02*
X158157357Y-84929034D01*
X158157357Y-84929034D02*
X158252595Y-84976653D01*
X158252595Y-84976653D02*
X158300214Y-85024272D01*
X158300214Y-85024272D02*
X158347833Y-85119510D01*
X158347833Y-85119510D02*
X158347833Y-85405224D01*
X158347833Y-85405224D02*
X158300214Y-85500462D01*
X158300214Y-85500462D02*
X158252595Y-85548081D01*
%TO.C,U2*%
X114208141Y-96965379D02*
X114208141Y-97774903D01*
X114208141Y-97774903D02*
X114255760Y-97870141D01*
X114255760Y-97870141D02*
X114303379Y-97917760D01*
X114303379Y-97917760D02*
X114398617Y-97965379D01*
X114398617Y-97965379D02*
X114589093Y-97965379D01*
X114589093Y-97965379D02*
X114684331Y-97917760D01*
X114684331Y-97917760D02*
X114731950Y-97870141D01*
X114731950Y-97870141D02*
X114779569Y-97774903D01*
X114779569Y-97774903D02*
X114779569Y-96965379D01*
X115208141Y-97060618D02*
X115255760Y-97012999D01*
X115255760Y-97012999D02*
X115350998Y-96965379D01*
X115350998Y-96965379D02*
X115589093Y-96965379D01*
X115589093Y-96965379D02*
X115684331Y-97012999D01*
X115684331Y-97012999D02*
X115731950Y-97060618D01*
X115731950Y-97060618D02*
X115779569Y-97155856D01*
X115779569Y-97155856D02*
X115779569Y-97251094D01*
X115779569Y-97251094D02*
X115731950Y-97393951D01*
X115731950Y-97393951D02*
X115160522Y-97965379D01*
X115160522Y-97965379D02*
X115779569Y-97965379D01*
%TO.C,J14*%
X159460758Y-128722553D02*
X160175044Y-128722553D01*
X160175044Y-128722553D02*
X160317901Y-128770172D01*
X160317901Y-128770172D02*
X160413139Y-128865410D01*
X160413139Y-128865410D02*
X160460758Y-129008267D01*
X160460758Y-129008267D02*
X160460758Y-129103505D01*
X160460758Y-127722553D02*
X160460758Y-128293981D01*
X160460758Y-128008267D02*
X159460758Y-128008267D01*
X159460758Y-128008267D02*
X159603616Y-128103505D01*
X159603616Y-128103505D02*
X159698854Y-128198743D01*
X159698854Y-128198743D02*
X159746473Y-128293981D01*
X159794092Y-126865410D02*
X160460758Y-126865410D01*
X159413139Y-127103505D02*
X160127425Y-127341600D01*
X160127425Y-127341600D02*
X160127425Y-126722553D01*
%TO.C,R2*%
X125821414Y-77626485D02*
X125345224Y-77959818D01*
X125821414Y-78197913D02*
X124821414Y-78197913D01*
X124821414Y-78197913D02*
X124821414Y-77816961D01*
X124821414Y-77816961D02*
X124869034Y-77721723D01*
X124869034Y-77721723D02*
X124916653Y-77674104D01*
X124916653Y-77674104D02*
X125011891Y-77626485D01*
X125011891Y-77626485D02*
X125154748Y-77626485D01*
X125154748Y-77626485D02*
X125249986Y-77674104D01*
X125249986Y-77674104D02*
X125297605Y-77721723D01*
X125297605Y-77721723D02*
X125345224Y-77816961D01*
X125345224Y-77816961D02*
X125345224Y-78197913D01*
X124916653Y-77245532D02*
X124869034Y-77197913D01*
X124869034Y-77197913D02*
X124821414Y-77102675D01*
X124821414Y-77102675D02*
X124821414Y-76864580D01*
X124821414Y-76864580D02*
X124869034Y-76769342D01*
X124869034Y-76769342D02*
X124916653Y-76721723D01*
X124916653Y-76721723D02*
X125011891Y-76674104D01*
X125011891Y-76674104D02*
X125107129Y-76674104D01*
X125107129Y-76674104D02*
X125249986Y-76721723D01*
X125249986Y-76721723D02*
X125821414Y-77293151D01*
X125821414Y-77293151D02*
X125821414Y-76674104D01*
%TO.C,U6*%
X115315516Y-81579891D02*
X115315516Y-82389415D01*
X115315516Y-82389415D02*
X115363135Y-82484653D01*
X115363135Y-82484653D02*
X115410754Y-82532272D01*
X115410754Y-82532272D02*
X115505992Y-82579891D01*
X115505992Y-82579891D02*
X115696468Y-82579891D01*
X115696468Y-82579891D02*
X115791706Y-82532272D01*
X115791706Y-82532272D02*
X115839325Y-82484653D01*
X115839325Y-82484653D02*
X115886944Y-82389415D01*
X115886944Y-82389415D02*
X115886944Y-81579891D01*
X116791706Y-81579891D02*
X116601230Y-81579891D01*
X116601230Y-81579891D02*
X116505992Y-81627511D01*
X116505992Y-81627511D02*
X116458373Y-81675130D01*
X116458373Y-81675130D02*
X116363135Y-81817987D01*
X116363135Y-81817987D02*
X116315516Y-82008463D01*
X116315516Y-82008463D02*
X116315516Y-82389415D01*
X116315516Y-82389415D02*
X116363135Y-82484653D01*
X116363135Y-82484653D02*
X116410754Y-82532272D01*
X116410754Y-82532272D02*
X116505992Y-82579891D01*
X116505992Y-82579891D02*
X116696468Y-82579891D01*
X116696468Y-82579891D02*
X116791706Y-82532272D01*
X116791706Y-82532272D02*
X116839325Y-82484653D01*
X116839325Y-82484653D02*
X116886944Y-82389415D01*
X116886944Y-82389415D02*
X116886944Y-82151320D01*
X116886944Y-82151320D02*
X116839325Y-82056082D01*
X116839325Y-82056082D02*
X116791706Y-82008463D01*
X116791706Y-82008463D02*
X116696468Y-81960844D01*
X116696468Y-81960844D02*
X116505992Y-81960844D01*
X116505992Y-81960844D02*
X116410754Y-82008463D01*
X116410754Y-82008463D02*
X116363135Y-82056082D01*
X116363135Y-82056082D02*
X116315516Y-82151320D01*
D11*
X112140559Y-79359530D02*
X112140559Y-78359530D01*
X112140559Y-78359530D02*
X112473892Y-79073816D01*
X112473892Y-79073816D02*
X112807225Y-78359530D01*
X112807225Y-78359530D02*
X112807225Y-79359530D01*
X113235797Y-79073816D02*
X113711987Y-79073816D01*
X113140559Y-79359530D02*
X113473892Y-78359530D01*
X113473892Y-78359530D02*
X113807225Y-79359530D01*
X114045321Y-78359530D02*
X114711987Y-79359530D01*
X114711987Y-78359530D02*
X114045321Y-79359530D01*
X115140559Y-79359530D02*
X115331035Y-79359530D01*
X115331035Y-79359530D02*
X115426273Y-79311911D01*
X115426273Y-79311911D02*
X115473892Y-79264292D01*
X115473892Y-79264292D02*
X115569130Y-79121435D01*
X115569130Y-79121435D02*
X115616749Y-78930959D01*
X115616749Y-78930959D02*
X115616749Y-78550007D01*
X115616749Y-78550007D02*
X115569130Y-78454769D01*
X115569130Y-78454769D02*
X115521511Y-78407150D01*
X115521511Y-78407150D02*
X115426273Y-78359530D01*
X115426273Y-78359530D02*
X115235797Y-78359530D01*
X115235797Y-78359530D02*
X115140559Y-78407150D01*
X115140559Y-78407150D02*
X115092940Y-78454769D01*
X115092940Y-78454769D02*
X115045321Y-78550007D01*
X115045321Y-78550007D02*
X115045321Y-78788102D01*
X115045321Y-78788102D02*
X115092940Y-78883340D01*
X115092940Y-78883340D02*
X115140559Y-78930959D01*
X115140559Y-78930959D02*
X115235797Y-78978578D01*
X115235797Y-78978578D02*
X115426273Y-78978578D01*
X115426273Y-78978578D02*
X115521511Y-78930959D01*
X115521511Y-78930959D02*
X115569130Y-78883340D01*
X115569130Y-78883340D02*
X115616749Y-78788102D01*
X116188178Y-78788102D02*
X116092940Y-78740483D01*
X116092940Y-78740483D02*
X116045321Y-78692864D01*
X116045321Y-78692864D02*
X115997702Y-78597626D01*
X115997702Y-78597626D02*
X115997702Y-78550007D01*
X115997702Y-78550007D02*
X116045321Y-78454769D01*
X116045321Y-78454769D02*
X116092940Y-78407150D01*
X116092940Y-78407150D02*
X116188178Y-78359530D01*
X116188178Y-78359530D02*
X116378654Y-78359530D01*
X116378654Y-78359530D02*
X116473892Y-78407150D01*
X116473892Y-78407150D02*
X116521511Y-78454769D01*
X116521511Y-78454769D02*
X116569130Y-78550007D01*
X116569130Y-78550007D02*
X116569130Y-78597626D01*
X116569130Y-78597626D02*
X116521511Y-78692864D01*
X116521511Y-78692864D02*
X116473892Y-78740483D01*
X116473892Y-78740483D02*
X116378654Y-78788102D01*
X116378654Y-78788102D02*
X116188178Y-78788102D01*
X116188178Y-78788102D02*
X116092940Y-78835721D01*
X116092940Y-78835721D02*
X116045321Y-78883340D01*
X116045321Y-78883340D02*
X115997702Y-78978578D01*
X115997702Y-78978578D02*
X115997702Y-79169054D01*
X115997702Y-79169054D02*
X116045321Y-79264292D01*
X116045321Y-79264292D02*
X116092940Y-79311911D01*
X116092940Y-79311911D02*
X116188178Y-79359530D01*
X116188178Y-79359530D02*
X116378654Y-79359530D01*
X116378654Y-79359530D02*
X116473892Y-79311911D01*
X116473892Y-79311911D02*
X116521511Y-79264292D01*
X116521511Y-79264292D02*
X116569130Y-79169054D01*
X116569130Y-79169054D02*
X116569130Y-78978578D01*
X116569130Y-78978578D02*
X116521511Y-78883340D01*
X116521511Y-78883340D02*
X116473892Y-78835721D01*
X116473892Y-78835721D02*
X116378654Y-78788102D01*
X116902464Y-78359530D02*
X117521511Y-78359530D01*
X117521511Y-78359530D02*
X117188178Y-78740483D01*
X117188178Y-78740483D02*
X117331035Y-78740483D01*
X117331035Y-78740483D02*
X117426273Y-78788102D01*
X117426273Y-78788102D02*
X117473892Y-78835721D01*
X117473892Y-78835721D02*
X117521511Y-78930959D01*
X117521511Y-78930959D02*
X117521511Y-79169054D01*
X117521511Y-79169054D02*
X117473892Y-79264292D01*
X117473892Y-79264292D02*
X117426273Y-79311911D01*
X117426273Y-79311911D02*
X117331035Y-79359530D01*
X117331035Y-79359530D02*
X117045321Y-79359530D01*
X117045321Y-79359530D02*
X116950083Y-79311911D01*
X116950083Y-79311911D02*
X116902464Y-79264292D01*
X118426273Y-78359530D02*
X117950083Y-78359530D01*
X117950083Y-78359530D02*
X117902464Y-78835721D01*
X117902464Y-78835721D02*
X117950083Y-78788102D01*
X117950083Y-78788102D02*
X118045321Y-78740483D01*
X118045321Y-78740483D02*
X118283416Y-78740483D01*
X118283416Y-78740483D02*
X118378654Y-78788102D01*
X118378654Y-78788102D02*
X118426273Y-78835721D01*
X118426273Y-78835721D02*
X118473892Y-78930959D01*
X118473892Y-78930959D02*
X118473892Y-79169054D01*
X118473892Y-79169054D02*
X118426273Y-79264292D01*
X118426273Y-79264292D02*
X118378654Y-79311911D01*
X118378654Y-79311911D02*
X118283416Y-79359530D01*
X118283416Y-79359530D02*
X118045321Y-79359530D01*
X118045321Y-79359530D02*
X117950083Y-79311911D01*
X117950083Y-79311911D02*
X117902464Y-79264292D01*
X118807226Y-78359530D02*
X119473892Y-78359530D01*
X119473892Y-78359530D02*
X119045321Y-79359530D01*
X119807226Y-79073816D02*
X120283416Y-79073816D01*
X119711988Y-79359530D02*
X120045321Y-78359530D01*
X120045321Y-78359530D02*
X120378654Y-79359530D01*
D12*
%TO.C,R1*%
X135924679Y-108543175D02*
X136378807Y-108543175D01*
X135924679Y-110013175D02*
X136378807Y-110013175D01*
%TO.C,A1*%
X166554533Y-110355465D02*
X165154533Y-110355465D01*
X163884533Y-110355465D02*
X145974533Y-110355465D01*
X145974533Y-110355465D02*
X145974533Y-125855465D01*
X166554533Y-111755465D02*
X166554533Y-110355465D01*
X166554533Y-113025465D02*
X163884533Y-113025465D01*
X163884533Y-113025465D02*
X163884533Y-110355465D01*
X163884533Y-113025465D02*
X145974533Y-113025465D01*
X166554533Y-123185465D02*
X145974533Y-123185465D01*
X166554533Y-125855465D02*
X166554533Y-113025465D01*
X145974533Y-125855465D02*
X166554533Y-125855465D01*
%TO.C,U3*%
X107364891Y-119452521D02*
X113374891Y-119452521D01*
X109614891Y-126272521D02*
X113374891Y-126272521D01*
X113374891Y-119452521D02*
X113374891Y-120712521D01*
X113374891Y-126272521D02*
X113374891Y-125012521D01*
%TO.C,J12*%
X181281217Y-74322392D02*
X181281217Y-72982392D01*
X179791217Y-74322392D02*
X181281217Y-74322392D01*
X179791217Y-74322392D02*
X179791217Y-75522392D01*
X173471217Y-74322392D02*
X171981217Y-74322392D01*
X171981217Y-74322392D02*
X171981217Y-72982392D01*
%TO.C,U5*%
X124456851Y-132274115D02*
X124456851Y-111834115D01*
X124456851Y-111834115D02*
X119156851Y-111834115D01*
X122806851Y-132274115D02*
X124456851Y-132274115D01*
X119156851Y-132274115D02*
X120806851Y-132274115D01*
X119156851Y-111834115D02*
X119156851Y-132274115D01*
X122806851Y-132274115D02*
G75*
G03*
X120806851Y-132274115I-1000000J0D01*
G01*
%TO.C,C1*%
X137661682Y-127770696D02*
G75*
G03*
X137661682Y-127770696I-5120000J0D01*
G01*
%TO.C,J3*%
X138457205Y-107330184D02*
X139787205Y-107330184D01*
X138457205Y-108660184D02*
X138457205Y-107330184D01*
X138457205Y-109930184D02*
X138457205Y-132850184D01*
X138457205Y-109930184D02*
X141117205Y-109930184D01*
X138457205Y-132850184D02*
X141117205Y-132850184D01*
X141117205Y-109930184D02*
X141117205Y-132850184D01*
%TO.C,J7*%
X146316953Y-132762445D02*
X146316953Y-131432445D01*
X147646953Y-132762445D02*
X146316953Y-132762445D01*
X148916953Y-132762445D02*
X159136953Y-132762445D01*
X148916953Y-132762445D02*
X148916953Y-130102445D01*
X159136953Y-132762445D02*
X159136953Y-130102445D01*
X148916953Y-130102445D02*
X159136953Y-130102445D01*
%TO.C,J6*%
X136308553Y-71083938D02*
X137638553Y-71083938D01*
X136308553Y-72413938D02*
X136308553Y-71083938D01*
X136308553Y-73683938D02*
X136308553Y-81363938D01*
X136308553Y-73683938D02*
X138968553Y-73683938D01*
X136308553Y-81363938D02*
X138968553Y-81363938D01*
X138968553Y-73683938D02*
X138968553Y-81363938D01*
%TO.C,C2*%
X114588553Y-129915928D02*
G75*
G03*
X114588553Y-129915928I-2620000J0D01*
G01*
%TO.C,J8*%
X157922652Y-74214155D02*
X157922652Y-72874155D01*
X156432652Y-74214155D02*
X157922652Y-74214155D01*
X156432652Y-74214155D02*
X156432652Y-75414155D01*
X150112652Y-74214155D02*
X148622652Y-74214155D01*
X148622652Y-74214155D02*
X148622652Y-72874155D01*
%TO.C,A2*%
X166554533Y-94145465D02*
X165154533Y-94145465D01*
X163884533Y-94145465D02*
X145974533Y-94145465D01*
X145974533Y-94145465D02*
X145974533Y-109645465D01*
X166554533Y-95545465D02*
X166554533Y-94145465D01*
X166554533Y-96815465D02*
X163884533Y-96815465D01*
X163884533Y-96815465D02*
X163884533Y-94145465D01*
X163884533Y-96815465D02*
X145974533Y-96815465D01*
X166554533Y-106975465D02*
X145974533Y-106975465D01*
X166554533Y-109645465D02*
X166554533Y-96815465D01*
X145974533Y-109645465D02*
X166554533Y-109645465D01*
%TO.C,R3*%
X126394854Y-73788068D02*
X126394854Y-73333940D01*
X127864854Y-73788068D02*
X127864854Y-73333940D01*
%TO.C,J4*%
X136576506Y-116105027D02*
X135246506Y-116105027D01*
X136576506Y-114775027D02*
X136576506Y-116105027D01*
X136576506Y-113505027D02*
X136576506Y-110905027D01*
X136576506Y-113505027D02*
X133916506Y-113505027D01*
X136576506Y-110905027D02*
X133916506Y-110905027D01*
X133916506Y-113505027D02*
X133916506Y-110905027D01*
%TO.C,J5*%
X132498553Y-74883938D02*
X133828553Y-74883938D01*
X132498553Y-76213938D02*
X132498553Y-74883938D01*
X132498553Y-77483938D02*
X132498553Y-95323938D01*
X132498553Y-77483938D02*
X135158553Y-77483938D01*
X132498553Y-95323938D02*
X135158553Y-95323938D01*
X135158553Y-77483938D02*
X135158553Y-95323938D01*
%TO.C,R4*%
X126386053Y-81507064D02*
X126386053Y-81052936D01*
X127856053Y-81507064D02*
X127856053Y-81052936D01*
%TO.C,G\u002A\u002A\u002A*%
G36*
X136390413Y-97136444D02*
G01*
X136388460Y-97138397D01*
X136386506Y-97136444D01*
X136388460Y-97134491D01*
X136390413Y-97136444D01*
G37*
G36*
X136390413Y-103629031D02*
G01*
X136388460Y-103630984D01*
X136386506Y-103629031D01*
X136388460Y-103627077D01*
X136390413Y-103629031D01*
G37*
G36*
X136441197Y-97144257D02*
G01*
X136439244Y-97146210D01*
X136437291Y-97144257D01*
X136439244Y-97142303D01*
X136441197Y-97144257D01*
G37*
G36*
X136441197Y-103621218D02*
G01*
X136439244Y-103623171D01*
X136437291Y-103621218D01*
X136439244Y-103619264D01*
X136441197Y-103621218D01*
G37*
G36*
X136472449Y-97152070D02*
G01*
X136470496Y-97154023D01*
X136468543Y-97152070D01*
X136470496Y-97150116D01*
X136472449Y-97152070D01*
G37*
G36*
X136472449Y-103613405D02*
G01*
X136470496Y-103615358D01*
X136468543Y-103613405D01*
X136470496Y-103611451D01*
X136472449Y-103613405D01*
G37*
G36*
X136488075Y-97155976D02*
G01*
X136486122Y-97157929D01*
X136484169Y-97155976D01*
X136486122Y-97154023D01*
X136488075Y-97155976D01*
G37*
G36*
X136488075Y-103609498D02*
G01*
X136486122Y-103611451D01*
X136484169Y-103609498D01*
X136486122Y-103607545D01*
X136488075Y-103609498D01*
G37*
G36*
X136499795Y-97159883D02*
G01*
X136497841Y-97161836D01*
X136495888Y-97159883D01*
X136497841Y-97157929D01*
X136499795Y-97159883D01*
G37*
G36*
X136499795Y-103605592D02*
G01*
X136497841Y-103607545D01*
X136495888Y-103605592D01*
X136497841Y-103603638D01*
X136499795Y-103605592D01*
G37*
G36*
X136511514Y-97163789D02*
G01*
X136509561Y-97165742D01*
X136507608Y-97163789D01*
X136509561Y-97161836D01*
X136511514Y-97163789D01*
G37*
G36*
X136511514Y-103601685D02*
G01*
X136509561Y-103603638D01*
X136507608Y-103601685D01*
X136509561Y-103599732D01*
X136511514Y-103601685D01*
G37*
G36*
X136531046Y-97171602D02*
G01*
X136529093Y-97173555D01*
X136527140Y-97171602D01*
X136529093Y-97169649D01*
X136531046Y-97171602D01*
G37*
G36*
X136531046Y-103593872D02*
G01*
X136529093Y-103595825D01*
X136527140Y-103593872D01*
X136529093Y-103591919D01*
X136531046Y-103593872D01*
G37*
G36*
X136538859Y-97175509D02*
G01*
X136536906Y-97177462D01*
X136534953Y-97175509D01*
X136536906Y-97173555D01*
X136538859Y-97175509D01*
G37*
G36*
X136538859Y-103589966D02*
G01*
X136536906Y-103591919D01*
X136534953Y-103589966D01*
X136536906Y-103588012D01*
X136538859Y-103589966D01*
G37*
G36*
X136593550Y-97202854D02*
G01*
X136591597Y-97204807D01*
X136589644Y-97202854D01*
X136591597Y-97200901D01*
X136593550Y-97202854D01*
G37*
G36*
X136593550Y-103562620D02*
G01*
X136591597Y-103564574D01*
X136589644Y-103562620D01*
X136591597Y-103560667D01*
X136593550Y-103562620D01*
G37*
G36*
X136613083Y-97214574D02*
G01*
X136611130Y-97216527D01*
X136609176Y-97214574D01*
X136611130Y-97212620D01*
X136613083Y-97214574D01*
G37*
G36*
X136613083Y-103550901D02*
G01*
X136611130Y-103552854D01*
X136609176Y-103550901D01*
X136611130Y-103548948D01*
X136613083Y-103550901D01*
G37*
G36*
X136640428Y-97234106D02*
G01*
X136638475Y-97236059D01*
X136636522Y-97234106D01*
X136638475Y-97232153D01*
X136640428Y-97234106D01*
G37*
G36*
X136640428Y-103531368D02*
G01*
X136638475Y-103533322D01*
X136636522Y-103531368D01*
X136638475Y-103529415D01*
X136640428Y-103531368D01*
G37*
G36*
X136741997Y-97335675D02*
G01*
X136740044Y-97337628D01*
X136738090Y-97335675D01*
X136740044Y-97333722D01*
X136741997Y-97335675D01*
G37*
G36*
X136741997Y-103429800D02*
G01*
X136740044Y-103431753D01*
X136738090Y-103429800D01*
X136740044Y-103427846D01*
X136741997Y-103429800D01*
G37*
G36*
X136753716Y-103414174D02*
G01*
X136751763Y-103416127D01*
X136749810Y-103414174D01*
X136751763Y-103412220D01*
X136753716Y-103414174D01*
G37*
G36*
X136761529Y-97363020D02*
G01*
X136759576Y-97364973D01*
X136757623Y-97363020D01*
X136759576Y-97361067D01*
X136761529Y-97363020D01*
G37*
G36*
X136761529Y-103402454D02*
G01*
X136759576Y-103404407D01*
X136757623Y-103402454D01*
X136759576Y-103400501D01*
X136761529Y-103402454D01*
G37*
G36*
X136773249Y-97382553D02*
G01*
X136771296Y-97384506D01*
X136769342Y-97382553D01*
X136771296Y-97380599D01*
X136773249Y-97382553D01*
G37*
G36*
X136773249Y-103382922D02*
G01*
X136771296Y-103384875D01*
X136769342Y-103382922D01*
X136771296Y-103380969D01*
X136773249Y-103382922D01*
G37*
G36*
X136796688Y-103336044D02*
G01*
X136794735Y-103337997D01*
X136792781Y-103336044D01*
X136794735Y-103334091D01*
X136796688Y-103336044D01*
G37*
G36*
X136800594Y-97437244D02*
G01*
X136798641Y-97439197D01*
X136796688Y-97437244D01*
X136798641Y-97435290D01*
X136800594Y-97437244D01*
G37*
G36*
X136800594Y-103328231D02*
G01*
X136798641Y-103330184D01*
X136796688Y-103328231D01*
X136798641Y-103326278D01*
X136800594Y-103328231D01*
G37*
G36*
X136804501Y-97445056D02*
G01*
X136802548Y-97447010D01*
X136800594Y-97445056D01*
X136802548Y-97443103D01*
X136804501Y-97445056D01*
G37*
G36*
X136808407Y-97456776D02*
G01*
X136806454Y-97458729D01*
X136804501Y-97456776D01*
X136806454Y-97454823D01*
X136808407Y-97456776D01*
G37*
G36*
X136812314Y-97464589D02*
G01*
X136810361Y-97466542D01*
X136808407Y-97464589D01*
X136810361Y-97462636D01*
X136812314Y-97464589D01*
G37*
G36*
X136816220Y-97476308D02*
G01*
X136814267Y-97478262D01*
X136812314Y-97476308D01*
X136814267Y-97474355D01*
X136816220Y-97476308D01*
G37*
G36*
X136820127Y-97488028D02*
G01*
X136818174Y-97489981D01*
X136816220Y-97488028D01*
X136818174Y-97486075D01*
X136820127Y-97488028D01*
G37*
G36*
X136824033Y-97503654D02*
G01*
X136822080Y-97505607D01*
X136820127Y-97503654D01*
X136822080Y-97501701D01*
X136824033Y-97503654D01*
G37*
G36*
X136831846Y-97534906D02*
G01*
X136829893Y-97536859D01*
X136827940Y-97534906D01*
X136829893Y-97532953D01*
X136831846Y-97534906D01*
G37*
G36*
X136839659Y-97585690D02*
G01*
X136837706Y-97587643D01*
X136835753Y-97585690D01*
X136837706Y-97583737D01*
X136839659Y-97585690D01*
G37*
G36*
X136240908Y-103620811D02*
G01*
X136239743Y-103622586D01*
X136235781Y-103622863D01*
X136231613Y-103621908D01*
X136233421Y-103620502D01*
X136239526Y-103620037D01*
X136240908Y-103620811D01*
G37*
G36*
X136262475Y-103624490D02*
G01*
X136262966Y-103625916D01*
X136257592Y-103626461D01*
X136252046Y-103625847D01*
X136252709Y-103624490D01*
X136260707Y-103623974D01*
X136262475Y-103624490D01*
G37*
G36*
X136624199Y-97222013D02*
G01*
X136628360Y-97225645D01*
X136628709Y-97226524D01*
X136626855Y-97228129D01*
X136622995Y-97224531D01*
X136622476Y-97223736D01*
X136622016Y-97221063D01*
X136624199Y-97222013D01*
G37*
G36*
X136655451Y-97245452D02*
G01*
X136659644Y-97249386D01*
X136658784Y-97251647D01*
X136658238Y-97251685D01*
X136654934Y-97248911D01*
X136653728Y-97247175D01*
X136653267Y-97244502D01*
X136655451Y-97245452D01*
G37*
G36*
X136725767Y-97315769D02*
G01*
X136729928Y-97319401D01*
X136730277Y-97320279D01*
X136728424Y-97321885D01*
X136724564Y-97318287D01*
X136724045Y-97317492D01*
X136723584Y-97314819D01*
X136725767Y-97315769D01*
G37*
G36*
X136749206Y-97347021D02*
G01*
X136753400Y-97350955D01*
X136752540Y-97353216D01*
X136751994Y-97353254D01*
X136748690Y-97350479D01*
X136747484Y-97348744D01*
X136747023Y-97346071D01*
X136749206Y-97347021D01*
G37*
G36*
X136016366Y-103513494D02*
G01*
X136024530Y-103521128D01*
X136027064Y-103524836D01*
X136025837Y-103525509D01*
X136022696Y-103522888D01*
X136016567Y-103516419D01*
X136015094Y-103514766D01*
X136005624Y-103504023D01*
X136016366Y-103513494D01*
G37*
G36*
X136033068Y-103526735D02*
G01*
X136035899Y-103528917D01*
X136041972Y-103534619D01*
X136041946Y-103537164D01*
X136041260Y-103537228D01*
X136037999Y-103534559D01*
X136034424Y-103530392D01*
X136031045Y-103525765D01*
X136033068Y-103526735D01*
G37*
G36*
X136299632Y-103628300D02*
G01*
X136300546Y-103629356D01*
X136294936Y-103629948D01*
X136290797Y-103629999D01*
X136283232Y-103629614D01*
X136282084Y-103628732D01*
X136284007Y-103628221D01*
X136294185Y-103627592D01*
X136299632Y-103628300D01*
G37*
G36*
X136627483Y-103539752D02*
G01*
X136626755Y-103541135D01*
X136623075Y-103544865D01*
X136622388Y-103545041D01*
X136622121Y-103542518D01*
X136622849Y-103541135D01*
X136626530Y-103537404D01*
X136627217Y-103537228D01*
X136627483Y-103539752D01*
G37*
G36*
X136658735Y-103516313D02*
G01*
X136658007Y-103517696D01*
X136654327Y-103521426D01*
X136653640Y-103521602D01*
X136653373Y-103519079D01*
X136654101Y-103517696D01*
X136657782Y-103513965D01*
X136658469Y-103513789D01*
X136658735Y-103516313D01*
G37*
G36*
X136692189Y-97278735D02*
G01*
X136700353Y-97286370D01*
X136702887Y-97290077D01*
X136701660Y-97290750D01*
X136698519Y-97288130D01*
X136692390Y-97281661D01*
X136690917Y-97280007D01*
X136681446Y-97269264D01*
X136692189Y-97278735D01*
G37*
G36*
X136729052Y-103445996D02*
G01*
X136728324Y-103447379D01*
X136724643Y-103451110D01*
X136723957Y-103451285D01*
X136723690Y-103448762D01*
X136724418Y-103447379D01*
X136728098Y-103443648D01*
X136728785Y-103443472D01*
X136729052Y-103445996D01*
G37*
G36*
X136808288Y-103308698D02*
G01*
X136806343Y-103315118D01*
X136804501Y-103318465D01*
X136801405Y-103321592D01*
X136800714Y-103320418D01*
X136802659Y-103313998D01*
X136804501Y-103310652D01*
X136807596Y-103307525D01*
X136808288Y-103308698D01*
G37*
G36*
X136701327Y-103477177D02*
G01*
X136696307Y-103483209D01*
X136695119Y-103484491D01*
X136688435Y-103491061D01*
X136684227Y-103494210D01*
X136683991Y-103494257D01*
X136685004Y-103491804D01*
X136690025Y-103485772D01*
X136691213Y-103484491D01*
X136697896Y-103477920D01*
X136702105Y-103474771D01*
X136702341Y-103474724D01*
X136701327Y-103477177D01*
G37*
G36*
X136057519Y-103545143D02*
G01*
X136063492Y-103549029D01*
X136083225Y-103560714D01*
X136107940Y-103573451D01*
X136135124Y-103586090D01*
X136162260Y-103597486D01*
X136186836Y-103606490D01*
X136195088Y-103609078D01*
X136208726Y-103613326D01*
X136217890Y-103616654D01*
X136221381Y-103618597D01*
X136220480Y-103618907D01*
X136213356Y-103617756D01*
X136201054Y-103614633D01*
X136185782Y-103610120D01*
X136179462Y-103608098D01*
X136160010Y-103600936D01*
X136137960Y-103591545D01*
X136115145Y-103580837D01*
X136093398Y-103569725D01*
X136074551Y-103559124D01*
X136060438Y-103549946D01*
X136056408Y-103546774D01*
X136051165Y-103542034D01*
X136051414Y-103541452D01*
X136057519Y-103545143D01*
G37*
G36*
X136835725Y-97702048D02*
G01*
X136835967Y-97711563D01*
X136836206Y-97728339D01*
X136836441Y-97752099D01*
X136836672Y-97782568D01*
X136836898Y-97819468D01*
X136837118Y-97862524D01*
X136837331Y-97911459D01*
X136837537Y-97965998D01*
X136837735Y-98025864D01*
X136837923Y-98090781D01*
X136838102Y-98160472D01*
X136838270Y-98234662D01*
X136838427Y-98313074D01*
X136838572Y-98395431D01*
X136838704Y-98481459D01*
X136838822Y-98570880D01*
X136838926Y-98663419D01*
X136839014Y-98758799D01*
X136839087Y-98856743D01*
X136839142Y-98956977D01*
X136839164Y-99008629D01*
X136839197Y-99110194D01*
X136839222Y-99209740D01*
X136839239Y-99306983D01*
X136839247Y-99401640D01*
X136839247Y-99493429D01*
X136839239Y-99582066D01*
X136839223Y-99667269D01*
X136839199Y-99748753D01*
X136839169Y-99826236D01*
X136839131Y-99899434D01*
X136839086Y-99968065D01*
X136839034Y-100031846D01*
X136838976Y-100090493D01*
X136838911Y-100143723D01*
X136838840Y-100191254D01*
X136838763Y-100232801D01*
X136838680Y-100268083D01*
X136838592Y-100296815D01*
X136838498Y-100318714D01*
X136838399Y-100333498D01*
X136838295Y-100340884D01*
X136838245Y-100341719D01*
X136837163Y-100338168D01*
X136835701Y-100328876D01*
X136834232Y-100316342D01*
X136828207Y-100279509D01*
X136817765Y-100239507D01*
X136803784Y-100198913D01*
X136787140Y-100160302D01*
X136770410Y-100129041D01*
X136734883Y-100077172D01*
X136693935Y-100030521D01*
X136648097Y-99989491D01*
X136597904Y-99954486D01*
X136543886Y-99925908D01*
X136486578Y-99904161D01*
X136464890Y-99897989D01*
X136404282Y-99886083D01*
X136344098Y-99881667D01*
X136284858Y-99884419D01*
X136227080Y-99894020D01*
X136171283Y-99910150D01*
X136117986Y-99932487D01*
X136067709Y-99960713D01*
X136020969Y-99994506D01*
X135978287Y-100033546D01*
X135940181Y-100077512D01*
X135907170Y-100126086D01*
X135879773Y-100178945D01*
X135858508Y-100235771D01*
X135847233Y-100279215D01*
X135846582Y-100282114D01*
X135845972Y-100284353D01*
X135845402Y-100285690D01*
X135844870Y-100285887D01*
X135844376Y-100284702D01*
X135843917Y-100281896D01*
X135843492Y-100277228D01*
X135843101Y-100270458D01*
X135842741Y-100261347D01*
X135842412Y-100249654D01*
X135842112Y-100235138D01*
X135841840Y-100217560D01*
X135841594Y-100196679D01*
X135841373Y-100172256D01*
X135841175Y-100144050D01*
X135841000Y-100111821D01*
X135840846Y-100075329D01*
X135840712Y-100034333D01*
X135840596Y-99988594D01*
X135840497Y-99937871D01*
X135840414Y-99881924D01*
X135840345Y-99820513D01*
X135840289Y-99753398D01*
X135840245Y-99680339D01*
X135840211Y-99601095D01*
X135840186Y-99515427D01*
X135840168Y-99423093D01*
X135840157Y-99323855D01*
X135840151Y-99217471D01*
X135840148Y-99103702D01*
X135840147Y-99009606D01*
X135840148Y-98889905D01*
X135840152Y-98777777D01*
X135840159Y-98672981D01*
X135840171Y-98575279D01*
X135840190Y-98484428D01*
X135840217Y-98400189D01*
X135840254Y-98322323D01*
X135840300Y-98250588D01*
X135840359Y-98184745D01*
X135840431Y-98124554D01*
X135840518Y-98069774D01*
X135840620Y-98020165D01*
X135840740Y-97975487D01*
X135840878Y-97935500D01*
X135841037Y-97899963D01*
X135841217Y-97868637D01*
X135841419Y-97841282D01*
X135841645Y-97817656D01*
X135841897Y-97797521D01*
X135842176Y-97780635D01*
X135842482Y-97766759D01*
X135842818Y-97755653D01*
X135843184Y-97747076D01*
X135843583Y-97740788D01*
X135844014Y-97736550D01*
X135844481Y-97734120D01*
X135844984Y-97733258D01*
X135845524Y-97733726D01*
X135846102Y-97735281D01*
X135846721Y-97737685D01*
X135847233Y-97739997D01*
X135863794Y-97799501D01*
X135887158Y-97855807D01*
X135916852Y-97908421D01*
X135952405Y-97956847D01*
X135993347Y-98000590D01*
X136039206Y-98039155D01*
X136089510Y-98072047D01*
X136143788Y-98098770D01*
X136201570Y-98118831D01*
X136210069Y-98121121D01*
X136270982Y-98133034D01*
X136332226Y-98137415D01*
X136393113Y-98134398D01*
X136452953Y-98124120D01*
X136511059Y-98106715D01*
X136566739Y-98082317D01*
X136619306Y-98051061D01*
X136638475Y-98037298D01*
X136685374Y-97997108D01*
X136726841Y-97951726D01*
X136762465Y-97901856D01*
X136791836Y-97848199D01*
X136814544Y-97791459D01*
X136830177Y-97732339D01*
X136835482Y-97700069D01*
X136835725Y-97702048D01*
G37*
G36*
X138969731Y-97137740D02*
G01*
X139028073Y-97148177D01*
X139084716Y-97165735D01*
X139126909Y-97184237D01*
X139180486Y-97215287D01*
X139229357Y-97252379D01*
X139273184Y-97295075D01*
X139311628Y-97342940D01*
X139344350Y-97395534D01*
X139371011Y-97452423D01*
X139391271Y-97513167D01*
X139395797Y-97530999D01*
X139404120Y-97566158D01*
X139406148Y-99222441D01*
X139408177Y-100878723D01*
X140200821Y-99179469D01*
X140251962Y-99069837D01*
X140302332Y-98961868D01*
X140351827Y-98855784D01*
X140400344Y-98751807D01*
X140447777Y-98650159D01*
X140494025Y-98551062D01*
X140538982Y-98454737D01*
X140582546Y-98361408D01*
X140624612Y-98271297D01*
X140665078Y-98184624D01*
X140703838Y-98101613D01*
X140740790Y-98022485D01*
X140775829Y-97947463D01*
X140808853Y-97876768D01*
X140839756Y-97810622D01*
X140868437Y-97749249D01*
X140894790Y-97692869D01*
X140918712Y-97641705D01*
X140940099Y-97595979D01*
X140958849Y-97555912D01*
X140974856Y-97521728D01*
X140988017Y-97493648D01*
X140998229Y-97471894D01*
X141005388Y-97456688D01*
X141009390Y-97448252D01*
X141010082Y-97446825D01*
X141037105Y-97398299D01*
X141068246Y-97353690D01*
X141105023Y-97310908D01*
X141120929Y-97294561D01*
X141152128Y-97264922D01*
X141181483Y-97240422D01*
X141211144Y-97219485D01*
X141243264Y-97200536D01*
X141264438Y-97189552D01*
X141321784Y-97165037D01*
X141379687Y-97147990D01*
X141437635Y-97138198D01*
X141495113Y-97135449D01*
X141551607Y-97139533D01*
X141606604Y-97150237D01*
X141659590Y-97167351D01*
X141710050Y-97190661D01*
X141757472Y-97219958D01*
X141801340Y-97255028D01*
X141841141Y-97295662D01*
X141876362Y-97341646D01*
X141906488Y-97392770D01*
X141931005Y-97448822D01*
X141937182Y-97466542D01*
X141953153Y-97527275D01*
X141962056Y-97590051D01*
X141963925Y-97653745D01*
X141958793Y-97717230D01*
X141946692Y-97779380D01*
X141927658Y-97839067D01*
X141926074Y-97843106D01*
X141923883Y-97848006D01*
X141918486Y-97859776D01*
X141909979Y-97878208D01*
X141898460Y-97903091D01*
X141884028Y-97934216D01*
X141866778Y-97971375D01*
X141846810Y-98014356D01*
X141824221Y-98062952D01*
X141799108Y-98116953D01*
X141771569Y-98176149D01*
X141741702Y-98240331D01*
X141709604Y-98309289D01*
X141675374Y-98382815D01*
X141639108Y-98460699D01*
X141600904Y-98542732D01*
X141560860Y-98628703D01*
X141519074Y-98718405D01*
X141475643Y-98811627D01*
X141430665Y-98908160D01*
X141384238Y-99007795D01*
X141336458Y-99110323D01*
X141287425Y-99215533D01*
X141237234Y-99323217D01*
X141185985Y-99433166D01*
X141133775Y-99545169D01*
X141080701Y-99659018D01*
X141026861Y-99774504D01*
X140972353Y-99891416D01*
X140917274Y-100009545D01*
X140861722Y-100128683D01*
X140805795Y-100248620D01*
X140749590Y-100369146D01*
X140693204Y-100490052D01*
X140636737Y-100611129D01*
X140580284Y-100732167D01*
X140523944Y-100852957D01*
X140467815Y-100973290D01*
X140411994Y-101092956D01*
X140356578Y-101211746D01*
X140301666Y-101329450D01*
X140247355Y-101445860D01*
X140193743Y-101560765D01*
X140140927Y-101673957D01*
X140089005Y-101785226D01*
X140038074Y-101894363D01*
X139988233Y-102001158D01*
X139939579Y-102105402D01*
X139892209Y-102206886D01*
X139846221Y-102305399D01*
X139801714Y-102400734D01*
X139758783Y-102492681D01*
X139717528Y-102581029D01*
X139678045Y-102665570D01*
X139640433Y-102746095D01*
X139604789Y-102822394D01*
X139571211Y-102894258D01*
X139539796Y-102961477D01*
X139510642Y-103023842D01*
X139483846Y-103081144D01*
X139459507Y-103133172D01*
X139437722Y-103179719D01*
X139418588Y-103220575D01*
X139402203Y-103255529D01*
X139388666Y-103284374D01*
X139378072Y-103306899D01*
X139370521Y-103322895D01*
X139366110Y-103332153D01*
X139365162Y-103334091D01*
X139332884Y-103390496D01*
X139295434Y-103442109D01*
X139253349Y-103488372D01*
X139207169Y-103528727D01*
X139157432Y-103562617D01*
X139129488Y-103577932D01*
X139079718Y-103599124D01*
X139025679Y-103615153D01*
X138969200Y-103625745D01*
X138912106Y-103630622D01*
X138856226Y-103629510D01*
X138818051Y-103624894D01*
X138760298Y-103611301D01*
X138704983Y-103590610D01*
X138652656Y-103563305D01*
X138603867Y-103529868D01*
X138559167Y-103490784D01*
X138519105Y-103446536D01*
X138484232Y-103397607D01*
X138455098Y-103344481D01*
X138432252Y-103287641D01*
X138431412Y-103285099D01*
X138429142Y-103278372D01*
X138427012Y-103272315D01*
X138425017Y-103266677D01*
X138423153Y-103261206D01*
X138421415Y-103255650D01*
X138419799Y-103249756D01*
X138418301Y-103243273D01*
X138416916Y-103235948D01*
X138415640Y-103227529D01*
X138414469Y-103217764D01*
X138413397Y-103206402D01*
X138412421Y-103193189D01*
X138411536Y-103177874D01*
X138410738Y-103160205D01*
X138410023Y-103139929D01*
X138409386Y-103116795D01*
X138408822Y-103090551D01*
X138408327Y-103060943D01*
X138407897Y-103027721D01*
X138407528Y-102990632D01*
X138407215Y-102949424D01*
X138406953Y-102903844D01*
X138406739Y-102853642D01*
X138406567Y-102798564D01*
X138406434Y-102738359D01*
X138406334Y-102672774D01*
X138406265Y-102601558D01*
X138406220Y-102524458D01*
X138406197Y-102441222D01*
X138406190Y-102351598D01*
X138406195Y-102255334D01*
X138406207Y-102152178D01*
X138406223Y-102041878D01*
X138406237Y-101924181D01*
X138406244Y-101843263D01*
X138406327Y-100523371D01*
X138415355Y-100548943D01*
X138439298Y-100605314D01*
X138469756Y-100657960D01*
X138506166Y-100706362D01*
X138547963Y-100750000D01*
X138594584Y-100788355D01*
X138645465Y-100820907D01*
X138700042Y-100847137D01*
X138757751Y-100866525D01*
X138761008Y-100867383D01*
X138821642Y-100879270D01*
X138882094Y-100883657D01*
X138941793Y-100880824D01*
X139000169Y-100871049D01*
X139056652Y-100854611D01*
X139110671Y-100831789D01*
X139161657Y-100802860D01*
X139209038Y-100768104D01*
X139252246Y-100727799D01*
X139290709Y-100682224D01*
X139323858Y-100631657D01*
X139349667Y-100579809D01*
X139370348Y-100521816D01*
X139383613Y-100462391D01*
X139389548Y-100402229D01*
X139388237Y-100342030D01*
X139379764Y-100282489D01*
X139364214Y-100224305D01*
X139341670Y-100168173D01*
X139312218Y-100114793D01*
X139289437Y-100081937D01*
X139248932Y-100034600D01*
X139203359Y-99992897D01*
X139153322Y-99957236D01*
X139099425Y-99928022D01*
X139042271Y-99905661D01*
X139015828Y-99897989D01*
X138955895Y-99886338D01*
X138894856Y-99882008D01*
X138833751Y-99884926D01*
X138773620Y-99895014D01*
X138715502Y-99912197D01*
X138691541Y-99921683D01*
X138637012Y-99949204D01*
X138586338Y-99983183D01*
X138540112Y-100022988D01*
X138498929Y-100067984D01*
X138463382Y-100117536D01*
X138434065Y-100171012D01*
X138415376Y-100216531D01*
X138406369Y-100242104D01*
X138405289Y-100064462D01*
X138404209Y-99886821D01*
X137607433Y-101594653D01*
X137556300Y-101704245D01*
X137505997Y-101812044D01*
X137456625Y-101917833D01*
X137408285Y-102021397D01*
X137361076Y-102122520D01*
X137315102Y-102220987D01*
X137270461Y-102316583D01*
X137227255Y-102409091D01*
X137185585Y-102498295D01*
X137145551Y-102583981D01*
X137107254Y-102665933D01*
X137070796Y-102743935D01*
X137036277Y-102817771D01*
X137003797Y-102887226D01*
X136973458Y-102952084D01*
X136945360Y-103012130D01*
X136919604Y-103067147D01*
X136896292Y-103116921D01*
X136875523Y-103161235D01*
X136857399Y-103199875D01*
X136842020Y-103232624D01*
X136829487Y-103259267D01*
X136819902Y-103279588D01*
X136813364Y-103293372D01*
X136809975Y-103300402D01*
X136809491Y-103301318D01*
X136809993Y-103297305D01*
X136812592Y-103288447D01*
X136814481Y-103282939D01*
X136818105Y-103271297D01*
X136822549Y-103254836D01*
X136827063Y-103236391D01*
X136828827Y-103228615D01*
X136833197Y-103202090D01*
X136836031Y-103170618D01*
X136837312Y-103136568D01*
X136837023Y-103102307D01*
X136835145Y-103070205D01*
X136831663Y-103042629D01*
X136830228Y-103035244D01*
X136812831Y-102972083D01*
X136789012Y-102913214D01*
X136759052Y-102858921D01*
X136723235Y-102809486D01*
X136681842Y-102765190D01*
X136635155Y-102726317D01*
X136583459Y-102693149D01*
X136527034Y-102665968D01*
X136466163Y-102645057D01*
X136431431Y-102636447D01*
X136412070Y-102633152D01*
X136389133Y-102631009D01*
X136361065Y-102629907D01*
X136337675Y-102629695D01*
X136303210Y-102630253D01*
X136273925Y-102632198D01*
X136247247Y-102635928D01*
X136220605Y-102641846D01*
X136191429Y-102650353D01*
X136178697Y-102654495D01*
X136121736Y-102677459D01*
X136068589Y-102706956D01*
X136019715Y-102742465D01*
X135975575Y-102783464D01*
X135936627Y-102829429D01*
X135903331Y-102879839D01*
X135876147Y-102934172D01*
X135855534Y-102991904D01*
X135845414Y-103033291D01*
X135844938Y-103034624D01*
X135844491Y-103033567D01*
X135844072Y-103029900D01*
X135843681Y-103023404D01*
X135843316Y-103013860D01*
X135842977Y-103001049D01*
X135842663Y-102984751D01*
X135842373Y-102964746D01*
X135842106Y-102940816D01*
X135841861Y-102912741D01*
X135841638Y-102880302D01*
X135841435Y-102843280D01*
X135841251Y-102801455D01*
X135841086Y-102754607D01*
X135840939Y-102702518D01*
X135840809Y-102644969D01*
X135840695Y-102581739D01*
X135840595Y-102512609D01*
X135840510Y-102437361D01*
X135840439Y-102355775D01*
X135840379Y-102267632D01*
X135840331Y-102172711D01*
X135840294Y-102070795D01*
X135840267Y-101961663D01*
X135840248Y-101845096D01*
X135840240Y-101755869D01*
X135840232Y-101636167D01*
X135840227Y-101524039D01*
X135840227Y-101419244D01*
X135840233Y-101321541D01*
X135840245Y-101230690D01*
X135840266Y-101146451D01*
X135840297Y-101068585D01*
X135840339Y-100996850D01*
X135840393Y-100931007D01*
X135840461Y-100870815D01*
X135840543Y-100816035D01*
X135840643Y-100766426D01*
X135840759Y-100721748D01*
X135840895Y-100681761D01*
X135841051Y-100646225D01*
X135841228Y-100614899D01*
X135841429Y-100587544D01*
X135841653Y-100563919D01*
X135841904Y-100543784D01*
X135842181Y-100526899D01*
X135842486Y-100513023D01*
X135842821Y-100501917D01*
X135843187Y-100493341D01*
X135843585Y-100487054D01*
X135844017Y-100482816D01*
X135844483Y-100480387D01*
X135844985Y-100479526D01*
X135845525Y-100479995D01*
X135846104Y-100481551D01*
X135846723Y-100483956D01*
X135847233Y-100486259D01*
X135863812Y-100545833D01*
X135887196Y-100602185D01*
X135916917Y-100654826D01*
X135952508Y-100703264D01*
X135993502Y-100747009D01*
X136039431Y-100785571D01*
X136089829Y-100818459D01*
X136144226Y-100845182D01*
X136202157Y-100865251D01*
X136210460Y-100867485D01*
X136271438Y-100879437D01*
X136332260Y-100883821D01*
X136392361Y-100880871D01*
X136451173Y-100870820D01*
X136508130Y-100853903D01*
X136562664Y-100830353D01*
X136614210Y-100800405D01*
X136662199Y-100764292D01*
X136706065Y-100722248D01*
X136745242Y-100674507D01*
X136770410Y-100636433D01*
X136788635Y-100601980D01*
X136805126Y-100562962D01*
X136818984Y-100522009D01*
X136829312Y-100481752D01*
X136834968Y-100447194D01*
X136835495Y-100446302D01*
X136836054Y-100452633D01*
X136836631Y-100465598D01*
X136837212Y-100484607D01*
X136837783Y-100509069D01*
X136838331Y-100538396D01*
X136838840Y-100571998D01*
X136839298Y-100609285D01*
X136839659Y-100646087D01*
X136841612Y-100870372D01*
X137632248Y-99175294D01*
X137683364Y-99065711D01*
X137733727Y-98957758D01*
X137783233Y-98851656D01*
X137831777Y-98747631D01*
X137879255Y-98645905D01*
X137925561Y-98546704D01*
X137970592Y-98450251D01*
X138014242Y-98356769D01*
X138056407Y-98266484D01*
X138096981Y-98179618D01*
X138135862Y-98096396D01*
X138172943Y-98017041D01*
X138208120Y-97941778D01*
X138241289Y-97870830D01*
X138272344Y-97804421D01*
X138301182Y-97742776D01*
X138327697Y-97686118D01*
X138351785Y-97634671D01*
X138373341Y-97588658D01*
X138392261Y-97548305D01*
X138408439Y-97513835D01*
X138421772Y-97485471D01*
X138432154Y-97463438D01*
X138439481Y-97447959D01*
X138443648Y-97439259D01*
X138444344Y-97437852D01*
X138455690Y-97416447D01*
X138468887Y-97393073D01*
X138481958Y-97371168D01*
X138489206Y-97359722D01*
X138506361Y-97336195D01*
X138528098Y-97310450D01*
X138552664Y-97284273D01*
X138578302Y-97259451D01*
X138603259Y-97237768D01*
X138624925Y-97221580D01*
X138678114Y-97190442D01*
X138733989Y-97166097D01*
X138791819Y-97148600D01*
X138850873Y-97138006D01*
X138910421Y-97134367D01*
X138969731Y-97137740D01*
G37*
%TO.C,U1*%
X103514960Y-117914590D02*
X131914959Y-117914590D01*
X103514961Y-69994590D02*
X103514960Y-117914590D01*
X131914959Y-117914590D02*
X131914960Y-69994590D01*
X131914960Y-69994590D02*
X103514961Y-69994590D01*
%TO.C,J11*%
X180452294Y-76833588D02*
X180452294Y-78163588D01*
X179122294Y-76833588D02*
X180452294Y-76833588D01*
X177852294Y-76833588D02*
X170172294Y-76833588D01*
X177852294Y-76833588D02*
X177852294Y-79493588D01*
X170172294Y-76833588D02*
X170172294Y-79493588D01*
X177852294Y-79493588D02*
X170172294Y-79493588D01*
%TO.C,R5*%
X126386053Y-85291002D02*
X126386053Y-84836874D01*
X127856053Y-85291002D02*
X127856053Y-84836874D01*
%TO.C,J2*%
X106540564Y-125583440D02*
X105210564Y-125583440D01*
X106540564Y-124253440D02*
X106540564Y-125583440D01*
X106540564Y-122983440D02*
X106540564Y-120383440D01*
X106540564Y-122983440D02*
X103880564Y-122983440D01*
X106540564Y-120383440D02*
X103880564Y-120383440D01*
X103880564Y-122983440D02*
X103880564Y-120383440D01*
%TO.C,J9*%
X180429849Y-84094371D02*
X180429849Y-85424371D01*
X179099849Y-84094371D02*
X180429849Y-84094371D01*
X177829849Y-84094371D02*
X170149849Y-84094371D01*
X177829849Y-84094371D02*
X177829849Y-86754371D01*
X170149849Y-84094371D02*
X170149849Y-86754371D01*
X177829849Y-86754371D02*
X170149849Y-86754371D01*
%TO.C,J10*%
X180438103Y-80479581D02*
X180438103Y-81809581D01*
X179108103Y-80479581D02*
X180438103Y-80479581D01*
X177838103Y-80479581D02*
X170158103Y-80479581D01*
X177838103Y-80479581D02*
X177838103Y-83139581D01*
X170158103Y-80479581D02*
X170158103Y-83139581D01*
X177838103Y-83139581D02*
X170158103Y-83139581D01*
%TO.C,J1*%
X132498553Y-96473938D02*
X133828553Y-96473938D01*
X132498553Y-97803938D02*
X132498553Y-96473938D01*
X132498553Y-99073938D02*
X132498553Y-106753938D01*
X132498553Y-99073938D02*
X135158553Y-99073938D01*
X132498553Y-106753938D02*
X135158553Y-106753938D01*
X135158553Y-99073938D02*
X135158553Y-106753938D01*
%TO.C,A3*%
X166500000Y-77893320D02*
X165100000Y-77893320D01*
X163830000Y-77893320D02*
X145920000Y-77893320D01*
X145920000Y-77893320D02*
X145920000Y-93393320D01*
X166500000Y-79293320D02*
X166500000Y-77893320D01*
X166500000Y-80563320D02*
X163830000Y-80563320D01*
X163830000Y-80563320D02*
X163830000Y-77893320D01*
X163830000Y-80563320D02*
X145920000Y-80563320D01*
X166500000Y-90723320D02*
X145920000Y-90723320D01*
X166500000Y-93393320D02*
X166500000Y-80563320D01*
X145920000Y-93393320D02*
X166500000Y-93393320D01*
D13*
%TO.C,U2*%
X107506202Y-87388018D02*
X122746202Y-87388018D01*
X107506202Y-107708018D02*
X107506202Y-87388018D01*
X122746202Y-87388018D02*
X122746202Y-107708018D01*
X122746202Y-107708018D02*
X107506202Y-107708018D01*
D14*
X106826202Y-88098018D02*
G75*
G03*
X106826202Y-88098018I-100000J0D01*
G01*
D12*
%TO.C,J14*%
X146303172Y-129152422D02*
X146303172Y-127822422D01*
X147633172Y-129152422D02*
X146303172Y-129152422D01*
X148903172Y-129152422D02*
X159123172Y-129152422D01*
X148903172Y-129152422D02*
X148903172Y-126492422D01*
X159123172Y-129152422D02*
X159123172Y-126492422D01*
X148903172Y-126492422D02*
X159123172Y-126492422D01*
%TO.C,R2*%
X126369034Y-77686883D02*
X126369034Y-77232755D01*
X127839034Y-77686883D02*
X127839034Y-77232755D01*
%TO.C,U6*%
X107340672Y-82952760D02*
X124780672Y-82952760D01*
X107340672Y-85952760D02*
X107340672Y-82952760D01*
X109710672Y-82952760D02*
X109710672Y-85952760D01*
X124780672Y-82952760D02*
X124780672Y-85952760D01*
X124780672Y-85952760D02*
X107340672Y-85952760D01*
%TD*%
M02*
