%TF.GenerationSoftware,KiCad,Pcbnew,(7.0.0)*%
%TF.CreationDate,2023-05-23T21:52:26+07:00*%
%TF.ProjectId,bottom_keyboard_pcb,626f7474-6f6d-45f6-9b65-79626f617264,rev?*%
%TF.SameCoordinates,Original*%
%TF.FileFunction,Copper,L2,Bot*%
%TF.FilePolarity,Positive*%
%FSLAX46Y46*%
G04 Gerber Fmt 4.6, Leading zero omitted, Abs format (unit mm)*
G04 Created by KiCad (PCBNEW (7.0.0)) date 2023-05-23 21:52:26*
%MOMM*%
%LPD*%
G01*
G04 APERTURE LIST*
%TA.AperFunction,ComponentPad*%
%ADD10C,2.200000*%
%TD*%
%TA.AperFunction,ComponentPad*%
%ADD11R,2.200000X2.200000*%
%TD*%
%TA.AperFunction,ComponentPad*%
%ADD12O,2.200000X2.200000*%
%TD*%
%TA.AperFunction,ComponentPad*%
%ADD13R,1.700000X1.700000*%
%TD*%
%TA.AperFunction,ComponentPad*%
%ADD14O,1.700000X1.700000*%
%TD*%
%TA.AperFunction,Conductor*%
%ADD15C,0.400000*%
%TD*%
G04 APERTURE END LIST*
D10*
%TO.P,SW3,1,A*%
%TO.N,/MATRIX_O1*%
X165605515Y-91408023D03*
%TO.P,SW3,2,B*%
%TO.N,Net-(D2-A)*%
X170605515Y-93508023D03*
%TD*%
%TO.P,SW2,1,A*%
%TO.N,/MATRIX_O1*%
X113795261Y-91442103D03*
%TO.P,SW2,2,B*%
%TO.N,Net-(D1-A)*%
X118795261Y-93542103D03*
%TD*%
%TO.P,SW1,1,A*%
%TO.N,/MATRIX_O1*%
X139740000Y-91500000D03*
%TO.P,SW1,2,B*%
%TO.N,Net-(D3-A)*%
X144740000Y-93600000D03*
%TD*%
D11*
%TO.P,D3,1,K*%
%TO.N,Net-(D3-K)*%
X149859999Y-102652182D03*
D12*
%TO.P,D3,2,A*%
%TO.N,Net-(D3-A)*%
X149859999Y-97572182D03*
%TD*%
D11*
%TO.P,D2,1,K*%
%TO.N,Net-(D2-K)*%
X175259999Y-102869999D03*
D12*
%TO.P,D2,2,A*%
%TO.N,Net-(D2-A)*%
X175259999Y-97789999D03*
%TD*%
D13*
%TO.P,J1,1,Pin_1*%
%TO.N,Net-(D2-K)*%
X104139999Y-102859999D03*
D14*
%TO.P,J1,2,Pin_2*%
%TO.N,Net-(D1-K)*%
X104139999Y-100319999D03*
%TO.P,J1,3,Pin_3*%
%TO.N,Net-(D3-K)*%
X104139999Y-97779999D03*
%TO.P,J1,4,Pin_4*%
%TO.N,/MATRIX_O1*%
X104139999Y-95239999D03*
%TD*%
D11*
%TO.P,D1,1,K*%
%TO.N,Net-(D1-K)*%
X124459999Y-102869999D03*
D12*
%TO.P,D1,2,A*%
%TO.N,Net-(D1-A)*%
X124459999Y-97789999D03*
%TD*%
D15*
%TO.N,Net-(D2-A)*%
X173648023Y-93508023D02*
X175260000Y-95120000D01*
X175260000Y-95120000D02*
X175260000Y-97790000D01*
X170605515Y-93508023D02*
X173648023Y-93508023D01*
%TO.N,Net-(D3-A)*%
X148240000Y-93600000D02*
X149860000Y-95220000D01*
X144740000Y-93600000D02*
X148240000Y-93600000D01*
X149860000Y-95220000D02*
X149860000Y-97572183D01*
%TO.N,Net-(D1-A)*%
X124460000Y-95320000D02*
X124460000Y-97790000D01*
X122682103Y-93542103D02*
X124460000Y-95320000D01*
X118795261Y-93542103D02*
X122682103Y-93542103D01*
%TO.N,/MATRIX_O1*%
X164597493Y-90400001D02*
X165605515Y-91408023D01*
X140839999Y-90400001D02*
X164597493Y-90400001D01*
X139740000Y-91500000D02*
X140839999Y-90400001D01*
X138582104Y-90342104D02*
X139740000Y-91500000D01*
X114895260Y-90342104D02*
X138582104Y-90342104D01*
X113795261Y-91442103D02*
X114895260Y-90342104D01*
X107937897Y-91442103D02*
X113795261Y-91442103D01*
X104140000Y-95240000D02*
X107937897Y-91442103D01*
%TO.N,Net-(D1-K)*%
X121910000Y-100320000D02*
X104140000Y-100320000D01*
X124460000Y-102870000D02*
X121910000Y-100320000D01*
%TO.N,Net-(D2-K)*%
X173677817Y-104452183D02*
X105732183Y-104452183D01*
X175260000Y-102870000D02*
X173677817Y-104452183D01*
X105732183Y-104452183D02*
X104140000Y-102860000D01*
%TO.N,Net-(D3-K)*%
X116840000Y-96605887D02*
X115234113Y-95000000D01*
X149860000Y-102652183D02*
X146797817Y-99590000D01*
X146797817Y-99590000D02*
X118640000Y-99590000D01*
X118640000Y-99590000D02*
X116840000Y-97790000D01*
X116840000Y-97790000D02*
X116840000Y-96605887D01*
X115234113Y-95000000D02*
X106920000Y-95000000D01*
X106920000Y-95000000D02*
X104140000Y-97780000D01*
%TD*%
M02*
