%TF.GenerationSoftware,KiCad,Pcbnew,(7.0.0)*%
%TF.CreationDate,2023-05-23T21:52:26+07:00*%
%TF.ProjectId,bottom_keyboard_pcb,626f7474-6f6d-45f6-9b65-79626f617264,rev?*%
%TF.SameCoordinates,Original*%
%TF.FileFunction,Legend,Top*%
%TF.FilePolarity,Positive*%
%FSLAX46Y46*%
G04 Gerber Fmt 4.6, Leading zero omitted, Abs format (unit mm)*
G04 Created by KiCad (PCBNEW (7.0.0)) date 2023-05-23 21:52:26*
%MOMM*%
%LPD*%
G01*
G04 APERTURE LIST*
%ADD10C,0.150000*%
%ADD11C,0.120000*%
G04 APERTURE END LIST*
D10*
%TO.C,SW3*%
X164272182Y-88627784D02*
X164415039Y-88675403D01*
X164415039Y-88675403D02*
X164653134Y-88675403D01*
X164653134Y-88675403D02*
X164748372Y-88627784D01*
X164748372Y-88627784D02*
X164795991Y-88580165D01*
X164795991Y-88580165D02*
X164843610Y-88484927D01*
X164843610Y-88484927D02*
X164843610Y-88389689D01*
X164843610Y-88389689D02*
X164795991Y-88294451D01*
X164795991Y-88294451D02*
X164748372Y-88246832D01*
X164748372Y-88246832D02*
X164653134Y-88199213D01*
X164653134Y-88199213D02*
X164462658Y-88151594D01*
X164462658Y-88151594D02*
X164367420Y-88103975D01*
X164367420Y-88103975D02*
X164319801Y-88056356D01*
X164319801Y-88056356D02*
X164272182Y-87961118D01*
X164272182Y-87961118D02*
X164272182Y-87865880D01*
X164272182Y-87865880D02*
X164319801Y-87770642D01*
X164319801Y-87770642D02*
X164367420Y-87723023D01*
X164367420Y-87723023D02*
X164462658Y-87675403D01*
X164462658Y-87675403D02*
X164700753Y-87675403D01*
X164700753Y-87675403D02*
X164843610Y-87723023D01*
X165176944Y-87675403D02*
X165415039Y-88675403D01*
X165415039Y-88675403D02*
X165605515Y-87961118D01*
X165605515Y-87961118D02*
X165795991Y-88675403D01*
X165795991Y-88675403D02*
X166034087Y-87675403D01*
X166319801Y-87675403D02*
X166938848Y-87675403D01*
X166938848Y-87675403D02*
X166605515Y-88056356D01*
X166605515Y-88056356D02*
X166748372Y-88056356D01*
X166748372Y-88056356D02*
X166843610Y-88103975D01*
X166843610Y-88103975D02*
X166891229Y-88151594D01*
X166891229Y-88151594D02*
X166938848Y-88246832D01*
X166938848Y-88246832D02*
X166938848Y-88484927D01*
X166938848Y-88484927D02*
X166891229Y-88580165D01*
X166891229Y-88580165D02*
X166843610Y-88627784D01*
X166843610Y-88627784D02*
X166748372Y-88675403D01*
X166748372Y-88675403D02*
X166462658Y-88675403D01*
X166462658Y-88675403D02*
X166367420Y-88627784D01*
X166367420Y-88627784D02*
X166319801Y-88580165D01*
%TO.C,SW2*%
X112461928Y-88661864D02*
X112604785Y-88709483D01*
X112604785Y-88709483D02*
X112842880Y-88709483D01*
X112842880Y-88709483D02*
X112938118Y-88661864D01*
X112938118Y-88661864D02*
X112985737Y-88614245D01*
X112985737Y-88614245D02*
X113033356Y-88519007D01*
X113033356Y-88519007D02*
X113033356Y-88423769D01*
X113033356Y-88423769D02*
X112985737Y-88328531D01*
X112985737Y-88328531D02*
X112938118Y-88280912D01*
X112938118Y-88280912D02*
X112842880Y-88233293D01*
X112842880Y-88233293D02*
X112652404Y-88185674D01*
X112652404Y-88185674D02*
X112557166Y-88138055D01*
X112557166Y-88138055D02*
X112509547Y-88090436D01*
X112509547Y-88090436D02*
X112461928Y-87995198D01*
X112461928Y-87995198D02*
X112461928Y-87899960D01*
X112461928Y-87899960D02*
X112509547Y-87804722D01*
X112509547Y-87804722D02*
X112557166Y-87757103D01*
X112557166Y-87757103D02*
X112652404Y-87709483D01*
X112652404Y-87709483D02*
X112890499Y-87709483D01*
X112890499Y-87709483D02*
X113033356Y-87757103D01*
X113366690Y-87709483D02*
X113604785Y-88709483D01*
X113604785Y-88709483D02*
X113795261Y-87995198D01*
X113795261Y-87995198D02*
X113985737Y-88709483D01*
X113985737Y-88709483D02*
X114223833Y-87709483D01*
X114557166Y-87804722D02*
X114604785Y-87757103D01*
X114604785Y-87757103D02*
X114700023Y-87709483D01*
X114700023Y-87709483D02*
X114938118Y-87709483D01*
X114938118Y-87709483D02*
X115033356Y-87757103D01*
X115033356Y-87757103D02*
X115080975Y-87804722D01*
X115080975Y-87804722D02*
X115128594Y-87899960D01*
X115128594Y-87899960D02*
X115128594Y-87995198D01*
X115128594Y-87995198D02*
X115080975Y-88138055D01*
X115080975Y-88138055D02*
X114509547Y-88709483D01*
X114509547Y-88709483D02*
X115128594Y-88709483D01*
%TO.C,SW1*%
X138406667Y-88719761D02*
X138549524Y-88767380D01*
X138549524Y-88767380D02*
X138787619Y-88767380D01*
X138787619Y-88767380D02*
X138882857Y-88719761D01*
X138882857Y-88719761D02*
X138930476Y-88672142D01*
X138930476Y-88672142D02*
X138978095Y-88576904D01*
X138978095Y-88576904D02*
X138978095Y-88481666D01*
X138978095Y-88481666D02*
X138930476Y-88386428D01*
X138930476Y-88386428D02*
X138882857Y-88338809D01*
X138882857Y-88338809D02*
X138787619Y-88291190D01*
X138787619Y-88291190D02*
X138597143Y-88243571D01*
X138597143Y-88243571D02*
X138501905Y-88195952D01*
X138501905Y-88195952D02*
X138454286Y-88148333D01*
X138454286Y-88148333D02*
X138406667Y-88053095D01*
X138406667Y-88053095D02*
X138406667Y-87957857D01*
X138406667Y-87957857D02*
X138454286Y-87862619D01*
X138454286Y-87862619D02*
X138501905Y-87815000D01*
X138501905Y-87815000D02*
X138597143Y-87767380D01*
X138597143Y-87767380D02*
X138835238Y-87767380D01*
X138835238Y-87767380D02*
X138978095Y-87815000D01*
X139311429Y-87767380D02*
X139549524Y-88767380D01*
X139549524Y-88767380D02*
X139740000Y-88053095D01*
X139740000Y-88053095D02*
X139930476Y-88767380D01*
X139930476Y-88767380D02*
X140168572Y-87767380D01*
X141073333Y-88767380D02*
X140501905Y-88767380D01*
X140787619Y-88767380D02*
X140787619Y-87767380D01*
X140787619Y-87767380D02*
X140692381Y-87910238D01*
X140692381Y-87910238D02*
X140597143Y-88005476D01*
X140597143Y-88005476D02*
X140501905Y-88053095D01*
%TO.C,H1*%
X128778095Y-98157380D02*
X128778095Y-97157380D01*
X128778095Y-97633571D02*
X129349523Y-97633571D01*
X129349523Y-98157380D02*
X129349523Y-97157380D01*
X130349523Y-98157380D02*
X129778095Y-98157380D01*
X130063809Y-98157380D02*
X130063809Y-97157380D01*
X130063809Y-97157380D02*
X129968571Y-97300238D01*
X129968571Y-97300238D02*
X129873333Y-97395476D01*
X129873333Y-97395476D02*
X129778095Y-97443095D01*
%TO.C,H2*%
X154178095Y-98157380D02*
X154178095Y-97157380D01*
X154178095Y-97633571D02*
X154749523Y-97633571D01*
X154749523Y-98157380D02*
X154749523Y-97157380D01*
X155178095Y-97252619D02*
X155225714Y-97205000D01*
X155225714Y-97205000D02*
X155320952Y-97157380D01*
X155320952Y-97157380D02*
X155559047Y-97157380D01*
X155559047Y-97157380D02*
X155654285Y-97205000D01*
X155654285Y-97205000D02*
X155701904Y-97252619D01*
X155701904Y-97252619D02*
X155749523Y-97347857D01*
X155749523Y-97347857D02*
X155749523Y-97443095D01*
X155749523Y-97443095D02*
X155701904Y-97585952D01*
X155701904Y-97585952D02*
X155130476Y-98157380D01*
X155130476Y-98157380D02*
X155749523Y-98157380D01*
%TO.C,D3*%
X152767380Y-103608094D02*
X151767380Y-103608094D01*
X151767380Y-103608094D02*
X151767380Y-103369999D01*
X151767380Y-103369999D02*
X151815000Y-103227142D01*
X151815000Y-103227142D02*
X151910238Y-103131904D01*
X151910238Y-103131904D02*
X152005476Y-103084285D01*
X152005476Y-103084285D02*
X152195952Y-103036666D01*
X152195952Y-103036666D02*
X152338809Y-103036666D01*
X152338809Y-103036666D02*
X152529285Y-103084285D01*
X152529285Y-103084285D02*
X152624523Y-103131904D01*
X152624523Y-103131904D02*
X152719761Y-103227142D01*
X152719761Y-103227142D02*
X152767380Y-103369999D01*
X152767380Y-103369999D02*
X152767380Y-103608094D01*
X151767380Y-102703332D02*
X151767380Y-102084285D01*
X151767380Y-102084285D02*
X152148333Y-102417618D01*
X152148333Y-102417618D02*
X152148333Y-102274761D01*
X152148333Y-102274761D02*
X152195952Y-102179523D01*
X152195952Y-102179523D02*
X152243571Y-102131904D01*
X152243571Y-102131904D02*
X152338809Y-102084285D01*
X152338809Y-102084285D02*
X152576904Y-102084285D01*
X152576904Y-102084285D02*
X152672142Y-102131904D01*
X152672142Y-102131904D02*
X152719761Y-102179523D01*
X152719761Y-102179523D02*
X152767380Y-102274761D01*
X152767380Y-102274761D02*
X152767380Y-102560475D01*
X152767380Y-102560475D02*
X152719761Y-102655713D01*
X152719761Y-102655713D02*
X152672142Y-102703332D01*
X151041666Y-99610277D02*
X151041666Y-99134087D01*
X151327380Y-99705515D02*
X150327380Y-99372182D01*
X150327380Y-99372182D02*
X151327380Y-99038849D01*
%TO.C,D2*%
X174357380Y-101068094D02*
X173357380Y-101068094D01*
X173357380Y-101068094D02*
X173357380Y-100829999D01*
X173357380Y-100829999D02*
X173405000Y-100687142D01*
X173405000Y-100687142D02*
X173500238Y-100591904D01*
X173500238Y-100591904D02*
X173595476Y-100544285D01*
X173595476Y-100544285D02*
X173785952Y-100496666D01*
X173785952Y-100496666D02*
X173928809Y-100496666D01*
X173928809Y-100496666D02*
X174119285Y-100544285D01*
X174119285Y-100544285D02*
X174214523Y-100591904D01*
X174214523Y-100591904D02*
X174309761Y-100687142D01*
X174309761Y-100687142D02*
X174357380Y-100829999D01*
X174357380Y-100829999D02*
X174357380Y-101068094D01*
X173452619Y-100115713D02*
X173405000Y-100068094D01*
X173405000Y-100068094D02*
X173357380Y-99972856D01*
X173357380Y-99972856D02*
X173357380Y-99734761D01*
X173357380Y-99734761D02*
X173405000Y-99639523D01*
X173405000Y-99639523D02*
X173452619Y-99591904D01*
X173452619Y-99591904D02*
X173547857Y-99544285D01*
X173547857Y-99544285D02*
X173643095Y-99544285D01*
X173643095Y-99544285D02*
X173785952Y-99591904D01*
X173785952Y-99591904D02*
X174357380Y-100163332D01*
X174357380Y-100163332D02*
X174357380Y-99544285D01*
X176441666Y-99828094D02*
X176441666Y-99351904D01*
X176727380Y-99923332D02*
X175727380Y-99589999D01*
X175727380Y-99589999D02*
X176727380Y-99256666D01*
%TO.C,J1*%
X103806666Y-92077380D02*
X103806666Y-92791666D01*
X103806666Y-92791666D02*
X103759047Y-92934523D01*
X103759047Y-92934523D02*
X103663809Y-93029761D01*
X103663809Y-93029761D02*
X103520952Y-93077380D01*
X103520952Y-93077380D02*
X103425714Y-93077380D01*
X104806666Y-93077380D02*
X104235238Y-93077380D01*
X104520952Y-93077380D02*
X104520952Y-92077380D01*
X104520952Y-92077380D02*
X104425714Y-92220238D01*
X104425714Y-92220238D02*
X104330476Y-92315476D01*
X104330476Y-92315476D02*
X104235238Y-92363095D01*
%TO.C,D1*%
X127367380Y-103608094D02*
X126367380Y-103608094D01*
X126367380Y-103608094D02*
X126367380Y-103369999D01*
X126367380Y-103369999D02*
X126415000Y-103227142D01*
X126415000Y-103227142D02*
X126510238Y-103131904D01*
X126510238Y-103131904D02*
X126605476Y-103084285D01*
X126605476Y-103084285D02*
X126795952Y-103036666D01*
X126795952Y-103036666D02*
X126938809Y-103036666D01*
X126938809Y-103036666D02*
X127129285Y-103084285D01*
X127129285Y-103084285D02*
X127224523Y-103131904D01*
X127224523Y-103131904D02*
X127319761Y-103227142D01*
X127319761Y-103227142D02*
X127367380Y-103369999D01*
X127367380Y-103369999D02*
X127367380Y-103608094D01*
X127367380Y-102084285D02*
X127367380Y-102655713D01*
X127367380Y-102369999D02*
X126367380Y-102369999D01*
X126367380Y-102369999D02*
X126510238Y-102465237D01*
X126510238Y-102465237D02*
X126605476Y-102560475D01*
X126605476Y-102560475D02*
X126653095Y-102655713D01*
X125641666Y-99828094D02*
X125641666Y-99351904D01*
X125927380Y-99923332D02*
X124927380Y-99589999D01*
X124927380Y-99589999D02*
X125927380Y-99256666D01*
D11*
%TO.C,SW3*%
X158005515Y-89708023D02*
X158005515Y-104908023D01*
X158005515Y-104908023D02*
X173205515Y-104908023D01*
X173205515Y-104908023D02*
X173205515Y-89708023D01*
X173205515Y-89708023D02*
X158005515Y-89708023D01*
%TO.C,SW2*%
X106195261Y-89742103D02*
X106195261Y-104942103D01*
X106195261Y-104942103D02*
X121395261Y-104942103D01*
X121395261Y-104942103D02*
X121395261Y-89742103D01*
X121395261Y-89742103D02*
X106195261Y-89742103D01*
%TO.C,SW1*%
X132140000Y-89800000D02*
X132140000Y-105000000D01*
X132140000Y-105000000D02*
X147340000Y-105000000D01*
X147340000Y-105000000D02*
X147340000Y-89800000D01*
X147340000Y-89800000D02*
X132140000Y-89800000D01*
%TO.C,D3*%
X149860000Y-100901548D02*
X149860000Y-98972183D01*
X151610635Y-102652183D02*
G75*
G03*
X151610635Y-102652183I-1750635J0D01*
G01*
%TO.C,D2*%
X175260000Y-101119365D02*
X175260000Y-99190000D01*
X177010635Y-102870000D02*
G75*
G03*
X177010635Y-102870000I-1750635J0D01*
G01*
%TO.C,J1*%
X105470000Y-104190000D02*
X104140000Y-104190000D01*
X105470000Y-102860000D02*
X105470000Y-104190000D01*
X105470000Y-101590000D02*
X105470000Y-93910000D01*
X105470000Y-101590000D02*
X102810000Y-101590000D01*
X105470000Y-93910000D02*
X102810000Y-93910000D01*
X102810000Y-101590000D02*
X102810000Y-93910000D01*
%TO.C,D1*%
X124460000Y-101119365D02*
X124460000Y-99190000D01*
X126210635Y-102870000D02*
G75*
G03*
X126210635Y-102870000I-1750635J0D01*
G01*
%TD*%
M02*
